<svg width="1721" height="844" viewBox="0 0 1721 844" fill="none" xmlns="http://www.w3.org/2000/svg">
<rect x="2.4485" y="2.79198" width="1716.02" height="839.419" rx="65.5" transform="rotate(-0.0285417 2.4485 2.79198)" fill="#B394FF" stroke="black" stroke-width="3"/>
<path d="M1652.51 2.39599C1688.69 2.37797 1718.03 31.6887 1718.04 67.8633L1718.4 776.282C1718.41 812.457 1689.1 841.797 1652.93 841.815L861.919 842.209L861.501 2.79002L1652.51 2.39599Z" fill="#B5D8FF" stroke="black" stroke-width="3"/>
<ellipse cx="1284.06" cy="367.976" rx="346.868" ry="243.159" transform="rotate(-24.1991 1284.06 367.976)" fill="#84B5EC"/>
<ellipse cx="1290" cy="760.5" rx="391" ry="48.5" fill="#84B5EC"/>
<g clip-path="url(#clip0_588_1474)">
<path d="M1014.09 649.322V754.306H1167.38H1336.43V649.322H1014.09Z" fill="#F5F5F5" stroke="black" stroke-miterlimit="10"/>
<path d="M1000.57 619.965V649.322H1347.71V619.965H1167.38H1000.57Z" fill="#E1E1E1" stroke="black" stroke-miterlimit="10"/>
<path d="M1174.14 754.306H1336.43V649.322H1347.71V619.965H1167.38V646.604L1174.14 754.306Z" fill="#E1E1E1" stroke="black" stroke-miterlimit="10"/>
<path d="M1124.55 666.248H1059.18V682.05H1124.55V666.248Z" fill="#E1E1E1" stroke="black" stroke-miterlimit="10"/>
<path d="M1134.71 701.808H1050.76V735.178H1134.71V701.808Z" fill="white" stroke="black" stroke-miterlimit="10"/>
<path d="M1063.69 515.119V620.103H1216.97H1386.03V515.119H1063.69Z" fill="#F5F5F5" stroke="black" stroke-miterlimit="10"/>
<path d="M1050.17 485.763V515.119H1397.3V485.763H1216.97H1050.17Z" fill="#E1E1E1" stroke="black" stroke-miterlimit="10"/>
<path d="M1223.73 620.103H1386.03V515.119H1397.3V485.763H1216.97V512.401L1223.73 620.103Z" fill="#E1E1E1" stroke="black" stroke-miterlimit="10"/>
<path d="M1174.15 532.045H1108.77V547.847H1174.15V532.045Z" fill="#E1E1E1" stroke="black" stroke-miterlimit="10"/>
<path d="M1184.3 567.605H1100.36V600.976H1184.3V567.605Z" fill="white" stroke="black" stroke-miterlimit="10"/>
<path d="M1063.17 723.217C1063.21 723.562 1063.27 723.906 1063.36 724.238C1063.38 724.341 1063.46 724.467 1063.56 724.433C1063.64 724.399 1063.66 724.284 1063.64 724.204C1063.6 723.86 1063.55 723.516 1063.51 723.16" fill="#94D6FF"/>
<path d="M1046.83 657.131C1048.31 664.31 1059.32 716.475 1059.32 716.475L1064.73 715.317L1052.7 655.95C1052.39 654.39 1050.92 653.347 1049.36 653.553C1047.64 653.783 1046.47 655.434 1046.83 657.131Z" fill="#B394FF"/>
<path d="M1047.88 654.861L1047.25 650.962C1047.12 650.205 1047.63 649.471 1048.38 649.322C1049.18 649.161 1049.95 649.7 1050.08 650.514L1050.66 654.299L1047.88 654.861Z" fill="#B394FF"/>
<path d="M1053.79 661.432C1053.8 661.546 1052.55 661.81 1050.98 662.028C1049.41 662.246 1048.13 662.326 1048.12 662.211C1048.11 662.097 1049.36 661.833 1050.92 661.615C1052.49 661.397 1053.77 661.317 1053.79 661.432Z" fill="#94D6FF"/>
<path d="M1048.14 668.828C1048.14 668.828 1047.75 667.876 1047.31 666.271C1046.86 664.665 1046.32 662.429 1045.88 659.929C1045.65 658.691 1045.43 657.441 1045.74 656.305C1046.04 655.182 1046.79 654.367 1047.54 653.943C1048.29 653.507 1049 653.427 1049.47 653.439C1049.95 653.45 1050.19 653.542 1050.19 653.565C1050.19 653.599 1049.93 653.565 1049.48 653.599C1049.04 653.633 1048.37 653.76 1047.7 654.195C1047.03 654.62 1046.37 655.388 1046.12 656.409C1045.85 657.429 1046.07 658.622 1046.3 659.86C1046.75 662.349 1047.24 664.585 1047.6 666.202C1047.97 667.819 1048.21 668.816 1048.15 668.839L1048.14 668.828Z" fill="#94D6FF"/>
<path d="M1059.32 716.463C1059.32 716.463 1062.26 723.653 1063.37 723.424C1064.63 723.172 1064.73 715.305 1064.73 715.305L1059.32 716.463Z" fill="#B394FF"/>
<path d="M1064.54 715.534C1064.54 715.534 1063.32 715.42 1061.86 715.683C1060.39 715.924 1059.31 716.498 1059.28 716.452C1059.28 716.44 1059.53 716.268 1059.98 716.073C1060.43 715.878 1061.08 715.66 1061.82 715.523C1062.57 715.397 1063.25 715.385 1063.75 715.42C1064.24 715.454 1064.54 715.523 1064.54 715.534Z" fill="#94D6FF"/>
<path d="M1063.17 731.841C1063.09 732.173 1063.05 732.517 1063.03 732.861C1063.03 732.965 1063.05 733.114 1063.16 733.114C1063.25 733.114 1063.29 732.999 1063.31 732.919C1063.38 732.575 1063.45 732.231 1063.52 731.887" fill="#94D6FF"/>
<path d="M1068.9 664C1068.01 671.282 1061.67 724.215 1061.67 724.215L1067.18 724.857L1074.84 664.768C1075.05 663.197 1074.01 661.729 1072.45 661.431C1070.74 661.099 1069.12 662.28 1068.9 664.011V664Z" fill="#B394FF"/>
<path d="M1070.63 662.188L1071.28 658.289C1071.41 657.532 1072.12 657.005 1072.88 657.108C1073.68 657.211 1074.25 657.98 1074.1 658.771L1073.43 662.544L1070.62 662.188H1070.63Z" fill="#B394FF"/>
<path d="M1074.11 670.318C1074.09 670.433 1072.81 670.284 1071.26 669.986C1069.7 669.688 1068.46 669.355 1068.49 669.24C1068.51 669.126 1069.78 669.275 1071.34 669.573C1072.88 669.871 1074.13 670.204 1074.11 670.318Z" fill="#94D6FF"/>
<path d="M1066.39 675.502C1066.39 675.502 1066.32 674.469 1066.43 672.807C1066.52 671.144 1066.74 668.862 1067.11 666.351C1067.3 665.112 1067.49 663.851 1068.14 662.876C1068.78 661.901 1069.77 661.374 1070.6 661.213C1071.45 661.041 1072.16 661.202 1072.6 661.362C1073.04 661.534 1073.25 661.695 1073.24 661.718C1073.23 661.752 1072.99 661.637 1072.55 661.523C1072.12 661.42 1071.44 661.316 1070.67 661.523C1069.91 661.706 1069.04 662.222 1068.48 663.105C1067.9 663.988 1067.72 665.181 1067.54 666.431C1067.16 668.931 1066.91 671.201 1066.74 672.853C1066.56 674.504 1066.47 675.525 1066.4 675.525L1066.39 675.502Z" fill="#94D6FF"/>
<path d="M1061.67 724.204C1061.67 724.204 1062.16 731.956 1063.28 732.105C1064.56 732.265 1067.18 724.857 1067.18 724.857L1061.67 724.215V724.204Z" fill="#B394FF"/>
<path d="M1066.93 725.006C1066.93 725.006 1065.82 724.502 1064.34 724.284C1062.88 724.043 1061.66 724.226 1061.66 724.181C1061.66 724.158 1061.96 724.089 1062.45 724.054C1062.95 724.009 1063.63 724.02 1064.38 724.135C1065.12 724.249 1065.77 724.467 1066.23 724.651C1066.69 724.846 1066.95 725.006 1066.94 725.018L1066.93 725.006Z" fill="#94D6FF"/>
<path d="M1082.98 722.025C1082.96 722.369 1082.97 722.713 1083 723.057C1083.02 723.161 1083.07 723.298 1083.18 723.287C1083.27 723.275 1083.29 723.161 1083.29 723.069C1083.29 722.725 1083.31 722.369 1083.32 722.025" fill="#94D6FF"/>
<path d="M1077.57 654.149C1077.87 661.477 1080.26 714.732 1080.26 714.732L1085.79 714.468L1083.54 653.932C1083.5 652.349 1082.21 651.076 1080.63 651.03C1078.89 650.984 1077.49 652.418 1077.55 654.149H1077.57Z" fill="#B394FF"/>
<path d="M1078.97 652.086V648.129C1078.99 647.361 1079.6 646.73 1080.37 646.696C1081.18 646.673 1081.85 647.327 1081.85 648.141L1081.81 651.971L1078.99 652.074L1078.97 652.086Z" fill="#B394FF"/>
<path d="M1083.73 659.528C1083.73 659.643 1082.44 659.7 1080.86 659.666C1079.28 659.62 1078 659.494 1078.01 659.379C1078.01 659.264 1079.29 659.207 1080.87 659.241C1082.45 659.287 1083.74 659.413 1083.73 659.528Z" fill="#94D6FF"/>
<path d="M1076.97 665.915C1076.97 665.915 1076.74 664.906 1076.56 663.255C1076.39 661.604 1076.21 659.31 1076.18 656.776C1076.16 655.526 1076.15 654.242 1076.63 653.175C1077.11 652.109 1077.98 651.432 1078.78 651.134C1079.59 650.824 1080.31 650.87 1080.77 650.95C1081.24 651.042 1081.47 651.168 1081.46 651.191C1081.46 651.226 1081.19 651.145 1080.75 651.111C1080.3 651.077 1079.63 651.088 1078.89 651.409C1078.17 651.719 1077.39 652.372 1076.98 653.336C1076.56 654.299 1076.57 655.514 1076.6 656.776C1076.64 659.299 1076.76 661.592 1076.86 663.243C1076.96 664.895 1077.03 665.927 1076.97 665.927V665.915Z" fill="#94D6FF"/>
<path d="M1080.26 714.732C1080.26 714.732 1082 722.301 1083.12 722.255C1084.41 722.209 1085.79 714.468 1085.79 714.468L1080.26 714.732Z" fill="#B394FF"/>
<path d="M1085.57 714.663C1085.57 714.663 1084.39 714.354 1082.9 714.365C1081.41 714.365 1080.24 714.755 1080.23 714.698C1080.23 714.675 1080.51 714.56 1080.99 714.445C1081.47 714.319 1082.15 714.216 1082.9 714.205C1083.66 714.205 1084.33 714.296 1084.81 714.411C1085.29 714.526 1085.58 714.64 1085.57 714.663Z" fill="#94D6FF"/>
<path d="M1043.84 757.425L1037.59 690.513H1094.88L1089.16 757.184L1043.84 757.425Z" fill="#FFB0B0" stroke="black" stroke-miterlimit="10"/>
<path d="M1093.09 712.496C1093.09 712.782 1081.15 713.012 1066.41 713.012C1051.68 713.012 1039.74 712.782 1039.74 712.496C1039.74 712.209 1051.68 711.979 1066.41 711.979C1081.15 711.979 1093.09 712.209 1093.09 712.496Z" fill="#94D6FF" stroke="black" stroke-miterlimit="10"/>
<path d="M1092.4 718.654C1092.4 718.94 1080.61 719.17 1066.07 719.17C1051.53 719.17 1039.74 718.94 1039.74 718.654C1039.74 718.367 1051.53 718.138 1066.07 718.138C1080.61 718.138 1092.4 718.367 1092.4 718.654Z" fill="#94D6FF" stroke="black" stroke-miterlimit="10"/>
<path d="M1092.4 726.199C1092.4 726.486 1080.77 726.715 1066.41 726.715C1052.06 726.715 1040.43 726.486 1040.43 726.199C1040.43 725.912 1052.06 725.683 1066.41 725.683C1080.77 725.683 1092.4 725.912 1092.4 726.199Z" fill="#94D6FF" stroke="black" stroke-miterlimit="10"/>
<path d="M1109.54 745.132H1326.04C1329.26 745.132 1331.88 747.758 1331.88 750.98V757.287H1103.7V750.98C1103.7 747.758 1106.32 745.132 1109.54 745.132Z" fill="#B394FF" stroke="black" stroke-miterlimit="10"/>
<path d="M1578.43 392.865H1177.59V676.603H1578.43V392.865Z" fill="#B394FF" stroke="black" stroke-miterlimit="10"/>
<path d="M1442.6 605.918H1341.58V757.024H1442.6V605.918Z" fill="#B394FF" stroke="black" stroke-miterlimit="10"/>
<path d="M1443.88 566.986C1443.87 566.906 1444.84 567.032 1446.49 566.424C1448.07 565.862 1450.52 564.245 1451.38 561C1451.6 560.197 1451.66 559.349 1451.63 558.408C1451.63 557.48 1451.61 556.493 1451.6 555.473C1451.56 553.489 1450.66 551.345 1448.9 549.831C1448.03 549.074 1446.94 548.512 1445.76 548.214C1444.58 547.893 1443.27 548.008 1441.91 547.996C1439.2 548.008 1436.34 548.019 1433.34 548.031C1409.24 548.065 1376.06 548.122 1339.41 548.18C1337.26 548.18 1335.15 549.154 1333.77 550.76C1332.32 552.388 1331.8 554.487 1331.94 556.711C1331.96 557.824 1331.89 558.982 1332 559.98C1332.14 561.012 1332.5 561.998 1333.03 562.881C1334.11 564.647 1335.92 565.92 1337.91 566.31C1338.88 566.527 1339.94 566.447 1341.03 566.459C1342.1 566.459 1343.17 566.459 1344.22 566.459C1346.34 566.459 1348.44 566.459 1350.53 566.459C1354.68 566.459 1358.76 566.47 1362.73 566.482C1378.61 566.527 1392.92 566.562 1404.97 566.596C1416.94 566.665 1426.65 566.722 1433.44 566.757C1436.75 566.803 1439.35 566.826 1441.18 566.849C1442.02 566.871 1442.69 566.883 1443.19 566.894C1443.65 566.917 1443.88 566.929 1443.88 566.952C1443.88 566.975 1443.65 566.986 1443.19 567.009C1442.69 567.02 1442.03 567.043 1441.18 567.055C1439.35 567.078 1436.75 567.112 1433.44 567.147C1426.65 567.181 1416.94 567.238 1404.97 567.307C1392.92 567.342 1378.62 567.376 1362.73 567.422C1358.76 567.422 1354.68 567.422 1350.53 567.445C1348.44 567.445 1346.35 567.445 1344.22 567.445C1343.16 567.445 1342.09 567.445 1341.03 567.445C1339.98 567.422 1338.86 567.525 1337.71 567.284C1335.44 566.837 1333.39 565.404 1332.16 563.397C1331.55 562.399 1331.15 561.264 1330.98 560.094C1330.85 558.89 1330.92 557.812 1330.89 556.688C1330.73 554.464 1331.33 551.849 1332.97 550.072C1334.53 548.237 1336.94 547.125 1339.38 547.136C1376.02 547.193 1409.21 547.251 1433.3 547.285C1436.3 547.297 1439.16 547.308 1441.88 547.32C1443.21 547.342 1444.57 547.239 1445.87 547.595C1447.16 547.927 1448.32 548.547 1449.24 549.372C1451.12 551.012 1452.04 553.328 1452.06 555.438C1452.06 556.459 1452.06 557.445 1452.04 558.386C1452.06 559.314 1451.99 560.255 1451.74 561.08C1450.76 564.475 1448.16 566.08 1446.53 566.596C1445.68 566.883 1444.99 566.952 1444.53 566.975C1444.08 566.975 1443.85 566.975 1443.85 566.952L1443.88 566.986Z" stroke="black" stroke-miterlimit="10"/>
<path d="M1323.1 86.8354H1022.41V356.284H1323.1V86.8354Z" fill="#FAFAFA"/>
<path d="M1323.09 356.285C1323.09 356.285 1323.03 354.553 1323 351.285C1322.98 347.971 1322.96 343.143 1322.92 336.848C1322.88 324.188 1322.82 305.702 1322.74 282.148C1322.65 235.063 1322.52 167.807 1322.38 86.8474L1323.09 87.5584C1236.49 87.5928 1133.15 87.6386 1022.43 87.6845H1022.41L1023.24 86.8474C1023.21 184.871 1023.17 277.114 1023.14 356.296L1022.41 355.563C1112.1 355.712 1187.18 355.849 1239.88 355.941C1266.24 356.021 1287 356.09 1301.22 356.136C1308.29 356.17 1313.74 356.205 1317.46 356.228C1319.28 356.251 1320.67 356.262 1321.65 356.273C1322.6 356.285 1323.1 356.319 1323.1 356.319C1323.1 356.319 1322.65 356.342 1321.73 356.365C1320.77 356.365 1319.41 356.388 1317.62 356.411C1313.94 356.434 1308.55 356.457 1301.53 356.503C1287.34 356.549 1266.64 356.618 1240.36 356.698C1187.54 356.79 1112.3 356.916 1022.42 357.076H1021.68V356.331C1021.65 277.16 1021.62 184.916 1021.58 86.8818V86.0447H1022.42H1022.44C1133.16 86.0905 1236.5 86.1364 1323.1 86.1708H1323.81V86.8818C1323.66 168.025 1323.53 235.453 1323.44 282.641C1323.36 306.127 1323.3 324.566 1323.26 337.18C1323.22 343.419 1323.19 348.2 1323.18 351.48C1323.15 354.702 1323.1 356.331 1323.1 356.331L1323.09 356.285Z" fill="#94D6FF"/>
<path d="M1323.09 356.284C1323.09 356.284 1323.04 354.553 1323.01 351.285C1322.98 347.982 1322.96 343.143 1322.93 336.847C1322.88 324.199 1322.82 305.702 1322.75 282.148C1322.67 235.074 1322.55 167.795 1322.4 86.8354L1323.09 87.5235C1236.49 87.5579 1133.15 87.6037 1022.43 87.6496H1022.41L1023.21 86.8469C1023.17 184.87 1023.14 277.114 1023.12 356.296L1022.41 355.585C1112.11 355.734 1187.19 355.86 1239.89 355.94C1266.25 356.021 1287.01 356.09 1301.23 356.124C1308.31 356.158 1313.75 356.193 1317.46 356.204C1319.28 356.227 1320.67 356.239 1321.65 356.25C1322.59 356.262 1323.1 356.296 1323.1 356.296C1323.1 356.296 1322.65 356.319 1321.73 356.342C1320.77 356.342 1319.41 356.365 1317.62 356.376C1313.94 356.399 1308.55 356.422 1301.53 356.456C1287.35 356.502 1266.64 356.56 1240.35 356.64C1187.53 356.732 1112.3 356.846 1022.42 356.995H1021.71V356.284C1021.68 277.114 1021.65 184.87 1021.62 86.8354V86.0327H1022.42H1022.44C1133.16 86.0786 1236.5 86.1245 1323.1 86.1589H1323.78V86.8469C1323.64 167.99 1323.52 235.407 1323.43 282.595C1323.35 306.08 1323.29 324.52 1323.26 337.134C1323.22 343.372 1323.2 348.166 1323.18 351.445C1323.15 354.668 1323.1 356.296 1323.1 356.296L1323.09 356.284Z" fill="black"/>
<path d="M1137.69 134.712C1137.69 135.159 1121.87 135.514 1102.35 135.514C1082.83 135.514 1067 135.159 1067 134.712C1067 134.264 1082.82 133.909 1102.35 133.909C1121.88 133.909 1137.69 134.264 1137.69 134.712Z" fill="black"/>
<path d="M1265.1 154.94C1265.1 155.387 1221.61 155.743 1168 155.743C1114.39 155.743 1070.89 155.387 1070.89 154.94C1070.89 154.493 1114.36 154.137 1168 154.137C1221.64 154.137 1265.1 154.493 1265.1 154.94Z" fill="#94D6FF" stroke="black" stroke-miterlimit="10"/>
<path d="M1080.18 189.216H1067.51V201.899H1080.18V189.216Z" fill="#94D6FF"/>
<path d="M1111.36 189.216H1098.7V201.899H1111.36V189.216Z" fill="#94D6FF"/>
<path d="M1143.12 188.643H1130.46V201.326H1143.12V188.643Z" fill="#FFB0B0"/>
<path d="M1173.72 189.216H1161.06V201.899H1173.72V189.216Z" fill="#94D6FF"/>
<path d="M1204.91 189.216H1192.25V201.899H1204.91V189.216Z" fill="#94D6FF"/>
<path d="M1236.1 189.216H1223.43V201.899H1236.1V189.216Z" fill="#94D6FF"/>
<path d="M1267.27 189.216H1254.61V201.899H1267.27V189.216Z" fill="#94D6FF"/>
<path d="M1080.18 216.188H1067.51V228.87H1080.18V216.188Z" fill="#94D6FF"/>
<path d="M1111.36 216.188H1098.7V228.87H1111.36V216.188Z" fill="#94D6FF"/>
<path d="M1142.55 216.188H1129.89V228.87H1142.55V216.188Z" fill="#94D6FF"/>
<path d="M1173.72 216.188H1161.06V228.87H1173.72V216.188Z" fill="#94D6FF"/>
<path d="M1204.91 216.188H1192.25V228.87H1204.91V216.188Z" fill="#94D6FF"/>
<path d="M1236.67 215.614H1224.01V228.297H1236.67V215.614Z" fill="#FFB0B0"/>
<path d="M1267.27 216.188H1254.61V228.87H1267.27V216.188Z" fill="#94D6FF"/>
<path d="M1080.18 243.159H1067.51V255.842H1080.18V243.159Z" fill="#94D6FF"/>
<path d="M1111.93 242.585H1099.27V255.268H1111.93V242.585Z" fill="#FFB0B0"/>
<path d="M1142.55 243.159H1129.89V255.842H1142.55V243.159Z" fill="#94D6FF"/>
<path d="M1173.72 243.159H1161.06V255.842H1173.72V243.159Z" fill="#94D6FF"/>
<path d="M1204.91 243.159H1192.25V255.842H1204.91V243.159Z" fill="#94D6FF"/>
<path d="M1236.1 243.159H1223.43V255.842H1236.1V243.159Z" fill="#94D6FF"/>
<path d="M1267.27 243.159H1254.61V255.842H1267.27V243.159Z" fill="#94D6FF"/>
<path d="M1080.18 270.142H1067.51V282.825H1080.18V270.142Z" fill="#94D6FF"/>
<path d="M1111.36 270.142H1098.7V282.825H1111.36V270.142Z" fill="#94D6FF"/>
<path d="M1142.55 270.142H1129.89V282.825H1142.55V270.142Z" fill="#94D6FF"/>
<path d="M1174.31 269.568H1161.65V282.251H1174.31V269.568Z" fill="#FFB0B0"/>
<path d="M1204.91 270.142H1192.25V282.825H1204.91V270.142Z" fill="#94D6FF"/>
<path d="M1236.1 270.142H1223.43V282.825H1236.1V270.142Z" fill="#94D6FF"/>
<path d="M1267.27 270.142H1254.61V282.825H1267.27V270.142Z" fill="#94D6FF"/>
<path d="M1080.18 297.113H1067.51V309.796H1080.18V297.113Z" fill="#94D6FF"/>
<path d="M1111.36 297.113H1098.7V309.796H1111.36V297.113Z" fill="#94D6FF"/>
<path d="M1142.55 297.113H1129.89V309.796H1142.55V297.113Z" fill="#94D6FF"/>
<path d="M1173.72 297.113H1161.06V309.796H1173.72V297.113Z" fill="#94D6FF"/>
<path d="M1204.91 297.113H1192.25V309.796H1204.91V297.113Z" fill="#94D6FF"/>
<path d="M1236.67 296.54H1224.01V309.222H1236.67V296.54Z" fill="#FFB0B0"/>
<path d="M1267.27 297.113H1254.61V309.796H1267.27V297.113Z" fill="#94D6FF"/>
</g>
<defs>
<clipPath id="clip0_588_1474">
<rect width="579" height="672" fill="white" transform="translate(1000 85.9983)"/>
</clipPath>
</defs>
</svg>
