<svg width="227" height="88" viewBox="0 0 227 88" fill="none" xmlns="http://www.w3.org/2000/svg">
<rect x="1.5" y="1.5" width="224" height="85" rx="42.5" fill="black" stroke="black" stroke-width="3"/>
<path d="M56.2199 48.1C56.2199 46.7 56.5299 45.46 57.1499 44.38C57.7899 43.3 58.6499 42.45 59.7299 41.83C60.8099 41.21 62.0199 40.9 63.3599 40.9C64.7199 40.9 65.9299 41.21 66.9899 41.83C68.0699 42.45 68.9199 43.3 69.5399 44.38C70.1799 45.46 70.4999 46.7 70.4999 48.1C70.4999 49.48 70.1799 50.72 69.5399 51.82C68.9199 52.9 68.0699 53.75 66.9899 54.37C65.9299 54.99 64.7199 55.3 63.3599 55.3C62.0199 55.3 60.8099 54.99 59.7299 54.37C58.6499 53.75 57.7899 52.9 57.1499 51.82C56.5299 50.72 56.2199 49.48 56.2199 48.1ZM58.6499 48.1C58.6499 49.06 58.8499 49.91 59.2499 50.65C59.6699 51.39 60.2299 51.98 60.9299 52.42C61.6499 52.84 62.4599 53.05 63.3599 53.05C64.2599 53.05 65.0599 52.84 65.7599 52.42C66.4799 51.98 67.0399 51.39 67.4399 50.65C67.8599 49.91 68.0699 49.06 68.0699 48.1C68.0699 47.14 67.8599 46.29 67.4399 45.55C67.0399 44.79 66.4799 44.2 65.7599 43.78C65.0599 43.36 64.2599 43.15 63.3599 43.15C62.4599 43.15 61.6499 43.36 60.9299 43.78C60.2299 44.2 59.6699 44.79 59.2499 45.55C58.8499 46.29 58.6499 47.14 58.6499 48.1ZM85.0469 41.2V55H82.6469V43.45H76.1969V55H73.7969V41.2H85.0469ZM91.8086 61.6H89.4086V41.2H91.8086V61.6ZM103.359 48.1C103.359 49.58 103.049 50.86 102.429 51.94C101.809 53.02 100.979 53.85 99.9386 54.43C98.9186 55.01 97.7786 55.3 96.5186 55.3C95.3786 55.3 94.3686 55.01 93.4886 54.43C92.6286 53.85 91.9486 53.02 91.4486 51.94C90.9686 50.86 90.7286 49.58 90.7286 48.1C90.7286 46.6 90.9686 45.32 91.4486 44.26C91.9486 43.18 92.6286 42.35 93.4886 41.77C94.3686 41.19 95.3786 40.9 96.5186 40.9C97.7786 40.9 98.9186 41.19 99.9386 41.77C100.979 42.35 101.809 43.18 102.429 44.26C103.049 45.32 103.359 46.6 103.359 48.1ZM100.929 48.1C100.929 47.04 100.709 46.14 100.269 45.4C99.8486 44.66 99.2786 44.1 98.5586 43.72C97.8586 43.34 97.0786 43.15 96.2186 43.15C95.5186 43.15 94.8286 43.34 94.1486 43.72C93.4686 44.1 92.9086 44.66 92.4686 45.4C92.0286 46.14 91.8086 47.04 91.8086 48.1C91.8086 49.16 92.0286 50.06 92.4686 50.8C92.9086 51.54 93.4686 52.1 94.1486 52.48C94.8286 52.86 95.5186 53.05 96.2186 53.05C97.0786 53.05 97.8586 52.86 98.5586 52.48C99.2786 52.1 99.8486 51.54 100.269 50.8C100.709 50.06 100.929 49.16 100.929 48.1ZM107.748 50.95C107.748 51.43 107.878 51.84 108.138 52.18C108.398 52.5 108.748 52.75 109.188 52.93C109.628 53.09 110.118 53.17 110.658 53.17C111.458 53.17 112.168 53.05 112.788 52.81C113.408 52.57 113.888 52.19 114.228 51.67C114.588 51.15 114.768 50.46 114.768 49.6L115.248 51.1C115.248 51.98 115.008 52.74 114.528 53.38C114.068 54 113.448 54.48 112.668 54.82C111.888 55.14 111.018 55.3 110.058 55.3C109.198 55.3 108.408 55.14 107.688 54.82C106.968 54.5 106.388 54.03 105.948 53.41C105.528 52.77 105.318 51.98 105.318 51.04C105.318 50.06 105.558 49.23 106.038 48.55C106.518 47.87 107.198 47.35 108.078 46.99C108.958 46.61 109.998 46.42 111.198 46.42C112.078 46.42 112.828 46.54 113.448 46.78C114.088 47 114.598 47.26 114.978 47.56C115.358 47.84 115.618 48.07 115.758 48.25V49.66C115.078 49.18 114.388 48.83 113.688 48.61C112.988 48.37 112.198 48.25 111.318 48.25C110.518 48.25 109.848 48.36 109.308 48.58C108.788 48.8 108.398 49.11 108.138 49.51C107.878 49.91 107.748 50.39 107.748 50.95ZM107.748 44.44L106.578 42.61C107.098 42.23 107.798 41.85 108.678 41.47C109.558 41.09 110.618 40.9 111.858 40.9C112.918 40.9 113.838 41.07 114.618 41.41C115.418 41.73 116.038 42.2 116.478 42.82C116.938 43.44 117.168 44.2 117.168 45.1V55H114.768V45.1C114.768 44.4 114.468 43.88 113.868 43.54C113.288 43.18 112.618 43 111.858 43C111.198 43 110.598 43.09 110.058 43.27C109.518 43.43 109.048 43.63 108.648 43.87C108.268 44.09 107.968 44.28 107.748 44.44ZM122.639 47.8H126.629C127.589 47.8 128.449 47.9 129.209 48.1C129.969 48.3 130.569 48.65 131.009 49.15C131.449 49.65 131.669 50.35 131.669 51.25C131.669 52.29 131.319 53.18 130.619 53.92C129.939 54.64 128.809 55 127.229 55H122.639V52.9H126.629C127.529 52.9 128.189 52.71 128.609 52.33C129.049 51.95 129.269 51.49 129.269 50.95C129.269 50.67 129.209 50.42 129.089 50.2C128.989 49.98 128.829 49.78 128.609 49.6C128.409 49.42 128.139 49.29 127.799 49.21C127.479 49.11 127.089 49.06 126.629 49.06H122.639V47.8ZM122.639 48.4V46.99H126.329C126.689 46.99 127.009 46.95 127.289 46.87C127.589 46.77 127.839 46.63 128.039 46.45C128.239 46.27 128.389 46.07 128.489 45.85C128.609 45.61 128.669 45.36 128.669 45.1C128.669 44.56 128.459 44.13 128.039 43.81C127.619 43.47 127.049 43.3 126.329 43.3H122.639V41.2H126.329C127.189 41.2 127.969 41.33 128.669 41.59C129.389 41.83 129.969 42.23 130.409 42.79C130.849 43.33 131.069 44.05 131.069 44.95C131.069 45.73 130.849 46.38 130.409 46.9C129.969 47.4 129.389 47.78 128.669 48.04C127.969 48.28 127.189 48.4 126.329 48.4H122.639ZM121.229 41.2H123.629V55H121.229V41.2ZM146.372 43.6L134.972 56.05L135.122 52.6L146.522 40.15L146.372 43.6ZM137.372 41.2V52.75L134.972 56.05V41.2H137.372ZM146.522 40.15V55H144.122V43.45L146.522 40.15ZM149.07 41.2H157.17V43.45H149.07V41.2ZM151.92 41.8H154.32V55H151.92V41.8ZM159.578 41.2H161.978V55H159.578V41.2ZM160.988 48.52V46.42H165.278C166.698 46.42 167.888 46.77 168.848 47.47C169.828 48.15 170.318 49.23 170.318 50.71C170.318 51.69 170.098 52.5 169.658 53.14C169.218 53.78 168.618 54.25 167.858 54.55C167.098 54.85 166.238 55 165.278 55H160.988V52.9H165.278C165.858 52.9 166.338 52.82 166.718 52.66C167.118 52.48 167.418 52.23 167.618 51.91C167.818 51.57 167.918 51.17 167.918 50.71C167.918 50.01 167.698 49.47 167.258 49.09C166.818 48.71 166.158 48.52 165.278 48.52H160.988Z" fill="white"/>
</svg>
