<svg width="534" height="604" viewBox="0 0 534 604" fill="none" xmlns="http://www.w3.org/2000/svg">
<rect x="2.5" y="2.5" width="529" height="599" rx="12.5" fill="#B5D8FF" stroke="black" stroke-width="5"/>
<mask id="mask0_577_269" style="mask-type:alpha" maskUnits="userSpaceOnUse" x="0" y="0" width="534" height="604">
<rect x="2.5" y="2.5" width="529" height="599" rx="12.5" fill="#BDCEFF" stroke="black" stroke-width="5"/>
</mask>
<g mask="url(#mask0_577_269)">
<g clip-path="url(#clip0_577_269)">
<path d="M355.01 88.33C363.52 88.3 372.64 87.51 381.06 88.48C383.22 88.73 384.82 89.3 386.57 90.64C388.84 92.38 390.16 94.95 390.48 97.77C391.01 102.39 389.2 105.89 386.5 109.46C398.97 129.1 428.28 167.03 428.39 190.21V567.99L428.22 683.81V717.33C428.22 723.36 428.82 730.21 427.71 736.15C426.16 744.48 413.88 761.09 407.75 767.22C399.03 775.94 387.8 782.83 375.86 786.07C360.53 790.23 342.87 788.51 327.08 788.5L272.3 788.47H206.17C191.46 788.47 172.97 790.08 158.88 786.71C147.63 784.01 136.63 777.97 128.15 770.12C116.46 759.3 106.73 742.28 106.18 726.1C105.74 713.17 106.25 700.07 106.26 687.12L106.28 606.45L106.32 361.49L106.26 232.37V200.56C106.26 194.37 105.52 187.39 106.82 181.33C107.88 176.36 110.33 171.54 112.42 166.93C121.85 145.85 134.66 126.46 150.36 109.53C147.57 106.74 145.82 103.71 145.63 99.7C145.48 96.68 146.38 93.69 148.57 91.55C150.19 89.99 152.25 88.98 154.46 88.66C163.22 87.36 173.22 88.36 182.12 88.38C182.12 88.38 335.42 88.39 355.02 88.32L355.01 88.33ZM154.56 91.49C151.75 92.76 149.73 94.21 148.7 97.24C148.09 99.04 148.25 100.86 149.1 102.55C150 104.33 151.52 106.54 153.49 107.23C158.31 108.93 188.05 107.91 195.9 107.94L329.58 107.84L363.32 107.88C369.6 107.9 376.26 108.34 382.49 107.62C385.05 106.33 386.71 104.82 387.53 101.99C388.18 99.76 387.79 97.41 386.56 95.46C385.3 93.47 383.13 92.06 380.84 91.57C376.37 90.61 369.91 91.5 365.25 91.51L322.68 91.57L154.56 91.5V91.49ZM152.97 110.83C134.9 130.47 119.37 154.38 110.1 179.5C200.22 180.53 290.38 179.17 380.51 179.65L423.6 179.62C414.38 155.59 399.16 131.02 382.98 110.95L227.46 111.08L179.41 111C170.63 110.98 161.74 111.26 152.98 110.83H152.97ZM109.25 182.61V383.65C124.74 383.91 140.23 384 155.72 383.94C160.22 383.94 172.91 383.12 176.55 384.32L177.12 385.17C176.83 385.85 176.9 386.17 176.14 386.46C172.75 387.76 117.13 386.7 109.3 386.63L109.26 510.38C117.35 510.38 173.19 509.46 176.53 511.02L176.8 512.04C176.36 512.65 176.35 512.99 175.56 513.13C170.25 514.08 162.44 513.22 156.92 513.2C141.05 513.14 125.08 512.87 109.22 513.3L109.11 657.68C109.12 671.31 107.72 727.17 111.05 736.76L323.46 736.6H391.13C401.42 736.6 411.84 737.01 422.11 736.66C423.58 736.61 423.97 736.71 425.17 735.87L425.22 513.26C418.31 513.22 358.49 513.64 356.88 513.05C356.45 512.89 356.15 512.5 355.79 512.22L355.65 511.23C356.69 510.34 357.38 510.32 358.76 510.24C364.04 509.92 369.58 510.36 374.9 510.29C391.69 510.11 408.48 510.08 425.27 510.2V386.87L380.87 386.74C374.21 386.73 367.18 387.26 360.57 386.76C359.49 386.68 358.62 386.31 357.8 385.6C357.63 385.46 357.49 385.28 357.34 385.13L357.61 384.3C363.43 382.65 415.76 383.82 425.34 383.85L425.44 247.33L425.35 206.31C425.33 198.52 425.58 190.58 425.07 182.81C381.95 181.93 338.7 182.55 295.57 182.55L109.27 182.59L109.25 182.61ZM111.9 739.48C118.52 757.53 130.57 771.64 148.14 779.77C154.21 782.58 161.01 784.66 167.69 785.27C178.83 786.29 190.36 785.79 201.55 785.78L261.85 785.56H326.32C337.86 785.56 349.69 786.1 361.2 785.37C367.63 784.96 373.93 783.84 379.98 781.6C388.83 778.32 396.63 773.24 403.68 767.03C411.85 758.85 417.91 749.89 422.87 739.44L111.89 739.47L111.9 739.48Z" fill="black"/>
<path d="M382.49 107.62C376.25 108.35 369.6 107.9 363.32 107.88L329.58 107.84L195.9 107.94C188.05 107.92 158.3 108.93 153.49 107.23C151.52 106.54 150 104.34 149.1 102.55C148.25 100.86 148.09 99.04 148.7 97.24C149.73 94.2 151.75 92.75 154.56 91.49L322.68 91.56L365.25 91.5C369.9 91.5 376.37 90.6 380.84 91.56C383.14 92.05 385.3 93.46 386.56 95.45C387.79 97.4 388.18 99.75 387.53 101.98C386.71 104.81 385.05 106.32 382.49 107.61V107.62Z" fill="#9FC1C9"/>
<path d="M110.1 179.5C119.37 154.38 134.9 130.47 152.97 110.82C161.73 111.25 170.62 110.97 179.4 110.99L227.45 111.07L382.97 110.94C399.15 131.01 414.37 155.58 423.59 179.61L380.5 179.64C290.37 179.16 200.21 180.53 110.09 179.49L110.1 179.5Z" fill="#D9E9ED"/>
<path d="M109.26 383.66V182.61L295.56 182.57C338.69 182.57 381.94 181.95 425.06 182.83C425.58 190.6 425.32 198.54 425.34 206.33L425.43 247.35L425.33 383.87C415.75 383.83 363.43 382.66 357.6 384.32L357.33 385.15C357.48 385.31 357.63 385.48 357.79 385.62C358.61 386.33 359.48 386.7 360.56 386.78C367.17 387.27 374.2 386.74 380.86 386.76L425.27 386.89V510.22C408.47 510.1 391.68 510.13 374.89 510.31C369.57 510.38 364.03 509.94 358.75 510.26C357.37 510.34 356.68 510.36 355.64 511.25L355.78 512.24C356.14 512.52 356.44 512.91 356.87 513.07C358.48 513.67 418.3 513.24 425.21 513.28L425.16 735.89C423.96 736.73 423.57 736.63 422.1 736.68C411.83 737.03 401.41 736.62 391.12 736.62H323.45L111.04 736.78C107.71 727.19 109.11 671.34 109.1 657.7L109.21 513.32C125.07 512.89 141.04 513.16 156.91 513.22C162.44 513.24 170.24 514.11 175.55 513.15C176.34 513.01 176.35 512.67 176.79 512.06L176.52 511.04C173.17 509.48 117.34 510.4 109.25 510.4L109.29 386.65C117.11 386.72 172.74 387.78 176.13 386.48C176.89 386.19 176.82 385.87 177.11 385.19L176.54 384.34C172.9 383.14 160.2 383.97 155.71 383.96C140.22 384.02 124.73 383.92 109.24 383.67L109.26 383.66ZM153.65 234.82L153.44 327.81C153.46 334.77 152.63 354.73 153.91 359.94C155.13 360.85 155.73 360.78 157.21 360.94C158.96 353.13 157.72 337.73 157.71 329.13L157.78 265.49C157.78 261.12 158.56 237.69 157.19 235.29C155.96 234.52 155.02 234.7 153.65 234.83V234.82ZM257.62 349.29C202.55 354.37 162.01 403.11 167.06 458.18C172.11 513.25 220.83 553.82 275.91 548.79C331.02 543.76 371.62 495 366.56 439.89C361.51 384.78 312.72 344.21 257.62 349.29ZM153.5 523.38C153.01 535.59 153.28 547.87 153.27 560.09L153.24 622.5V674.85C153.24 683.91 152.84 693.2 153.3 702.23C153.35 703.29 153.5 704.06 154.19 704.92C154.69 705.54 155.39 705.69 156.16 705.79C156.38 705.82 156.6 705.79 156.82 705.79C157.49 703.82 157.61 702.13 157.66 700.08C158.02 684.37 157.71 668.58 157.71 652.87L157.73 568.24L157.68 537.17C157.67 533.15 158.33 527.53 157.41 523.7C156.05 523.02 155.01 523.3 153.51 523.38H153.5Z" fill="#FFC871"/>
<path d="M157.21 360.94C155.72 360.78 155.13 360.85 153.91 359.94C152.63 354.73 153.46 334.77 153.44 327.81L153.65 234.82C155.02 234.7 155.96 234.52 157.19 235.28C158.56 237.68 157.78 261.11 157.78 265.48L157.71 329.12C157.71 337.72 158.96 353.12 157.21 360.93V360.94Z" fill="#FEFEFE"/>
<path d="M275.91 548.79C220.83 553.81 172.11 513.25 167.06 458.18C162.01 403.11 202.55 354.36 257.62 349.29C312.73 344.21 361.51 384.78 366.56 439.89C371.61 495 331.02 543.77 275.91 548.79ZM357.79 481.51C365.21 460.88 365.55 438.37 358.77 417.52C350.82 393.42 333.55 373.52 310.82 362.24C287.81 350.47 261.03 348.44 236.52 356.62C212.16 364.67 192.01 382.1 180.53 405.04C176.54 413.31 173.76 421.39 171.8 430.36C167.72 458.51 172.1 484.93 189.44 508.12C204.79 528.4 227.51 541.83 252.67 545.51C278.33 549.16 304.38 542.38 325.01 526.69C336.16 518.22 345.34 507.43 351.93 495.08C354.2 490.7 356.16 486.16 357.79 481.5V481.51Z" fill="black"/>
<path d="M180.53 405.05C192.01 382.1 212.16 364.68 236.52 356.63C261.04 348.45 287.82 350.47 310.82 362.25C333.55 373.52 350.82 393.43 358.77 417.53C365.55 438.38 365.2 460.89 357.79 481.52C356.45 476.84 355.74 472.08 354.1 467.45C350.17 456.32 342.84 448.85 332.2 443.9C311.42 434.23 289.37 440.85 270.17 451.28C260.07 456.76 250.74 463.16 239.82 467.1C228.85 471.05 214.88 471.56 204.21 466.38C186.16 457.62 181.2 436.96 180.89 418.6C180.84 415.21 181.95 408.64 180.79 405.67C180.71 405.47 180.62 405.27 180.53 405.06V405.05Z" fill="#A7DD3E"/>
<path d="M180.53 405.05C180.62 405.25 180.71 405.45 180.79 405.66C181.95 408.62 180.84 415.2 180.89 418.59C181.19 436.95 186.15 457.62 204.21 466.37C214.88 471.54 228.86 471.04 239.82 467.09C250.74 463.15 260.07 456.75 270.17 451.27C289.37 440.85 311.42 434.22 332.2 443.89C342.84 448.84 350.18 456.32 354.1 467.44C355.73 472.07 356.45 476.83 357.79 481.51C356.15 486.17 354.19 490.7 351.93 495.09C348.94 491.19 348.94 482.77 347.65 477.87C344.88 467.29 339.04 458.49 329.43 453.02C322.17 448.89 314.12 447.37 305.82 447.95C277.84 449.94 261.36 470.61 236.17 477.42C223.3 480.9 208.06 479.8 196.44 472.98C184.67 466.07 177.68 453.67 174.13 440.82C173.18 437.38 172.67 433.83 171.79 430.36C173.76 421.39 176.53 413.31 180.52 405.04L180.53 405.05Z" fill="#FEFEFE"/>
<path d="M351.92 495.08C345.33 507.43 336.15 518.22 325 526.69C304.37 542.38 278.32 549.16 252.66 545.51C227.49 541.83 204.78 528.4 189.43 508.12C172.1 484.93 167.71 458.51 171.79 430.36C172.67 433.83 173.18 437.38 174.13 440.82C177.68 453.67 184.67 466.07 196.44 472.98C208.06 479.8 223.29 480.91 236.17 477.42C261.36 470.6 277.83 449.94 305.82 447.95C314.12 447.36 322.16 448.88 329.43 453.02C339.04 458.49 344.88 467.28 347.65 477.87C348.93 482.76 348.94 491.18 351.93 495.09L351.92 495.08Z" fill="#C0F46E"/>
<path d="M156.81 705.8C156.59 705.8 156.37 705.83 156.15 705.8C155.38 705.7 154.68 705.54 154.18 704.93C153.48 704.07 153.34 703.3 153.29 702.24C152.83 693.21 153.23 683.92 153.23 674.86V622.51L153.25 560.1C153.26 547.88 152.99 535.59 153.48 523.39C154.98 523.3 156.02 523.02 157.38 523.71C158.31 527.55 157.64 533.16 157.65 537.18L157.7 568.25L157.68 652.88C157.68 668.6 157.99 684.38 157.63 700.09C157.58 702.15 157.46 703.83 156.79 705.8H156.81Z" fill="#FEFEFE"/>
</g>
<rect x="2.5" y="2.5" width="529" height="599" rx="12.5" stroke="black" stroke-width="5"/>
</g>
<defs>
<clipPath id="clip0_577_269">
<rect width="322.4" height="700.87" fill="white" transform="translate(106 88)"/>
</clipPath>
</defs>
</svg>
