<svg width="531" height="611" viewBox="0 0 531 611" fill="none" xmlns="http://www.w3.org/2000/svg">
<path d="M422.089 388.229C418.125 388.229 414.162 387.887 410.299 387.223C409.594 387.123 408.81 386.982 408.005 386.821C381.306 381.389 357.584 360.766 337.504 325.535C335.311 321.692 334.748 317.226 335.935 312.96C337.122 308.695 339.879 305.134 343.721 302.941C346.216 301.512 349.053 300.768 351.91 300.768C357.866 300.768 363.379 303.967 366.316 309.138C372.795 320.505 379.575 329.922 386.456 337.084C394.162 345.112 402.15 350.524 410.238 353.14C414.162 354.428 418.206 355.072 422.25 355.072C424.604 355.072 426.998 354.85 429.392 354.408C438.004 352.818 444.684 348.432 449.211 341.39C450.579 339.297 451.746 336.964 452.671 334.469C456.534 324.389 456.152 313.785 454.522 307.206C453.456 302.921 454.12 298.454 456.414 294.671C458.707 290.889 462.329 288.213 466.614 287.126C467.963 286.804 469.29 286.643 470.618 286.643C478.244 286.643 484.863 291.814 486.694 299.239C490.376 314.087 489.451 330.404 484.079 345.152C482.228 350.243 479.874 355.031 477.057 359.397C468.204 373.059 455.146 382.334 439.271 386.197C437.984 386.519 436.676 386.781 435.348 387.022C430.922 387.827 426.455 388.249 422.089 388.249V388.229Z" fill="#D8C7C9"/>
<path d="M470.618 288.655C477.157 288.655 483.093 293.102 484.743 299.721C488.344 314.288 487.318 330.384 482.187 344.448C480.397 349.357 478.123 354.005 475.367 358.291C466.775 371.55 454.2 380.463 438.788 384.225C437.541 384.527 436.273 384.809 434.986 385.03C430.962 385.755 426.656 386.217 422.089 386.217C418.407 386.217 414.584 385.916 410.641 385.252C409.896 385.151 409.172 385.01 408.407 384.849C386.939 380.483 362.192 364.769 339.255 324.529C335.271 317.548 337.726 308.655 344.707 304.671C346.981 303.383 349.456 302.76 351.91 302.76C356.96 302.76 361.89 305.395 364.566 310.103C371.165 321.692 377.986 331.149 385.008 338.452C392.955 346.742 401.164 352.295 409.614 355.031C413.779 356.399 417.984 357.063 422.25 357.063C424.725 357.063 427.24 356.842 429.734 356.379C438.889 354.689 446.032 350.021 450.901 342.476C452.39 340.183 453.597 337.728 454.563 335.173C458.305 325.415 458.405 314.469 456.494 306.723C454.563 298.917 459.331 291.03 467.138 289.078H467.198C468.345 288.776 469.512 288.655 470.659 288.655M470.618 284.631C469.15 284.631 467.661 284.813 466.212 285.155C456.192 287.649 450.096 297.75 452.571 307.689C454.12 313.966 454.482 324.087 450.8 333.724C449.895 336.119 448.808 338.312 447.521 340.283C443.275 346.863 437.058 350.947 429.01 352.416C426.757 352.818 424.483 353.039 422.25 353.039C418.427 353.039 414.584 352.416 410.862 351.209C403.096 348.694 395.39 343.462 387.905 335.676C381.145 328.634 374.465 319.359 368.067 308.132C364.767 302.337 358.57 298.756 351.91 298.756C348.711 298.756 345.532 299.601 342.715 301.19C333.802 306.26 330.684 317.628 335.754 326.541C356.136 362.315 380.32 383.26 407.602 388.813C408.347 388.974 409.172 389.135 410.037 389.235C414.001 389.919 418.045 390.261 422.089 390.261C426.576 390.261 431.163 389.839 435.71 389.014C437.058 388.773 438.406 388.491 439.734 388.169C456.132 384.185 469.612 374.608 478.747 360.504C481.644 356.017 484.079 351.088 485.97 345.857C491.483 330.746 492.428 314.027 488.646 298.776C486.573 290.466 479.169 284.652 470.618 284.652V284.631Z" fill="#303030"/>
<path d="M484.763 299.721C488.364 314.288 487.338 330.384 482.207 344.448C479.169 344.106 476.151 343.583 473.153 342.899C466.775 341.41 459.774 339.277 454.562 335.173C458.305 325.415 458.405 314.469 456.494 306.723C454.563 298.917 459.331 291.03 467.138 289.078H467.198C474.984 287.167 482.851 291.935 484.783 299.721H484.763Z" fill="#303030"/>
<path d="M529.168 235.841C528.986 243.486 526.069 251.071 520.355 255.196C519.349 255.961 518.262 256.584 517.055 257.107C517.981 259.723 518.886 262.359 519.611 265.015C519.973 266.302 520.274 267.61 520.556 268.898C522.649 278.595 522.286 288.334 515.828 296.744C513.373 299.923 510.275 302.236 506.774 304.007C510.939 312.196 503.333 321.451 495.648 324.972C479.672 332.316 463.596 332.92 447.561 329.519C433.557 326.541 423.96 311.975 434.422 303.504C419.614 297.025 414.725 284.45 417.2 271.332C412.653 257.872 401.043 209.383 395.49 190.731C395.108 189.404 394.706 188.096 394.303 186.808C391.547 178.036 388.267 168.801 389.515 159.586C390.762 150.552 400.44 145.864 409.031 148.6C414.242 150.25 418.648 154.153 421.807 158.7C424.986 163.227 427.059 168.398 428.95 173.549C433.638 186.506 438.185 204.031 440.619 217.471C441.746 202.482 444.04 183.388 443.939 168.318C443.879 159.224 443.436 149.526 447.44 141.196C451.343 133.047 462.168 131.478 469.653 136.589C474.22 139.667 477.318 144.657 479.049 149.888C480.759 155.099 481.242 160.612 481.523 166.044C482.187 179.283 478.525 200.188 476.996 213.286C481.684 199.001 488.887 197.391 494.823 196.184C511.281 192.884 522.085 205.339 526.673 219.443C528.443 224.935 529.308 230.67 529.188 235.841H529.168Z" fill="white"/>
<path d="M485.266 309.46C485.266 309.46 498.766 308.031 506.774 304.007L485.266 309.46Z" fill="white"/>
<path d="M485.266 309.46C485.266 309.46 498.766 308.031 506.774 304.007" stroke="#303030" stroke-width="2" stroke-linecap="round" stroke-linejoin="round"/>
<path opacity="0.6" d="M529.168 235.84C528.986 243.486 526.069 251.071 520.355 255.196C519.349 255.96 518.262 256.584 517.055 257.107C517.981 259.723 518.886 262.359 519.611 265.014C504.903 265.779 490.054 257.067 487.901 232.863C487.901 232.863 493.756 244.754 507.961 241.494C521.079 238.476 525.989 221.958 526.673 219.443C528.443 224.935 529.308 230.67 529.188 235.84H529.168Z" fill="#B9CFD6"/>
<path d="M517.055 257.087C518.464 260.95 519.711 264.914 520.556 268.898C519.108 269.119 517.639 269.28 516.17 269.36C511.18 269.682 505.969 268.978 501.422 266.966C498.364 265.618 495.648 263.666 493.334 261.332C494.702 259.602 495.567 257.771 495.97 255.9C497.297 256.484 498.645 256.926 500.014 257.228C500.014 257.228 500.034 257.268 500.054 257.248C501.402 257.53 502.77 257.711 504.199 257.731C508.444 257.771 511.402 257.349 515.607 256.403C517.216 256.041 518.806 255.639 520.355 255.156C519.349 255.92 518.262 256.544 517.055 257.067V257.087Z" fill="#303030"/>
<path opacity="0.6" d="M472.57 295.456C472.57 295.456 513.474 296.261 521.622 280.789C519.429 290.587 517.438 312.397 472.268 309.46C427.119 306.522 421.304 298.031 416.656 275.638C430.74 288.354 429.956 293.384 472.57 295.456Z" fill="#B9CFD6"/>
<path d="M439.191 210.228L440.619 217.451C440.619 217.451 440.438 220.288 445.026 221.153" stroke="#303030" stroke-width="2" stroke-linecap="round" stroke-linejoin="round"/>
<path d="M517.055 257.087C509.872 259.602 504.299 259.3 500.054 257.248C500.054 257.248 500.014 257.248 500.014 257.228C498.585 256.564 497.318 255.679 496.211 254.633" stroke="#303030" stroke-width="2" stroke-linecap="round" stroke-linejoin="round"/>
<path d="M488.787 221.897C487.74 226.042 487.439 232.4 488.545 238.698" stroke="#303030" stroke-width="2" stroke-linecap="round" stroke-linejoin="round"/>
<path d="M434.422 303.464C434.422 303.464 445.267 309.621 463.838 309.661" stroke="#303030" stroke-width="2" stroke-linecap="round" stroke-linejoin="round"/>
<path d="M451.846 279.964C451.846 279.964 461.283 278.193 467.359 268.495" stroke="#303030" stroke-width="2" stroke-linecap="round" stroke-linejoin="round"/>
<path d="M477.097 269.562C482.871 274.954 484.421 280.769 484.421 280.769" stroke="#303030" stroke-width="2" stroke-linecap="round" stroke-linejoin="round"/>
<path d="M529.168 235.84C528.986 243.486 526.069 251.071 520.355 255.196C519.349 255.96 518.262 256.584 517.055 257.107C518.464 260.97 519.711 264.934 520.556 268.918C522.649 278.616 522.286 288.354 515.828 296.764C513.373 299.943 510.275 302.257 506.774 304.027C510.939 312.216 503.333 321.471 495.648 324.992C479.672 332.336 463.596 332.94 447.561 329.539C433.557 326.561 423.96 311.995 434.422 303.524C419.614 297.045 414.725 284.47 417.2 271.352C412.653 257.892 401.043 209.403 395.49 190.751C395.108 189.424 394.706 188.116 394.303 186.828C391.547 178.056 388.267 168.821 389.515 159.606C390.762 150.572 400.44 145.884 409.031 148.62C414.242 150.27 418.648 154.173 421.807 158.72C424.986 163.247 427.059 168.418 428.95 173.569C433.638 186.526 438.185 204.051 440.619 217.491C441.746 202.502 444.04 183.408 443.939 168.338C443.879 159.244 443.436 149.546 447.44 141.216C451.343 133.067 462.168 131.498 469.653 136.609C474.22 139.687 477.318 144.677 479.049 149.908C480.759 155.119 481.242 160.632 481.523 166.064C482.187 179.303 478.525 200.208 476.996 213.306C481.684 199.021 488.887 197.411 494.823 196.204C517.699 191.637 529.61 217.39 529.188 235.861L529.168 235.84Z" stroke="#303030" stroke-width="2" stroke-linecap="round" stroke-linejoin="round"/>
<path opacity="0.6" d="M493.978 244.874C493.978 244.874 488.223 268.777 459.25 257.409C449.412 253.546 443.215 248.094 443.215 248.094C443.215 248.094 443.054 256.846 453.899 262.982C464.743 269.119 475.387 271.433 485.165 267.147C494.964 262.862 497.76 253.667 493.958 244.874H493.978Z" fill="#B9CFD6"/>
<path d="M417.2 271.312C420.399 249.2 433.396 233.446 445.086 229.825C456.655 226.223 471.705 231.354 483.636 235.921C485.386 236.605 487.036 237.531 488.525 238.698C493.535 242.52 496.915 248.677 496.171 254.612C496.11 255.035 496.05 255.437 495.929 255.86C495.527 257.731 494.682 259.562 493.293 261.292C492.227 262.66 490.819 263.928 489.048 265.095C482.368 269.521 468.767 272.539 448.969 260.105" stroke="#303030" stroke-width="2" stroke-linecap="round" stroke-linejoin="round"/>
<path d="M410.641 385.232C409.896 385.131 409.172 384.99 408.407 384.829C386.939 380.463 362.192 364.749 339.255 324.509C335.271 317.528 337.726 308.635 344.707 304.651C351.689 300.667 360.582 303.102 364.566 310.083C371.165 321.672 377.986 331.129 385.008 338.432C392.955 346.722 401.164 352.275 409.614 355.011C401.244 362.134 400.279 375.574 410.661 385.211L410.641 385.232Z" fill="#303030"/>
<path d="M133.186 538.606C133.186 538.606 110.35 561.603 135.298 564.843C234.691 577.699 364.546 547.479 382.654 526.152C397.884 508.205 363.942 508.225 363.942 508.225L133.186 538.606Z" fill="#D9E9ED"/>
<path opacity="0.21" d="M133.186 538.606C133.186 538.606 110.35 561.603 135.298 564.843C234.691 577.699 364.546 547.479 382.654 526.152C397.884 508.205 363.942 508.225 363.942 508.225L133.186 538.606Z" fill="#550340"/>
<path d="M185.779 570.054C168.295 570.054 151.153 569.128 135.037 567.036C128.276 566.171 124.092 564.138 122.18 560.839C120.631 558.143 120.711 554.883 122.422 550.819C122.904 549.692 124.192 549.169 125.319 549.632C126.446 550.115 126.969 551.402 126.506 552.529C125.379 555.225 125.218 557.217 126.023 558.626C127.15 560.597 130.47 561.986 135.62 562.65C179.482 568.323 235.415 565.949 289.096 556.151C335.271 547.721 372.211 535.085 381.004 524.723C384.062 521.102 385.068 518.265 383.982 516.253C383.398 515.186 383.78 513.838 384.867 513.255C385.933 512.672 387.281 513.054 387.865 514.14C389.917 517.903 388.75 522.43 384.384 527.58C368.006 546.876 272.879 570.054 185.82 570.054H185.779Z" fill="black"/>
<path d="M66.7496 123.068C66.7496 123.068 29.9098 167.09 34.5777 196.969C37.0725 212.984 85.4008 503.678 89.5857 518.547C96.2253 542.147 114.092 549.572 121.919 550.759C129.745 551.946 279.961 570.597 385.873 515.187C385.873 515.187 416.516 496.374 410.681 466.094C404.846 435.813 356.92 139.969 356.92 139.969C356.92 139.969 349.778 108.28 304.327 90.2522C258.875 72.2247 66.7697 123.048 66.7697 123.048L66.7496 123.068Z" fill="#FFB0B0"/>
<path d="M191.976 557.016C150.871 557.016 122.261 553.073 121.597 552.972C112.04 551.523 94.1127 542.771 87.4731 519.17C83.2882 504.322 35.1008 214.533 32.4047 197.331C30.3726 184.394 34.3563 168.982 44.2151 151.518C44.8187 150.451 46.1668 150.089 47.2331 150.673C48.2995 151.276 48.6616 152.624 48.0782 153.691C38.7224 170.249 34.9197 184.716 36.7909 196.647C39.487 213.849 87.5939 503.215 91.7386 517.983C97.7746 539.431 113.77 547.338 122.281 548.626C123.79 548.867 276.541 569.913 384.807 513.315C386.255 512.39 413.9 494.362 408.548 466.557C402.774 436.578 355.25 143.329 354.767 140.371C354.767 140.351 350.784 123.873 331.609 108.38C330.664 107.616 330.503 106.228 331.287 105.282C332.052 104.336 333.44 104.175 334.386 104.96C354.848 121.478 358.952 138.822 359.113 139.546C359.616 142.645 407.14 435.833 412.894 465.732C418.95 497.159 387.402 516.937 387.08 517.118C387.04 517.138 387 517.178 386.939 517.199C324.286 549.974 246.985 557.056 192.017 557.056L191.976 557.016Z" fill="black"/>
<path d="M204.149 156.447C204.149 156.447 59.8886 175.642 44.6577 148.52C15.1417 95.9462 177.389 57.6981 276.259 57.014C336.72 56.5915 343.782 83.7937 334.507 103.713C323.541 127.293 275.816 145.079 204.129 156.427L204.149 156.447Z" fill="#D9E9ED"/>
<path d="M201.554 137.233C201.554 137.233 55.3817 157.896 51.5991 129.889C47.8166 101.882 174.009 58.3219 268.694 63.2714C363.399 68.2209 334.688 116.348 201.533 137.233H201.554Z" fill="#D9E9ED"/>
<path d="M110.571 165.26C71.357 165.26 48.5812 160.008 42.7464 149.626C38.0785 141.297 37.6761 132.927 41.5995 124.738C48.0178 111.298 65.824 98.7429 94.5151 87.3952C119.363 77.5766 151.113 69.2469 186.323 63.2713C187.51 63.0701 188.657 63.8749 188.878 65.0821C189.099 66.2893 188.274 67.416 187.067 67.6373C152.159 73.5526 120.711 81.8018 96.1449 91.5198C68.9225 102.264 51.4382 114.416 45.6034 126.649C42.3037 133.55 42.6458 140.371 46.6295 147.474C49.9292 153.369 65.16 162.885 130.047 160.471C167.47 159.083 203.545 154.334 203.908 154.274C297.345 139.486 325.452 118.118 332.575 102.807C334.949 97.6966 338.148 87.7171 332.857 78.3009C327.404 68.6031 314.306 62.3257 294.93 60.1326C293.723 59.9917 292.838 58.9053 292.979 57.6981C293.12 56.4909 294.206 55.6056 295.413 55.7464C309.94 57.3963 328.893 62.2653 336.679 76.1481C341.307 84.3973 341.267 94.5177 336.539 104.678C322.837 134.174 257.165 150.31 204.511 158.64C204.089 158.7 167.853 163.469 130.208 164.877C123.267 165.139 116.728 165.26 110.571 165.26Z" fill="black"/>
<path d="M107.392 146.789C84.0326 146.789 63.1681 144.617 54.3355 137.937C51.4784 135.764 49.8286 133.168 49.4262 130.19C46.3277 107.113 116.325 78.9649 183.647 67.1746C184.854 66.9533 186.001 67.7581 186.202 68.9653C186.403 70.1725 185.618 71.3193 184.411 71.5205C150.167 77.5163 116.104 87.4556 90.9941 98.8032C66.5885 109.809 52.6856 121.338 53.7922 129.607C54.0337 131.398 55.0799 132.967 56.9913 134.416C66.4276 141.578 94.2737 143.973 137.491 141.377C170.488 139.385 200.93 135.12 201.232 135.08C238.957 129.164 270.746 120.714 293.14 110.614C312.415 101.942 323.4 92.5459 323.3 84.84C323.179 76.5505 309.719 70.092 286.4 67.1143C285.192 66.9533 284.327 65.8467 284.488 64.6395C284.649 63.4323 285.756 62.5873 286.963 62.7281C313.079 66.0479 327.565 73.8746 327.726 84.7595C328.028 105.604 277.466 127.575 201.896 139.405C198.656 139.868 149.06 146.769 107.392 146.769V146.789Z" fill="black"/>
<path d="M156.324 98.3203C156.324 98.3203 145.721 111.117 159.503 116.368C169.18 120.07 191.795 117.193 191.795 117.193C191.795 117.193 164.15 151.276 88.3986 133.973C69.184 129.587 84.274 115.644 111.617 106.992C131.455 100.715 156.324 98.3404 156.324 98.3404V98.3203Z" fill="black"/>
<path d="M310.725 36.2099C307.847 20.0133 273.643 7.39801 256.722 3.09232C239.802 -1.23348 166.706 84.0955 168.516 99.5879C170.307 115.06 195.678 109.266 195.678 109.266C244.429 94.0951 313.622 52.4266 310.725 36.23V36.2099ZM253.765 62.4262C253.765 62.4262 221.593 57.8187 227.951 42.1654C233.564 28.3429 244.107 15.285 256.34 16.0094C268.573 16.7337 293.341 29.3691 293.321 37.8597C293.321 52.2656 265.897 62.3659 253.765 62.4262Z" fill="#D9E9ED"/>
<path d="M257.427 11.3616C245.194 10.6373 235.355 20.1138 229.742 33.9362C228.917 35.9885 228.756 37.8395 229.078 39.5296C234.912 26.7333 244.872 15.3454 256.34 16.0093C267.869 16.6934 290.504 27.9405 293.079 36.3506C294.367 34.238 295.112 34.3588 295.132 32.0047C295.132 23.5141 269.68 12.106 257.427 11.3817V11.3616Z" fill="#D9E9ED"/>
<path d="M310.443 35.063C298.572 54.0965 240.184 87.717 197.469 101.016C197.469 101.016 173.064 106.59 170.448 92.1636C169.019 95.3425 168.315 97.8776 168.516 99.5677C170.307 115.04 195.678 109.245 195.678 109.245C244.429 94.075 313.622 52.4064 310.725 36.2098C310.664 35.8276 310.564 35.4453 310.443 35.063Z" fill="#D9E9ED"/>
<path d="M188.938 98.3001C195.605 98.3001 201.01 95.0572 201.01 91.0569C201.01 87.0566 195.605 83.8137 188.938 83.8137C182.271 83.8137 176.866 87.0566 176.866 91.0569C176.866 95.0572 182.271 98.3001 188.938 98.3001Z" fill="#D9E9ED"/>
<path d="M185.598 112.525C180.87 112.525 175.518 111.76 171.615 109.024C168.536 106.851 166.746 103.753 166.303 99.8293C164.774 86.6507 205.457 37.4372 230.868 15.2448C243.403 4.29955 252.034 -0.38842 257.246 0.95962C259.358 1.50286 309.075 14.4199 312.877 35.8276C314.93 47.3966 289.216 65.3436 273.704 75.0012C249.379 90.1516 219.722 104.095 196.302 111.358C196.242 111.358 196.201 111.398 196.141 111.398C195.779 111.479 191.131 112.525 185.598 112.525ZM255.395 5.14458C253.201 5.14458 247.306 6.73406 233.766 18.5646C206.101 42.7489 169.542 89.548 170.689 99.3263C170.991 101.982 172.138 103.974 174.17 105.423C180.749 110.07 193.968 107.374 195.095 107.133C244.208 91.8417 310.966 50.3341 308.552 36.6123C306.097 22.7697 275.877 10.2752 256.179 5.24518C255.998 5.20494 255.757 5.1647 255.415 5.1647L255.395 5.14458ZM253.765 64.6394C253.664 64.6394 253.564 64.6394 253.443 64.6193C252.578 64.4986 232.035 61.4403 226.381 51.6017C224.571 48.4428 224.41 45.0023 225.878 41.3405C231.512 27.4979 242.518 12.9511 256.441 13.7962C268.412 14.5004 295.514 27.2363 295.514 37.8396C295.494 54.0764 266.139 64.5589 253.745 64.6193L253.765 64.6394ZM255.374 18.2025C244.107 18.2025 234.691 31.4414 230.003 43.0104C229.037 45.3645 229.118 47.4569 230.245 49.4086C234.007 55.9677 248.453 59.4082 253.946 60.2331C265.173 60.0722 291.128 50.6158 291.148 37.8597C291.148 31.6225 268.654 18.9469 256.24 18.2226C255.958 18.2226 255.676 18.2025 255.395 18.2025H255.374Z" fill="black"/>
<path d="M185.598 112.525C180.87 112.525 175.518 111.76 171.615 109.024C168.537 106.851 166.746 103.753 166.303 99.8293C166.062 97.7569 166.746 94.9401 168.416 91.2581C168.818 90.3729 169.744 89.8497 170.689 89.9705C171.655 90.0912 172.42 90.8155 172.601 91.7611C173.044 94.1755 174.231 96.0065 176.222 97.3344C182.882 101.741 195.759 99.1049 196.866 98.8836C239.782 85.5038 297.164 52.1247 308.532 33.896C308.994 33.1516 309.859 32.7492 310.725 32.89C311.59 33.0107 312.294 33.6546 312.535 34.4996C312.656 34.9423 312.777 35.3849 312.857 35.8275C314.91 47.4167 289.196 65.3436 273.684 75.0012C249.359 90.1515 219.702 104.095 196.282 111.358C196.222 111.358 196.181 111.398 196.121 111.398C195.759 111.479 191.111 112.525 185.578 112.525H185.598ZM170.73 98.2197C170.649 98.7428 170.669 99.0848 170.689 99.3263C170.991 101.982 172.138 103.974 174.17 105.423C180.749 110.07 193.968 107.374 195.095 107.133C236.401 94.256 290.182 62.8688 304.809 45.0425C284.508 64.5388 236.462 91.2179 198.113 103.129C198.053 103.129 198.012 103.169 197.952 103.169C197.308 103.31 182.339 106.65 173.808 101.036C172.601 100.232 171.575 99.286 170.73 98.2197Z" fill="black"/>
<path d="M191.795 97.6161C189.643 97.6161 178.798 97.3345 176.182 92.3447C175.478 90.9765 175.035 88.7432 177.068 85.8057C180.166 81.2988 185.94 79.4679 192.52 80.8964C197.288 81.9427 202.419 84.9003 203.163 89.1657C203.485 91.0369 203.042 92.7471 201.896 94.1153C199.018 97.5357 192.52 97.6363 191.775 97.6363L191.795 97.6161ZM188.274 84.8399C185.779 84.8399 182.641 85.4838 180.709 88.2805C180.367 88.7835 179.804 89.7291 180.086 90.2723C180.991 91.9825 186.866 93.1696 191.795 93.1897C193.465 93.1897 197.308 92.7069 198.536 91.2381C198.757 90.9765 198.958 90.6144 198.837 89.89C198.556 88.3207 195.719 86.0874 191.594 85.182C190.95 85.0411 189.723 84.8198 188.294 84.8198L188.274 84.8399Z" fill="black"/>
<path d="M237.951 60.1527C236.864 60.1527 235.919 59.3479 235.758 58.2413C235.597 57.0341 236.442 55.9275 237.649 55.7464C238.796 55.5855 265.756 51.9438 279.076 52.8693C280.283 52.9498 281.209 54.0161 281.128 55.2233C281.048 56.4305 279.981 57.3762 278.774 57.2756C265.917 56.3702 238.534 60.0924 238.252 60.1326C238.152 60.1326 238.051 60.1527 237.951 60.1527Z" fill="black"/>
<path d="M182.661 484.182C144.252 501.083 96.3259 467.542 75.6023 409.235C54.8787 350.927 69.184 289.943 107.573 272.982C145.982 256.021 193.968 289.561 214.712 347.909C235.456 406.257 221.11 467.281 182.681 484.202L182.661 484.182ZM221.231 394.587C220.225 370.806 213.505 346.46 202.117 325.415C188.878 301.11 170.186 283.243 150.187 275.839C129.846 267.952 109.786 271.352 94.5352 285.296C79.3446 299.058 70.1297 322.035 68.9023 349.177C68.5603 358.915 69.0633 368.21 70.4113 378.29C76.1657 409.476 87.5335 437.041 107.311 458.428C124.735 477.079 145.378 486.817 164.794 485.53C184.552 484.101 201.352 471.365 211.453 450.159C216.925 438.69 220.245 425.17 221.191 410.462C221.472 405.271 221.492 399.959 221.231 394.607V394.587Z" fill="black"/>
<path d="M68.9024 349.156C70.1297 322.035 79.3447 299.037 94.5353 285.275C109.786 271.332 129.846 267.932 150.187 275.819C170.166 283.223 188.878 301.07 202.117 325.395C213.505 346.46 220.225 370.785 221.231 394.567C218.817 389.799 216.825 384.829 214.189 380.181C207.891 369.015 200.246 362.476 190.991 359.357C172.903 353.261 158.959 365.011 148.256 380.242C142.622 388.27 137.834 397.102 131.134 403.621C124.393 410.18 114.414 413.621 105.058 410.281C89.2437 404.607 79.244 383.38 73.3288 363.643C72.2423 360.001 71.015 352.677 69.2444 349.74C69.1237 349.539 69.003 349.337 68.8621 349.136L68.9024 349.156Z" fill="#60C8FC"/>
<path d="M68.9024 349.156C69.0231 349.358 69.1639 349.559 69.2846 349.76C71.0552 352.718 72.2825 360.021 73.369 363.663C79.2843 383.401 89.2839 404.627 105.098 410.301C114.454 413.661 124.434 410.2 131.174 403.641C137.874 397.122 142.662 388.27 148.296 380.262C159 365.011 172.943 353.281 191.031 359.377C200.286 362.496 207.932 369.015 214.229 380.202C216.845 384.849 218.837 389.839 221.271 394.587C221.533 399.939 221.513 405.251 221.231 410.442C217.851 406.861 215.235 397.786 212.801 392.777C207.509 381.952 200.548 373.683 191.876 369.8C185.317 366.862 179.019 366.902 173.184 369.256C153.487 377.244 147.934 402.957 131.777 415.552C123.508 421.991 112.12 423.983 101.577 419.053C90.8935 414.064 81.9804 402.152 75.4212 389.054C73.6708 385.553 72.202 381.811 70.4918 378.27C69.1438 368.19 68.6609 358.915 68.9828 349.156H68.9024Z" fill="#FEFEFE"/>
<path d="M221.171 410.442C220.225 425.129 216.905 438.67 211.432 450.139C201.332 471.365 184.512 484.101 164.774 485.51C145.378 486.797 124.735 477.059 107.291 458.408C87.5335 437.02 76.1657 409.476 70.3912 378.27C72.1014 381.831 73.5702 385.553 75.3206 389.054C81.8797 402.173 90.7929 414.063 101.477 419.053C112.02 423.983 123.428 421.991 131.677 415.552C147.833 402.957 153.386 377.244 173.084 369.256C178.918 366.882 185.236 366.862 191.775 369.799C200.447 373.683 207.408 381.952 212.7 392.777C215.155 397.786 217.75 406.861 221.13 410.442H221.171Z" fill="#94D6FF"/>
<path d="M239.223 303.531C252.171 301.54 260.283 284.408 257.34 265.264C254.397 246.121 241.514 232.216 228.565 234.207C215.616 236.198 207.505 253.33 210.448 272.473C213.391 291.617 226.274 305.521 239.223 303.531Z" fill="black"/>
<path d="M318.567 284.459C330.341 282.649 337.717 267.078 335.043 249.681C332.368 232.284 320.655 219.649 308.882 221.459C297.108 223.269 289.732 238.839 292.406 256.236C295.081 273.633 306.793 286.269 318.567 284.459Z" fill="black"/>
<path d="M337.504 324.57C340.542 339.619 322.394 355.997 296.942 361.128C271.491 366.258 248.393 358.251 245.355 343.201" stroke="black" stroke-width="4" stroke-miterlimit="10"/>
<path d="M33.4911 497.239C28.9038 497.239 24.6384 495.409 21.4795 492.089C14.9204 485.167 10.0111 477.542 6.8925 469.373C1.7619 455.953 1.6613 441.205 6.5907 426.739C16.8318 396.64 49.1848 369.276 80.2299 364.427C81.075 364.287 81.9602 364.226 82.8053 364.226C91.0142 364.226 97.8953 370.121 99.1628 378.25C99.8469 382.616 98.7805 387.002 96.1851 390.583C93.5896 394.165 89.7266 396.519 85.3605 397.203C68.5201 399.839 44.9193 417.001 37.9779 437.443C35.2818 445.35 35.4629 452.493 38.5211 459.253C40.0905 462.694 42.4244 466.054 45.5028 469.273C51.8003 475.912 51.5388 486.415 44.9193 492.712C41.8409 495.65 37.7767 497.26 33.4911 497.26V497.239Z" fill="#D8C7C9"/>
<path d="M82.8254 366.238C89.8875 366.238 96.0643 371.369 97.1911 378.552C98.4385 386.499 93.0061 393.943 85.0587 395.191C67.6549 397.907 43.2695 415.633 36.0866 436.779C33.2296 445.149 33.4308 452.835 36.7103 460.058C38.3602 463.679 40.8148 467.22 44.0743 470.641C49.6073 476.476 49.3658 485.691 43.5511 491.224C40.7343 493.9 37.1329 495.228 33.5113 495.228C29.6683 495.228 25.8254 493.719 22.9483 490.701C16.53 483.92 11.7817 476.476 8.78378 468.649C3.83426 455.692 3.65318 441.588 8.5021 427.383C18.5219 397.927 50.1706 371.148 80.5518 366.399C81.3164 366.278 82.0809 366.218 82.8254 366.218M82.8254 362.214C81.8596 362.214 80.8939 362.295 79.9281 362.436C48.1988 367.385 15.1417 395.352 4.69943 426.095C-0.390934 441.004 -0.290342 456.215 5.02134 470.098C8.24054 478.508 13.2705 486.375 20.0107 493.477C23.572 497.199 28.3605 499.252 33.4911 499.252C38.2998 499.252 42.847 497.441 46.3076 494.141C53.7319 487.079 54.0337 475.309 46.9716 467.864C44.0542 464.806 41.8208 461.607 40.3521 458.388C37.5151 452.13 37.3542 445.471 39.8692 438.067C46.3881 418.872 69.4255 401.71 85.6623 399.175C90.5716 398.41 94.8773 395.774 97.8148 391.771C100.732 387.767 101.939 382.837 101.155 377.948C99.7262 368.834 92.0202 362.234 82.8053 362.234L82.8254 362.214Z" fill="#303030"/>
<path d="M43.531 491.244C40.7142 493.92 37.1127 495.248 33.4911 495.248C29.6482 495.248 25.8053 493.739 22.9281 490.721C16.5099 483.94 11.7616 476.496 8.76367 468.669C13.3108 466.114 17.6768 464.122 21.0369 462.995C25.2218 461.587 31.1774 460.018 36.6902 460.058C38.3401 463.679 40.7947 467.221 44.0541 470.641C49.5871 476.476 49.3457 485.691 43.531 491.224V491.244Z" fill="#303030"/>
<path d="M143.206 544.642C142.682 553.998 135.882 562.469 127.612 564.038C122.985 564.883 118.156 563.575 114.213 560.698C115.963 566.09 116.023 572.227 114.072 577.599C111.154 585.486 104.112 591.28 96.4869 591.965C91.6581 592.387 86.7287 590.757 82.8053 587.659C82.6845 590.516 82.101 593.393 80.9743 596.049C78.4191 602.065 73.2885 606.813 67.4939 608.483C60.8745 610.415 53.9129 608.302 48.4 604.439C42.867 600.556 38.5614 595.003 34.3965 589.45C26.932 579.45 19.6687 568.766 15.363 556.714C13.9345 552.751 12.848 548.646 12.1438 544.381C10.3129 533.134 12.1438 520.418 17.6567 510.398C-6.02455 495.026 25.6443 468.166 39.0644 461.406C47.6757 457.06 65.1399 451.165 66.7294 469.494C84.6362 463.076 104.032 467.864 120.731 476.677C126.405 479.695 131.858 483.538 135.781 488.97C139.745 494.403 142.059 501.646 140.892 508.547C140.107 513.316 137.431 517.782 133.809 520.297C134.111 520.659 134.413 521.082 134.695 521.484C136.304 523.738 137.833 526.152 139.161 528.667C141.737 533.617 143.467 538.989 143.185 544.642H143.206Z" fill="white" stroke="#303030" stroke-width="2" stroke-linecap="round" stroke-linejoin="round"/>
<path opacity="0.6" d="M143.206 544.642C142.562 559.511 126.385 570.175 114.213 560.698C121.798 579.389 99.9274 601.783 82.8053 587.659C82.8053 605.304 62.0817 615.666 48.4202 604.439C33.8131 591.985 22.7269 574.621 15.3831 556.714C24.5981 576.15 72.8056 610.153 70.0291 573.394C86.3665 586.914 109.766 565.547 103.066 548.485C125.118 562.428 140.912 547.077 139.202 528.667C141.777 533.617 143.507 538.988 143.226 544.642H143.206Z" fill="#B9CFD6"/>
<path d="M92.7244 488.829C92.7244 488.829 117.532 496.676 133.809 520.277" stroke="#303030" stroke-width="2" stroke-linecap="round" stroke-linejoin="round"/>
<path d="M32.7266 493.638C28.5618 497.199 21.5197 504.463 17.6567 510.398" stroke="#303030" stroke-width="2" stroke-linecap="round" stroke-linejoin="round"/>
<path d="M66.7495 469.494C66.7495 469.494 56.8303 472.814 47.1124 481.184" stroke="#303030" stroke-width="2" stroke-linecap="round" stroke-linejoin="round"/>
<path d="M143.206 544.642C142.682 553.998 135.882 562.469 127.612 564.038C122.985 564.883 118.156 563.575 114.213 560.698C115.963 566.09 116.023 572.227 114.072 577.599C111.154 585.486 104.112 591.28 96.4869 591.965C91.6581 592.387 86.7287 590.757 82.8053 587.659C82.6845 590.516 82.101 593.393 80.9743 596.049C78.4191 602.065 73.2885 606.813 67.4939 608.483C60.8745 610.415 53.9129 608.302 48.4 604.439C42.867 600.556 38.5614 595.003 34.3965 589.45C26.932 579.45 19.6687 568.766 15.363 556.714C13.9345 552.751 12.848 548.646 12.1438 544.381C10.3129 533.134 12.1438 520.418 17.6567 510.398C-6.02455 495.026 25.6443 468.166 39.0644 461.406C47.6757 457.06 65.1399 451.165 66.7294 469.494C84.6362 463.076 104.032 467.864 120.731 476.677C126.405 479.695 131.858 483.538 135.781 488.97C139.745 494.403 142.059 501.646 140.892 508.547C140.107 513.316 137.431 517.782 133.809 520.297C134.111 520.659 134.413 521.082 134.695 521.484C136.304 523.738 137.833 526.152 139.161 528.667C141.737 533.617 143.467 538.989 143.185 544.642H143.206Z" stroke="#303030" stroke-width="2" stroke-linecap="round" stroke-linejoin="round"/>
<path d="M45.7643 511.484C45.7643 511.484 57.3736 529.23 64.6973 536.614" stroke="#303030" stroke-width="2" stroke-linecap="round" stroke-linejoin="round"/>
<path d="M31.2578 521.806C31.2578 521.806 39.4668 541.383 45.3217 549.974" stroke="#303030" stroke-width="2" stroke-linecap="round" stroke-linejoin="round"/>
<path d="M57.434 500.036C57.434 500.036 73.5098 513.899 82.6041 518.989" stroke="#303030" stroke-width="2" stroke-linecap="round" stroke-linejoin="round"/>
</svg>
