<svg width="378" height="361" viewBox="0 0 378 361" fill="none" xmlns="http://www.w3.org/2000/svg">
<g clip-path="url(#clip0_582_212)">
<path d="M26.7981 60.4678C53.0936 44.684 88.0634 43.7194 123.152 48.8887C154.063 53.4426 184.653 62.6861 208.806 70.2793L218.745 73.4141H218.746C268.722 89.1455 328.945 119.949 369.556 201.869C353.97 239.435 325.279 289.343 282.689 322.62C240.193 355.823 183.805 372.546 112.269 343.72L110.576 343.03L108.93 342.346C39.5638 313.178 11.4518 261.697 4.38503 208.066C-2.71274 154.2 11.443 98.1206 26.7981 60.4678Z" fill="#F9A726" stroke="black" stroke-width="5"/>
<path d="M107.727 5.17773C146.119 -1.38498 193.196 3.94447 240.074 22.8154L242.305 23.7236L242.306 23.7246C289.919 43.3199 327.945 73.113 350.979 105.315C374.037 137.551 381.868 171.852 369.963 200.826C358.059 229.8 328.382 248.661 289.333 255.335C250.935 261.898 203.852 256.574 156.974 237.715L154.743 236.807C107.142 217.211 69.1222 187.418 46.0912 155.216C23.3964 123.484 15.4531 89.7502 26.5658 61.0664L27.1097 59.7051V59.7041C39.0143 30.7183 68.6857 11.8514 107.727 5.17773Z" fill="#FFD469" stroke="black" stroke-width="5"/>
<path d="M241.037 26.846C332.206 64.3612 387.08 141.096 363.615 198.196C340.151 255.32 247.23 271.201 156.061 233.686C64.8917 196.171 10.0175 119.436 33.4821 62.3113C56.9467 5.21118 149.868 -10.6939 241.037 26.846Z" fill="#FDE8A5"/>
<path d="M238.693 35.9592C325.297 71.5974 378.419 142.157 357.324 193.528C336.228 244.898 248.883 257.642 162.254 222.004C75.6494 186.341 22.527 115.781 43.623 64.4105C64.7436 13.0402 152.064 0.321058 238.693 35.9592Z" fill="#FFD469"/>
<path d="M202.214 110.762C205.106 110.268 208.761 110.611 212.514 112.018L213.265 112.313L214.193 112.695C217.758 114.333 220.528 116.62 222.206 118.967C224.046 121.541 224.376 123.845 223.7 125.519C223.011 127.182 221.163 128.59 218.042 129.123C215.154 129.617 211.505 129.273 207.753 127.867L207.001 127.571L206.999 127.57L206.255 127.251C202.59 125.608 199.755 123.281 198.051 120.896C196.324 118.48 195.934 116.307 196.453 114.676L196.569 114.357C197.246 112.704 199.087 111.296 202.214 110.762Z" fill="#FDE8A5" stroke="black" stroke-width="5"/>
<path d="M222.72 127.559L356.361 211.482" stroke="black" stroke-width="3" stroke-miterlimit="10"/>
<path d="M215.227 129.643L242.838 247.96" stroke="black" stroke-width="3" stroke-miterlimit="10"/>
<path d="M205.433 125.808L136.248 214.817" stroke="black" stroke-width="3" stroke-miterlimit="10"/>
<path d="M198.524 123.215L54.9235 148.505" stroke="black" stroke-width="3" stroke-miterlimit="10"/>
<path d="M195.661 117.137L39.009 66.4355" stroke="black" stroke-width="3" stroke-miterlimit="10"/>
<path d="M198.991 110.467L101.187 15.7319" stroke="black" stroke-width="3" stroke-miterlimit="10"/>
<path d="M209.399 110.467L183.399 15.7319" stroke="black" stroke-width="3" stroke-miterlimit="10"/>
<path d="M218.973 114.636L259.616 41.0962" stroke="black" stroke-width="3" stroke-miterlimit="10"/>
<path d="M221.322 119.93H350.267" stroke="black" stroke-width="3" stroke-miterlimit="10"/>
</g>
<defs>
<clipPath id="clip0_582_212">
<rect width="378" height="361" fill="white"/>
</clipPath>
</defs>
</svg>
