<svg width="416" height="416" viewBox="0 0 416 416" fill="none" xmlns="http://www.w3.org/2000/svg">
<g clip-path="url(#clip0_699_93)">
<path d="M24.1539 298.975C20.6554 265.873 35.9332 231.205 57.1149 199.449C78.2129 167.818 104.979 139.344 124.27 118.513H124.301L124.747 118.032C163.085 76.6192 220.975 32.0753 319.807 30.1892C349.352 62.4191 389.188 118.663 406.218 180.961C423.181 243.009 417.512 310.936 356.611 367.322L355.162 368.651V368.652C294.439 423.93 226.566 422.588 166.302 399.32C106.194 376.112 53.8128 331.123 24.1539 298.975Z" fill="#8E6E54" stroke="black" stroke-width="3"/>
<path d="M23.8173 298.61C0.74388 273.544 -3.97046 235.821 7.45398 194.822C18.8323 153.989 46.1779 110.144 86.871 72.9744H86.8983L87.327 72.5837C128.256 35.3317 174.767 11.9811 216.821 4.29175C258.901 -3.40209 296.276 4.60605 319.352 29.6902C342.426 54.7721 347.14 92.4953 335.712 133.49C324.468 173.822 297.643 217.09 257.753 253.966L255.843 255.718L253.921 257.455C213.477 293.711 167.761 316.456 126.36 324.021C84.6054 331.651 47.4784 323.819 24.3612 299.195L23.8173 298.61Z" fill="#8CA33A" stroke="black" stroke-width="3"/>
<path d="M122.459 99.8448C124.255 102.067 129.949 111.351 128.579 112.508C127.208 113.665 118.775 106.755 116.795 104.685C114.847 102.584 114.573 99.7839 116.217 98.3837C117.831 96.9834 120.632 97.6531 122.459 99.8753V99.8448Z" fill="black"/>
<path d="M145.416 82.9503C146.725 85.5377 150.592 95.9179 149.1 96.892C147.608 97.8661 140.757 89.4645 139.235 86.9988C137.743 84.5636 137.956 81.6109 139.753 80.4541C141.549 79.2974 144.076 80.3933 145.416 82.9503Z" fill="black"/>
<path d="M127.756 81.3979C129.248 83.6505 133.724 92.9348 132.354 93.9698C130.984 94.9743 123.829 87.6991 122.215 85.5987C120.601 83.4374 120.601 80.7282 122.215 79.541C123.798 78.3538 126.295 79.2061 127.787 81.4283L127.756 81.3979Z" fill="black"/>
<path d="M151.718 79.1757C152.906 81.824 156.194 92.4173 154.672 93.2696C153.149 94.1829 146.816 85.5073 145.416 82.9503C144.046 80.4237 144.35 77.3797 146.177 76.2838C148.034 75.2488 150.501 76.5273 151.718 79.1452V79.1757Z" fill="black"/>
<path d="M176.99 67.1213C177.598 70.0436 178.664 81.4892 177.081 82.098C175.498 82.7373 171.113 72.6006 170.261 69.7696C169.439 66.9387 170.352 64.0164 172.301 63.2554C174.249 62.4943 176.35 64.2294 176.959 67.1213H176.99Z" fill="black"/>
<path d="M160.883 61.581C161.736 64.1989 163.745 74.6095 162.253 75.3097C160.761 76.0403 155.707 67.0603 154.672 64.5337C153.667 62.0072 154.276 59.2371 156.072 58.3847C157.869 57.5324 160 58.9631 160.883 61.581Z" fill="black"/>
<path d="M183.779 64.7773C184.206 67.7605 184.632 79.3279 183.049 79.7845C181.465 80.3629 177.69 70.0435 177.02 67.1212C176.381 64.2598 177.385 61.2462 179.364 60.5156C181.343 59.9068 183.323 61.7941 183.779 64.7469V64.7773Z" fill="black"/>
<path d="M210.147 59.0544C209.842 62.1898 207.498 74.0616 205.975 74.2746C204.422 74.4877 203.296 63.0726 203.296 59.9981C203.326 56.9236 205.001 54.1839 207.01 53.91C209.02 53.636 210.421 55.919 210.147 59.0544Z" fill="black"/>
<path d="M196.872 49.1613C196.933 52.0227 196.019 63.1335 194.466 63.4684C192.913 63.8032 190.599 53.4535 190.295 50.6529C190.021 47.822 191.33 45.1736 193.248 44.7475C195.167 44.3213 196.78 46.2999 196.872 49.1613Z" fill="black"/>
<path d="M216.936 58.6588C216.419 61.7942 213.283 73.6051 211.791 73.666C210.299 73.666 209.933 62.0986 210.147 59.0546C210.39 55.8888 212.217 53.21 214.196 53.1491C216.206 53.0578 217.423 55.5235 216.936 58.6588Z" fill="black"/>
<path d="M242.025 61.5811C240.533 64.5643 234.139 75.5533 232.891 75.1575C231.551 74.914 234.687 63.164 235.783 60.0591C236.91 56.9846 239.406 54.732 241.294 55.1277C243.121 55.6756 243.456 58.5675 242.025 61.5811Z" fill="black"/>
<path d="M233.895 46.9088C232.982 49.7702 228.354 60.6983 226.862 60.6374C225.37 60.5461 226.679 49.4353 227.319 46.513C227.989 43.5908 230.12 41.2773 232.038 41.399C233.956 41.5208 234.809 43.956 233.895 46.9392V46.9088Z" fill="black"/>
<path d="M248.053 63.5904C246.348 66.4822 239.071 76.9537 237.793 76.6798C236.544 76.2841 240.716 64.6253 242.025 61.5813C243.425 58.5677 246.013 56.5586 247.84 57.137C249.697 57.624 249.728 60.6681 248.053 63.5904Z" fill="black"/>
<path d="M267.54 76.8319C264.951 79.0845 254.539 87.0903 253.656 86.2684C252.773 85.477 260.78 75.249 263.064 72.692C265.378 70.1654 268.362 69.1304 269.732 70.3785C271.102 71.6266 270.097 74.5184 267.54 76.8319Z" fill="black"/>
<path d="M267.265 59.0546C265.195 61.5203 256.609 70.2567 255.513 69.4957C254.386 68.7651 260.263 58.1718 261.998 55.5844C263.825 52.9056 266.565 51.5967 268.148 52.6316C269.701 53.6666 269.336 56.528 267.296 59.0242L267.265 59.0546Z" fill="black"/>
<path d="M271.315 81.6415C268.544 83.681 257.614 90.7127 256.883 89.7691C256.152 88.8254 265.073 79.2062 267.57 76.8623C270.097 74.5184 273.081 73.8182 274.207 75.2794C275.364 76.7405 274.055 79.6019 271.315 81.6719V81.6415Z" fill="black"/>
<path d="M280.601 103.467C277.435 104.533 265.378 107.607 265.104 106.329C264.921 105.02 276.065 98.7489 279.109 97.2877C282.215 95.8875 285.229 96.1615 285.564 98.0488C285.96 99.9056 283.737 102.31 280.601 103.437V103.467Z" fill="black"/>
<path d="M288.974 85.9335C286.082 87.4251 275.243 91.8694 274.542 90.7127C273.903 89.5559 283.524 82.0371 286.204 80.2716C288.913 78.5365 291.836 78.4452 292.719 80.1194C293.633 81.7327 291.715 84.4724 288.944 85.9335H288.974Z" fill="black"/>
<path d="M281.545 109.799C278.348 110.621 266.322 112.66 266.169 111.321C265.865 110.073 277.435 104.685 280.571 103.498C283.707 102.341 286.569 102.919 286.995 104.776C287.208 106.694 284.712 108.947 281.545 109.799Z" fill="black"/>
<path d="M280.297 135.278C277.191 135.186 265.652 133.816 265.774 132.355C265.956 130.894 278.074 128.824 281.271 128.581C284.438 128.368 286.813 129.798 286.539 131.777C286.295 133.756 283.463 135.308 280.297 135.278Z" fill="black"/>
<path d="M294.363 121.245C291.349 121.549 280.145 121.671 280.175 120.179C280.205 118.718 291.532 115.309 294.546 114.7C297.56 114.122 299.935 115.217 299.905 117.135C299.844 119.053 297.378 120.91 294.363 121.245Z" fill="black"/>
<path d="M278.744 141.974C275.669 141.7 264.312 139.57 264.677 138.048C265.043 136.556 277.161 135.277 280.327 135.277C283.463 135.277 285.656 136.86 285.199 138.839C284.742 140.787 281.88 142.188 278.774 141.974H278.744Z" fill="black"/>
<path d="M269.275 167.392C266.443 166.449 256.426 161.822 257.127 160.3C257.766 158.778 269.275 160.239 272.228 160.908C275.151 161.639 276.887 163.77 276.095 165.657C275.212 167.545 272.107 168.306 269.275 167.392Z" fill="black"/>
<path d="M286.264 157.499C283.494 156.921 273.477 153.572 273.933 152.05C274.42 150.528 285.564 150.772 288.426 151.137C291.288 151.533 293.115 153.359 292.506 155.186C291.928 157.042 289.096 158.077 286.264 157.499Z" fill="black"/>
<path d="M266.017 173.815C263.277 172.719 253.503 167.484 254.265 165.992C255.026 164.5 266.383 166.57 269.245 167.423C272.107 168.305 273.66 170.528 272.716 172.384C271.772 174.241 268.758 174.881 266.017 173.846V173.815Z" fill="black"/>
<path d="M250.611 197.285C248.175 195.672 240.076 188.609 241.081 187.209C242.055 185.778 252.407 189.979 254.965 191.379C257.492 192.81 258.558 195.367 257.34 197.102C256.091 198.807 253.016 198.837 250.611 197.254V197.285Z" fill="black"/>
<path d="M268.788 191.379C266.352 190.101 258.04 184.256 258.862 182.826C259.715 181.395 269.884 184.439 272.411 185.535C274.938 186.661 276.156 188.944 275.121 190.649C274.147 192.353 271.193 192.627 268.788 191.379Z" fill="black"/>
<path d="M246.044 203.038C243.73 201.333 235.905 193.784 237.001 192.384C238.097 190.983 248.175 195.732 250.641 197.254C253.077 198.807 253.99 201.425 252.651 203.099C251.311 204.773 248.358 204.743 246.044 203.038Z" fill="black"/>
<path d="M226.344 223.677C224.426 221.546 218.245 212.566 219.524 211.318C220.803 210.07 229.602 216.554 231.673 218.532C233.713 220.511 234.139 223.342 232.617 224.833C231.094 226.295 228.293 225.808 226.344 223.677Z" fill="black"/>
<path d="M244.643 221.516C242.664 219.689 236.118 211.866 237.244 210.618C238.371 209.339 247.201 214.697 249.302 216.371C251.402 218.076 252.011 220.633 250.672 222.124C249.332 223.585 246.622 223.312 244.643 221.516Z" fill="black"/>
<path d="M220.712 228.487C218.915 226.264 213.191 216.98 214.561 215.823C215.932 214.667 224.365 221.577 226.344 223.677C228.293 225.777 228.567 228.608 226.923 229.978C225.309 231.378 222.508 230.709 220.712 228.487Z" fill="black"/>
<path d="M197.785 245.381C196.476 242.824 192.609 232.413 194.101 231.47C195.562 230.496 202.443 238.928 203.966 241.363C205.458 243.829 205.245 246.751 203.448 247.908C201.652 249.064 199.125 247.938 197.785 245.381Z" fill="black"/>
<path d="M215.444 246.933C213.983 244.681 209.507 235.396 210.877 234.361C212.247 233.357 219.402 240.602 221.016 242.763C222.63 244.924 222.63 247.634 221.016 248.821C219.433 250.008 216.936 249.156 215.444 246.903V246.933Z" fill="black"/>
<path d="M191.482 249.155C190.295 246.507 187.007 235.914 188.529 235.031C190.051 234.148 196.384 242.824 197.785 245.35C199.155 247.877 198.851 250.921 197.024 252.017C195.167 253.082 192.7 251.773 191.482 249.155Z" fill="black"/>
<path d="M166.211 261.21C165.602 258.288 164.537 246.842 166.12 246.233C167.703 245.624 172.088 255.731 172.94 258.562C173.762 261.392 172.849 264.315 170.9 265.076C168.952 265.837 166.851 264.132 166.242 261.21H166.211Z" fill="black"/>
<path d="M182.318 266.75C181.465 264.132 179.425 253.722 180.917 252.991C182.44 252.291 187.463 261.24 188.499 263.767C189.503 266.324 188.894 269.064 187.098 269.916C185.302 270.768 183.17 269.368 182.287 266.72L182.318 266.75Z" fill="black"/>
<path d="M159.422 263.554C158.995 260.571 158.569 249.034 160.152 248.547C161.736 247.968 165.511 258.288 166.181 261.21C166.851 264.071 165.815 267.085 163.836 267.815C161.857 268.424 159.878 266.506 159.422 263.554Z" fill="black"/>
<path d="M133.054 269.277C133.359 266.172 135.703 254.239 137.226 254.056C138.748 253.843 139.905 265.258 139.905 268.333C139.874 271.407 138.2 274.147 136.19 274.421C134.181 274.695 132.78 272.382 133.054 269.277Z" fill="black"/>
<path d="M146.299 279.17C146.238 276.308 147.151 265.198 148.735 264.863C150.287 264.497 152.601 274.847 152.906 277.678C153.18 280.509 151.84 283.157 149.922 283.584C148.004 284.01 146.39 282.031 146.299 279.17Z" fill="black"/>
<path d="M126.234 269.672C126.782 266.537 129.888 254.726 131.38 254.665C132.872 254.665 133.237 266.233 133.024 269.307C132.78 272.442 130.953 275.152 128.944 275.182C126.934 275.273 125.717 272.808 126.234 269.672Z" fill="black"/>
<path d="M101.146 266.75C102.607 263.736 109.031 252.778 110.28 253.174C111.619 253.417 108.483 265.167 107.387 268.272C106.261 271.347 103.764 273.599 101.876 273.203C100.049 272.625 99.7146 269.733 101.146 266.75Z" fill="black"/>
<path d="M109.305 281.422C110.219 278.531 114.847 267.602 116.339 267.694C117.831 267.785 116.521 278.896 115.882 281.818C115.212 284.74 113.111 287.054 111.163 286.932C109.244 286.78 108.392 284.345 109.305 281.392V281.422Z" fill="black"/>
<path d="M95.1476 264.741C96.8526 261.849 104.129 251.378 105.408 251.652C106.657 252.017 102.516 263.706 101.176 266.75C99.7755 269.764 97.1875 271.773 95.3607 271.194C93.5034 270.677 93.473 267.694 95.1476 264.741Z" fill="black"/>
<path d="M75.6309 251.499C78.2189 249.216 88.6318 241.241 89.5148 242.063C90.3978 242.885 82.3902 253.082 80.1066 255.639C77.7926 258.166 74.7784 259.231 73.4387 257.953C72.0686 256.705 73.0733 253.813 75.6309 251.499Z" fill="black"/>
<path d="M75.9353 269.277C78.0057 266.811 86.5918 258.075 87.6879 258.836C88.784 259.566 82.9382 270.129 81.2027 272.717C79.3758 275.426 76.6356 276.704 75.0828 275.669C73.4995 274.634 73.8953 271.773 75.9353 269.277Z" fill="black"/>
<path d="M71.8859 246.69C74.6566 244.65 85.5871 237.619 86.3179 238.562C87.0486 239.506 78.1276 249.095 75.6309 251.499C73.1038 253.813 70.12 254.543 68.963 253.082C67.8364 251.621 69.1457 248.76 71.8555 246.69H71.8859Z" fill="black"/>
<path d="M62.5995 224.864C65.766 223.798 77.8231 220.724 78.0971 222.003C78.2798 223.311 67.1057 229.582 64.0914 231.013C60.9858 232.413 57.9715 232.139 57.6366 230.252C57.2408 228.395 59.4634 225.99 62.5995 224.864Z" fill="black"/>
<path d="M54.2265 242.367C57.119 240.876 67.9582 236.431 68.628 237.588C69.2674 238.745 59.6461 246.264 56.9667 248.029C54.2569 249.764 51.334 249.825 50.451 248.181C49.5376 246.538 51.4558 243.828 54.2265 242.367Z" fill="black"/>
<path d="M61.6251 218.532C64.8221 217.741 76.8487 215.671 77.0009 217.01C77.3054 218.258 65.7355 223.646 62.5994 224.834C59.4633 225.99 56.6013 225.412 56.1751 223.525C55.9619 221.607 58.4586 219.354 61.6251 218.502V218.532Z" fill="black"/>
<path d="M62.9039 193.054C65.9791 193.145 77.5795 194.515 77.4273 195.976C77.2446 197.437 65.1266 199.507 61.9296 199.75C58.7631 199.964 56.3882 198.533 56.6623 196.554C56.8754 194.576 59.7374 192.993 62.9039 193.054Z" fill="black"/>
<path d="M48.8373 207.087C51.8212 206.782 63.0562 206.691 63.0257 208.152C62.9648 209.613 51.6385 213.023 48.6546 213.631C45.6708 214.21 43.2655 213.114 43.2959 211.196C43.3568 209.278 45.8231 207.452 48.8373 207.087Z" fill="black"/>
<path d="M64.4262 186.326C67.5014 186.6 78.8582 188.731 78.4928 190.253C78.1579 191.745 66.0399 192.993 62.8734 193.054C59.7373 193.054 57.5451 191.471 58.0018 189.492C58.4586 187.514 61.3206 186.113 64.4262 186.357V186.326Z" fill="black"/>
<path d="M73.9258 160.939C76.7574 161.883 86.7745 166.54 86.0437 168.032C85.4348 169.554 73.8953 168.092 70.9419 167.423C68.019 166.723 66.2835 164.592 67.0751 162.674C67.9581 160.787 71.0637 160.056 73.8953 160.939H73.9258Z" fill="black"/>
<path d="M56.9363 170.832C59.707 171.411 69.7241 174.759 69.2674 176.281C68.7802 177.803 57.6365 177.59 54.7745 177.225C51.9125 176.829 50.0856 175.033 50.6946 173.146C51.2731 171.289 54.1047 170.284 56.9363 170.832Z" fill="black"/>
<path d="M77.1836 154.516C79.9239 155.612 89.667 160.848 88.9362 162.339C88.175 163.831 76.8182 161.791 73.9562 160.939C71.0942 160.056 69.5414 157.804 70.4852 155.947C71.4291 154.09 74.4434 153.451 77.1836 154.516Z" fill="black"/>
<path d="M92.5595 131.046C94.9953 132.66 103.125 139.691 102.089 141.122C101.115 142.553 90.7631 138.352 88.236 136.952C85.7089 135.521 84.6432 132.964 85.8307 131.198C87.079 129.494 90.1542 129.463 92.5595 131.016V131.046Z" fill="black"/>
<path d="M74.4129 136.952C76.8487 138.23 85.1608 144.075 84.3387 145.536C83.4862 146.967 73.3168 143.892 70.7897 142.796C68.2626 141.67 67.0447 139.387 68.0799 137.713C69.0542 136.008 72.0076 135.734 74.4129 136.982V136.952Z" fill="black"/>
<path d="M97.157 125.263C99.471 126.998 107.296 134.547 106.2 135.917C105.104 137.287 95.0257 132.568 92.5594 131.016C90.1237 129.433 89.2103 126.845 90.5499 125.171C91.8896 123.497 94.843 123.527 97.157 125.232V125.263Z" fill="black"/>
<path d="M116.826 104.654C118.744 106.785 124.925 115.765 123.646 117.013C122.367 118.261 113.598 111.777 111.528 109.799C109.458 107.82 109.062 104.989 110.584 103.498C112.107 102.006 114.908 102.523 116.856 104.624L116.826 104.654Z" fill="black"/>
<path d="M98.5576 106.816C100.537 108.642 107.083 116.465 105.956 117.713C104.83 118.961 96 113.604 93.8991 111.93C91.7983 110.225 91.1893 107.637 92.529 106.176C93.8687 104.715 96.5785 104.989 98.5576 106.785V106.816Z" fill="black"/>
<path d="M125.389 206.223C118.392 198.615 116.86 187.048 120.433 174.221C124 161.418 132.61 147.597 145.482 135.869L145.508 135.845L145.533 135.821L145.537 135.815C158.418 124.101 173.017 116.801 186.153 114.406C199.323 112.005 210.78 114.557 217.781 122.169C224.778 129.777 226.31 141.344 222.734 154.17C219.164 166.973 210.545 180.794 197.659 192.522C184.772 204.25 170.169 211.567 157.028 213.971C143.862 216.38 132.405 213.835 125.389 206.223Z" fill="#FDE8A5" stroke="black" stroke-width="3"/>
</g>
<defs>
<clipPath id="clip0_699_93">
<rect width="416" height="416" fill="white" transform="matrix(0 -1 1 0 0 416)"/>
</clipPath>
</defs>
</svg>
