<svg width="497" height="542" viewBox="0 0 497 542" fill="none" xmlns="http://www.w3.org/2000/svg">
<g clip-path="url(#clip0_582_342)">
<path d="M378.901 86.3631C379.876 86.9718 380.609 87.6459 380.996 88.2341C381.285 88.6734 381.295 88.906 381.265 89.0234L381.232 89.1056C379.163 92.7235 375.149 98.0441 370.237 104.068C365.344 110.068 359.625 116.688 354.195 122.88C348.779 129.057 343.627 134.837 339.924 139.095C338.071 141.225 336.557 143.001 335.538 144.277C335.033 144.909 334.622 145.453 334.349 145.87C334.22 146.067 334.077 146.304 333.978 146.541C333.934 146.649 333.852 146.864 333.832 147.131C333.813 147.379 333.833 148.029 334.424 148.491L334.423 148.492C337.097 150.593 339.152 153.077 340.39 155.2C341.011 156.265 341.397 157.188 341.569 157.887C341.65 158.214 341.67 158.433 341.672 158.568C341.559 158.567 341.386 158.554 341.128 158.503C340.311 158.343 339.146 157.896 337.659 157.159C334.714 155.699 330.908 153.307 326.859 150.63C322.887 148.003 319.609 145.23 317.519 142.902C316.744 142.038 316.165 141.27 315.773 140.623C315.813 140.652 315.854 140.681 315.895 140.711C316.376 141.055 316.932 141.449 317.54 141.835C319.865 143.311 323.29 144.884 327.173 143.215L327.55 143.043C332.855 140.492 338.216 135.553 343.276 129.718C348.359 123.857 353.244 116.966 357.578 110.372C361.912 103.779 365.721 97.4409 368.628 92.7013C370.088 90.3215 371.309 88.362 372.263 86.9586C372.741 86.2548 373.131 85.7205 373.436 85.3534C373.589 85.1696 373.702 85.051 373.778 84.9808C373.779 84.9792 373.781 84.9771 373.782 84.9756C374.185 84.8412 374.886 84.8166 375.856 85.0518C376.853 85.2938 377.942 85.7639 378.901 86.3631Z" fill="#8E6E54" stroke="black" stroke-width="3"/>
<path d="M335.075 71.0699C336.432 72.0063 338.3 73.4032 340.327 75.2336C344.268 78.7923 348.742 83.9273 351.293 90.4434L351.534 91.0779C354.034 97.8855 353.962 104.966 353.235 110.402C352.873 113.111 352.352 115.386 351.923 116.98C351.858 117.221 351.792 117.446 351.733 117.654C351.552 117.534 351.356 117.406 351.151 117.264C349.793 116.327 347.924 114.929 345.896 113.099C341.954 109.539 337.48 104.404 334.935 97.8928L334.694 97.2583L334.694 97.257L334.467 96.6189C332.198 90.0092 332.289 83.1993 332.993 77.933C333.355 75.2243 333.875 72.9489 334.304 71.3553C334.369 71.1136 334.435 70.8884 334.495 70.6793C334.675 70.7996 334.87 70.9284 335.075 71.0699Z" fill="#8CA33A" stroke="black" stroke-width="3"/>
<path d="M334.603 150.481C337.447 151.499 340.876 153.859 344.293 157.05C347.688 160.22 350.97 164.116 353.535 168.079C355.953 171.815 357.673 175.512 358.31 178.653L358.423 179.274C361.89 200.814 355.649 232.201 336.407 275.212L336.39 275.216L336.074 275.918C323.264 304.411 322.375 337.627 320.972 368.946C319.561 400.449 317.627 429.928 303.189 451.764C273.715 496.339 234.252 506.967 200.556 500.718C183.663 497.586 168.196 490.205 156.143 480.682C144.075 471.147 135.523 459.54 132.304 448.014L131.954 446.761L130.665 446.93C118.798 448.481 104.771 445.158 91.2714 437.787C77.7888 430.426 64.9406 419.083 55.4435 404.766C36.4991 376.207 30.8275 335.733 60.3017 291.159C74.7401 269.323 101.109 256 129.545 242.365C157.373 229.022 187.088 215.414 208.237 193.101L209.238 192.032C241.01 157.662 267.291 139.49 288.415 133.902L289.417 133.645L289.417 133.646C292.631 132.848 296.955 132.945 301.63 133.758C306.28 134.566 311.148 136.059 315.393 137.94C319.666 139.834 323.178 142.064 325.227 144.281C326.248 145.386 326.826 146.401 327.028 147.287C327.218 148.118 327.1 148.917 326.553 149.745L329.055 151.399L329.159 151.249C329.689 150.52 330.345 150.141 331.131 150C332.026 149.839 333.186 149.974 334.603 150.481Z" fill="#E8D05B" stroke="black" stroke-width="3"/>
<path d="M323.635 156.904C335.322 164.632 343.102 172.167 347.698 180.396C352.275 188.591 353.771 197.61 352.641 208.462C351.508 219.355 347.734 232.049 341.802 247.531C336.615 261.071 329.808 276.661 321.742 294.956L318.209 302.964C307.35 327.588 307.902 353.225 308.003 377.077C308.105 401.071 307.74 423.144 295.621 441.472C268.311 482.773 231.965 492.738 201.005 487.107C185.481 484.284 171.284 477.534 160.237 468.792C149.176 460.038 141.364 449.364 138.451 438.752L138.104 437.487L136.804 437.663C125.897 439.141 113.016 436.134 100.629 429.384C88.2593 422.643 76.4888 412.223 67.8124 399.043C50.5095 372.759 45.4487 335.41 72.7584 294.108C84.8775 275.78 105.048 266.804 127.168 257.503C148.813 248.402 172.219 239.025 190.496 220.002L191.362 219.089C207.66 201.697 221.214 187.189 233.131 175.674C245.054 164.154 255.257 155.711 264.836 150.402C274.38 145.114 283.264 142.958 292.597 143.961C301.968 144.968 311.947 149.175 323.635 156.904Z" fill="#E7E1C2" stroke="black" stroke-width="3"/>
<path d="M183.343 331.044C192.015 324.969 196.967 317.077 194.403 313.416C191.839 309.755 182.731 311.712 174.059 317.786C165.387 323.86 160.436 331.752 162.999 335.413C165.563 339.074 174.671 337.118 183.343 331.044Z" fill="#8E6E54"/>
<path d="M222.227 374.602C226.6 375.527 231.923 367.881 234.116 357.523C236.31 347.165 234.543 338.018 230.171 337.092C225.798 336.167 220.475 343.813 218.282 354.171C216.088 364.529 217.855 373.676 222.227 374.602Z" fill="#8E6E54"/>
</g>
<defs>
<clipPath id="clip0_582_342">
<rect width="294.184" height="455.123" fill="white" transform="translate(251.027) rotate(33.474)"/>
</clipPath>
</defs>
</svg>
