<svg width="457" height="457" viewBox="0 0 457 457" fill="none" xmlns="http://www.w3.org/2000/svg">
<g clip-path="url(#clip0_582_379)">
<path d="M375.17 153.913C394.381 171.487 404.294 191.508 405.533 214.144C406.747 236.331 399.636 261.196 384.458 288.909L384.454 288.904L383.404 290.785C335.148 377.215 235.333 403.825 155.585 364.297L153.705 363.351C108.262 340.142 79.1541 308.801 67.351 272.711C55.7364 237.198 60.7955 196.833 83.9498 154.677L85.0659 152.668L85.8709 151.253C120.115 91.6918 177.271 77.6811 207.303 77.3983L207.303 77.3996C237.94 77.1245 252.346 83.8712 263.309 92.8633C268.896 97.4458 273.541 102.559 279.123 107.915C284.487 113.061 290.568 118.272 298.803 122.97L299.606 123.423C313.653 131.249 326.307 132.938 338.394 135.644C350.286 138.306 361.883 141.978 374.565 153.364L375.17 153.913Z" fill="#F37C6C" stroke="black" stroke-width="3"/>
<path d="M376.066 157.396C392.639 173.242 401.229 192.478 402.098 214.219C402.966 235.934 396.133 260.251 381.66 286.259L381.65 286.267L381.519 286.501C337.192 365.899 247.15 397.314 178.364 360.272L176.743 359.384C108.297 321.263 86.8159 228.595 130.132 148.977L131.167 147.099L131.168 147.098C143.947 124.207 157.705 107.935 173.465 97.506C188.955 87.256 206.484 82.5803 227.14 82.9261L228.127 82.9466C246.732 83.4007 273.691 93.941 279.608 122.408L279.744 123.084C280.73 128.159 279.36 136.642 276.388 145.138C273.517 153.345 269.292 161.165 264.735 165.565L264.292 165.981L264.29 165.983C263.393 166.804 263.118 167.887 263.352 168.955C263.56 169.902 264.144 170.765 264.79 171.491C266.102 172.965 268.161 174.413 270.243 175.552C272.328 176.693 274.615 177.624 276.457 177.957C277.345 178.118 278.345 178.183 279.201 177.882C279.659 177.721 280.13 177.435 280.477 176.956C280.784 176.532 280.924 176.053 280.952 175.58L280.958 175.378L280.957 175.375L280.961 174.85C281.1 169.363 284.161 161.805 289.031 154.768C294.041 147.529 300.742 141.167 307.541 138.375L307.541 138.376C317.939 134.117 331.761 135.674 344.806 140.009C357.412 144.197 368.949 150.865 375.452 156.821L376.066 157.395L376.066 157.396Z" fill="#FDD185" stroke="black" stroke-width="3"/>
<path d="M313.614 253.584C287.309 300.712 195.82 305.088 195.82 305.088C195.82 305.088 151.853 225.302 178.17 178.164C193.203 151.242 212.307 141.152 236.035 141.078C246.642 141.047 259.355 149.789 262.109 166.956C263.11 173.234 271.4 179.029 279.478 175.414C291.741 169.91 310.559 174.78 317.655 181.807C335.88 199.828 330.767 222.885 313.637 253.586L313.614 253.584Z" fill="#F7C06F"/>
<path d="M269.307 171.499C277.337 175.606 283.712 181.551 286.497 187.422L286.756 187.989C292.359 200.872 293.594 217.12 281.139 239.996L280.535 241.09C270.575 258.938 251.347 271.148 234.396 278.918C225.949 282.79 218.129 285.531 212.422 287.304C209.57 288.19 207.248 288.834 205.642 289.254C205.202 289.37 204.815 289.467 204.487 289.55C204.384 289.228 204.265 288.848 204.132 288.414C203.646 286.829 202.973 284.519 202.228 281.63C200.737 275.85 198.96 267.765 197.816 258.554C195.556 240.357 195.799 218.024 205.308 200.306L205.768 199.465C217.319 178.781 228.579 169.581 242.35 166.873L242.35 166.875C251.279 165.122 261.044 167.272 269.307 171.499Z" fill="#CE844D" stroke="black" stroke-width="3"/>
</g>
<defs>
<clipPath id="clip0_582_379">
<rect width="323.02" height="324.608" fill="white" transform="translate(246.768) rotate(49.4822)"/>
</clipPath>
</defs>
</svg>
