<svg width="604" height="643" viewBox="0 0 604 643" fill="none" xmlns="http://www.w3.org/2000/svg">
<g clip-path="url(#clip0_582_133)">
<path d="M223.467 298.914C253.669 318.029 274.9 338 285.711 359.91C296.265 381.301 296.968 404.705 286.083 431.322L286.068 431.313L285.377 432.939C275.138 457.082 252.593 487.884 221.543 505.572C190.604 523.197 151.162 527.851 106.731 499.73C62.3034 471.611 49.0973 433.278 50.6743 396.837C52.2315 360.857 68.2169 326.685 83.0338 306.122L83.7383 305.153C99.9295 283.102 119.812 272.134 143.046 271.295C166.372 270.454 193.29 279.814 223.467 298.914Z" fill="#DD2526" stroke="black" stroke-width="3"/>
<path d="M224.931 357.541C219.638 362.152 176.491 358.584 151.547 329.72C126.587 300.882 155.957 273.179 165.231 282.291C174.52 291.376 156.266 298.16 170.447 313.331C196.49 341.197 230.241 352.904 224.906 357.525L224.931 357.541Z" fill="#FF666E"/>
<path d="M333.33 357.258C362.622 361.072 386.311 368.921 402.86 382.058C419.342 395.14 428.871 413.566 429.699 438.893L429.755 440.629C430.096 462.953 423.551 493.981 406.26 518.252C388.72 542.873 360.095 560.609 316.041 555.218L314.997 555.087C271.251 549.396 247.193 524.425 235.072 495.541C223.102 467.016 222.788 434.665 226.877 413.377L227.075 412.372C231.713 389.447 243.201 373.806 260.918 364.802C278.716 355.757 302.991 353.313 333.33 357.259L333.33 357.258Z" fill="#DD2526" stroke="black" stroke-width="3"/>
<path d="M355.683 402.11C353.211 407.606 318.382 420.398 288.549 406.992C258.715 393.585 271.572 361.447 282.087 365.185C292.603 368.922 280.836 380.748 297.368 387.429C327.699 399.709 358.18 396.629 355.708 402.126L355.683 402.11Z" fill="#FF666E"/>
<path d="M481.016 141.913C454.059 159.179 431.02 186.061 411.958 215.511L414.16 217.492C417.149 215.073 420.37 212.817 423.891 210.845L424.599 210.455L424.602 210.453C437.616 203.346 451.894 201.389 462.979 201.229C468.512 201.149 473.224 201.517 476.548 201.905C477.945 202.067 479.095 202.234 479.957 202.371C479.603 203.17 479.118 204.228 478.496 205.49C477.014 208.494 474.763 212.654 471.692 217.261C465.539 226.491 456.151 237.433 443.146 244.527C423.635 255.146 401.364 254.251 391.299 253.091L390.272 252.973L389.796 253.891C373.713 284.944 361.717 315.681 353.856 338.675C349.926 350.174 347.026 359.746 345.165 366.463C344.235 369.819 343.563 372.473 343.149 374.304C342.944 375.215 342.797 375.947 342.716 376.468C342.677 376.718 342.645 376.971 342.639 377.187C342.636 377.282 342.634 377.462 342.672 377.66C342.69 377.754 342.736 377.954 342.863 378.171C342.995 378.395 343.302 378.773 343.861 378.893L343.862 378.894C347.846 379.745 351.379 381.343 353.848 382.991C355.086 383.817 356.008 384.623 356.584 385.309C357.029 385.84 357.154 386.163 357.191 386.292C357.099 386.366 356.864 386.508 356.309 386.655C355.312 386.919 353.8 387.05 351.817 387.04C348.373 387.022 343.852 386.585 338.926 385.971L336.793 385.697L336.787 385.696C331.135 384.974 326.153 383.725 322.674 382.322C320.924 381.615 319.634 380.903 318.833 380.253C318.392 379.894 318.191 379.634 318.099 379.473C318.27 379.39 318.528 379.292 318.896 379.191C319.903 378.915 321.326 378.723 322.991 378.556C324.561 378.398 326.491 378.25 328.11 378.077C329.767 377.899 331.41 377.666 332.67 377.276L333.419 377.044L333.656 376.295C352.381 317.099 374.322 245.538 406.346 200.989C424.073 176.39 438.193 160.601 450.99 152.045L449.662 149.382C391.99 169.51 335.158 213.166 292.977 251.814C271.87 271.152 254.398 289.269 242.283 302.617C236.225 309.291 231.502 314.779 228.33 318.637C226.746 320.563 225.54 322.094 224.745 323.169C224.351 323.701 224.038 324.148 223.83 324.485C223.731 324.644 223.622 324.834 223.542 325.021C223.508 325.103 223.436 325.28 223.406 325.501C223.392 325.608 223.286 326.408 224 326.946L223.999 326.947C227.818 329.832 230.787 333.282 232.602 336.262C233.512 337.756 234.101 339.082 234.379 340.119C234.518 340.637 234.568 341.041 234.562 341.332C234.557 341.591 234.508 341.7 234.497 341.723C234.484 341.73 234.443 341.754 234.353 341.774C234.133 341.822 233.744 341.834 233.135 341.726C231.916 341.51 230.226 340.892 228.126 339.903C223.955 337.937 218.573 334.702 212.883 331.101C207.268 327.547 202.597 323.762 199.587 320.545C198.074 318.928 197.04 317.518 196.496 316.404C196.073 315.536 196.051 315.078 196.082 314.873C196.323 314.839 196.731 314.849 197.341 314.953C198.561 315.16 200.175 315.665 202.017 316.308C203.779 316.923 205.847 317.701 207.662 318.317C209.499 318.941 211.333 319.491 212.834 319.684L213.607 319.784L214.133 319.208C251.125 278.738 293.623 231.51 336.381 197.348L337.909 196.127L336.335 194.967C325.797 187.208 309.765 172.825 301.538 152.542L301.152 151.571L301.151 151.571C294.85 135.424 294.709 118.573 296.17 105.7C296.9 99.2737 298.026 93.8637 298.969 90.0652C299.409 88.2921 299.809 86.8717 300.109 85.8646C301.01 86.4027 302.265 87.1766 303.787 88.1831C307.048 90.34 311.534 93.5584 316.415 97.7938C326.04 106.144 337.128 118.385 343.463 134.172L343.761 134.925C350.771 152.974 350.121 171.884 348.155 185.126L347.631 188.66L350.521 186.559C359.411 180.097 368.265 174.308 377.052 169.349L377.051 169.347C407.071 152.425 428.524 145.837 446.474 143.324C455.46 142.065 463.601 141.823 471.556 141.833C474.713 141.836 477.858 141.878 481.016 141.913Z" fill="#8CA33A" stroke="black" stroke-width="3"/>
</g>
<defs>
<clipPath id="clip0_582_133">
<rect width="390" height="513" fill="white" transform="translate(274.404 0.477051) rotate(32.3302)"/>
</clipPath>
</defs>
</svg>
