<svg width="346" height="415" viewBox="0 0 346 415" fill="none" xmlns="http://www.w3.org/2000/svg">
<g clip-path="url(#clip0_582_333)">
<path d="M178.761 1.50488C180.126 1.46939 181.319 1.65593 182.124 2C182.918 2.33901 183.06 2.68438 183.078 2.91113H183.079C183.399 7.78628 182.915 15.5696 182.009 24.5986C181.106 33.5966 179.795 43.7307 178.49 53.2598C177.189 62.7676 175.888 71.7136 175.019 78.2471C174.584 81.5166 174.252 84.2193 174.079 86.1152C173.994 87.0551 173.942 87.8399 173.944 88.4102C173.944 88.6821 173.956 88.9855 174.007 89.2549C174.03 89.3786 174.081 89.6067 174.209 89.8428C174.319 90.0451 174.653 90.5392 175.321 90.6562L175.459 90.6748L175.469 90.6758C179.465 91.0062 183.104 92.1125 185.711 93.3965C187.019 94.0406 188.015 94.7039 188.657 95.293C189.119 95.7158 189.284 95.9971 189.346 96.124C189.273 96.2028 189.068 96.3699 188.54 96.5869C187.609 96.9697 186.156 97.2884 184.224 97.5283C180.39 98.0044 175.116 98.125 169.428 98.125C163.83 98.125 158.819 97.5367 155.253 96.6113C153.459 96.1457 152.115 95.6161 151.256 95.0879C151.202 95.0549 151.154 95.0195 151.107 94.9883C151.465 94.9943 151.871 95.0099 152.34 95.0264C153.032 95.0506 153.823 95.0751 154.658 95.0586C157.859 94.9953 162.104 94.3221 164.752 90.3037L165.004 89.9043V89.9033C168.509 84.0438 170.547 75.8202 171.718 66.8877C172.893 57.9203 173.214 48.0759 173.189 38.8691C173.163 29.6617 172.791 21.0427 172.572 14.5537C172.461 11.2973 172.391 8.59776 172.418 6.61133C172.432 5.61562 172.47 4.83548 172.533 4.27051C172.565 3.98761 172.6 3.78834 172.632 3.6582C172.639 3.63146 172.645 3.61061 172.65 3.59473C172.982 3.13854 173.71 2.62265 174.865 2.20605C176.021 1.78874 177.413 1.53997 178.761 1.50488Z" fill="#8E6E54" stroke="black" stroke-width="3"/>
<path d="M126.143 14.856C128.081 14.8941 130.818 15.052 133.991 15.5308C140.158 16.4612 147.879 18.5897 154.607 23.3228L155.254 23.7896C162.131 28.8508 166.651 35.8302 169.459 41.6069C170.859 44.4869 171.823 47.0455 172.435 48.8794C172.57 49.2851 172.687 49.6552 172.789 49.9849C172.441 49.9856 172.05 49.984 171.618 49.9751C169.679 49.9352 166.942 49.7757 163.769 49.2954C157.602 48.362 149.88 46.2324 143.151 41.5093L142.504 41.0444C135.628 35.9957 131.109 29.0174 128.301 23.2378C126.901 20.3565 125.938 17.7953 125.325 15.9595C125.189 15.5512 125.071 15.1786 124.969 14.8472C125.317 14.846 125.71 14.8475 126.143 14.856Z" fill="#8CA33A" stroke="black" stroke-width="3"/>
<path d="M70.3793 84.1582C89.094 78.2365 109.191 76.1129 127.317 77.2227C144.358 78.2661 159.53 82.1591 170.155 88.3242L167.867 89.7988H178.083L175.796 88.3242C186.426 82.1586 201.604 78.2673 218.65 77.2256C236.779 76.1177 256.877 78.2439 275.593 84.167C312.736 95.9216 344.135 122.481 344.474 168.188L344.476 169.271V169.272C344.405 194.345 332.856 221.85 318.42 250.157C304.277 277.89 287.344 306.416 276.337 333.627L275.818 334.922H275.817C273.598 340.497 271.578 346.342 269.561 352.145C267.539 357.96 265.519 363.737 263.284 369.237C258.943 379.918 253.86 389.372 246.604 395.856L245.895 396.475C234.146 406.463 219.494 411.627 206.031 413.076C192.506 414.532 180.466 412.215 173.847 407.595L172.986 406.994L172.127 407.596C165.772 412.051 154.05 414.153 140.828 412.689C127.88 411.256 113.798 406.431 102.456 397.433L101.918 397.001L101.917 397L101.165 396.376C93.463 389.833 88.0477 380.508 83.432 369.864C81.0536 364.38 78.9033 358.583 76.7601 352.677C74.8889 347.52 73.0205 342.274 71.0228 337.123L70.1586 334.922C59.1823 307.322 41.9422 278.33 27.5746 250.157C13.3639 222.292 1.94389 195.204 1.51208 170.448L1.50037 169.271C1.34802 122.888 32.9475 96.0023 70.3793 84.1582Z" fill="#CC2A27" stroke="black" stroke-width="3"/>
<path d="M214.981 88.2085C231.617 87.1824 250.062 89.1509 267.239 94.6362C301.322 105.521 330.127 130.11 330.449 172.442L330.451 173.445C330.38 195.535 320.802 219.757 308.696 244.803C297.028 268.942 282.985 293.886 273.362 317.921L272.444 320.245C269.5 327.801 266.889 335.264 264.391 342.381C261.889 349.51 259.503 356.285 256.997 362.515C252.125 374.628 246.884 384.446 239.712 390.645L239.012 391.234C228.663 399.693 215.935 402.7 203.947 402.449C191.938 402.197 180.818 398.679 173.81 394.273L173.011 393.771L172.213 394.273C165.244 398.658 154.134 401.554 142.082 401.165C130.244 400.782 117.654 397.236 107.334 389.006L106.845 388.611H106.844C99.2901 382.438 93.9053 373 88.9252 361.172C84.2293 350.02 80.0502 337.169 74.6722 323.079L73.5795 320.245C63.9477 295.497 49.372 269.727 37.3275 244.812C25.4103 220.16 15.9435 196.303 15.5834 174.482L15.5736 173.445C15.4331 130.498 44.4212 105.607 78.7758 94.6362C95.954 89.1507 114.402 87.1823 131.04 88.2085C147.706 89.2364 162.412 93.2589 172.195 99.6187L173.012 100.15L173.829 99.6187C183.612 93.2588 198.317 89.2363 214.981 88.2085Z" fill="#E7E1C2" stroke="black" stroke-width="3"/>
<path d="M204.336 214.201C202.52 221.354 190.956 247.608 185.078 246.797C179.224 245.962 181.303 218.374 183.119 211.196C184.935 204.043 191.147 198.892 197.025 199.727C202.879 200.561 206.152 207.023 204.336 214.201Z" fill="black"/>
<path d="M141.664 214.201C143.48 221.354 155.044 247.608 160.922 246.797C166.776 245.962 164.697 218.374 162.881 211.196C161.065 204.043 154.853 198.892 148.975 199.727C143.121 200.561 139.848 207.023 141.664 214.201Z" fill="black"/>
</g>
<defs>
<clipPath id="clip0_582_333">
<rect width="346" height="415" fill="white"/>
</clipPath>
</defs>
</svg>
