<svg width="316" height="415" viewBox="0 0 316 415" fill="none" xmlns="http://www.w3.org/2000/svg">
<g clip-path="url(#clip0_582_325)">
<path d="M94.4456 226.323C123.384 226.323 146.513 230.787 163.344 241.048C179.68 251.007 190.238 266.521 194.35 289.17H194.341L194.628 290.914C198.071 311.798 195.985 342.54 182.427 367.997C168.928 393.343 144.034 413.524 101.539 413.524C59.0496 413.524 33.4871 393.098 18.8216 367.585C4.1013 341.977 0.354317 311.202 1.76788 290.773L1.76691 290.772C3.29173 268.77 12.1148 252.757 27.5775 242.188C43.1158 231.567 65.5355 226.323 94.4456 226.323Z" fill="#DD2526" stroke="black" stroke-width="3"/>
<path d="M120.852 265.479C119.227 270.921 88.139 287.149 58.5541 278.21C28.9691 269.296 37.0736 237.653 47.3704 239.869C57.6673 242.061 48.1094 254.595 64.3922 258.83C94.2974 266.612 122.478 260.012 120.828 265.479H120.852Z" fill="#FF666E"/>
<path d="M195.064 218.649C216.75 208.593 236.315 203.733 253.265 205.544C270.129 207.347 284.565 215.77 296.063 232.661L296.833 233.791C306.721 248.86 315.672 272.857 314.354 296.871C313.03 320.998 301.351 345.216 269.529 360.563L267.999 361.288C235.684 376.276 208.498 369.637 187.755 355.187C167.255 340.905 153.052 318.978 146.644 302.7L146.345 301.929C139.614 284.322 140.704 268.755 148.881 255.021C156.849 241.64 171.645 229.826 192.979 219.63L195.064 218.649Z" fill="#DD2526" stroke="black" stroke-width="3"/>
<path d="M229.684 239.377C230.374 244.204 212.071 268.016 185.836 271.759C159.601 275.502 154.477 247.971 163.296 245.977C172.115 243.982 169.184 257.156 183.397 254.571C209.484 249.843 229.019 234.551 229.709 239.377H229.684Z" fill="#FF666E"/>
<path d="M202.088 8.03418C191.388 31.3812 187.356 59.4242 187.07 87.4766L189.991 87.9727C190.985 85.039 192.206 82.1177 193.753 79.2637L194.067 78.6943L194.069 78.6904C199.869 68.2578 208.755 60.7747 216.253 55.8838C219.994 53.4434 223.369 51.6622 225.804 50.4932C226.657 50.0837 227.393 49.7499 227.989 49.4893C228.081 50.1324 228.185 50.9336 228.285 51.873C228.571 54.557 228.833 58.3619 228.727 62.8252C228.514 71.7702 226.832 83.2596 221.033 93.6807C212.32 109.302 196.75 118.292 189.373 121.846L188.44 122.296L188.529 123.327C190.976 151.529 196.084 177.744 200.669 196.873C202.962 206.439 205.126 214.241 206.765 219.644C207.583 222.343 208.274 224.453 208.786 225.89C209.041 226.603 209.26 227.174 209.435 227.574C209.518 227.765 209.612 227.965 209.71 228.131C209.752 228.202 209.841 228.348 209.976 228.49C210.039 228.558 210.182 228.7 210.403 228.814C210.633 228.933 211.093 229.087 211.628 228.89L211.629 228.891C214.692 227.761 217.768 227.332 220.136 227.389C221.324 227.417 222.277 227.567 222.935 227.776C223.2 227.861 223.375 227.941 223.487 228.003C223.428 228.087 223.341 228.202 223.207 228.347C222.666 228.93 221.713 229.658 220.357 230.505C218.006 231.973 214.734 233.625 211.099 235.334L209.52 236.07L209.516 236.072C205.348 238.017 201.419 239.309 198.459 239.85C196.968 240.122 195.808 240.187 195.018 240.094C194.846 240.073 194.709 240.046 194.601 240.021C194.651 239.96 194.709 239.893 194.776 239.819C195.328 239.215 196.202 238.481 197.27 237.646C198.262 236.871 199.54 235.919 200.568 235.104C201.626 234.265 202.67 233.38 203.383 232.545L203.893 231.947L203.692 231.188C190.857 182.603 174.887 124.247 177.505 79.998C178.982 55.5175 181.807 38.6606 186.838 27.3262L184.292 25.7852C153.492 64.5411 133.486 119.016 121.351 163.693C115.277 186.054 111.163 206.005 108.651 220.379C107.396 227.565 106.539 233.365 106.038 237.38C105.788 239.384 105.625 240.958 105.546 242.044C105.507 242.58 105.486 243.029 105.489 243.362C105.491 243.518 105.498 243.713 105.528 243.897C105.541 243.977 105.574 244.159 105.666 244.358C105.71 244.453 106.047 245.181 106.934 245.254V245.255C110.763 245.572 114.256 246.636 116.758 247.872C118.013 248.492 118.966 249.129 119.58 249.694C119.999 250.08 120.159 250.34 120.222 250.464C120.129 250.544 119.928 250.682 119.509 250.854C118.617 251.219 117.222 251.524 115.362 251.755C111.674 252.213 106.602 252.332 101.146 252.332C95.7781 252.332 90.9658 251.767 87.5401 250.878C85.8162 250.43 84.5281 249.922 83.7071 249.417C83.3303 249.185 83.1225 248.998 83.0069 248.869C83.1484 248.785 83.3468 248.682 83.6172 248.569C84.5184 248.194 85.8209 247.844 87.3604 247.486C88.8187 247.148 90.5932 246.78 92.0987 246.417C93.6277 246.048 95.1455 245.626 96.2852 245.096L96.9922 244.767L97.129 243.999C104.921 200.323 113.548 149.679 128.01 107.854L128.649 106.005L126.697 105.867C116.142 105.124 98.9944 102.235 84.6348 91.9736L83.9532 91.4795V91.4785L82.9083 90.6943C72.2343 82.494 65.1761 71.4986 60.753 62.3848C58.4742 57.6893 56.9066 53.5153 55.9092 50.5205C55.5081 49.3161 55.1995 48.3034 54.9747 47.5254C55.785 47.5091 56.8447 47.5019 58.1153 47.5273C61.273 47.5906 65.7266 47.8498 70.8897 48.6309C80.9112 50.1469 93.5125 53.6178 104.517 61.3662L105.577 62.1299C118.141 71.3931 125.865 84.5494 130.246 94.4287L131.692 97.6895L133.011 94.375C136.089 86.6355 139.401 79.3159 142.983 72.5146L143.703 71.1621C156.91 46.6316 168.722 32.8772 179.89 23.4209C185.482 18.6853 190.939 15.0055 196.384 11.5742C198.277 10.3812 200.179 9.20986 202.088 8.03418Z" fill="#8CA33A" stroke="black" stroke-width="3"/>
</g>
<defs>
<clipPath id="clip0_582_325">
<rect width="316" height="415" fill="white"/>
</clipPath>
</defs>
</svg>
