<svg width="500" height="523" viewBox="0 0 500 523" fill="none" xmlns="http://www.w3.org/2000/svg">
<g clip-path="url(#clip0_699_179)">
<path d="M393.24 143.68C394.403 144.074 396.093 144.716 398.165 145.696C402.309 147.657 407.975 150.973 413.993 156.373C426.006 167.154 439.515 186.332 445.024 219.894L445.024 219.895C446.821 230.883 447.564 276.135 426.085 324.3C404.814 371.998 361.744 422.581 276.148 445.563L274.117 446.102C192.506 467.417 130.464 442.64 88.7786 412.524C67.9233 397.456 52.1657 381.051 41.6232 368.413C36.3531 362.095 32.3894 356.722 29.7467 352.935C28.4255 351.041 27.4345 349.544 26.7759 348.523C26.4747 348.057 26.2434 347.689 26.0814 347.43L28.2876 333.501C28.4469 333.314 28.709 333.029 29.0877 332.668C29.8475 331.943 31.0858 330.91 32.9424 329.766C36.5374 327.55 42.4753 324.898 51.7831 323.257L52.6943 323.102L52.6946 323.101C57.8104 322.254 66.8852 322.331 79.1754 322.633C91.3902 322.934 106.637 323.449 123.902 323.429C158.435 323.39 201.133 321.208 244.219 310.862C287.723 300.416 316.962 267.05 336.281 234.521C345.951 218.238 353.169 202.109 358.468 189.06C361.117 182.535 363.29 176.773 365.045 172.155C366.594 168.082 367.795 164.96 368.716 162.951L369.093 162.158C372.952 154.418 378.734 149.648 383.574 146.807C385.994 145.387 388.169 144.454 389.731 143.878C390.512 143.591 391.139 143.392 391.564 143.268C391.629 143.249 391.689 143.233 391.744 143.217C391.793 143.231 391.849 143.246 391.911 143.263C392.21 143.348 392.659 143.483 393.24 143.68Z" fill="#F5B829" stroke="black" stroke-width="3"/>
<path d="M25.3002 348.903C23.6283 348.277 20.6995 348.221 19.0989 345.894C18.702 340.594 19.3542 338.218 19.9707 336.335C21.347 332.027 22.6825 332.2 27.0773 332.24C27.5384 334.348 25.3002 348.903 25.3002 348.903Z" fill="#3B2314"/>
<g style="mix-blend-mode:soft-light">
<path d="M292.553 295.255C293.489 300.787 278.798 333.781 227.533 342.733C168.892 353.001 96.777 333.562 95.8152 328.02C94.8795 322.489 169.907 330.423 224.075 322.708C280.577 314.647 291.582 289.74 292.553 295.255Z" fill="white"/>
</g>
<path d="M376.263 88.929C379.426 89.0585 386.041 90.8004 392.097 95.2898C398.096 99.7365 403.495 106.839 404.46 117.727L404.469 117.826L404.49 117.922C407.482 131.304 406.035 142.914 404.633 147.252L404.498 147.649C403.669 149.901 401.928 151.398 399.663 152.255C397.371 153.123 394.6 153.304 391.962 152.898C389.312 152.49 386.957 151.516 385.449 150.248C384.066 149.085 383.513 147.81 383.781 146.451L383.846 146.178L383.847 146.173L384.07 145.298C385.032 141.26 384.815 137.756 383.36 129.002L383.03 127.043L383.029 127.041L382.926 126.495C382.38 123.805 381.343 121.803 379.999 120.242C378.584 118.598 376.892 117.521 375.308 116.642C373.646 115.72 372.269 115.092 371.015 114.209C369.839 113.381 368.951 112.437 368.422 111.068C367.873 109.645 367.677 107.513 367.875 105.002C368.071 102.522 368.639 99.8137 369.496 97.3191C370.357 94.8118 371.48 92.6051 372.734 91.0738C374.01 89.5153 375.217 88.8889 376.264 88.9302L376.263 88.929Z" fill="#8CA33A" stroke="black" stroke-width="3"/>
<path d="M373.64 90.1339C376.907 93.5113 379.515 97.0386 379.808 101.183L379.831 101.622C379.999 107.356 375.256 112 369.659 113.076C369.155 112.521 368.744 111.888 368.44 111.106C367.963 109.861 367.748 108.073 367.835 105.947C367.922 103.846 368.299 101.521 368.916 99.266C369.533 97.0089 370.379 94.8647 371.378 93.1104C372.101 91.8401 372.87 90.837 373.64 90.1339Z" fill="#BCD848" stroke="black" stroke-width="3"/>
</g>
<defs>
<clipPath id="clip0_699_179">
<rect width="378" height="416" fill="white" transform="translate(146.012) rotate(20.5479)"/>
</clipPath>
</defs>
</svg>
