<svg width="327" height="301" viewBox="0 0 327 301" fill="none" xmlns="http://www.w3.org/2000/svg">
<g clip-path="url(#clip0_582_431)">
<path d="M322.238 58.0998C318.946 46.7729 314.039 36.7671 307.656 28.3517C300.853 19.3853 292.499 12.4038 282.836 7.6013C272.679 2.55458 261.208 -0.00634766 248.742 -0.00634766C236.276 -0.00634766 223.021 3.32474 210.542 9.88673C199.347 15.7787 188.789 24.2129 180.021 34.275C174.439 40.6805 168.194 49.0771 163.5 55.6266C158.806 49.0771 152.561 40.6805 146.979 34.275C138.217 24.2129 127.66 15.7787 116.464 9.88673C103.979 3.331 91.1247 -8.62153e-05 78.258 -8.62153e-05C65.3912 -8.62153e-05 54.3206 2.56084 44.1636 7.60756C34.4948 12.4101 26.1465 19.3916 19.3439 28.358C12.9543 36.7734 8.04796 46.7791 4.76244 58.1061C1.60208 68.976 0 80.8226 0 93.3142C0 115.868 4.12411 138.14 12.2597 159.51C20.0135 179.866 31.372 199.339 46.0223 217.391C60.1594 234.804 77.2254 250.733 96.7507 264.74C101.476 268.127 106.326 271.396 111.301 274.533C115.081 276.918 118.917 279.216 122.797 281.433C123.498 281.834 124.205 282.234 124.912 282.629C127.904 284.307 130.933 285.941 133.993 287.525C130.507 279.692 127.854 271.289 126.577 263.387C126.22 261.202 125.976 259.055 125.845 256.969C124.95 242.662 136.465 230.69 150.796 230.941C169.057 231.26 187.462 229.344 204.228 222.081C230.024 210.904 249.7 186.109 256.414 157.895C260.601 140.306 261.809 119.424 257.772 101.83C252.441 78.6248 234.799 52.5898 234.799 52.5898C228.91 84.5544 209.96 102.237 177.499 116.669C158.669 125.047 137.36 129.111 121.614 142.416C104.179 157.162 96.6882 182.646 103.359 204.486C103.359 204.486 118.973 149.079 201.105 137.413C147.942 154.307 134.625 168.934 124.631 180.968C114.636 193.009 108.748 208.136 106.432 223.615C105.143 232.243 104.955 241.028 105.819 249.712C88.0269 236.814 72.4754 222.231 59.5899 206.358C46.1162 189.759 35.6839 171.902 28.5934 153.28C21.2151 133.907 17.479 113.733 17.479 93.3079C17.479 82.4694 18.8432 72.2632 21.5468 62.9775C24.2377 53.7231 28.1804 45.627 33.262 38.9273C38.4187 32.1274 44.7018 26.8615 51.9362 23.2674C59.6588 19.4292 68.5078 17.4881 78.2517 17.4881C87.9956 17.4881 98.3653 20.143 108.316 25.3713C117.622 30.2677 126.427 37.3181 133.786 45.7648C143.512 56.9352 156.115 75.6068 156.241 75.7947L163.494 86.5643L170.747 75.7947C170.872 75.6068 183.47 56.9352 193.195 45.7648C200.554 37.3181 209.36 30.2615 218.665 25.3713C228.616 20.1367 238.729 17.4881 248.73 17.4881C258.73 17.4881 267.322 19.4354 275.045 23.2674C282.273 26.8615 288.556 32.1274 293.719 38.9273C298.807 45.627 302.75 53.7231 305.434 62.9775C308.132 72.2632 309.502 82.4694 309.502 93.3079C309.502 113.726 305.766 133.907 298.388 153.274C291.297 171.895 280.871 189.747 267.391 206.352C254.237 222.557 238.31 237.415 220.048 250.514C202.864 262.843 183.845 273.45 163.487 282.059C156.891 279.273 146.265 273.468 139.963 270.269C141.371 276.524 143.931 284.401 148.987 293.862C151.309 294.876 157.818 298.671 160.171 299.629L163.481 300.987L166.792 299.629C189.665 290.262 211.012 278.521 230.23 264.727C249.756 250.721 266.822 234.791 280.959 217.378C295.609 199.333 306.968 179.86 314.721 159.504C322.857 138.134 326.981 115.862 326.981 93.3079C326.981 80.8163 325.379 68.9697 322.219 58.0936L322.238 58.0998Z" fill="white"/>
</g>
<defs>
<clipPath id="clip0_582_431">
<rect width="327" height="301" fill="white"/>
</clipPath>
</defs>
</svg>
