<svg width="571" height="772" viewBox="0 0 571 772" fill="none" xmlns="http://www.w3.org/2000/svg">
<g clip-path="url(#clip0_580_103)">
<path d="M229.335 28.9856C237.157 25.6321 245.243 21.3407 253.372 18.9429C255.458 18.3289 257.153 18.2283 259.288 18.7778C262.057 19.4922 264.277 21.342 265.673 23.8126C267.967 27.8581 267.669 31.7871 266.579 36.1284C285.732 49.3329 327.535 72.7916 336.695 94.0851L484.337 441.82L529.445 548.495L542.545 579.349C544.901 584.9 548.131 590.971 549.43 596.872C551.259 605.145 546.447 625.233 543.2 633.272C538.582 644.706 530.938 655.437 521.214 663.086C508.729 672.906 491.801 678.225 477.263 684.386L426.828 705.767L365.957 731.612C352.417 737.361 336.027 746.069 321.74 748.474C310.33 750.385 297.844 749.124 286.971 745.213C271.982 739.822 256.374 727.958 249.544 713.28C244.086 701.55 239.436 689.293 234.384 677.369L202.875 603.107L107.178 377.613L56.6612 258.785L44.2294 229.505C41.8102 223.807 38.4012 217.672 37.2295 211.585C36.2628 206.596 36.6342 201.202 36.7564 196.142C37.198 173.053 41.4114 150.199 49.2463 128.48C45.5878 127.002 42.7928 124.897 41.0507 121.28C39.7324 118.559 39.3923 115.455 40.5718 112.629C41.4533 110.56 42.9547 108.825 44.8639 107.667C52.4192 103.047 62.0147 100.059 70.2147 96.5995C70.2147 96.5995 211.327 36.6969 229.34 28.9725L229.335 28.9856ZM46.0619 110.233C43.9718 112.5 42.6791 114.624 42.9152 117.816C43.0572 119.711 43.9157 121.324 45.3586 122.547C46.8827 123.834 49.1455 125.274 51.2285 125.139C56.3295 124.82 83.3056 112.259 90.5431 109.218L213.552 56.8823L244.625 43.7331C250.413 41.2972 256.715 39.0994 262.168 36.0019C264.021 33.814 264.959 31.7753 264.607 28.8499C264.334 26.5432 263.057 24.5325 261.162 23.2183C259.225 21.879 256.676 21.4292 254.377 21.8732C249.887 22.7365 244.289 26.0803 240.004 27.9107L200.843 44.6029L46.0659 110.242L46.0619 110.233ZM52.1567 128.656C43.1994 153.796 38.2489 181.874 39.5334 208.619C122.889 174.347 205.347 137.859 288.496 103.077L328.148 86.2093C310.27 67.6937 286.658 51.026 263.921 38.8755L120.82 99.7746L76.5604 118.48C68.4709 121.893 60.3973 125.625 52.1659 128.652L52.1567 128.656ZM39.9665 211.814L118.536 396.865C132.895 391.051 147.189 385.08 161.423 378.971C165.565 377.212 176.926 371.498 180.745 371.18L181.602 371.74C181.601 372.479 181.79 372.746 181.204 373.31C178.592 375.832 126.981 396.593 119.746 399.589L168.073 513.512C175.519 510.351 226.559 487.681 230.243 487.811L230.89 488.645C230.723 489.378 230.847 489.695 230.175 490.133C225.658 493.082 218.133 495.343 213.044 497.482C198.413 503.629 183.608 509.622 169.177 516.216L225.502 649.156C230.838 661.698 251.38 713.663 258.193 721.189L453.647 638.029L515.936 611.582C525.407 607.561 535.159 603.866 544.475 599.53C545.809 598.91 546.207 598.849 546.983 597.607L460.03 392.682C453.654 395.345 398.756 419.11 397.043 419.197C396.585 419.217 396.156 418.976 395.715 418.859L395.2 418.002C395.809 416.776 396.436 416.488 397.675 415.875C402.41 413.517 407.682 411.757 412.551 409.614C427.936 402.886 443.378 396.297 458.88 389.846L410.681 276.324L369.761 293.556C363.627 296.15 357.363 299.385 351.084 301.508C350.058 301.857 349.113 301.856 348.081 301.523C347.869 301.461 347.67 301.35 347.473 301.27L347.398 300.401C352.11 296.608 400.735 277.233 409.565 273.517L356.303 147.815L340.189 110.093C337.126 102.93 334.253 95.5238 330.747 88.5711C290.713 104.613 251.145 122.086 211.445 138.942L39.977 211.788L39.9665 211.814ZM260.038 723.36C273.186 737.387 289.792 745.666 309.142 746.283C315.828 746.497 322.9 745.754 329.287 743.705C339.939 740.29 350.357 735.324 360.653 730.941L416.072 707.173L475.414 681.977C486.036 677.467 497.137 673.341 507.446 668.171C513.204 665.28 518.566 661.787 523.259 657.361C530.123 650.883 535.318 643.159 539.38 634.687C543.703 623.965 545.78 613.349 546.261 601.792L260.025 723.355L260.038 723.36Z" fill="black"/>
<path d="M262.168 36.0019C256.71 39.1125 250.413 41.2972 244.625 43.7331L213.552 56.8824L90.5431 109.218C83.3096 112.268 56.3203 124.824 51.2285 125.139C49.1455 125.274 46.8866 123.843 45.3586 122.547C43.9157 121.324 43.0572 119.711 42.9152 117.816C42.6752 114.615 43.9679 112.491 46.0619 110.233L200.839 44.5938L240 27.9016C244.28 26.0843 249.883 22.7273 254.373 21.864C256.682 21.4162 259.221 21.8699 261.159 23.2092C263.053 24.5234 264.33 26.5341 264.603 28.8408C264.955 31.7662 264.017 33.8048 262.165 35.9927L262.168 36.0019Z" fill="#9FC1C9"/>
<path d="M39.5334 208.619C38.2489 181.874 43.1994 153.796 52.1528 128.647C60.3842 125.619 68.4577 121.887 76.5473 118.474L120.807 99.7693L263.908 38.8702C286.645 51.0207 310.256 67.6885 328.134 86.204L288.483 103.072C205.334 137.854 122.879 174.351 39.5203 208.614L39.5334 208.619Z" fill="#D9E9ED"/>
<path d="M118.549 396.87L39.9757 211.81L211.444 138.965C251.143 122.109 290.711 104.635 330.746 88.5935C334.261 95.5423 337.125 102.952 340.188 110.115L356.302 147.838L409.564 273.539C400.73 277.246 352.114 296.617 347.396 300.423L347.472 301.293C347.673 301.381 347.877 301.479 348.079 301.546C349.111 301.879 350.057 301.879 351.082 301.531C357.358 299.399 363.622 296.163 369.76 293.579L410.689 276.342L458.888 389.864C443.377 396.319 427.934 402.909 412.55 409.636C407.68 411.78 402.409 413.54 397.674 415.898C396.435 416.511 395.808 416.799 395.198 418.024L395.714 418.881C396.155 418.998 396.583 419.24 397.042 419.219C398.758 419.142 453.652 395.368 460.029 392.704L546.982 597.629C546.205 598.872 545.807 598.932 544.474 599.552C535.157 603.888 525.406 607.583 515.934 611.605L453.646 638.051L258.192 721.211C251.378 713.685 230.84 661.73 225.5 649.179L169.176 516.238C183.606 509.644 198.412 503.651 213.043 497.504C218.141 495.361 225.661 493.114 230.173 490.155C230.846 489.717 230.722 489.401 230.889 488.667L230.242 487.834C226.548 487.707 175.518 510.373 168.071 513.535L119.745 399.611C126.97 396.619 178.59 375.854 181.203 373.332C181.789 372.769 181.599 372.501 181.601 371.762L180.744 371.202C176.924 371.52 165.559 377.248 161.422 378.993C147.187 385.102 132.89 391.064 118.534 396.888L118.549 396.87ZM101.24 242.52L137.388 328.196C140.127 334.595 147.163 353.292 150.378 357.587C151.856 357.948 152.381 357.649 153.806 357.218C152.365 349.345 145.205 335.654 141.834 327.742L117.028 269.136C115.32 265.114 106.881 243.242 104.682 241.569C103.249 241.341 102.454 241.874 101.244 242.529L101.24 242.52ZM241.677 307.253C192.972 333.451 174.705 394.158 200.875 442.875C227.046 491.591 287.747 509.894 336.48 483.738C385.242 457.571 403.557 396.822 377.361 348.072C351.175 299.319 290.41 281.043 241.677 307.253ZM213.875 508.189C218.196 519.619 223.243 530.817 228.01 542.069L252.373 599.527L272.832 647.714C276.373 656.053 279.635 664.761 283.588 672.893C284.048 673.849 284.487 674.499 285.458 675.021C286.161 675.397 286.864 675.261 287.612 675.052C287.826 674.994 288.017 674.88 288.219 674.794C288.066 672.719 287.516 671.117 286.761 669.21C280.953 654.609 274.496 640.196 268.357 625.735L235.3 547.828L223.112 519.249C221.532 515.552 219.943 510.121 217.599 506.955C216.081 506.861 215.234 507.525 213.884 508.185L213.875 508.189Z" fill="#FFB0B0"/>
<path d="M153.806 357.218C152.372 357.653 151.856 357.948 150.378 357.587C147.163 353.292 140.127 334.595 137.388 328.196L101.24 242.52C102.454 241.874 103.249 241.341 104.678 241.559C106.877 243.233 115.316 265.105 117.024 269.127L141.831 327.733C145.192 335.649 152.361 349.336 153.802 357.209L153.806 357.218Z" fill="#FEFEFE"/>
<path d="M336.48 483.738C287.743 509.885 227.046 491.591 200.875 442.875C174.705 394.158 192.969 333.442 241.677 307.253C290.419 281.039 351.175 299.319 377.361 348.072C403.547 396.826 385.245 457.58 336.48 483.738ZM385.554 389.809C384.322 367.92 375.837 347.068 361.448 330.526C344.712 311.449 321.038 299.881 295.707 298.382C269.928 296.54 244.484 305.138 225.12 322.246C205.844 339.176 194.108 363.095 192.506 388.697C192.066 397.868 192.665 406.392 194.366 415.415C201.612 442.921 215.969 465.528 240.993 480.097C263.048 492.765 289.209 496.247 313.807 489.802C338.852 483.133 360.181 466.712 373.038 444.207C379.991 432.053 384.224 418.534 385.464 404.59C385.841 399.672 385.871 394.727 385.55 389.8L385.554 389.809Z" fill="black"/>
<path d="M192.51 388.706C194.108 363.095 205.848 339.185 225.124 322.255C244.497 305.143 269.937 296.536 295.711 298.391C321.038 299.881 344.716 311.458 361.452 330.535C375.841 347.077 384.316 367.933 385.558 389.819C382.496 386.034 379.982 381.931 376.663 378.31C368.696 369.601 359.029 365.59 347.301 365.191C324.394 364.412 306.685 379.123 293.088 396.227C285.933 405.218 279.847 414.755 271.335 422.65C262.781 430.573 250.121 436.502 238.276 435.904C218.238 434.895 205.598 417.816 198.137 401.038C196.766 397.937 195.22 391.456 192.992 389.175C192.84 389.022 192.679 388.873 192.514 388.715L192.51 388.706Z" fill="#60C8FC"/>
<path d="M192.51 388.706C192.671 388.855 192.832 389.004 192.988 389.166C195.212 391.437 196.762 397.928 198.133 401.028C205.585 417.811 218.228 434.899 238.272 435.895C250.114 436.484 262.786 430.56 271.331 422.641C279.843 414.746 285.929 405.209 293.085 396.217C306.685 379.123 324.391 364.402 347.297 365.182C359.025 365.58 368.705 369.597 376.659 378.3C379.969 381.925 382.492 386.025 385.554 389.809C385.866 394.74 385.832 399.675 385.468 404.6C381.191 402.178 377.901 394.428 374.798 390.422C368.114 381.766 359.299 375.948 348.315 374.669C340.019 373.704 332.015 375.451 324.602 379.229C299.625 391.996 292.534 417.462 272.008 433.575C261.522 441.808 247.064 446.752 233.703 445.016C220.168 443.255 208.888 434.573 200.599 424.132C198.38 421.337 196.523 418.269 194.357 415.419C192.665 406.392 192.056 397.872 192.497 388.701L192.51 388.706Z" fill="#FEFEFE"/>
<path d="M385.455 404.594C384.215 418.538 379.982 432.057 373.029 444.211C360.172 466.716 338.843 483.137 313.797 489.806C289.191 496.255 263.039 492.769 240.984 480.101C215.969 465.528 201.603 442.925 194.357 415.419C196.523 418.269 198.38 421.337 200.599 424.132C208.888 434.573 220.168 443.255 233.703 445.016C247.064 446.752 261.517 441.822 272.008 433.576C292.53 417.453 299.616 392 324.602 379.229C332.011 375.442 340.006 373.699 348.315 374.669C359.299 375.948 368.11 381.757 374.798 390.422C377.887 394.423 381.187 402.169 385.468 404.6L385.455 404.594Z" fill="#94D6FF"/>
<path d="M288.214 674.807C288.012 674.893 287.821 675.007 287.607 675.065C286.859 675.274 286.152 675.4 285.453 675.034C284.473 674.516 284.043 673.862 283.583 672.906C279.63 664.774 276.368 656.067 272.827 647.727L252.368 599.541L227.996 542.086C223.229 530.834 218.177 519.627 213.86 508.206C215.206 507.537 216.054 506.873 217.575 506.976C219.932 510.147 221.508 515.573 223.088 519.269L235.277 547.849L268.333 625.756C274.477 640.226 280.929 654.63 286.737 669.231C287.496 671.147 288.042 672.74 288.196 674.815L288.214 674.807Z" fill="#FEFEFE"/>
<path d="M539.389 634.683C535.321 643.168 530.132 650.879 523.268 657.357C518.579 661.792 513.213 665.276 507.455 668.167C497.146 673.337 486.049 677.472 475.419 681.964L416.077 707.16L360.658 730.928C350.358 735.302 339.941 740.268 329.292 743.692C322.905 745.741 315.833 746.484 309.147 746.27C289.807 745.649 273.191 737.374 260.044 723.347L546.28 601.784C545.794 613.332 543.722 623.957 539.398 634.68L539.389 634.683Z" fill="#D9E9ED"/>
</g>
<defs>
<clipPath id="clip0_580_103">
<rect width="322.4" height="700.87" fill="white" transform="translate(0 125.998) rotate(-23.0052)"/>
</clipPath>
</defs>
</svg>
