<svg width="677" height="751" viewBox="0 0 677 751" fill="none" xmlns="http://www.w3.org/2000/svg">
<g clip-path="url(#clip0_580_137)">
<path d="M628.58 154.088C635.29 159.322 642.95 164.335 648.972 170.299C650.516 171.83 651.422 173.267 651.97 175.401C652.68 178.172 652.131 181.008 650.64 183.424C648.203 187.384 644.618 189.018 640.289 190.158C637.962 213.305 637.579 261.239 623.346 279.535L389.968 576.608L318.285 667.58L297.577 693.939C293.852 698.68 290.092 704.438 285.55 708.423C279.185 714.016 259.268 719.491 250.66 720.525C238.416 721.995 225.329 720.476 213.938 715.647C199.313 709.448 186.489 697.186 174.078 687.424L131.02 653.559L79.0174 612.707C67.45 603.619 51.9154 593.463 42.9174 582.109C35.7388 573.036 30.82 561.491 29.0011 550.079C26.4927 534.349 29.3556 514.954 38.9185 501.891C46.5602 491.451 55.0539 481.465 63.0618 471.288L112.912 407.864L264.271 215.261L343.989 113.688L363.64 88.6739C367.464 83.8063 371.194 77.8603 375.96 73.898C379.864 70.6446 384.768 68.3679 389.259 66.0338C409.697 55.2828 431.749 47.9487 454.553 44.3343C454.083 40.4168 454.579 36.9531 456.906 33.6824C458.654 31.2149 461.209 29.4196 464.253 29.0897C466.491 28.8637 468.735 29.3421 470.67 30.4557C478.362 34.845 485.608 41.809 492.594 47.3228C492.594 47.3228 613.138 142.034 628.594 154.087L628.58 154.088ZM469.001 32.7429C466.006 32.0057 463.522 31.898 460.84 33.6444C459.249 34.6831 458.25 36.2131 457.875 38.0671C457.483 40.0228 457.313 42.6997 458.436 44.4593C461.176 48.7737 485.192 66.3439 491.347 71.2169L596.53 153.721L623.037 174.595C627.963 178.491 632.928 182.951 638.272 186.233C641.082 186.8 643.321 186.639 645.714 184.92C647.602 183.568 648.747 181.479 648.985 179.185C649.223 176.842 648.388 174.393 646.89 172.593C643.968 169.077 638.338 165.786 634.668 162.915L601.155 136.664L468.994 32.7508L469.001 32.7429ZM455.803 46.969C429.46 51.2502 402.477 60.4584 379.67 74.4853C449.901 130.968 521.639 185.596 592.218 241.652L626.121 268.248C633.716 243.656 636.925 214.932 636.601 189.155L514.225 93.1826L476.489 63.4363C469.597 57.9966 462.434 52.7249 455.811 46.9752L455.803 46.969ZM377.08 76.4058L252.885 234.497C264.905 244.27 277.03 253.91 289.248 263.432C292.787 266.212 303.273 273.407 305.394 276.599L305.317 277.619C304.669 277.975 304.526 278.27 303.749 278.028C300.28 276.956 257.197 241.763 251.083 236.871L174.604 334.159C180.966 339.157 225.445 372.929 227.107 376.219L226.69 377.188C225.967 377.396 225.749 377.657 225.041 377.279C220.279 374.746 214.669 369.245 210.34 365.819C197.898 355.968 185.506 345.89 172.769 336.43L83.4898 449.898C75.0776 460.622 39.4685 503.684 36.1627 513.282L203.294 644.375L256.507 686.179C264.599 692.536 272.539 699.295 280.831 705.364C282.018 706.233 282.263 706.553 283.726 706.634L421.285 531.612C415.876 527.311 368.576 490.687 367.674 489.229C367.435 488.837 367.44 488.345 367.33 487.903L367.832 487.038C369.199 486.98 369.754 487.391 370.889 488.18C375.238 491.191 379.323 494.959 383.55 498.19C396.864 508.421 410.086 518.77 423.215 529.236L499.403 432.254L464.569 404.723C459.338 400.601 453.482 396.675 448.593 392.198C447.793 391.468 447.338 390.64 447.132 389.575C447.084 389.36 447.086 389.132 447.06 388.921L447.785 388.435C453.381 390.733 493.809 423.98 501.324 429.922L585.739 322.629L611.009 290.317C615.806 284.179 620.907 278.09 625.306 271.665C591.942 244.335 557.549 218.104 523.633 191.46L377.108 76.4024L377.08 76.4058ZM35.1509 515.946C29.206 534.23 29.9651 552.769 38.7591 570.017C41.7964 575.976 45.8588 581.812 50.7349 586.419C58.8648 594.103 68.2405 600.832 77.0461 607.737L124.6 644.815L175.297 684.642C184.372 691.771 193.341 699.504 202.843 706.04C208.152 709.69 213.798 712.701 219.94 714.677C228.925 717.565 238.197 718.389 247.577 717.861C259.055 716.476 269.356 713.173 279.712 708.02L35.1492 515.932L35.1509 515.946Z" fill="black"/>
<path d="M638.272 186.233C632.914 182.953 627.963 178.491 623.037 174.595L596.53 153.721L491.347 71.2169C485.186 66.3517 461.168 48.7676 458.435 44.4593C457.313 42.6997 457.476 40.0307 457.874 38.0671C458.25 36.2131 459.249 34.683 460.84 33.6444C463.528 31.8902 466.012 31.9978 469 32.7429L601.161 136.656L634.674 162.907C638.33 165.78 643.974 169.069 646.896 172.585C648.402 174.391 649.229 176.834 648.991 179.178C648.754 181.471 647.608 183.56 645.72 184.912C643.327 186.631 641.088 186.793 638.278 186.226L638.272 186.233Z" fill="#9FC1C9"/>
<path d="M379.669 74.4853C402.477 60.4584 429.46 51.2502 455.809 46.9611C462.432 52.7108 469.596 57.9826 476.487 63.4222L514.223 93.1686L636.599 189.141C636.924 214.918 633.714 243.642 626.119 268.234L592.216 241.638C521.638 185.582 449.893 130.962 379.668 74.4712L379.669 74.4853Z" fill="#D9E9ED"/>
<path d="M252.887 234.511L377.088 76.4119L523.612 191.469C557.528 218.114 591.922 244.344 625.286 271.674C620.895 278.105 615.785 284.188 610.989 290.327L585.719 322.639L501.304 429.932C493.795 423.982 453.375 390.741 447.765 388.445L447.04 388.931C447.059 389.149 447.072 389.375 447.111 389.584C447.318 390.649 447.773 391.478 448.573 392.208C453.468 396.676 459.324 400.602 464.549 404.732L499.391 432.27L423.202 529.252C410.065 518.779 396.844 508.431 383.529 498.2C379.303 494.968 375.218 491.2 370.868 488.19C369.734 487.4 369.179 486.99 367.811 487.047L367.31 487.912C367.42 488.355 367.415 488.847 367.654 489.238C368.55 490.705 415.856 527.321 421.265 531.621L283.705 706.643C282.243 706.562 281.998 706.243 280.811 705.374C272.519 699.305 264.578 692.545 256.487 686.189L203.273 644.385L36.1425 513.292C39.4482 503.693 75.0511 460.64 83.4695 449.907L172.748 336.44C185.486 345.9 197.877 355.978 210.32 365.829C214.656 369.26 220.252 374.763 225.021 377.289C225.729 377.667 225.947 377.405 226.669 377.197L227.087 376.229C225.417 372.932 180.945 339.166 174.584 334.168L251.063 236.88C257.169 241.766 300.26 276.966 303.729 278.038C304.506 278.279 304.648 277.985 305.296 277.629L305.373 276.608C303.252 273.416 292.753 266.223 289.228 263.442C277.01 253.92 264.891 244.272 252.865 234.506L252.887 234.511ZM379.741 144.891L322.13 217.885C317.846 223.37 304.863 238.553 302.651 243.441C303.048 244.91 303.564 245.226 304.628 246.266C310.829 241.206 319.368 228.33 324.673 221.561L364.042 171.56C366.742 168.123 381.829 150.181 382.235 147.447C381.743 146.082 380.893 145.642 379.735 144.898L379.741 144.891ZM390.784 299.134C344.341 269.109 282.352 282.392 252.303 328.817C222.254 375.242 235.503 437.242 281.924 467.313C328.367 497.403 390.416 484.141 420.482 437.678C450.556 391.222 437.251 329.178 390.784 299.134ZM201.362 371.711C193.434 381.01 186.06 390.834 178.503 400.437L139.925 449.495L107.585 490.662C101.988 497.786 95.9346 504.844 90.718 512.229C90.1025 513.094 89.7447 513.792 89.7561 514.894C89.7662 515.691 90.224 516.241 90.7677 516.796C90.9222 516.955 91.1137 517.067 91.2867 517.203C93.0306 516.068 94.169 514.813 95.4747 513.232C105.463 501.101 114.973 488.492 124.679 476.139L176.975 409.601L196.13 385.138C198.605 381.97 202.596 377.959 204.239 374.379C203.589 373.004 202.599 372.581 201.37 371.718L201.362 371.711Z" fill="#FFC871"/>
<path d="M304.628 246.266C303.556 245.22 303.048 244.91 302.651 243.441C304.863 238.554 317.846 223.37 322.13 217.885L379.741 144.891C380.893 145.643 381.743 146.082 382.241 147.439C381.835 150.173 366.748 168.115 364.048 171.552L324.679 221.553C319.366 228.316 310.835 241.198 304.635 246.258L304.628 246.266Z" fill="#FEFEFE"/>
<path d="M281.924 467.313C235.509 437.234 222.254 375.242 252.303 328.817C282.352 282.392 344.347 269.101 390.784 299.134C437.259 329.185 450.556 391.222 420.482 437.678C390.408 484.134 328.361 497.41 281.924 467.313ZM387.874 464.989C406.453 453.35 420.627 435.859 428.175 415.275C436.812 391.412 435.525 365.095 424.619 342.183C413.796 318.713 393.991 300.573 369.664 291.864C345.535 283.145 318.922 284.404 295.723 295.351C287.477 299.389 280.299 304.026 273.217 309.869C252.618 329.484 239.741 352.966 239.051 381.914C238.593 407.344 248.163 431.94 265.675 450.377C283.598 469.099 308.271 479.86 334.187 480.267C348.187 480.494 362.072 477.68 374.883 472.04C379.374 469.998 383.72 467.638 387.88 464.981L387.874 464.989Z" fill="black"/>
<path d="M295.717 295.359C318.922 284.404 345.529 283.153 369.658 291.872C393.993 300.587 413.804 318.719 424.613 342.191C435.525 365.095 436.806 391.42 428.169 415.283C420.62 435.867 406.439 453.352 387.868 464.997C389.705 460.489 392.088 456.307 393.658 451.653C397.444 440.473 396.294 430.071 390.985 419.605C380.618 399.164 359.189 390.748 337.648 387.089C326.32 385.159 315.03 384.428 304.009 380.78C292.942 377.109 281.641 368.88 276.451 358.215C267.669 340.176 276.531 320.866 287.63 306.237C289.684 303.54 294.616 299.059 295.539 296.007C295.599 295.8 295.652 295.588 295.711 295.367L295.717 295.359Z" fill="#A7DD3E"/>
<path d="M295.717 295.359C295.664 295.572 295.612 295.785 295.545 295.999C294.628 299.043 289.691 303.532 287.636 306.229C276.53 320.852 267.661 340.17 276.457 358.207C281.654 368.864 292.956 377.108 304.015 380.772C315.036 384.42 326.326 385.151 337.654 387.081C359.189 390.748 380.624 399.156 390.991 419.597C396.3 430.063 397.451 440.479 393.664 451.645C392.086 456.293 389.712 460.481 387.874 464.989C383.706 467.64 379.366 469.992 374.877 472.048C374.935 467.134 380.136 460.512 382.149 455.862C386.507 445.831 387.351 435.304 383.173 425.066C380.015 417.333 374.624 411.165 367.739 406.493C344.507 390.773 318.779 396.847 294.763 386.64C282.493 381.426 271.188 371.147 266.264 358.605C261.277 345.9 263.44 331.831 268.587 319.534C269.965 316.242 271.757 313.135 273.209 309.863C280.299 304.026 287.469 299.383 295.715 295.345L295.717 295.359Z" fill="#FEFEFE"/>
<path d="M374.875 472.034C362.064 477.674 348.179 480.488 334.179 480.26C308.263 479.854 283.59 469.093 265.667 450.371C248.147 431.928 238.586 407.338 239.043 381.908C239.741 352.966 252.61 329.478 273.209 309.863C271.757 313.135 269.965 316.242 268.587 319.534C263.44 331.831 261.277 345.9 266.264 358.605C271.188 371.147 282.479 381.428 294.763 386.64C318.785 396.839 344.499 390.767 367.739 406.493C374.63 411.157 380.014 417.319 383.173 425.066C387.351 435.304 386.513 445.824 382.149 455.862C380.135 460.498 374.941 467.126 374.877 472.048L374.875 472.034Z" fill="#C0F46E"/>
<path d="M91.2728 517.205C91.0998 517.069 90.9082 516.957 90.7538 516.797C90.21 516.243 89.7584 515.685 89.7421 514.896C89.7229 513.787 90.0885 513.095 90.704 512.231C95.9206 504.846 101.974 497.788 107.571 490.663L139.911 449.497L178.481 400.432C186.038 390.829 193.418 380.998 201.34 371.707C202.575 372.563 203.566 372.985 204.209 374.368C202.568 377.962 198.576 381.96 196.1 385.127L176.946 409.59L124.649 476.128C114.938 488.49 105.433 501.09 95.445 513.221C94.1331 514.81 93.0009 516.057 91.257 517.193L91.2728 517.205Z" fill="#FEFEFE"/>
<path d="M247.585 717.867C238.191 718.397 228.933 717.571 219.947 714.684C213.8 712.715 208.16 709.696 202.85 706.047C193.348 699.51 184.373 691.785 175.311 684.641L124.614 644.814L77.0601 607.736C68.2607 600.823 58.885 594.093 50.7488 586.417C45.8728 581.811 41.8104 575.974 38.7731 570.015C29.9869 552.774 29.22 534.228 35.1648 515.944L279.727 708.032C269.377 713.178 259.071 716.488 247.593 717.873L247.585 717.867Z" fill="#D9E9ED"/>
</g>
<defs>
<clipPath id="clip0_580_137">
<rect width="322.4" height="700.87" fill="white" transform="translate(432.971) rotate(38.1529)"/>
</clipPath>
</defs>
</svg>
