<svg width="327" height="299" viewBox="0 0 327 299" fill="none" xmlns="http://www.w3.org/2000/svg">
<g clip-path="url(#clip0_583_852)">
<path d="M289.999 202.605C260.898 227.457 216.602 224.164 192.441 231.399C168.58 238.539 166.161 272.508 166.161 272.508L162.621 273.201C162.621 273.201 162.163 240.948 191.951 210.724C206.969 195.491 219.135 184.531 234.504 169.647C255.614 149.201 277.527 127.051 284.505 82.4714C284.167 84.3723 274.726 133.612 192.811 194.677C178.187 205.581 168.835 217.896 165.499 230.528C158.184 213.769 153.543 194.194 153.008 176.8C152.467 159.412 155.058 141.61 163.073 126.167C172.597 107.826 189.048 94.0359 206.307 82.643C223.573 71.2501 242.092 61.72 258.46 49.081C274.828 36.442 289.279 19.9948 294.5 0C310.352 32.8245 324.453 67.372 326.72 103.744C328.986 140.116 317.737 178.917 289.999 202.605Z" fill="white"/>
<path d="M150.939 273.201L148.055 273.074C148.055 273.074 142.045 246.461 122.284 243.676C102.281 240.853 67.5913 248.787 41.5466 232.601C16.7243 217.171 3.1386 187.792 0.547504 158.712C-2.04359 129.632 4.95937 100.572 13.5603 72.6743C20.1049 87.8818 33.5314 99.173 48.0212 107.215C62.511 115.258 78.3249 120.586 93.3749 127.528C108.425 134.471 123.112 143.416 132.865 156.799C141.078 168.071 145.273 181.854 146.948 195.695C148.616 209.529 147.304 225.595 143.529 239.747C139.359 230.147 130.471 221.513 117.573 214.641C45.3282 176.126 31.9144 138.26 31.4178 136.798C42.317 171.269 62.3454 186.177 81.5335 199.834C95.4949 209.777 106.458 216.993 120.184 227.254C147.419 247.611 150.946 273.207 150.946 273.207L150.939 273.201Z" fill="white"/>
<path d="M179.371 253.53C185.337 253.536 191.314 253.854 197.273 254.49C203.239 255.119 209.191 256.073 215.093 257.548C218.04 258.292 220.982 259.182 223.885 260.32C225.336 260.892 226.781 261.528 228.201 262.284C229.627 263.035 231.034 263.893 232.39 264.961C233.065 265.501 233.733 266.093 234.364 266.779C234.994 267.466 235.599 268.229 236.102 269.144C236.605 270.047 237.012 271.09 237.209 272.221C237.4 273.353 237.368 274.542 237.127 275.655C236.885 276.767 236.452 277.784 235.936 278.668C235.42 279.558 234.828 280.34 234.198 281.027C232.944 282.406 231.581 283.494 230.2 284.447C228.812 285.401 227.405 286.215 225.973 286.946C224.54 287.677 223.102 288.332 221.65 288.936C218.747 290.137 215.812 291.129 212.858 292C211.381 292.432 209.904 292.839 208.414 293.214C206.931 293.596 205.441 293.946 203.952 294.27C200.972 294.931 197.98 295.497 194.988 295.993C188.997 296.985 182.975 297.684 176.952 298.173C173.941 298.415 170.923 298.599 167.905 298.739C164.888 298.873 161.87 298.949 158.853 298.994C155.835 299.025 152.817 299.006 149.8 298.949C146.782 298.879 143.764 298.765 140.747 298.593C137.729 298.415 134.718 298.205 131.707 297.919C128.695 297.633 125.69 297.302 122.685 296.902C119.681 296.495 116.682 296.037 113.696 295.49C112.2 295.223 110.71 294.931 109.221 294.619C107.731 294.302 106.241 293.971 104.758 293.615C101.791 292.897 98.8309 292.089 95.896 291.142C92.9611 290.188 90.0453 289.107 87.1741 287.772C85.7417 287.105 84.3156 286.38 82.915 285.541C82.5649 285.325 82.2148 285.121 81.871 284.892L81.3489 284.555L80.8333 284.199C80.4895 283.97 80.1521 283.703 79.8146 283.455C79.6428 283.328 79.4772 283.188 79.3117 283.055C79.1462 282.921 78.9743 282.788 78.8151 282.642C78.153 282.082 77.51 281.453 76.8989 280.76C76.2877 280.067 75.7084 279.291 75.2118 278.401C74.7216 277.511 74.3141 276.5 74.1041 275.4C73.894 274.307 73.8876 273.137 74.1168 272.05C74.2186 271.503 74.3905 270.982 74.5752 270.48C74.677 270.238 74.7789 269.99 74.8935 269.761C74.9508 269.647 75.0081 269.526 75.0654 269.418L75.2564 269.087C75.7657 268.216 76.3641 267.472 76.9944 266.811C78.2549 265.495 79.6237 264.497 81.0179 263.632C81.7118 263.2 82.4185 262.812 83.1315 262.443C83.8382 262.075 84.5512 261.738 85.2706 261.42C86.7094 260.784 88.1545 260.231 89.6124 259.735C95.444 257.771 101.365 256.563 107.311 255.698C113.251 254.84 119.222 254.35 125.187 254.185C119.337 255.348 113.524 256.613 107.82 258.152C104.968 258.934 102.141 259.754 99.3656 260.695C97.9778 261.172 96.6026 261.649 95.2466 262.176C93.8906 262.698 92.5537 263.251 91.2422 263.848C89.9371 264.446 88.6511 265.069 87.4224 265.756C86.1937 266.436 85.0159 267.167 83.94 267.968C82.8705 268.763 81.8964 269.628 81.1707 270.53C80.8078 270.975 80.5149 271.433 80.3112 271.865L80.2348 272.024L80.1712 272.183C80.1266 272.291 80.1011 272.393 80.0629 272.495C80.012 272.698 79.9611 272.889 79.9483 273.073C79.9292 273.169 79.942 273.258 79.9292 273.347C79.9292 273.391 79.9292 273.436 79.9292 273.48C79.9292 273.525 79.9292 273.569 79.942 273.614C79.9611 273.792 79.9929 273.964 80.0438 274.142C80.1521 274.498 80.324 274.866 80.585 275.26C80.8396 275.648 81.1834 276.055 81.5845 276.443C81.9856 276.837 82.4312 277.225 82.9341 277.587C83.0551 277.683 83.1824 277.772 83.3098 277.861C83.4371 277.95 83.5644 278.045 83.6981 278.128C83.9719 278.299 84.2265 278.477 84.513 278.643L84.9332 278.897L85.3661 279.139C85.6462 279.304 85.9518 279.456 86.2446 279.609C87.4351 280.226 88.702 280.785 89.988 281.3C92.5791 282.324 95.2912 283.188 98.0542 283.932C99.4357 284.301 100.83 284.657 102.23 284.981C103.637 285.306 105.051 285.598 106.464 285.884C112.143 287.009 117.911 287.817 123.71 288.453C129.51 289.069 135.348 289.495 141.192 289.743C144.115 289.87 147.043 289.966 149.972 290.004C152.9 290.055 155.829 290.061 158.757 290.023C161.686 289.997 164.614 289.921 167.536 289.813C170.458 289.705 173.381 289.546 176.296 289.349C182.128 288.955 187.94 288.383 193.708 287.594C199.47 286.787 205.193 285.782 210.764 284.377C213.546 283.684 216.29 282.883 218.932 281.936C220.249 281.466 221.548 280.951 222.796 280.391C223.42 280.111 224.031 279.819 224.629 279.514C225.222 279.202 225.807 278.891 226.355 278.554C227.462 277.886 228.468 277.149 229.271 276.373C230.073 275.604 230.595 274.803 230.798 274.148C230.9 273.817 230.945 273.499 230.926 273.162C230.9 272.825 230.798 272.45 230.614 272.037C230.245 271.217 229.506 270.301 228.596 269.462C228.137 269.043 227.634 268.636 227.106 268.242C226.578 267.847 226.024 267.466 225.444 267.104C224.865 266.741 224.273 266.385 223.662 266.055C223.051 265.718 222.427 265.393 221.796 265.076C219.256 263.823 216.57 262.742 213.832 261.763C211.095 260.778 208.287 259.926 205.46 259.131C202.627 258.33 199.763 257.631 196.879 256.963C191.111 255.641 185.266 254.554 179.384 253.549L179.371 253.53Z" fill="white"/>
</g>
<defs>
<clipPath id="clip0_583_852">
<rect width="327" height="299" fill="white"/>
</clipPath>
</defs>
</svg>
