<svg width="147" height="40" viewBox="0 0 147 40" fill="none" xmlns="http://www.w3.org/2000/svg">
<g clip-path="url(#clip0_578_20)">
<path d="M69.6007 24.6193C69.6007 24.0279 69.5282 23.4421 69.3776 22.8508C69.2325 22.2259 68.9926 21.6402 68.6579 21.1102C68.3288 20.5746 67.9271 20.0948 67.4696 19.6709C67.0066 19.2469 66.4822 18.9177 65.8908 18.6723C65.2995 18.4324 64.6746 18.3152 64.0108 18.3152C63.0903 18.3152 62.1586 18.5105 61.2158 18.8954C60.273 19.2803 59.3525 19.7601 58.4487 20.3347C57.5449 20.9093 56.697 21.523 55.9048 22.1869C55.1126 22.8508 54.4208 23.4421 53.8294 23.9554C53.1265 24.5802 52.697 24.9428 52.5296 25.0321C52.3622 25.1269 52.2451 25.1716 52.1725 25.1716C52.061 25.1716 51.9717 25.1325 51.8936 25.06C51.8546 25.0209 51.8378 24.9707 51.8378 24.8926C51.8378 24.7476 51.9773 24.5133 52.2507 24.2008C52.5296 23.8884 53.0875 23.3082 53.9354 22.4603C55.0791 21.3166 56.1391 20.1562 57.1154 18.9735C58.0917 17.7964 58.9341 16.5579 59.6314 15.2692C59.7207 15.1018 59.8043 14.9289 59.888 14.7615C69.0149 13.1771 68.8532 11.8438 68.6467 10.2594C68.4626 8.84798 68.3009 7.64296 61.7848 7.94421C61.8239 7.4477 61.8462 6.94003 61.8462 6.4212C61.8462 4.50209 61.4055 2.99024 60.5184 1.88564C59.6314 0.781034 58.1195 0.189681 55.9829 0.117157H55.7597C55.0568 0.117157 54.2367 0.262206 53.2995 0.557882C52.3566 0.853559 51.3525 1.55649 50.2813 2.66109C49.69 3.25244 49.0149 4.16179 48.2618 5.40028C47.5031 6.63878 46.7667 7.97211 46.047 9.41144C45.9745 9.55649 45.9076 9.70154 45.835 9.84659C36.7918 11.4254 36.9536 12.7531 37.16 14.3375C37.3329 15.682 37.0484 16.9093 42.8113 16.7308C42.7723 16.8368 42.7332 16.9484 42.6997 17.0432C42.22 18.2259 41.7123 19.6095 41.1767 21.1939C40.6412 22.7782 40.206 24.4128 39.8769 26.0921C39.6872 27.046 39.5533 27.8661 39.464 28.5523C39.3134 27.7266 39.0791 26.8731 38.7444 25.9861C38.1363 24.3794 37.1488 22.8675 35.782 21.4505C34.4152 20.0335 32.7918 18.9177 30.9117 18.1032C29.0317 17.2887 27.0177 16.887 24.8811 16.887C24.5129 16.887 24.1447 16.9038 23.7765 16.9428C23.5924 16.9428 23.464 16.8703 23.3915 16.7197C23.3525 16.6471 23.3357 16.5746 23.3357 16.4965C23.3357 16.3515 23.3915 16.2399 23.5031 16.1618C24.4626 15.2748 25.2939 14.2371 25.9912 13.0377C26.6942 11.8382 27.2242 10.6109 27.5979 9.36123C27.9661 8.106 28.1502 6.88982 28.1502 5.70712C28.1502 4.52441 27.9494 3.49233 27.5421 2.61088C27.1349 1.72385 26.5993 1.11576 25.9354 0.786613C25.2716 0.457464 24.6244 0.2901 23.9996 0.2901C23.5198 0.2901 23.0233 0.345888 22.5045 0.457464C21.3608 0.75314 20.4403 1.35007 19.7374 2.25384C19.0345 3.1576 18.538 4.20084 18.2423 5.37797C17.9466 6.56067 17.8016 7.75454 17.8016 8.97629C17.8016 9.19945 17.8183 9.72385 17.8573 10.5551C17.8964 11.3863 18.0972 12.5021 18.4654 13.9024V14.0697C18.4654 14.2538 18.3539 14.3822 18.1363 14.4547H18.0247C17.8797 14.4547 17.7681 14.3431 17.6956 14.1255C17.3608 13.2385 16.8811 12.318 16.2562 11.3584C15.6314 10.3989 14.9173 9.53417 14.1251 8.75872C13.3329 7.98327 12.485 7.37518 11.5812 6.93445C10.6774 6.49373 9.80156 6.27057 8.95358 6.27057H8.56864C6.94521 6.3431 5.6844 6.73361 4.78064 7.43096C3.87687 8.13389 3.32457 8.85914 3.11815 9.61786C2.91732 10.3766 2.81132 11.0126 2.81132 11.5258C2.81132 12.1172 2.92848 12.8703 3.16836 13.7964C3.40825 14.7169 3.9494 15.7266 4.80295 16.8089C5.65093 17.8968 6.72764 18.8452 8.03866 19.6597C9.34967 20.4742 10.8671 21.0042 12.6021 21.2664C12.8253 21.2664 12.9313 21.378 12.9313 21.5955C12.9313 21.8131 12.8197 21.9637 12.6021 22.0363C11.6035 22.3319 10.471 22.8731 9.19905 23.6653C7.92708 24.4575 6.68859 25.3891 5.49472 26.4603C4.29528 27.5314 3.21857 28.6806 2.25902 29.9191C1.29947 31.1576 0.680219 32.2176 0.406857 33.099C0.127917 33.9861 -0.00597382 34.6834 -0.00597382 35.2022C-0.00597382 35.7545 0.139075 36.4184 0.434751 37.1939C0.730428 37.9693 1.61746 38.689 3.09026 39.3529C4.16139 39.7936 5.19347 40.0167 6.18649 40.0167C7.51425 40.0167 8.76948 39.6932 9.94661 39.046C11.1293 38.3989 12.2451 37.5509 13.2939 36.5021C14.3427 35.4533 15.3134 34.2817 16.2004 32.9875C17.0875 31.6987 17.8685 30.4045 18.5491 29.1158C19.2297 27.8271 19.8211 26.5997 20.3176 25.4393C20.8141 24.2789 21.1935 23.3082 21.4501 22.5328C21.5226 22.3487 21.6732 22.2538 21.8908 22.2538C22.0359 22.2538 22.1474 22.3487 22.22 22.5328C22.4766 23.2357 22.8002 24.1395 23.1907 25.2441C23.5756 26.3487 24.0275 27.5035 24.5463 28.7029C25.0596 29.9024 25.6453 31.0907 26.2869 32.2734C26.9341 33.4561 27.6426 34.4882 28.418 35.3696C29.1935 36.2511 29.9578 36.8982 30.7165 37.3054C31.4752 37.7127 32.2004 37.9135 32.9034 37.9135C33.199 37.9135 33.5115 37.8801 33.8462 37.802C35.7262 37.4338 37.1377 36.6304 38.0805 35.3975C38.7834 34.4714 39.2409 33.6458 39.4473 32.9038C39.57 33.8299 39.7876 34.7057 40.1279 35.5091C40.6635 36.781 41.517 37.8131 42.6997 38.6053C43.8825 39.3975 45.5226 39.7936 47.6258 39.7936C48.9536 39.7936 50.4654 39.5816 52.1614 39.1576C53.8573 38.7336 55.57 38.1423 57.305 37.3891C59.0401 36.636 60.7137 35.7378 62.3371 34.7057C63.9606 33.6736 65.3497 32.53 66.5156 31.2748C67.676 30.0195 68.4794 28.8201 68.9201 27.6764C69.3608 26.5328 69.584 25.5174 69.584 24.6304L69.6007 24.6193Z" fill="white"/>
<path d="M145.506 5.80753C144.881 4.7364 143.626 3.73222 141.746 2.79498C139.866 1.85774 137.579 1.15481 134.884 0.691771C132.19 0.228731 129.389 0 126.477 0C123.565 0 120.759 0.211994 117.958 0.635983C115.152 1.05997 112.636 1.69596 110.404 2.54393C108.173 3.39191 106.377 4.42399 105.01 5.64017C103.643 6.85635 102.962 8.27894 102.962 9.90237C102.962 10.5105 103.013 11.0683 103.113 11.5872C102.845 10.728 102.488 9.85216 102.02 8.96513C101.428 7.86053 100.731 6.7894 99.9163 5.75732C99.1018 4.72524 98.2092 3.81032 97.2329 3.01813C96.2566 2.22594 95.2134 1.58996 94.1088 1.11018C93.0042 0.630404 91.8438 0.390516 90.622 0.390516C89.8856 0.390516 89.1548 0.485356 88.4352 0.669456C87.7155 0.853557 86.9847 1.14923 86.2483 1.55649C83.8159 2.95676 81.6123 4.7364 79.6374 6.8954C77.6625 9.05439 75.9498 11.4254 74.4937 14.0028C73.0377 16.5858 71.8438 19.2803 70.9233 22.0809C70.0028 24.887 69.3557 27.6485 68.9875 30.3821C68.8034 31.8215 68.7085 32.9986 68.7085 33.9247C68.7085 34.8508 68.7643 35.5927 68.8759 36.1674C68.9874 36.742 69.1325 37.1716 69.3166 37.4672C69.5007 37.7629 69.7015 38.0028 69.9247 38.1869C70.477 38.6276 71.2357 38.8508 72.1953 38.8508C72.9707 38.8508 73.8577 38.6834 74.8508 38.3543C75.9554 37.947 76.9707 37.3389 77.8912 36.53C78.8117 35.7211 79.6541 34.7894 80.4073 33.735C81.1604 32.6862 81.8354 31.5425 82.4268 30.304C83.0181 29.0711 83.5593 27.8159 84.0614 26.5439C84.5635 25.272 85.0209 24.0335 85.4449 22.8396C85.8689 21.6402 86.265 20.5635 86.6332 19.6039C86.6667 19.5314 86.7169 19.4589 86.7727 19.3808C86.8285 19.3082 86.8898 19.2692 86.9679 19.2692C87.0014 19.2692 87.0572 19.2859 87.1353 19.325C87.3194 19.3975 87.4142 19.5258 87.4142 19.7099C87.4142 19.7824 87.3919 19.8549 87.3584 19.9331C86.583 22.0363 85.9303 24.1395 85.3947 26.2371C84.8591 28.3403 84.5746 30.516 84.5356 32.7643C84.5356 34.092 84.5746 35.113 84.6471 35.8326C84.7197 36.5523 84.9986 37.1716 85.4784 37.6848C85.9582 38.2036 86.5272 38.5607 87.1911 38.7615C87.8549 38.9623 88.5579 39.0683 89.2943 39.0683C90.0307 39.0683 90.7671 38.9847 91.5091 38.8173C92.251 38.6499 92.8759 38.4603 93.3891 38.2371C94.5328 37.7183 95.6095 36.9093 96.6248 35.8047C97.6402 34.7001 98.5495 33.4616 99.364 32.1004C100.173 30.7336 100.876 29.3333 101.467 27.894C102.059 26.4547 102.483 25.166 102.739 24.0223C102.962 23.1353 103.191 22.1255 103.431 20.9819C103.671 19.8382 103.799 18.901 103.816 18.159C103.833 17.4226 103.844 16.9763 103.844 16.8312C103.844 15.6485 103.727 14.3989 103.487 13.0711C103.448 12.8703 103.397 12.6639 103.347 12.4575C103.414 12.6527 103.487 12.8368 103.57 13.0153C103.978 13.8633 104.513 14.5662 105.177 15.1185C105.841 15.6709 106.605 16.0669 107.476 16.3068C108.34 16.5467 109.272 16.6639 110.271 16.6639C111.598 16.6639 112.954 16.463 114.338 16.0558C115.721 15.6485 117.004 15.0795 118.181 14.3431C118.326 14.2315 118.46 14.1757 118.566 14.1757C118.639 14.1757 118.734 14.2315 118.845 14.3431C118.957 14.4547 119.013 14.5662 119.013 14.6722C119.013 14.7448 118.99 14.8229 118.957 14.8954C118.438 17.4393 118.126 19.7099 118.014 21.7015C117.902 23.6932 117.847 25.4449 117.847 26.9568C117.847 27.8438 117.863 28.7085 117.902 29.5565C117.936 30.5886 118.086 31.6318 118.343 32.6806C118.6 33.7294 118.99 34.7001 119.503 35.5872C120.022 36.4742 120.686 37.2106 121.495 37.802C122.31 38.3933 123.286 38.7448 124.43 38.8508C126.165 38.8508 127.509 38.5272 128.469 37.8801C129.428 37.2329 130.137 36.3849 130.6 35.3361C131.063 34.2873 131.353 33.0879 131.487 31.7378C131.615 30.3933 131.699 28.9986 131.738 27.5593C131.771 26.8229 131.794 26.0865 131.794 25.3445C131.794 21.7294 131.353 18.0586 130.466 14.3319C130.427 14.2594 130.41 14.1869 130.41 14.1088C130.41 13.9637 130.455 13.8522 130.55 13.7796C130.639 13.7071 130.762 13.6681 130.907 13.6681C130.979 13.6681 131.052 13.6848 131.13 13.7238C132.681 14.2762 134.098 14.6722 135.392 14.9121C136.681 15.152 137.847 15.2748 138.879 15.2748C140.759 15.2748 142.259 14.9233 143.386 14.2259C144.513 13.5286 145.311 12.6192 145.791 11.5146C146.232 10.516 146.455 9.5788 146.455 8.69177C146.455 7.80474 146.142 6.88424 145.512 5.81311L145.506 5.80753ZM90.622 7.5258C90.1423 7.74895 89.5621 8.11716 88.8815 8.6304C88.2008 9.14923 87.5649 9.94142 86.9735 11.007C86.7503 11.5258 86.5607 12.0502 86.3933 12.5858C86.2259 13.1213 86.1088 13.6625 86.0363 14.2204C85.9637 14.5495 85.8131 14.7169 85.5955 14.7169H85.4282C85.2776 14.7169 85.1604 14.6722 85.0711 14.5774C84.9763 14.4881 84.9317 14.3654 84.9317 14.2204V14.1088C85.2273 12.4463 85.7796 10.9623 86.5886 9.6569C87.3975 8.34589 88.5802 7.30823 90.1311 6.53278C90.2036 6.46025 90.3152 6.4212 90.4603 6.4212C90.4993 6.4212 90.5718 6.43236 90.6834 6.44909C90.795 6.46583 90.8842 6.57183 90.9623 6.75593C91.0014 6.8675 91.0181 6.95676 91.0181 7.03487C91.0181 7.25802 90.8898 7.4198 90.6332 7.53138L90.622 7.5258Z" fill="white"/>
</g>
<defs>
<clipPath id="clip0_578_20">
<rect width="146.444" height="40" fill="white"/>
</clipPath>
</defs>
</svg>
