<svg width="514" height="514" viewBox="0 0 514 514" fill="none" xmlns="http://www.w3.org/2000/svg">
<path d="M280.347 512.923C139.038 525.801 14.0461 421.744 1.09028 280.461C-11.8656 139.178 92.1405 14.1091 233.424 1.10189C374.809 -11.9309 499.955 92.1521 512.911 233.538C525.867 374.923 421.732 500.044 280.347 512.923ZM490.411 340.315C509.447 287.388 510.32 229.638 492.926 176.147C472.53 114.318 428.223 63.2643 369.909 34.3253C310.876 4.12915 242.172 -1.07884 179.291 19.9071C116.795 40.5595 65.0999 85.2765 35.6478 144.129C25.4114 165.346 18.2792 186.076 13.2508 209.088C2.78352 281.308 14.0205 349.089 58.5066 408.583C97.8872 460.612 156.176 495.067 220.724 504.508C286.555 513.872 353.387 496.478 406.314 456.225C434.919 434.495 458.471 406.813 475.377 375.129C481.201 363.892 486.23 352.244 490.411 340.289V340.315Z" fill="black"/>
<path d="M35.6475 144.155C65.0996 85.2768 116.795 40.5855 179.291 19.9331C242.197 -1.05283 310.902 4.1295 369.909 34.3513C428.223 63.2647 472.529 114.344 492.925 176.173C510.319 229.664 509.421 287.414 490.411 340.341C486.973 328.334 485.152 316.122 480.944 304.244C470.862 275.69 452.057 256.525 424.759 243.826C371.448 219.017 314.878 236.001 265.62 262.759C239.709 276.818 215.772 293.238 187.757 303.346C159.613 313.48 123.773 314.788 96.3989 301.499C50.0913 279.025 37.3664 226.021 36.571 178.918C36.4428 170.221 39.2905 153.366 36.3145 145.746C36.1093 145.233 35.8784 144.72 35.6475 144.181V144.155Z" fill="#F98C8C"/>
<path d="M35.6472 144.156C35.8781 144.669 36.109 145.182 36.3143 145.721C39.2903 153.315 36.4425 170.196 36.5708 178.893C37.3405 225.996 50.0654 279.025 96.3987 301.473C123.773 314.737 159.639 313.454 187.757 303.32C215.772 293.212 239.708 276.793 265.62 262.734C314.878 236.001 371.448 218.992 424.759 243.8C452.056 256.5 470.887 275.69 480.944 304.218C485.126 316.097 486.973 328.308 490.411 340.315C486.203 352.27 481.175 363.892 475.377 375.155C467.706 365.149 467.706 343.548 464.396 330.977C457.29 303.833 442.307 281.257 417.653 267.223C399.027 256.628 378.375 252.728 357.081 254.216C285.298 259.322 243.018 312.351 178.393 329.822C145.374 338.75 106.276 335.928 76.4646 318.431C46.2685 300.704 28.3355 268.891 19.2279 235.924C16.7907 227.099 15.4823 217.991 13.2246 209.089C18.2787 186.076 25.3851 165.347 35.6216 144.13L35.6472 144.156Z" fill="#FEFEFE"/>
<path d="M475.351 375.129C458.445 406.813 434.893 434.495 406.288 456.225C353.361 496.478 286.529 513.872 220.698 504.508C156.124 495.067 97.8612 460.612 58.4805 408.583C14.0201 349.089 2.75747 281.308 13.2248 209.089C15.4824 217.991 16.7908 227.099 19.2281 235.924C28.3357 268.891 46.2686 300.703 76.4648 318.431C106.276 335.928 145.349 338.776 178.393 329.822C243.018 312.325 285.272 259.322 357.081 254.216C378.375 252.702 399.002 256.602 417.653 267.223C442.308 281.257 457.29 303.808 464.397 330.976C467.68 343.522 467.706 365.123 475.377 375.155L475.351 375.129Z" fill="#FFB0B0"/>
</svg>
