<svg width="373" height="356" viewBox="0 0 373 356" fill="none" xmlns="http://www.w3.org/2000/svg">
<g clip-path="url(#clip0_580_120)">
<path d="M25.6702 58.9685C51.9443 43.067 86.8559 42.1318 121.664 47.2566C152.246 51.7591 182.499 60.8959 206.337 68.3855L216.143 71.4763C265.701 87.0665 325.501 117.651 365.729 199.037C350.355 236.207 321.908 285.833 279.545 318.912C237.369 351.845 181.366 368.423 110.424 339.855L108.745 339.172L107.113 338.493C38.3072 309.579 10.3803 258.491 3.36841 205.31C-3.68387 151.823 10.4351 96.1907 25.6702 58.9685Z" fill="#F9A726" stroke="black" stroke-width="3"/>
<path d="M106.138 4.15442C144.225 -2.35202 190.862 2.93767 237.26 21.6036L239.469 22.5031H239.469C286.594 41.885 324.272 71.3705 347.123 103.296C369.63 134.742 377.633 168.354 366.509 197.049L365.964 198.411C354.045 227.402 324.392 246.136 285.67 252.75C247.576 259.257 200.934 253.973 154.536 235.318L152.327 234.42C105.215 215.038 67.5425 185.553 44.6951 153.627C22.1905 122.181 14.1881 88.5696 25.3123 59.8741L25.8562 58.5118V58.5109C37.775 29.5084 67.4231 10.7683 106.138 4.15442Z" fill="#FFD469" stroke="black" stroke-width="3"/>
<path d="M237.848 26.4741C327.811 63.4697 381.96 139.141 358.806 195.451C335.651 251.784 243.96 267.445 153.996 230.449C64.0333 193.453 9.88497 117.782 33.0392 61.4482C56.1935 5.13895 147.885 -10.5458 237.848 26.4741Z" fill="#FDE8A5"/>
<path d="M235.535 35.4612C320.994 70.6057 373.414 140.189 352.597 190.847C331.78 241.506 245.591 254.073 160.107 218.929C74.6486 183.76 22.2289 114.177 43.0459 63.5184C63.8871 12.8596 150.052 0.316622 235.535 35.4612Z" fill="#FFD469"/>
<path d="M199.377 108.276C202.423 107.756 206.203 108.124 210.044 109.563L210.812 109.866L211.751 110.251C215.406 111.927 218.285 114.285 220.054 116.758C221.987 119.459 222.475 122.089 221.632 124.157C220.777 126.209 218.587 127.728 215.321 128.286C212.279 128.805 208.504 128.437 204.664 126.999L203.894 126.697L203.893 126.696L203.133 126.37C199.382 124.689 196.439 122.293 194.644 119.783C192.775 117.169 192.263 114.627 192.999 112.602L193.074 112.408C193.914 110.357 196.102 108.835 199.377 108.276Z" fill="#FDE8A5" stroke="black" stroke-width="3"/>
<path d="M219.774 125.792L351.647 208.554" stroke="black" stroke-width="3" stroke-miterlimit="10"/>
<path d="M212.38 127.848L239.626 244.526" stroke="black" stroke-width="3" stroke-miterlimit="10"/>
<path d="M202.715 124.065L134.446 211.842" stroke="black" stroke-width="3" stroke-miterlimit="10"/>
<path d="M195.898 121.508L54.1969 146.448" stroke="black" stroke-width="3" stroke-miterlimit="10"/>
<path d="M193.073 115.515L38.4929 65.5155" stroke="black" stroke-width="3" stroke-miterlimit="10"/>
<path d="M196.359 108.938L99.848 15.5142" stroke="black" stroke-width="3" stroke-miterlimit="10"/>
<path d="M206.629 108.938L180.973 15.5142" stroke="black" stroke-width="3" stroke-miterlimit="10"/>
<path d="M216.077 113.048L256.182 40.527" stroke="black" stroke-width="3" stroke-miterlimit="10"/>
<path d="M218.395 118.269H345.634" stroke="black" stroke-width="3" stroke-miterlimit="10"/>
</g>
<defs>
<clipPath id="clip0_580_120">
<rect width="373" height="356" fill="white"/>
</clipPath>
</defs>
</svg>
