<svg width="546" height="547" viewBox="0 0 546 547" fill="none" xmlns="http://www.w3.org/2000/svg">
<g clip-path="url(#clip0_580_115)">
<path d="M434.946 161.377C460.562 179.143 475.563 201.313 480.687 227.986C485.726 254.216 481.243 284.964 467.613 320.377L467.605 320.37L466.817 322.376C423.394 432.942 308.671 480.391 207.507 445.531L206.318 445.116C148.758 424.895 109.198 392.416 89.3822 351.507C69.8817 311.249 69.3856 262.59 90.024 208.947L91.0227 206.389C121.225 130.124 185.885 103.62 222.085 97.8661L223.787 97.6081C260.048 92.3797 278.253 98.0674 292.742 106.999C300.103 111.537 306.45 116.866 313.896 122.297C321.291 127.69 329.591 133.036 340.565 137.34L340.565 137.339C358.395 144.335 373.584 144.311 388.348 145.584C402.874 146.837 417.243 149.336 434.139 160.823L434.946 161.377Z" fill="#F37C6C" stroke="black" stroke-width="3"/>
<path d="M436.573 165.359C458.794 181.507 472.095 202.963 476.635 228.628C481.17 254.266 476.976 284.206 464.005 317.347L463.996 317.358L463.897 317.608C424.017 419.16 321.729 470.847 233.962 437.138L232.93 436.738C145.622 402.493 105.262 296.076 143.754 194.823L144.678 192.432C156.128 163.277 169.812 141.777 186.83 126.877C203.56 112.229 223.608 103.876 248.157 100.978L249.329 100.844C271.485 98.4015 305.26 106.584 316.906 139.508L317.177 140.29C319.186 146.213 318.916 156.533 316.764 167.075C314.683 177.264 310.929 187.247 306.202 193.234L305.742 193.801L305.74 193.803C304.881 194.834 304.742 196.05 305.157 197.184C305.53 198.203 306.317 199.091 307.182 199.833C308.936 201.337 311.569 202.707 314.202 203.717C316.837 204.729 319.66 205.452 321.851 205.551C322.912 205.599 324.044 205.513 324.939 205.056C325.416 204.812 325.879 204.435 326.179 203.876C326.444 203.382 326.526 202.849 326.486 202.331L326.461 202.11L326.461 202.107L326.381 201.478C325.653 194.88 328.086 185.385 332.728 176.258C337.506 166.864 344.446 158.212 352.109 153.783L352.109 153.782C363.818 147.03 380.508 146.68 396.666 149.729C412.287 152.677 427.053 158.735 435.749 164.775L436.572 165.359L436.573 165.359Z" fill="#FDD185" stroke="black" stroke-width="3"/>
<path d="M377.977 289.398C354.432 349.37 246.874 369.167 246.874 369.167C246.874 369.167 182.01 281.778 205.568 221.792C219.025 187.532 240.008 172.539 268.074 168.66C280.621 166.929 297.071 175.242 303.092 195.117C305.286 202.386 316.028 207.918 325.006 202.349C338.631 193.877 361.682 196.634 371.211 203.815C395.676 222.228 393.335 250.33 378.004 289.397L377.977 289.398Z" fill="#F7C06F"/>
<path d="M312.435 199.067C322.636 202.658 331.201 208.706 335.488 215.28L335.889 215.918C344.644 230.352 348.72 249.476 337.634 278.611L337.095 280.006L337.094 280.006C328.145 302.806 307.293 320.368 288.469 332.281C279.083 338.22 270.259 342.72 263.782 345.734C260.545 347.24 257.897 348.374 256.062 349.13C255.44 349.386 254.911 349.596 254.485 349.766C254.287 349.352 254.043 348.838 253.762 348.229C252.931 346.427 251.76 343.796 250.412 340.492C247.714 333.881 244.307 324.587 241.467 313.854C235.86 292.665 232.536 266.125 240.97 243.553L241.38 242.481C251.737 216.118 263.629 203.344 279.602 197.901L279.602 197.9C289.964 194.372 301.933 195.37 312.435 199.067Z" fill="#CE844D" stroke="black" stroke-width="3"/>
</g>
<defs>
<clipPath id="clip0_580_115">
<rect width="385.914" height="387.451" fill="white" transform="translate(258.077) rotate(41.7659)"/>
</clipPath>
</defs>
</svg>
