<svg width="770" height="603" viewBox="0 0 770 603" fill="none" xmlns="http://www.w3.org/2000/svg">
<mask id="mask0_755_936" style="mask-type:alpha" maskUnits="userSpaceOnUse" x="0" y="0" width="770" height="603">
<rect width="770" height="603" rx="15" fill="white"/>
</mask>
<g mask="url(#mask0_755_936)">
<path d="M828.999 0H-59.5781V603H828.999V0Z" fill="#FFB3DE"/>
<g style="mix-blend-mode:soft-light" opacity="0.5">
<path d="M46.1953 353.583C141.451 353.504 194.419 381.246 245.375 415.967C296.351 450.703 345.386 492.49 432.646 520.312C519.899 548.132 619.017 551.695 696.299 548.31C734.944 546.617 768.14 543.187 791.674 540.179C803.441 538.675 812.794 537.277 819.205 536.254C822.411 535.743 824.881 535.326 826.551 535.037C827.385 534.892 828.02 534.779 828.446 534.703C828.465 534.699 828.483 534.695 828.5 534.692V602.513H631.166C631.163 602.513 631.16 602.512 631.157 602.512C631.142 602.511 631.118 602.51 631.088 602.508C631.026 602.505 630.935 602.499 630.813 602.492C630.57 602.477 630.208 602.455 629.733 602.426C628.784 602.368 627.382 602.28 625.576 602.167C621.964 601.939 616.734 601.602 610.26 601.167C597.312 600.296 579.39 599.031 559.494 597.455C519.697 594.3 472.021 589.899 440.456 584.912C378.322 575.094 338.61 562.109 292.533 528.202L290.334 526.571C235.124 485.321 208.974 446.224 126.58 429.942L124.623 429.561C87.2939 422.421 53.737 422.906 29.5127 425.174C17.4001 426.309 7.61874 427.889 0.863281 429.187C-2.51452 429.836 -5.13671 430.414 -6.91504 430.831C-7.80365 431.039 -8.48178 431.206 -8.93848 431.322C-9.16687 431.38 -9.3408 431.425 -9.45703 431.456C-9.51481 431.471 -9.55841 431.483 -9.58789 431.491C-9.60267 431.495 -9.61449 431.497 -9.62207 431.5C-9.62569 431.5 -9.62894 431.501 -9.63086 431.501L-9.63281 431.502C-9.63305 431.504 -9.62683 431.526 -9.50195 431.985L-9.63379 431.502L-9.77734 431.542L-9.78418 431.548L-59.4971 443.672L-59.0781 364.485L-59.0762 364.254L-59.25 364.105H-59.249L-59.2559 364.098C-59.2667 364.087 -59.2844 364.068 -59.3057 364.042C-59.3495 363.987 -59.4026 363.908 -59.4424 363.809C-59.5139 363.632 -59.5603 363.356 -59.3311 362.972C-59.0845 362.559 -58.5021 361.994 -57.2168 361.35C-55.9386 360.71 -54.0084 360.012 -51.1309 359.308C-39.9657 356.576 -14.8525 353.815 40.7207 353.597L46.1953 353.583Z" fill="black"/>
<path d="M46.1953 353.583C141.451 353.504 194.419 381.246 245.375 415.967C296.351 450.703 345.386 492.49 432.646 520.312C519.899 548.132 619.017 551.695 696.299 548.31C734.944 546.617 768.14 543.187 791.674 540.179C803.441 538.675 812.794 537.277 819.205 536.254C822.411 535.743 824.881 535.326 826.551 535.037C827.385 534.892 828.02 534.779 828.446 534.703C828.465 534.699 828.483 534.695 828.5 534.692V602.513H631.166C631.163 602.513 631.16 602.512 631.157 602.512C631.142 602.511 631.118 602.51 631.088 602.508C631.026 602.505 630.935 602.499 630.813 602.492C630.57 602.477 630.208 602.455 629.733 602.426C628.784 602.368 627.382 602.28 625.576 602.167C621.964 601.939 616.734 601.602 610.26 601.167C597.312 600.296 579.39 599.031 559.494 597.455C519.697 594.3 472.021 589.899 440.456 584.912C378.322 575.094 338.61 562.109 292.533 528.202L290.334 526.571C235.124 485.321 208.974 446.224 126.58 429.942L124.623 429.561C87.2939 422.421 53.737 422.906 29.5127 425.174C17.4001 426.309 7.61874 427.889 0.863281 429.187C-2.51452 429.836 -5.13671 430.414 -6.91504 430.831C-7.80365 431.039 -8.48178 431.206 -8.93848 431.322C-9.16687 431.38 -9.3408 431.425 -9.45703 431.456C-9.51481 431.471 -9.55841 431.483 -9.58789 431.491C-9.60267 431.495 -9.61449 431.497 -9.62207 431.5C-9.62569 431.5 -9.62894 431.501 -9.63086 431.501L-9.63281 431.502C-9.63305 431.504 -9.62683 431.526 -9.50195 431.985L-9.63379 431.502L-9.77734 431.542L-9.78418 431.548L-59.4971 443.672L-59.0781 364.485L-59.0762 364.254L-59.25 364.105H-59.249L-59.2559 364.098C-59.2667 364.087 -59.2844 364.068 -59.3057 364.042C-59.3495 363.987 -59.4026 363.908 -59.4424 363.809C-59.5139 363.632 -59.5603 363.356 -59.3311 362.972C-59.0845 362.559 -58.5021 361.994 -57.2168 361.35C-55.9386 360.71 -54.0084 360.012 -51.1309 359.308C-39.9657 356.576 -14.8525 353.815 40.7207 353.597L46.1953 353.583Z" stroke="black"/>
</g>
<g style="mix-blend-mode:soft-light" opacity="0.5">
<path d="M-60 487.057C-60 487.057 1.97522 464.261 73.9843 469.953C145.993 475.646 199.061 512.714 218.014 532.664C236.967 552.614 291.291 578.271 315.29 585.393C339.289 592.515 423.937 603 423.937 603H255.908C255.908 603 219.27 563.602 152.307 536.013C85.3443 508.424 -0.55965 526.548 -23.3031 536.013C-46.0465 545.479 -60 562.596 -60 562.596V487.057Z" fill="black"/>
</g>
<path d="M826 3V506.009C824.594 506.299 822.571 506.706 819.969 507.195C814.484 508.226 806.432 509.628 796.196 511.103C775.723 514.052 746.523 517.292 711.654 518.446C641.89 520.755 549.576 514.71 459.101 481.396C368.685 448.103 323.87 407.782 284.867 369.629C245.762 331.376 212.162 294.902 144.502 270.435C77.1249 246.069 25.788 243.903 -8.82129 247.906C-26.118 249.907 -39.2134 253.446 -48.0225 256.508C-51.8067 257.823 -54.799 259.05 -56.9932 260.028L-56.582 3H826Z" fill="#7A6BE3" stroke="black" stroke-width="6"/>
<path d="M-60 216.621C-60 216.621 80.9904 184.492 149.009 217.482C217.028 250.472 299.963 348.808 340.85 380.977C381.736 413.147 440.789 447.302 534.673 454.133C628.557 460.964 686.097 450.718 745.162 440.471C804.226 430.224 829 421.686 829 421.686V353.11C829 353.11 639.401 400.358 501.603 371.326C363.804 342.294 321.627 202.139 167.951 173.596C76.1906 156.545 -59.4015 176.615 -59.4015 176.615L-60 216.621Z" fill="#9285F3"/>
<path d="M-60 143.783C-60 143.783 73.3154 108.794 191.867 145.531C310.42 182.268 373.744 243.707 414.126 273.11C454.508 302.513 507.6 336.072 589.995 342.175C737.205 353.084 828.988 311.515 828.988 311.515V218.726C828.988 218.726 774.981 273.097 550.915 237.499C383.215 210.849 321.627 87.9301 128.824 74.7048C31.091 68.0062 -60 101.169 -60 101.169V143.783Z" fill="#9285F3"/>
<path d="M825 -13V161.613C823.569 161.918 821.665 162.318 819.329 162.794C813.636 163.954 805.375 165.573 795.129 167.405C774.632 171.07 746.205 175.582 714.484 178.977C650.83 185.788 574.683 188 522.562 170.366C470.079 152.611 434.162 126.467 391.454 100.447C348.776 74.4457 299.946 49.0296 222.46 33.6123C145.065 18.2133 74.2145 20.1717 22.7275 25.9707C-3.02311 28.871 -23.9514 32.7348 -38.459 35.8779C-45.7133 37.4496 -51.3641 38.8415 -55.2119 39.8438C-55.4713 39.9113 -55.7219 39.979 -55.9648 40.043L-55.6045 -13H825Z" fill="#D9FB7C" stroke="black" stroke-width="8"/>
<rect x="1.5" y="1.5" width="767" height="600" rx="13.5" stroke="black" stroke-width="3"/>
</g>
</svg>
