<svg width="770" height="603" viewBox="0 0 770 603" fill="none" xmlns="http://www.w3.org/2000/svg">
<mask id="mask0_588_1607" style="mask-type:alpha" maskUnits="userSpaceOnUse" x="0" y="0" width="770" height="603">
<rect x="1.5" y="1.5" width="767" height="600" rx="13.5" fill="#D9D9D9" stroke="black" stroke-width="3"/>
</mask>
<g mask="url(#mask0_588_1607)">
<g clip-path="url(#clip0_588_1607)">
<path d="M-47 -13H770.311V1008.44C769.925 1008.67 769.619 1008.85 769.206 1009C766.025 1010.08 732.561 1009.3 726.903 1009.3H597.145H-40.6905C-42.8735 1009.3 -45.0432 1009.54 -47 1008.44L-47 -13Z" fill="#81D6CC"/>
<path d="M530.842 147.614L530.788 120.765C530.735 110.795 529.604 99.8796 532.359 90.2289C534.302 83.4135 538.096 77.5033 543.075 72.4983C558.729 56.7245 585.511 50.7211 607.128 50.7344C630.516 50.7344 656.793 56.4849 673.791 73.6564C678.809 78.7147 682.856 84.6515 684.72 91.5866C688.021 103.953 686.57 122.455 686.557 135.594L686.463 194.243C696.101 199.488 745.379 224.034 749.173 228.559C751.555 234.736 750.384 293.412 749.492 303.675C745.659 307.761 741.119 311.409 736.98 315.189L715.841 334.797C715.202 381.599 715.588 428.521 715.801 475.324C720.593 481.234 731.895 487.796 738.377 492.349C724.813 503.197 710.53 513.221 696.66 523.683C677.146 538.605 657.764 553.714 638.53 568.995L462.888 708.803C442.002 725.455 421.596 742.707 400.764 759.412C367.246 786.168 333.489 812.618 299.492 838.761L198.18 918.881C185.88 928.785 173.328 938.329 160.988 948.166C153.121 954.436 145.56 961.437 137.134 966.962C129.933 971.687 121.933 973.524 113.347 972.566C109.048 972.086 105.094 970.822 101.221 968.892C86.8711 961.757 73.1472 952.705 59.1837 944.758L18.7974 921.756C11.982 917.896 4.94034 914.209 -1.71528 910.083C-3.63211 908.898 -5.58886 907.673 -7.02648 905.916C-7.01317 903.653 -6.32098 902.256 -4.67039 900.671C-1.07635 897.25 13.7125 889.517 15.3098 887.134C15.5894 886.708 15.7624 885.976 15.8556 885.483C13.6193 884.991 10.7174 882.009 9.09346 880.412C4.71405 876.099 0.454452 870.016 -1.20946 864.026C-3.71197 855.014 -2.36753 840.758 -2.3276 831.133L-2.22111 784.517C-7.18621 780.564 -13.6688 778.048 -18.168 773.682C-19.4592 772.417 -19.9251 771.792 -20.2046 769.995C-21.376 762.367 -20.5374 753.555 -20.5374 745.835L-20.5906 695.226C-13.8685 687.984 -5.73529 682.154 1.13332 675.032C0.707364 669.282 0.813852 663.345 0.933653 657.581C1.19988 644.763 3.95531 635.378 13.2998 626.153C20.621 618.939 30.9239 613.455 40.6012 610.1C46.8708 607.93 53.0739 607.425 58.2519 602.952C75.7696 587.817 92.7947 572.017 110.046 556.576C148.063 523.018 185.721 489.087 223.045 454.758C249.615 430.598 277.515 407.649 303.419 382.797L303.312 325.173C303.312 315.469 302.181 304.088 304.071 294.57C306.214 283.801 313.083 275.535 322.108 269.611C346.867 253.358 380.81 252.44 408.897 258.377C412.97 253.984 417.683 250.017 422.102 245.957L445.197 224.673C473.364 198.569 501.929 172.878 530.855 147.6L530.842 147.614Z" fill="#010101"/>
<path d="M461.49 567.65C471.407 559.517 480.605 550.492 489.95 541.72L518.276 515.617C535.78 499.364 554.003 483.909 571.188 467.323C607.994 484.948 643.535 504.994 680.061 523.191C690.71 512.848 703.582 504.289 715.509 495.503C715.509 488.795 715.269 481.992 715.788 475.297C720.58 481.207 731.882 487.77 738.364 492.322C724.8 503.171 710.517 513.194 696.647 523.657C677.132 538.579 657.751 553.687 638.517 568.968L462.875 708.776C441.989 725.429 421.583 742.68 400.751 759.386C367.233 786.141 333.476 812.591 299.479 838.734L198.167 918.855C185.867 928.758 173.315 938.302 160.975 948.139C153.108 954.409 145.547 961.411 137.121 966.935C129.92 971.66 121.92 973.497 113.334 972.539C109.035 972.06 105.081 970.795 101.208 968.865C86.8581 961.73 73.1342 952.679 59.1707 944.732L18.7843 921.73C11.9689 917.87 4.92727 914.182 -1.72836 910.056C-3.64518 908.871 -5.60193 907.647 -7.03955 905.889C-7.02624 903.627 -6.33405 902.229 -4.68346 900.645C-1.08942 897.224 13.6994 889.49 15.2967 887.107C15.5763 886.681 15.7493 885.949 15.8425 885.457C16.162 885.896 16.162 885.923 16.6146 886.375C18.9573 888.651 22.5913 890.422 25.5065 891.899C41.5465 900.033 59.8229 903.307 77.7132 903.427C102.872 903.6 132.556 897.171 150.912 878.841C162.892 866.874 162.28 858.209 162.2 842.435C162.147 834.448 162.147 826.461 162.186 818.474C162.386 818.701 162.706 819.073 162.959 819.286C166.127 821.869 175.857 825.809 179.851 825.356C180.609 825.25 181.128 824.984 181.727 824.518C187.212 820.258 192.363 814.801 197.501 810.075L230.433 779.499L331.945 685.908C337.642 689.196 343.672 691.991 349.476 695.092C365.236 703.585 381.064 711.905 396.984 720.091C406.461 724.989 417.43 729.529 425.922 736.011C429.729 732.271 434.109 728.943 438.182 725.469C445.916 718.893 453.676 712.237 461.064 705.262C462.236 689.329 461.437 672.716 461.437 656.729L461.49 567.624V567.65Z" fill="#2F8F6A"/>
<path d="M179.451 744.597C184.164 739.805 189.395 735.372 194.373 730.833C203.691 722.301 213.062 713.821 222.473 705.395L282.441 650.646L540.905 417.446L685.146 286.81L722.617 252.573C729.166 246.596 735.556 239.941 742.797 234.856L742.824 242.576C742.185 261.545 742.318 280.753 742.637 299.735L288.231 715.073C263.698 737.968 239.046 760.73 214.287 783.359C203.744 793.183 193.521 803.406 182.846 813.097C182.034 813.842 181.634 814.188 180.556 814.401C180.556 806.401 181.528 756.883 179.584 752.837C172.703 749.735 165.648 746.687 159.058 743.013L159.019 735.532C165.767 738.687 172.569 741.708 179.438 744.584L179.451 744.597Z" fill="#947051"/>
<path d="M179.451 744.597C184.163 739.805 189.395 735.372 194.373 730.833C203.691 722.301 213.062 713.821 222.473 705.395L282.44 650.646L540.905 417.446L685.146 286.81L722.617 252.573C729.166 246.596 735.556 239.941 742.797 234.856L742.824 242.576C733.998 249.298 725.972 257.804 717.652 265.219L648.287 328.274L445.983 511.424C377.989 571.923 310.54 633.049 243.651 694.786C227.718 709.588 211.065 723.592 195.119 738.367C190.02 743.093 184.203 747.659 179.598 752.837C172.716 749.735 165.661 746.687 159.072 743.013L159.032 735.532C165.781 738.687 172.583 741.708 179.451 744.584V744.597Z" fill="url(#paint0_linear_588_1607)"/>
<path d="M271.671 421.333C282.64 412.201 292.903 402.245 303.911 393.126L303.858 400.115C303.791 410.671 303.272 421.479 303.951 432.009C304.098 435.044 304.204 438.079 304.257 441.114L304.297 451.257C304.044 462.957 306.041 469.6 312.577 479.583C314.587 482.019 316.903 484.468 318.647 487.091C335.006 501.28 356.344 508.375 377.948 506.805C378.268 506.778 378.601 506.738 378.92 506.698L385.935 506.312C391.007 505.607 395.985 504.755 400.99 503.716C398.647 506.538 395.865 508.881 393.363 511.543C392.431 512.449 391.526 513.46 390.528 514.286L388.997 515.311C384.83 519.104 378.547 525.946 373.982 528.675C369.868 532.415 365.822 536.222 361.842 540.096L358.394 543.131C350.008 550.918 341.649 559.477 332.624 566.492C331.492 567.57 330.361 568.835 329.056 569.687L323.572 574.572C317.542 580.15 311.166 585.421 305.256 591.105L302.394 593.687C293.688 601.581 284.889 609.368 275.997 617.035C274.879 618.073 273.775 619.205 272.576 620.15L267.571 624.769C261.076 630.493 254.606 636.257 248.177 642.074L244.942 645.069C236.676 652.669 228.436 660.536 219.731 667.631C218.48 668.736 217.215 670.001 215.857 670.959L211.638 674.873L192.283 692.257L188.689 695.505C178.479 703.998 168.429 713.076 159.005 722.42C159.045 708.75 158.153 694.267 159.87 680.729L160.642 676.856L160.669 649.342C160.629 646.972 160.19 644.656 159.804 642.327L158.472 637.907C156.942 635.098 155.198 632.29 153.214 629.787C139.144 612.003 111.524 605.454 89.9993 603.085C86.7646 602.26 83.6897 601.647 80.8278 599.837C79.0574 598.945 77.3669 598.08 75.7695 596.895L101.713 573.973L104.961 571.125C113.281 563.83 121.214 556.056 129.853 549.134L133.194 545.953C141.847 537.7 151.071 530.006 159.977 522.033L162.705 519.583C170.799 512.595 178.612 505.287 186.745 498.339L189.434 495.663C197.408 487.583 206.233 480.062 214.752 472.555C215.884 471.636 216.962 470.651 218.054 469.693C225.721 462.451 233.495 455.33 241.402 448.342L244.676 445.786C252.343 438.092 260.57 430.451 268.956 423.569L271.671 421.346V421.333Z" fill="#DF675B"/>
<path d="M271.671 421.333C282.64 412.201 292.903 402.245 303.911 393.126L303.858 400.115C303.791 410.671 303.272 421.479 303.951 432.009C304.098 435.044 304.204 438.079 304.257 441.114L304.297 451.257C304.044 462.957 306.041 469.6 312.577 479.583C314.587 482.019 316.903 484.468 318.647 487.091C335.006 501.28 356.344 508.375 377.948 506.805C378.268 506.778 378.601 506.738 378.92 506.698L385.935 506.312C391.007 505.607 395.985 504.755 400.99 503.716C398.647 506.538 395.865 508.881 393.363 511.543C392.431 512.449 391.526 513.46 390.528 514.286L388.997 515.311C384.83 519.104 378.547 525.946 373.982 528.675C369.868 532.415 365.822 536.222 361.842 540.096L358.394 543.131C350.008 550.918 341.649 559.477 332.624 566.492C331.492 567.57 330.361 568.835 329.056 569.687C324.916 566.892 319.845 564.895 315.346 562.685L288.43 549.401C256.017 532.908 223.431 516.735 190.699 500.894L186.759 498.352L189.448 495.676C197.421 487.596 206.246 480.076 214.766 472.568C215.897 471.65 216.975 470.665 218.067 469.706C225.734 462.465 233.508 455.343 241.415 448.355L244.689 445.799C252.357 438.105 260.583 430.465 268.969 423.583L271.685 421.36L271.671 421.333Z" fill="#F7A728"/>
<path d="M214.739 472.542L219.957 475.363C243.199 486.372 265.921 498.498 289.203 509.427C305.629 517.134 322.108 524.628 338.388 532.655C344.897 535.863 352.471 538.898 358.368 543.118C349.982 550.905 341.622 559.464 332.597 566.479C331.466 567.557 330.334 568.822 329.03 569.674C324.89 566.878 319.818 564.882 315.319 562.672L288.404 549.387C255.991 532.895 223.405 516.722 190.673 500.881L186.732 498.339L189.421 495.663C197.395 487.583 206.22 480.062 214.739 472.555V472.542Z" fill="#DF675B"/>
<path d="M189.421 495.65L194.48 498.126L294.966 548.096C305.282 553.208 322.321 563.431 332.597 566.492C331.466 567.571 330.334 568.835 329.03 569.687C324.89 566.892 319.818 564.895 315.319 562.685L288.404 549.401C255.991 532.908 223.405 516.735 190.673 500.895L186.732 498.352L189.421 495.677V495.65Z" fill="#CA2119"/>
<path d="M214.739 472.541L219.957 475.363C211.385 482.858 202.879 490.445 194.48 498.112L189.421 495.636C197.395 487.556 206.22 480.036 214.739 472.528V472.541Z" fill="#F9B67E"/>
<path d="M271.672 421.333C282.64 412.201 292.903 402.245 303.912 393.126L303.858 400.115C303.792 410.671 303.273 421.479 303.951 432.009C304.098 435.044 304.204 438.079 304.258 441.114L304.298 451.257C304.045 462.957 306.041 469.6 312.577 479.583C314.587 482.019 316.903 484.468 318.647 487.091C315.346 485.972 312.138 484.175 309.01 482.671C304.737 480.568 300.491 478.425 296.271 476.242L295.818 476.082C291.399 473.021 285.316 470.758 280.457 468.348C269.316 462.837 258.201 457.233 246.979 451.869C244.996 450.844 243.225 449.606 241.402 448.328L244.676 445.772C252.344 438.079 260.57 430.438 268.956 423.556L271.672 421.333Z" fill="#DF675B"/>
<path d="M271.672 421.333C282.64 412.201 292.903 402.245 303.911 393.126L303.858 400.115C303.792 410.671 303.272 421.479 303.951 432.009C304.098 435.044 304.204 438.079 304.258 441.114C294.128 436.082 283.958 431.143 273.748 426.298L268.956 423.556L271.672 421.333Z" fill="#F7A728"/>
<path d="M271.671 421.333C282.64 412.202 292.903 402.245 303.911 393.126L303.858 400.115C297.895 405.639 291.811 411.03 285.608 416.301C282.853 418.684 279.978 421.679 276.956 423.662C275.159 422.97 273.415 422.158 271.671 421.333Z" fill="#F9B67E"/>
<path d="M271.671 421.333C273.415 422.158 275.146 422.97 276.956 423.662C277.102 423.702 277.249 423.756 277.395 423.796C286.553 426.831 294.5 433.752 303.645 436.481C303.951 434.964 303.965 433.553 303.965 432.009C304.111 435.044 304.217 438.079 304.271 441.114C294.141 436.082 283.971 431.143 273.761 426.298L268.969 423.556L271.685 421.333H271.671Z" fill="#CA2119"/>
<path d="M295.925 472.009C298.081 463.809 298.614 458.019 304.284 451.257C304.031 462.957 306.028 469.6 312.564 479.583C314.574 482.019 316.89 484.468 318.634 487.091C315.333 485.973 312.125 484.176 308.996 482.671C304.724 480.568 300.477 478.425 296.258 476.242L296.377 472.315L295.925 472.009Z" fill="#A05C47"/>
<path d="M296.364 472.302C300.197 473.793 309.675 479.277 312.564 479.583C314.574 482.019 316.89 484.468 318.634 487.091C315.332 485.972 312.124 484.175 308.996 482.671C304.723 480.568 300.477 478.425 296.257 476.242L296.377 472.315L296.364 472.302Z" fill="#6E0102"/>
<path d="M241.388 448.328L244.663 445.772C246.3 446.757 247.897 447.796 249.641 448.568C256.403 452.508 263.645 455.716 270.66 459.19L295.924 471.996L296.377 472.302L296.257 476.229L295.805 476.069C291.385 473.007 285.302 470.744 280.443 468.335C269.302 462.824 258.187 457.22 246.966 451.856C244.982 450.831 243.212 449.593 241.388 448.315V448.328Z" fill="#CA2119"/>
<path d="M268.943 423.556L273.735 426.298C265.655 433.672 257.628 441.1 249.642 448.568C247.898 447.796 246.287 446.757 244.663 445.772C252.33 438.078 260.557 430.438 268.943 423.556Z" fill="#F9B67E"/>
<path d="M295.805 476.082L296.257 476.242C300.477 478.425 304.723 480.568 308.996 482.671C312.138 484.175 315.346 485.986 318.634 487.091C334.993 501.28 356.331 508.375 377.935 506.805C378.255 506.778 378.588 506.738 378.907 506.698L385.922 506.312C390.994 505.607 395.972 504.755 400.977 503.716C398.634 506.538 395.852 508.881 393.35 511.543C392.418 512.449 391.513 513.46 390.514 514.286L388.984 515.311C384.817 519.104 378.534 525.946 373.969 528.675C371.373 527.45 362.201 528.396 358.701 528.143C348.318 527.397 336.95 524.535 327.792 519.663C312.138 511.344 302.101 499.55 297.016 482.618C296.71 480.435 296.204 478.239 295.792 476.082H295.805Z" fill="#B5641C"/>
<path d="M308.996 482.658C312.138 484.162 315.346 485.972 318.634 487.077C334.993 501.267 356.331 508.362 377.935 506.791C378.255 506.765 378.587 506.725 378.907 506.685L385.922 506.299C390.994 505.593 395.972 504.741 400.977 503.703C398.634 506.525 395.852 508.868 393.35 511.53C392.418 512.435 391.513 513.447 390.514 514.272L388.984 515.297C382.807 514.232 373.968 516.375 367.193 516.136C349.982 515.523 327.912 509.107 315.985 496.209C312.936 492.908 308.836 487.357 308.996 482.658Z" fill="#7B4518"/>
<path d="M400.977 503.703C398.635 506.525 395.852 508.868 393.35 511.53C392.418 512.435 391.513 513.447 390.515 514.272C386.668 511.637 382.568 509.667 378.907 506.698L385.922 506.312C390.994 505.607 395.972 504.755 400.977 503.716V503.703Z" fill="#6E0102"/>
<path d="M400.977 503.703C398.634 506.525 395.852 508.868 393.35 511.53C390.954 509.64 388.464 507.963 385.909 506.299C390.98 505.593 395.959 504.741 400.964 503.703H400.977Z" fill="#7B4518"/>
<path d="M218.04 469.679C219.585 470.957 221.155 471.756 222.939 472.608C239.432 479.703 255.112 488.701 271.352 496.355C292.557 506.126 313.615 516.202 334.527 526.598C343.606 531.058 352.963 535.211 361.815 540.109L358.368 543.144C352.471 538.925 344.883 535.89 338.388 532.682C322.121 524.655 305.629 517.161 289.202 509.453C265.921 498.525 243.199 486.398 219.957 475.39L214.739 472.568C215.871 471.65 216.949 470.665 218.04 469.706V469.679Z" fill="#CA2119"/>
<path d="M246.966 451.869C258.187 457.233 269.289 462.837 280.443 468.348C285.315 470.758 291.385 473.021 295.805 476.082C296.217 478.252 296.723 480.448 297.029 482.618C293.395 482.019 253.408 462.199 247.671 458.964C245.808 457.912 244.184 456.634 242.56 455.237C243.811 453.906 245.475 452.907 246.966 451.856V451.869Z" fill="#F9B67E"/>
<path d="M241.388 448.328C243.212 449.606 244.982 450.844 246.966 451.869C245.475 452.907 243.798 453.906 242.56 455.25C236.051 460.814 228.902 466.445 222.952 472.608C221.169 471.756 219.598 470.957 218.054 469.68C225.721 462.438 233.495 455.317 241.402 448.328H241.388Z" fill="#F9B67E"/>
<path d="M186.732 498.325L190.672 500.868C223.418 516.708 255.991 532.881 288.404 549.374L315.319 562.659C319.818 564.868 324.89 566.865 329.029 569.66L323.545 574.546C317.515 580.123 311.139 585.394 305.229 591.078L302.367 593.661C293.661 601.554 284.863 609.341 275.971 617.009C274.853 618.047 273.748 619.178 272.55 620.123C263.059 614.825 253.155 610.246 243.411 605.441L211.464 589.374C184.389 575.77 157.487 561.447 129.84 549.081L133.181 545.9C141.833 537.647 151.058 529.953 159.963 521.979L162.692 519.53C170.785 512.542 178.599 505.234 186.732 498.285V498.325Z" fill="#DF675B"/>
<path d="M186.732 498.325L190.672 500.868C223.418 516.708 255.991 532.882 288.404 549.374L315.319 562.659C319.818 564.868 324.89 566.865 329.03 569.66L323.545 574.546C317.515 580.123 311.139 585.394 305.229 591.078L302.367 593.661C293.568 588.988 284.477 584.809 275.545 580.389L220.862 553.354C202.28 544.13 183.884 533.547 164.848 525.361C163.118 524.429 161.561 523.164 159.977 521.993L162.705 519.544C170.799 512.555 178.612 505.247 186.746 498.299L186.732 498.325Z" fill="#F7A728"/>
<path d="M190.672 500.868C223.418 516.708 255.991 532.881 288.404 549.374L315.319 562.659C319.818 564.868 324.89 566.865 329.03 569.66L323.545 574.545C318.62 572.709 312.018 568.09 307 565.574L221.381 522.845C214.779 519.557 191.644 509.334 187.664 505.686C188.942 504.701 189.874 502.292 190.659 500.868H190.672Z" fill="#F9B67E"/>
<path d="M162.692 519.57C164.143 520.502 165.501 521.287 167.111 521.913C186.32 530.578 204.809 540.988 223.671 550.386C250.879 563.936 278.38 576.862 305.229 591.105L302.367 593.687C293.568 589.015 284.477 584.835 275.545 580.416L220.862 553.381C202.28 544.156 183.884 533.574 164.848 525.387C163.118 524.455 161.561 523.191 159.977 522.019L162.705 519.57H162.692Z" fill="#CA2119"/>
<path d="M186.733 498.325L190.673 500.868C189.887 502.305 188.956 504.715 187.678 505.686C183.445 506.898 171.118 518.452 167.112 521.9C165.501 521.274 164.143 520.502 162.692 519.557C170.786 512.568 178.599 505.26 186.733 498.312V498.325Z" fill="#F9B67E"/>
<path d="M133.181 545.94C134.845 547.058 136.589 547.817 138.426 548.602C151.564 554.14 164.063 561.168 176.816 567.544L230.74 594.459C245.768 602.06 260.716 609.94 275.985 617.035C274.866 618.074 273.762 619.205 272.564 620.15C263.073 614.852 253.169 610.273 243.425 605.468L211.478 589.401C184.403 575.797 157.501 561.474 129.854 549.108L133.195 545.927L133.181 545.94Z" fill="#CA2119"/>
<path d="M159.964 522.02C161.548 523.191 163.105 524.455 164.835 525.387C155.81 532.669 146.146 539.923 138.413 548.602C136.576 547.817 134.832 547.058 133.168 545.94C141.82 537.687 151.045 529.993 159.95 522.02H159.964Z" fill="#F9B67E"/>
<path d="M129.84 549.121C157.501 561.487 184.403 575.81 211.465 589.414L243.412 605.481C253.156 610.273 263.059 614.852 272.55 620.163L267.545 624.782C261.049 630.506 254.58 636.27 248.151 642.087C231.445 633.155 214.194 625.102 197.275 616.569C168.39 601.82 139.345 587.364 110.153 573.228L104.948 571.138C113.268 563.843 121.201 556.07 129.84 549.148V549.121Z" fill="#F7A728"/>
<path d="M129.84 549.121C157.501 561.487 184.403 575.81 211.465 589.414L243.412 605.481C253.156 610.273 263.059 614.852 272.55 620.163L267.545 624.782C261.515 622.133 255.738 618.699 249.934 615.611C240.936 610.845 231.871 606.213 222.74 601.714L166.686 573.853C154.573 567.797 142.06 562.1 130.519 554.978C123.651 560.862 116.516 566.785 110.153 573.201L104.948 571.111C113.268 563.817 121.201 556.043 129.84 549.121Z" fill="url(#paint1_linear_588_1607)"/>
<path d="M104.934 571.111L110.139 573.201C139.331 587.338 168.376 601.794 197.261 616.543C214.18 625.075 231.431 633.128 248.137 642.06L244.902 645.055C241.255 641.821 234.134 639.345 229.701 637.175L199.578 622.426C168.403 607.038 137.8 590.532 106.119 576.17C104.602 575.531 103.151 574.705 101.687 573.96L104.934 571.111Z" fill="#CA2119"/>
<path d="M101.687 573.96C103.151 574.705 104.615 575.531 106.119 576.17C104.762 578.765 84.8081 595.537 80.8014 599.824C79.031 598.932 77.3405 598.067 75.7432 596.882L101.687 573.96Z" fill="#F9B67E"/>
<path d="M522.376 164.905C525.224 162.096 528.02 159.195 531.201 156.759L531.281 168.06C531.308 176.832 531.454 185.631 531.281 194.403L531.228 198.543C531.228 207.954 531.055 217.391 531.254 226.789C531.228 228.373 531.161 229.97 531.228 231.555C531.654 240.1 529.83 251.428 531.986 259.521C532.492 261.438 533.637 263.275 534.582 265.006C536.246 267.388 537.764 269.824 539.254 272.327C548.532 283.122 559.86 288.713 573.438 292.48C577.418 293.585 581.944 294.277 585.591 296.221C593.085 300.014 600.899 305.166 608.912 307.615C610.749 307.722 612.812 308.028 614.623 307.761C615.914 307.069 616.074 306.936 617.591 307.083L619.149 308.147C616.22 310.637 613.265 313.565 610.15 315.748C604.573 320.806 598.716 325.692 593.311 330.923C592.26 331.961 591.168 333.253 589.904 334.011C582.316 340.587 575.062 347.655 567.341 354.045C566.156 355.136 564.998 356.361 563.667 357.279C555.787 364.734 547.747 372.973 539.015 379.363C538.003 380.228 537.018 381.2 535.953 381.998C528.552 388.947 520.818 395.629 513.524 402.684L510.223 405.706C502.555 412.588 494.941 419.549 487.101 426.218C486.063 427.23 485.038 428.308 483.893 429.187C477.357 434.99 470.928 440.887 464.592 446.904C460.851 450.152 457.204 453.427 453.663 456.887C454.595 451.789 455.154 446.558 455.553 441.406L455.593 424.328C454.914 413.573 455.487 402.391 455.593 391.596L455.553 379.07L455.5 374.052L455.54 343.462L455.354 339.003C454.741 334.051 455.274 328.993 455.367 324.015C455.5 317.173 455.473 310.304 455.5 303.462L455.567 298.976C455.034 295.648 454.422 292.36 453.117 289.232C446.581 273.565 430.741 266.563 416.045 260.626C418.921 257.485 422.115 254.663 425.257 251.788L428.691 248.593C436.225 241.392 443.773 234.283 451.68 227.495C452.665 226.483 453.743 225.658 454.861 224.806C462.329 217.937 469.916 211.188 477.597 204.573L480.419 202.07C487.567 195.627 494.755 189.251 502.01 182.928L505.151 180.08C510.196 174.569 516.692 169.857 522.336 164.918L522.376 164.905Z" fill="#F7A728"/>
<path d="M522.376 164.905C525.224 162.096 528.02 159.195 531.201 156.759L531.281 168.06C531.307 176.832 531.454 185.631 531.281 194.403L531.228 198.543C531.228 207.954 531.055 217.391 531.254 226.789C531.228 228.373 531.161 229.97 531.228 231.555C531.654 240.1 529.83 251.428 531.986 259.521C532.492 261.438 533.637 263.275 534.582 265.006C536.246 267.388 537.763 269.824 539.254 272.327C548.532 283.122 559.86 288.713 573.438 292.48C577.418 293.585 581.944 294.277 585.591 296.221C593.085 300.014 600.899 305.166 608.912 307.615C610.749 307.722 612.812 308.028 614.623 307.761C615.914 307.069 616.074 306.936 617.591 307.083L619.148 308.147C616.22 310.637 613.265 313.565 610.15 315.748C604.573 320.806 598.716 325.692 593.311 330.923C592.26 331.961 591.168 333.253 589.904 334.011C583.142 329.778 575.328 326.517 568.166 322.95L520.911 299.721C502.768 290.869 484.718 281.831 466.761 272.606C453.077 265.578 439.393 257.884 425.27 251.774L428.704 248.58C436.238 241.378 443.786 234.27 451.693 227.481C452.678 226.47 453.756 225.644 454.874 224.792C462.342 217.924 469.929 211.175 477.61 204.559L480.432 202.057C487.58 195.614 494.768 189.238 502.023 182.915L505.164 180.067C510.209 174.556 516.705 169.844 522.349 164.905H522.376Z" fill="#DF675B"/>
<path d="M522.376 164.905C525.224 162.096 528.02 159.195 531.201 156.759L531.281 168.06C531.308 176.832 531.454 185.631 531.281 194.403L531.228 198.543C531.228 207.954 531.055 217.391 531.254 226.789C531.228 228.373 531.161 229.97 531.228 231.555C531.654 240.1 529.83 251.428 531.986 259.521C532.492 261.438 533.637 263.275 534.582 265.006C533.171 265.472 531.281 264.22 529.99 263.635L527.634 266.523C525.451 265.725 523.321 264.54 521.231 263.515L521.311 263.169C521.723 262.011 521.963 260.706 522.256 259.508L522.016 259.202C501.916 248.593 481.71 238.184 461.41 227.947L461.344 227.668L454.901 224.792C462.368 217.924 469.956 211.175 477.637 204.559L480.459 202.057C487.607 195.614 494.795 189.238 502.049 182.915L505.191 180.067C510.236 174.556 516.732 169.844 522.376 164.905Z" fill="#F7A728"/>
<path d="M522.375 164.905C525.224 162.096 528.019 159.195 531.201 156.759L531.281 168.06C531.307 176.832 531.454 185.631 531.281 194.403L531.228 198.543C531.228 207.954 531.054 217.391 531.254 226.789L530.948 227.122C530.655 227.148 530.362 227.255 530.083 227.188C528.366 226.829 521.177 222.17 518.848 221.012C508.678 215.954 498.282 211.295 488.285 205.904C485.743 204.493 483.094 203.281 480.472 202.03C487.62 195.587 494.808 189.211 502.063 182.889L505.204 180.04C510.249 174.529 516.745 169.817 522.389 164.878L522.375 164.905Z" fill="#DF675B"/>
<path d="M522.376 164.905C525.224 162.096 528.02 159.195 531.201 156.759L531.281 168.06C531.308 176.832 531.454 185.631 531.281 194.403L531.228 198.543C523.587 194.762 516.333 190.236 508.652 186.536L502.076 182.915L505.218 180.067C510.263 174.556 516.759 169.844 522.402 164.905H522.376Z" fill="#EAE8E3"/>
<path d="M505.191 180.053C513.71 184.992 522.403 190.103 531.268 194.403L531.215 198.543C523.574 194.762 516.319 190.236 508.639 186.536L502.063 182.915L505.204 180.067L505.191 180.053Z" fill="#CA2119"/>
<path d="M522.376 164.905C525.225 162.096 528.02 159.195 531.201 156.759L531.281 168.06C528.299 167.235 525.384 165.81 522.376 164.905Z" fill="#DF675B"/>
<path d="M502.049 182.902L508.625 186.522C505.231 190.715 492.785 203.574 488.259 205.904C485.717 204.493 483.068 203.281 480.445 202.03C487.593 195.587 494.782 189.211 502.036 182.888L502.049 182.902Z" fill="#E99685"/>
<path d="M480.458 202.043C483.081 203.295 485.73 204.506 488.272 205.917C498.269 211.308 508.665 215.967 518.835 221.025C521.164 222.183 528.366 226.842 530.069 227.202C530.349 227.255 530.642 227.148 530.935 227.135L531.241 226.802C531.214 228.386 531.148 229.984 531.214 231.568H530.921C524.971 229.638 518.861 225.737 513.297 222.849C503.58 217.791 493.81 212.812 484.012 207.914C481.856 206.875 479.753 205.691 477.623 204.573L480.445 202.07L480.458 202.043Z" fill="#CA2119"/>
<path d="M477.637 204.559C479.753 205.677 481.869 206.862 484.026 207.9C476.545 214.596 469.33 221.611 461.344 227.667L454.901 224.792C462.368 217.924 469.956 211.175 477.637 204.559Z" fill="#F9B67E"/>
<path d="M530.935 231.554H531.228C531.654 240.1 529.83 251.428 531.986 259.521C532.492 261.438 533.637 263.275 534.582 265.006C533.171 265.472 531.281 264.22 529.99 263.635L527.634 266.523C525.451 265.724 523.321 264.54 521.231 263.515L521.311 263.169C521.723 262.011 521.963 260.706 522.256 259.508L522.016 259.202C524.093 254.263 526.755 251.362 530.935 248.074V231.554Z" fill="#7B4518"/>
<path d="M522.243 259.508C524.918 260.759 527.447 262.117 529.977 263.635L527.62 266.523C525.437 265.724 523.308 264.54 521.218 263.515L521.298 263.169C521.71 262.011 521.95 260.706 522.243 259.508Z" fill="#6E0102"/>
<path d="M521.218 263.515C523.308 264.526 525.437 265.724 527.62 266.523L529.977 263.634C531.281 264.22 533.158 265.471 534.569 265.006C536.233 267.388 537.75 269.824 539.241 272.327C548.519 283.122 559.847 288.713 573.425 292.48C577.405 293.585 581.93 294.277 585.578 296.22C593.072 300.014 600.886 305.166 608.899 307.615C610.736 307.721 612.799 308.028 614.61 307.761C615.901 307.069 616.061 306.936 617.578 307.082L619.135 308.147C616.207 310.636 613.252 313.565 610.137 315.748C596.666 315.256 583.155 313.019 570.07 309.811C553.977 305.871 533.597 299.082 524.732 284.107C520.965 277.744 519.354 270.729 521.204 263.528L521.218 263.515Z" fill="#B5641C"/>
<path d="M529.976 263.635C531.281 264.22 533.158 265.471 534.569 265.006C536.233 267.388 537.75 269.824 539.241 272.327C548.519 283.122 559.847 288.713 573.424 292.48C577.404 293.585 581.93 294.277 585.577 296.22C593.072 300.014 600.885 305.166 608.899 307.615C607.994 307.775 607.062 307.881 606.143 307.921C584.832 308.786 552.818 297.592 537.191 283.309C532.226 278.769 528.632 274.057 528.299 267.162L527.607 266.536L529.963 263.648L529.976 263.635Z" fill="#7B4518"/>
<path d="M529.977 263.635C531.281 264.22 533.158 265.471 534.569 265.006C536.233 267.388 537.75 269.824 539.241 272.327C535.434 271.129 531.854 268.972 528.313 267.149L527.621 266.523L529.977 263.635Z" fill="#6E0102"/>
<path d="M425.27 251.761L428.704 248.566C430.741 249.684 432.764 250.763 434.881 251.721C468.052 268.879 501.357 285.744 534.822 302.304C554.256 311.835 574.409 320.327 593.311 330.896C592.26 331.935 591.168 333.226 589.904 333.985C583.142 329.752 575.328 326.49 568.166 322.923L520.911 299.695C502.768 290.843 484.718 281.804 466.761 272.58C453.077 265.551 439.393 257.857 425.27 251.748V251.761Z" fill="#CA2119"/>
<path d="M461.397 227.947C481.697 238.183 501.89 248.606 522.003 259.202L522.243 259.508C521.937 260.706 521.71 262.011 521.298 263.169C506.815 255.967 492.386 248.646 478.036 241.192C471.766 237.97 463.939 234.909 458.389 230.689L461.41 227.947H461.397Z" fill="#CA2119"/>
<path d="M451.706 227.481C452.691 226.469 453.77 225.644 454.888 224.792L461.33 227.667L461.397 227.947L458.375 230.689H458.069C454.555 236.812 441.071 247.554 434.881 251.734C432.765 250.776 430.741 249.698 428.705 248.579C436.239 241.378 443.786 234.27 451.693 227.481H451.706Z" fill="#E99685"/>
<path d="M451.706 227.481C452.691 226.469 453.769 225.644 454.887 224.792L461.33 227.667L461.397 227.947L458.375 230.689H458.069C455.979 229.558 453.836 228.533 451.706 227.481Z" fill="#CA2119"/>
<path d="M455.553 343.436C461.717 345.179 468.319 349.505 474.123 352.341L512.033 370.71C519.9 374.544 527.754 378.883 535.94 381.972C528.539 388.92 520.805 395.602 513.511 402.657L510.209 405.679C502.542 412.561 494.928 419.523 487.088 426.192C486.05 427.203 485.025 428.282 483.88 429.16C477.344 434.964 470.915 440.861 464.578 446.877C460.838 450.125 457.191 453.4 453.65 456.861C454.582 451.763 455.141 446.531 455.54 441.38L455.58 424.301C454.901 413.546 455.474 402.364 455.58 391.569L455.54 379.043L455.487 374.025L455.527 343.436H455.553Z" fill="#F7A728"/>
<path d="M455.566 379.043C460.678 380.334 466.415 383.928 471.22 386.258C484.305 392.567 497.311 399.037 510.236 405.666C502.569 412.548 494.954 419.509 487.114 426.178C486.076 427.19 485.051 428.268 483.906 429.147C477.37 434.95 470.941 440.847 464.605 446.864C460.864 450.112 457.217 453.386 453.676 456.847C454.608 451.749 455.167 446.518 455.566 441.366L455.606 424.288C454.928 413.533 455.5 402.351 455.606 391.556L455.566 379.03V379.043Z" fill="#DF675B"/>
<path d="M455.779 414.651C465.097 419.603 474.695 424.035 483.906 429.173C477.37 434.977 470.941 440.874 464.605 446.891C460.864 450.139 457.217 453.413 453.676 456.874C454.608 451.776 455.167 446.545 455.566 441.393L455.606 424.315C455.713 421.094 455.766 417.872 455.779 414.651Z" fill="#F7A728"/>
<path d="M455.553 441.38C458.735 443.03 461.703 444.761 464.592 446.877C460.851 450.125 457.204 453.4 453.663 456.861C454.595 451.763 455.154 446.531 455.553 441.38Z" fill="#CA2119"/>
<path d="M455.607 391.582C455.86 397.785 455.78 404.002 455.753 410.205C466.149 415.196 477.504 419.855 487.114 426.205C486.076 427.217 485.051 428.295 483.906 429.173C474.695 424.035 465.098 419.616 455.78 414.651C455.766 417.872 455.7 421.093 455.607 424.315C454.928 413.559 455.5 402.378 455.607 391.582Z" fill="#CA2119"/>
<path d="M455.526 374.025C474.522 384.195 494.315 392.914 513.537 402.657L510.236 405.679C497.311 399.037 484.305 392.568 471.22 386.271C466.415 383.942 460.691 380.348 455.566 379.057L455.513 374.038L455.526 374.025Z" fill="#CA2119"/>
<path d="M455.527 303.435C491.52 321.432 527.221 340.214 563.681 357.266C555.8 364.72 547.761 372.96 539.028 379.349C538.017 380.215 537.032 381.186 535.967 381.985C527.78 378.897 519.927 374.557 512.06 370.724L474.149 352.354C468.332 349.519 461.743 345.193 455.58 343.449L455.394 338.99C454.781 334.038 455.314 328.98 455.407 324.001C455.54 317.159 455.513 310.291 455.54 303.449L455.527 303.435Z" fill="#DF675B"/>
<path d="M455.367 338.976C465.164 342.477 474.854 348.188 484.279 352.687C502.568 361.406 521.164 369.765 539.015 379.336C538.003 380.201 537.018 381.173 535.953 381.972C527.767 378.883 519.913 374.544 512.046 370.71L474.136 352.341C468.319 349.505 461.729 345.179 455.566 343.436L455.38 338.976H455.367Z" fill="#CA2119"/>
<path d="M455.593 298.949L530.961 336.966C541.823 342.331 556.199 350.371 567.354 354.018C566.17 355.11 565.011 356.334 563.68 357.253C527.221 340.201 491.533 321.419 455.526 303.422L455.593 298.936V298.949Z" fill="#CA2119"/>
<path d="M308.065 459.31C307.466 453.906 307.758 448.182 307.732 442.738L307.639 413.932C307.532 387.097 307.599 360.261 307.852 333.426C309.995 336.634 312.803 339.509 315.372 342.397C324.544 351.462 336.764 357.239 349.13 360.607C374.341 365.772 394.348 365.599 419.001 357.639C432.165 352.274 443.427 345.193 452.372 333.918C452.558 358.331 452.518 382.744 452.252 407.143C452.119 425.153 453.077 441.127 450.215 459.084C444.558 465.021 411.453 495.983 406.461 498.339C397.822 502.425 385.084 503.57 375.566 503.796C356.398 504.236 336.258 499.031 322.135 485.467C314.481 478.119 310.021 469.693 308.065 459.31Z" fill="#FF88B0"/>
<path d="M315.372 342.397C324.544 351.462 336.763 357.239 349.13 360.607L349.356 365.785C349.063 369.086 348.411 372.6 345.682 374.81C340.304 379.15 332.118 376.594 326.314 379.802L322.387 380.907C316.623 371.722 314.614 353.259 315.372 342.397Z" fill="#FF88B0"/>
<path d="M308.065 459.31C307.466 453.906 307.758 448.182 307.732 442.738L307.639 413.932C307.532 387.097 307.599 360.261 307.852 333.426C309.995 336.634 312.803 339.509 315.372 342.397C314.627 353.259 316.624 371.722 322.387 380.907C316.996 383.596 311.925 386.378 310.035 392.567C307.119 402.058 312.178 408.594 312.83 417.034C309.249 414.039 310.634 406.877 308.53 403.15C308.158 407.796 308.477 412.694 308.491 417.38L308.57 443.164C308.61 448.235 309.689 454.491 308.065 459.297V459.31Z" fill="#FF88B0"/>
<path d="M349.116 360.607C374.328 365.772 394.335 365.599 418.987 357.639C409.509 367.422 391.899 370.644 378.854 370.897C371.346 371.043 356.77 370.191 350.208 367.17C349.875 366.704 349.542 366.318 349.343 365.785L349.116 360.607Z" fill="#FF88B0"/>
<path d="M686.463 202.722C704.167 213.398 723.336 221.824 741.279 232.18L358.061 579.338C312.683 619.631 267.691 660.35 223.099 701.522C208.43 714.939 193.135 727.851 178.785 741.575C172.196 738.5 165.514 735.598 158.779 732.856L158.752 725.708C171.943 712.623 186.413 700.816 200.203 688.383L291.825 606.306L501.583 416.927C512.858 406.77 620.999 308.32 623.98 307.295C631.754 298.084 642.962 291.641 651.934 283.734C659.482 277.079 666.057 269.465 674.017 263.209C678.663 259.029 686.131 254.21 686.477 247.448C687.222 232.673 686.477 217.538 686.477 202.722H686.463Z" fill="#EAE8E3"/>
<path d="M674.004 263.208C673.632 264.14 673.312 264.793 672.633 265.551C668.307 270.397 663.342 274.656 658.829 279.328C653.279 285.052 648.101 291.561 641.991 296.673C637.651 300.307 631.195 304.953 625.858 306.976C625.219 307.216 624.633 307.269 623.967 307.295C631.741 298.084 642.949 291.641 651.921 283.734C659.468 277.079 666.044 269.465 674.004 263.208Z" fill="#AEA2A9"/>
<path d="M533.77 131.041C536.605 134.276 539.441 137.217 542.822 139.92C566.037 158.409 596.812 164.306 625.844 161.098C646.809 158.782 667.149 151.407 680.726 134.489C680.088 173.384 681.206 212.333 680.913 251.242C678.756 254.144 676.081 256.633 673.538 259.175C667.854 264.5 661.784 269.438 656.047 274.723C651.655 278.783 647.289 283.402 642.337 286.796C633.804 292.64 620.267 293.212 610.124 293.438C588.053 293.944 561.644 289.485 545.244 273.565C540.852 269.305 536.632 263.861 535.155 257.817C533.038 249.138 534.209 227.162 534.183 216.979C534.316 188.333 534.183 159.687 533.757 131.041H533.77Z" fill="#FF88B0"/>
<path d="M542.263 147.374C550.529 153.111 558.902 158.036 568.1 162.123C567.834 171.268 567.807 180.452 567.168 189.584C562.922 188.133 559.088 187.055 554.735 189.012C551.141 190.636 548.838 194.11 547.561 197.731C546.855 199.754 546.323 202.057 546.19 204.2C545.897 204.959 545.91 205.185 545.271 205.731C543.035 203.015 542.449 154.575 542.263 147.374Z" fill="#FF88B0"/>
<path d="M599.395 53.5829C599.395 53.5829 599.461 53.5829 599.501 53.5696C622.037 51.706 650.004 57.2568 667.828 71.7128C675.615 78.0224 682.178 86.089 683.149 96.3786C683.881 104.059 680.966 110.768 676.094 116.585C663.449 131.68 636.799 137.95 617.964 139.534C617.924 139.534 617.884 139.534 617.844 139.547C594.962 141.49 565.904 137.337 547.774 122.296C540.705 116.439 535.061 108.665 534.263 99.2804C533.584 91.3869 537.191 83.7862 542.183 77.8626C555.468 62.1154 579.494 55.3932 599.381 53.5696L599.395 53.5829Z" fill="#8FCFF5"/>
<path d="M601.99 62.5814C622.583 61.2236 646.982 65.4832 663.062 79.1406C668.493 83.7463 673.805 89.9493 674.284 97.377C674.656 103.101 672.034 108.372 668.294 112.539C656.021 126.183 633.458 131.387 616.007 132.399C595.122 134.156 570.589 129.47 554.043 116.239C549.012 112.219 544.925 107.041 544.286 100.439C543.687 94.2223 546.243 88.4318 550.223 83.7729C562.469 69.4367 583.847 63.9391 601.99 62.5947V62.5814Z" fill="#010101"/>
<path d="M550.622 110.116C550.503 109.916 550.37 109.716 550.25 109.503C549.132 107.6 549.145 105.869 549.731 103.78C551.714 96.8045 560.326 91.2537 566.303 88.0057C586.523 77.0373 614.024 76.0522 635.854 82.6147C647.036 85.9691 658.737 92.0657 664.434 102.781C665.831 104.738 667.349 106.668 668.507 108.785C660.8 120.152 644.4 126.355 631.342 128.885C609.685 133.064 578.576 131.507 560.02 118.702C556.493 116.266 553.298 113.457 550.609 110.116H550.622Z" fill="#8FCFF5"/>
<path d="M550.622 110.116C550.503 109.916 550.37 109.716 550.25 109.503C549.132 107.6 549.145 105.869 549.731 103.78C551.714 96.8045 560.326 91.2537 566.303 88.0057C586.523 77.0373 614.024 76.0522 635.854 82.6147C647.036 85.9691 658.737 92.0657 664.434 102.781C659.016 98.8944 654.157 94.688 648.194 91.5998C632.46 83.44 609.738 81.9624 592.38 84.851C578.31 87.1805 561.538 93.8361 553.005 105.883C552.087 107.187 551.208 108.638 550.596 110.116H550.622Z" fill="#4D799B"/>
<path d="M604.932 64.578C619.655 62.9939 641.791 68.4782 654.224 75.999C661.239 80.232 669.811 87.0075 671.688 95.4601C672.66 99.8395 671.741 103.38 669.465 107.094C667.043 103.314 664.66 99.4801 661.745 96.0458C650.696 83.0673 632.061 78.0224 615.595 76.6912C600.247 74.7478 580.493 78.5149 566.902 85.3835C558.05 89.8561 550.196 95.8062 547.015 105.51C546.829 103.939 546.669 102.369 546.549 100.798C546.11 94.7147 548.958 88.8045 552.912 84.3585C565.385 70.3284 586.909 65.7361 604.932 64.5913V64.578Z" fill="#4D799B"/>
<path d="M371 257.764C392.365 255.262 420.971 261.571 438.036 274.776C445.051 280.207 451.041 288.034 452.066 297.086C452.891 304.407 449.843 311.395 445.264 316.973C432.072 333.013 408.485 338.404 388.744 340.361C365.862 341.332 339.24 338.737 320.644 324.014C313.722 318.53 307.892 310.384 306.92 301.399C306.108 293.838 309.169 286.583 313.908 280.819C327.073 264.819 351.366 259.628 371.027 257.764H371Z" fill="#8FCFF5"/>
<path d="M377.829 264.26C396.438 263.994 418.521 268.413 432.977 280.646C437.982 284.879 441.976 290.47 442.455 297.179C442.881 303.156 440.631 308.813 436.691 313.246C423.513 328.114 400.618 331.522 381.836 332.72C363.4 332.787 340.238 329.379 326.075 316.813C321.15 312.447 317.542 306.47 317.183 299.788C316.85 293.771 319.179 288.327 323.16 283.881C336.471 269.039 358.9 265.139 377.816 264.26H377.829Z" fill="#010101"/>
<path d="M323.492 309.013C322.121 308.533 321.869 308.107 321.296 306.736C319.193 301.798 319.619 296.074 321.802 291.242C326.288 281.325 337.416 275.069 347.16 271.462C369.19 263.315 397.397 263.874 418.814 273.858C427.041 277.691 435.68 283.655 438.901 292.547C440.565 297.152 440.552 302.171 438.435 306.63C438.023 307.495 437.503 308.241 436.918 308.986C436.492 310.943 434.655 312.66 433.217 313.964C419.081 326.836 396.318 331.708 377.563 330.95C360.977 330.284 336.138 325.865 324.904 312.873C323.719 311.502 323.359 310.77 323.492 309.013Z" fill="#8FCFF5"/>
<path d="M323.492 309.013C322.121 308.533 321.869 308.107 321.296 306.736C319.193 301.798 319.619 296.074 321.802 291.242C326.288 281.325 337.416 275.069 347.16 271.462C369.19 263.315 397.397 263.874 418.814 273.858C427.041 277.691 435.68 283.655 438.901 292.547C440.565 297.152 440.552 302.171 438.435 306.63C438.023 307.495 437.503 308.241 436.918 308.986C434.615 305.512 432.219 302.251 429.144 299.402C415.819 287.009 394.069 283.202 376.365 283.921C362.481 284.48 344.711 288.5 333.942 297.671C330.028 300.999 327.18 305.046 323.719 308.76L323.479 309.013H323.492Z" fill="url(#paint2_linear_588_1607)"/>
<path d="M677.691 369.259L678.091 369.645L678.117 371.123L678.81 371.296L678.277 371.789C678.463 387.096 678.038 402.444 677.998 417.752V513.287L611.321 479.49C599.927 473.686 587.854 468.362 576.938 461.733C581.345 456.754 586.549 452.295 591.448 447.783L614.676 426.498C635.561 407.383 656.247 387.722 677.691 369.246V369.259Z" fill="#99ABB7"/>
<path d="M687.316 360.301C693.865 353.406 701.625 347.615 708.481 341L708.454 489.739C701.812 496.355 694.357 501.999 686.916 507.67L682.204 511.45C680.966 462.904 681.712 414.198 681.379 365.639C683.296 363.802 685.332 362.071 687.316 360.314V360.301Z" fill="#99ABB7"/>
<path d="M681.379 365.626C683.296 363.789 685.332 362.058 687.316 360.301C687.915 393.167 687.409 426.232 687.103 459.111C686.943 475.244 686.371 491.55 686.916 507.67L682.204 511.45C680.966 462.904 681.712 414.198 681.379 365.639V365.626Z" fill="#D0D5DB"/>
<path d="M432.924 593.634C440.099 587.231 447.22 580.775 454.302 574.266C453.317 616.09 454.129 658.034 453.969 699.871C448.046 706.926 440.964 712.65 433.962 718.574L428.198 724.124C427.493 705.954 427.666 687.745 427.613 669.575C427.613 646.147 427.4 622.719 427 599.291C428.891 597.321 430.927 595.484 432.924 593.621V593.634Z" fill="#AEA2A9"/>
<path d="M432.924 593.634C433.297 594.419 433.483 594.952 433.536 595.844C434.282 609.794 433.563 624.117 433.51 638.094C433.297 664.929 433.443 691.765 433.962 718.587L428.198 724.138C427.493 705.968 427.666 687.758 427.613 669.588C427.613 646.16 427.4 622.732 427 599.305C428.891 597.335 430.927 595.498 432.924 593.634Z" fill="#D0D5DB"/>
<path d="M452.292 310.956C452.984 317.252 452.492 323.988 452.452 330.337C446.049 339.469 437.077 346.164 427.027 350.903C400.804 363.283 368.138 365.093 340.823 355.189C328.258 350.637 316.61 343.555 310.78 331.069C307.891 324.933 307.692 319.648 307.665 312.979C312.75 321.539 319.911 327.169 328.737 331.682C354.188 344.7 391.207 345.539 418.069 336.647C431.766 332.108 445.57 324.281 452.292 310.956Z" fill="#287476"/>
<path d="M665.552 128.432C666.936 132 663.954 141.384 663.875 145.883C641.112 160.166 607.794 161.724 582.143 155.867C577.804 154.908 573.518 153.644 569.351 152.1C570.336 149.57 568.366 144.02 567.847 141.211C569.058 139.733 570.376 138.309 571.641 136.871C571.761 136.911 571.88 136.951 572 136.991C602.11 146.163 637.745 143.5 665.552 128.432Z" fill="#287476"/>
<path d="M538.576 131.853C538.23 131.534 538.11 131.454 537.817 131.121C532.692 125.49 534.343 116.931 534.489 109.916C536.246 112.965 538.19 115.72 540.426 118.435C549.917 127.421 559.301 132.625 571.641 136.872C570.376 138.309 569.072 139.733 567.847 141.211C568.366 144.006 570.336 149.571 569.351 152.1C559.501 148.559 544.473 140.639 538.576 131.853Z" fill="#2D9F9A"/>
<path d="M538.576 131.853C538.23 131.534 538.11 131.454 537.817 131.121C532.692 125.49 534.343 116.931 534.489 109.916C536.246 112.965 538.19 115.72 540.426 118.435C539.401 122.056 537.631 128.272 538.576 131.853Z" fill="#287476"/>
<path d="M600.699 296.833C612.559 296.806 624.167 296.074 635.681 293.079C632.18 295.755 628.946 298.537 625.804 301.625C623.741 303.662 621.505 306.51 619.148 308.134L617.591 307.069C616.074 306.936 615.914 307.069 614.623 307.748C612.799 308.014 610.749 307.708 608.912 307.602C600.899 305.152 593.072 300.014 585.591 296.207C589.85 295.049 596.2 296.553 600.712 296.833H600.699Z" fill="#7B4518"/>
<path d="M585.578 296.207C589.837 295.049 596.187 296.553 600.699 296.833C598.982 296.833 596.693 296.54 595.122 297.192C601.525 301.159 608.473 303.182 614.636 307.748C612.812 308.014 610.763 307.708 608.926 307.602C600.912 305.152 593.085 300.014 585.604 296.207H585.578Z" fill="#6E0102"/>
<path d="M683.495 109.983C683.522 120.898 683.841 128.791 675.695 136.991C672.247 140.465 668.081 143.394 663.875 145.883C663.941 141.371 666.936 131.999 665.552 128.432C672.953 122.895 678.916 118.222 683.495 109.983Z" fill="#0A5147"/>
<path d="M75.7432 596.882C77.3539 598.053 79.0444 598.932 80.8015 599.824C83.6634 601.621 86.7383 602.246 89.973 603.072C82.8248 604.456 74.8114 603.151 67.437 604.083L75.7299 596.882H75.7432Z" fill="#CA2119"/>
</g>
<rect x="1.5" y="1.5" width="767" height="600" rx="13.5" stroke="black" stroke-width="3"/>
</g>
<defs>
<linearGradient id="paint0_linear_588_1607" x1="464.086" y1="503.179" x2="437.777" y2="475.265" gradientUnits="userSpaceOnUse">
<stop stop-color="#CDAE8B"/>
<stop offset="1" stop-color="#CFA5A1"/>
</linearGradient>
<linearGradient id="paint1_linear_588_1607" x1="200.755" y1="576.026" x2="176.092" y2="614.881" gradientUnits="userSpaceOnUse">
<stop stop-color="#FFB06D"/>
<stop offset="1" stop-color="#F4C19E"/>
</linearGradient>
<linearGradient id="paint2_linear_588_1607" x1="365.913" y1="327.997" x2="396.382" y2="264.239" gradientUnits="userSpaceOnUse">
<stop stop-color="#4C6265"/>
<stop offset="1" stop-color="#60828F"/>
</linearGradient>
<clipPath id="clip0_588_1607">
<rect width="817.311" height="1022.57" fill="white" transform="translate(-47 -13)"/>
</clipPath>
</defs>
</svg>
