<svg width="770" height="603" viewBox="0 0 770 603" fill="none" xmlns="http://www.w3.org/2000/svg">
<rect width="770" height="603" rx="15" fill="#D9FB7C"/>
<g clip-path="url(#clip0_588_1711)">
<path d="M491.104 34L565.956 34.2621L598.232 34.2815C604.166 34.2815 610.313 33.9903 616.227 34.4853C618.614 34.6698 620.932 35.359 623.047 36.4946C625.921 38.0477 628.853 40.5327 630.276 43.5127C631.932 46.9974 632.682 51.2684 633.676 54.9958L639.229 75.6519C645.298 97.599 651.806 119.4 658.139 141.27C660.721 150.19 659.844 159.936 659.825 169.157L659.795 195.23L659.737 290.939L659.756 461.099V517.195C659.766 527.261 660.088 537.453 659.659 547.509C659.503 551.334 658.548 554.847 656.658 558.206C653.755 563.37 649.585 566.399 643.886 567.981C637.543 569.747 621.829 568.68 614.541 568.66L562.205 568.602H449.377L411.264 568.641C404.785 568.641 398.17 568.922 391.711 568.602C390.902 568.563 390.405 568.408 389.694 568.01C388.642 568.612 387.794 568.631 386.606 568.641H211.835H157.179C148.119 568.641 138.367 569.379 129.403 568.291C124.932 567.709 120.791 565.651 117.635 562.448C114.205 558.983 112.052 554.45 111.526 549.606C111.01 544.519 111.282 539.2 111.302 534.094L111.409 507.488L111.282 428.368L111.01 155.354C110.99 152.268 110.912 149.171 111.545 146.123C112.861 139.726 114.916 133.349 116.651 127.04C120.431 113.285 124.308 99.5597 128.293 85.8634L135.307 61.1014C136.652 56.2965 137.772 51.1131 139.633 46.4927C140.432 44.4931 141.864 42.7361 143.384 41.2219C145.82 38.8049 149.249 36.5723 152.698 36.0578C158.056 35.2619 164.194 35.8249 169.64 35.8055L208.405 35.8734C208.405 35.8734 474.727 34 491.104 34Z" fill="#062036"/>
<path d="M491.084 212.489C491.123 212.566 491.172 212.644 491.211 212.722L491.435 213.1C492.935 215.673 494.786 217.74 497.007 219.72C511.085 232.242 535.237 236.95 553.699 237.28C560.646 237.406 567.621 236.765 574.548 236.338C581.514 234.863 588.178 232.999 594.793 230.359C600.541 228.02 605.89 225.224 611.024 221.739C613.986 219.264 616.753 216.886 619.149 213.838C619.481 258.751 618.847 303.684 618.789 348.598C618.789 363.061 618.721 377.514 618.574 391.977C618.526 397.772 619.227 404.557 618.282 410.245C617.386 415.633 613.645 420.933 609.874 424.747C608.169 426.465 606.348 428.106 604.341 429.465C600.483 432.474 594.842 435.483 590.136 436.823C580.325 441.132 568.761 442.336 558.142 442.423C537.829 442.579 511.407 437.949 496.413 423.02C494.621 421.233 491.922 418.273 491.493 415.701C490.431 409.411 491.094 402.198 491.094 395.811V357.12L491.074 212.508L491.084 212.489Z" fill="#C0F46E"/>
<path d="M491.084 212.489C491.123 212.566 491.172 212.644 491.211 212.722L491.435 213.1C492.935 215.673 494.786 217.74 497.007 219.72C511.085 232.242 535.237 236.95 553.699 237.28C560.646 237.406 567.621 236.765 574.548 236.338C555.433 242.386 534.351 240.046 515.772 233.417C517.798 237.697 526.79 261.295 527.307 265.109C527.891 269.409 527.609 273.981 527.609 278.33L527.56 300.19L527.531 373.03C527.531 383.591 526.313 398.19 529.431 408.139C532.831 419.02 540.323 427.805 551.176 431.736C558.882 434.532 568.371 435.765 576.545 436.065C580.988 436.23 585.801 435.813 590.136 436.823C580.325 441.132 568.761 442.336 558.142 442.423C537.829 442.579 511.407 437.949 496.413 423.02C494.621 421.233 491.922 418.273 491.493 415.701C490.431 409.411 491.094 402.198 491.094 395.811V357.12L491.074 212.508L491.084 212.489Z" fill="#9BCC3E"/>
<path d="M594.803 230.359C600.551 228.02 605.899 225.224 611.034 221.739C612.174 241.628 610.547 261.741 610.897 281.659C611.375 310.624 611.501 339.59 611.258 368.555L611.277 399.733C611.277 405.712 611.482 411.779 611.112 417.749C610.985 419.816 610.654 421.738 609.27 423.379C607.604 425.349 604.74 426.116 603.133 427.892C602.09 428.281 600.911 428.776 599.801 428.853C598.68 428.931 597.423 428.63 596.605 427.815C595.543 426.757 595.251 425.087 595.144 423.66C594.754 418.389 594.978 412.905 594.939 407.615L594.861 373.544L595.017 300.248C595.212 277.01 595.67 253.597 594.803 230.369V230.359Z" fill="#E5FFB3"/>
<path d="M603.308 275.923C603.883 275.971 604.477 276.02 605.033 276.175C606.163 276.505 607.098 277.495 607.576 278.534C608.511 280.533 608.199 282.96 607.507 284.989C606.582 287.687 605.306 289.299 602.714 290.541C602.081 290.483 601.409 290.405 600.814 290.182C599.762 289.784 598.895 288.677 598.457 287.678C597.502 285.523 597.784 283.009 598.583 280.844C599.519 278.34 600.912 277.039 603.308 275.923Z" fill="white"/>
<path d="M602.918 250.132C603.347 250.132 603.279 250.132 603.776 250.17C605.091 250.306 606.202 250.869 606.991 251.966C608.023 253.412 608.023 255.305 607.673 256.975C607.059 259.935 605.617 262.382 603.045 264.032C602.636 263.973 602.236 263.925 601.837 263.808C600.483 263.391 599.577 262.352 598.963 261.12C597.862 258.916 597.93 256.237 598.826 253.975C599.635 251.927 600.97 251.015 602.918 250.132Z" fill="white"/>
<path d="M274.07 220.031C276.34 217.759 278.445 215.498 280.432 212.984C281.143 259.479 280.715 306.023 280.724 352.529V394.375C280.724 401.606 281.358 409.459 280.335 416.603C279.721 420.855 274.567 425.747 271.225 428.106C264.162 433.085 247.463 439.249 238.549 439.463C232.548 440.385 226.41 441.113 220.321 441.161C200.729 441.326 175.505 438.201 160.911 423.747C157.823 420.69 154.461 415.924 153.789 411.556C152.717 404.528 153.39 396.597 153.448 389.482L153.604 353.286L153.507 214.1C159.118 221.099 165.49 225.564 173.459 229.582C200.271 239.697 229.82 239.959 256.797 230.32C263.071 227.466 268.673 224.379 274.07 220.04V220.031Z" fill="#FCF290"/>
<path d="M153.507 214.09C159.118 221.089 165.49 225.554 173.459 229.573L173.284 230.116C179.09 239.978 182.715 251.976 186.378 262.751C187.196 265.148 188.472 267.643 188.891 270.137C189.651 274.68 189.398 279.504 189.369 284.096L189.096 307.547L189.349 376.835C189.359 385.192 188.209 400.723 191.015 408.236C197.095 424.495 213.16 434.134 229.323 438.269C232.44 439.065 235.334 439.375 238.539 439.473C232.538 440.395 226.4 441.123 220.311 441.171C200.719 441.336 175.495 438.211 160.901 423.757C157.813 420.7 154.452 415.934 153.779 411.565C152.708 404.538 153.38 396.607 153.438 389.492L153.594 353.296L153.497 214.11L153.507 214.09Z" fill="#E8D758"/>
<path d="M274.07 220.031C275.005 223.389 274.45 252.228 274.479 258.509C274.596 291.415 274.479 324.33 274.167 357.236C274.089 376.844 274.547 396.559 273.934 416.147C273.875 418.166 273.836 419.68 272.803 421.466C270.67 425.135 266.568 426.854 262.681 427.999C260.596 427.087 258.443 426.291 257.644 423.951C256.611 420.952 257.176 409.527 257.137 405.751C256.972 386.658 256.904 367.555 256.952 348.461V310.566C256.962 303.199 256.728 295.715 257.167 288.367C256.777 285.163 256.709 282.776 257.556 279.65C257.206 275.942 257.401 272.127 257.498 268.409C255.988 262.129 256.183 254.354 257.323 248.006C256.641 242.221 256.855 236.134 256.816 230.31C263.09 227.456 268.692 224.37 274.089 220.031H274.07Z" fill="#FFF9CA"/>
<path d="M257.303 247.996C258.287 246.414 260.148 243.929 262.106 243.531C262.973 243.356 263.694 243.599 264.386 244.143C266.763 246.006 267.367 250.704 267.484 253.5C267.708 258.596 268.088 266.711 264.503 270.797C263.918 271.458 263.226 271.953 262.301 271.933C260.801 271.904 259.407 270.749 258.472 269.681C258.112 269.274 257.78 268.846 257.469 268.4C255.959 262.12 256.153 254.344 257.293 247.996H257.303Z" fill="white"/>
<path d="M257.547 279.65C258.998 278.107 260.518 276.806 262.759 276.66C263.684 276.592 264.513 276.981 265.146 277.631C266.851 279.378 267.63 282.446 267.572 284.814C267.504 287.221 266.549 290.065 264.746 291.745C264.123 292.327 263.305 292.638 262.457 292.56C260.781 292.414 259.125 291.065 258.151 289.784C257.8 289.328 257.469 288.852 257.147 288.376C256.758 285.173 256.689 282.785 257.537 279.66L257.547 279.65Z" fill="white"/>
<path d="M448.646 213.634C448.987 241.891 449.016 270.147 448.743 298.404L449.016 356.722L448.909 396.792C448.88 402.936 449.571 410.071 448.451 416.069C448.022 418.389 444.866 421.729 443.249 423.388C433.75 433.153 421.757 436.891 408.672 438.774C392.51 442.181 374.223 441.288 358.177 437.483C344.937 434.347 330.304 428.873 322.89 416.875C322.344 399.548 322.841 382.067 322.851 364.72L322.782 269.38L322.743 234.271C322.734 227.398 322.987 220.409 322.451 213.566C323.055 214.391 323.669 215.207 324.302 216.003C334.249 228.369 354.163 234.504 369.537 236.232C390.619 238.6 414.547 236.795 433.418 226.301C437.198 224.205 440.54 221.603 443.911 218.934C445.548 217.235 447.311 215.566 448.646 213.615V213.634Z" fill="#B394FF"/>
<path d="M322.88 416.894C322.334 399.568 322.831 382.086 322.841 364.74L322.773 269.4L322.734 234.29C322.724 227.418 322.977 220.429 322.441 213.585C323.045 214.411 323.659 215.226 324.292 216.022C334.24 228.388 354.153 234.523 369.527 236.251C390.61 238.619 414.537 236.814 433.409 226.321C437.189 224.224 440.53 221.623 443.901 218.953C442.625 222.166 439.731 223.525 437.666 226.03L437.306 226.214C435.912 226.932 434.646 227.981 433.282 228.777C429.628 230.902 425.8 232.708 421.825 234.164C398.754 242.57 366.088 240.92 342.91 233.746C342.647 233.669 342.384 233.581 342.121 233.494C344.596 239.376 347.226 245.191 350.013 250.928C352.098 255.257 358.391 265.857 358.995 269.836C359.56 273.603 359.258 277.777 359.249 281.582L359.229 302.645L359.18 378.688C359.18 388.221 357.963 402.946 360.983 411.546C364.841 422.495 372.635 429.523 383.342 433.862C389.918 436.522 398.209 438.026 405.36 438.055C406.402 438.541 407.532 438.638 408.653 438.803C392.49 442.21 374.203 441.317 358.157 437.512C344.917 434.376 330.284 428.902 322.87 416.904L322.88 416.894Z" fill="#8F73E5"/>
<path d="M425.254 286.367C425.381 283.164 425.586 281.058 428.089 278.786C429.005 277.951 430.174 277.097 431.48 277.136C432.493 277.165 433.321 277.767 433.935 278.544C435.62 280.698 436.098 283.785 435.62 286.425C435.299 288.211 434.549 290.512 432.98 291.57C432.084 292.172 431.012 292.279 429.98 291.968C427.992 291.366 426.696 290.163 425.771 288.338C425.576 287.959 425.449 287.561 425.323 287.153L425.264 286.358L425.254 286.367Z" fill="white"/>
<path d="M430.847 243.929C431.685 243.919 432.591 243.948 433.38 244.249C434.929 244.841 436.078 246.491 436.78 247.909C439.293 253.044 439.342 262.071 437.511 267.419C436.585 270.118 435.435 271.516 432.873 272.797C431.957 272.904 430.983 272.962 430.067 272.758C428.041 272.312 426.911 270.564 425.868 268.943C425.303 263.177 424.543 256.159 425.995 250.53C426.765 247.53 428.177 245.531 430.847 243.919V243.929Z" fill="white"/>
<path d="M351.377 490.2L624.868 490.229L635.147 540.743C634.796 540.957 634.455 541.151 634.055 541.248C631.308 541.928 626.086 541.355 623.134 541.355L594.287 541.326L470.186 541.277C464.409 541.277 422.809 541.821 420.393 540.433C420.032 540.646 419.72 540.841 419.311 540.938C416.262 541.636 409.013 541.054 405.428 541.044L367.637 540.996L214.631 541.035H164.184C155.416 541.035 146.424 541.491 137.684 541.006C136.847 540.957 136.321 540.763 135.59 540.355C136.788 538.191 137.957 529.988 138.6 527.144C141.396 514.846 144.456 502.654 146.95 490.297L351.367 490.19L351.377 490.2Z" fill="#B3E9E4"/>
<path d="M160.852 58.8591C177.327 59.0144 323.981 58.898 325.715 59.8104C326.299 60.5869 326.28 61.247 326.309 62.1789C326.562 70.0511 326.348 77.9912 326.358 85.8635L326.397 131.66C326.397 139.212 326.446 146.754 326.533 154.306C326.582 158.8 326.952 163.615 326.407 168.08C325.199 177.894 318.291 189.464 317.775 199.025C317.609 202.093 317.862 205.228 317.901 208.295C317.96 214.022 317.97 219.749 317.94 225.476L318.009 290.92H284.777L284.757 229.806C284.757 219.681 285.469 208.965 284.572 198.909C283.744 189.61 278.23 181.116 276.33 172.07C275.444 167.837 276.661 163.469 276.359 159.169C275.824 151.481 270.913 145.201 265.224 140.338C250.23 127.535 226.663 125.525 207.821 127.108C193.266 128.331 174.911 132.835 165.188 144.512C158.913 152.044 159.089 161.256 159.936 170.516C154.461 182.456 149.405 186.164 148.547 200.802C149.288 229.912 148.518 259.072 148.606 288.192C148.791 314.449 148.82 340.706 148.684 366.963C148.645 377.504 148.966 388.114 148.625 398.646C148.109 414.778 146.326 431.018 145.352 447.141L143.959 472.476C143.676 477.766 143.598 483.085 142.819 488.327C141.942 494.219 140.052 500.004 138.756 505.819C137.84 509.905 137.48 514.244 136.028 518.185L135.785 254.995L135.717 181.805L135.57 161.586C135.531 157.335 135.21 152.937 135.804 148.715C136.973 140.396 140.851 128.835 143.14 120.507C148.81 99.8995 154.705 79.3502 160.823 58.8688L160.852 58.8591Z" fill="#75D3DF"/>
<path d="M443.249 60.2083C462.237 59.655 481.362 60.0627 500.369 60.0919C537.361 60.3345 574.354 60.3733 611.356 60.1986C616.373 80.0393 621.556 99.8412 626.905 119.604C628.464 125.283 629.808 131.039 631.416 136.708C632.692 141.202 634.582 146.026 635.166 150.647C635.79 155.558 635.361 160.965 635.352 165.925V194.813L635.264 293.521L635.089 445.86L635.274 491.384C635.342 500.664 635.761 510.128 635.205 519.389C633.744 517.331 633.296 511.856 632.77 509.323C631.201 501.819 629.194 494.19 628.269 486.58C626.515 472.126 626.7 456.023 625.901 441.317C625.249 429.455 623.797 417.613 623.32 405.751C622.793 392.608 623.242 379.242 623.261 366.07L623.359 247.385L623.407 214.517C623.456 208.363 623.992 201.898 623.359 195.783C622.511 187.532 617.533 180.427 615.496 172.467C613.879 166.129 614.97 159.286 612.759 153.132C611.453 149.521 609.261 146.288 606.572 143.57C594.092 130.961 572.162 126.739 554.986 126.748C537.965 126.758 517.409 130.029 504.987 142.629C499.297 148.395 497.368 154.976 497.261 162.926C497.232 165.411 497.456 168.206 496.94 170.652C494.991 179.767 488.337 187.455 486.73 196.579C486.038 200.472 486.457 204.539 486.506 208.48L486.593 224.477L486.535 290.522L453.206 290.551L453.128 222.652C453.089 217.74 453.108 212.819 453.176 207.907C453.264 204.248 453.586 200.481 453.342 196.832C452.689 187.261 444.837 178.127 443.872 169.526C443.609 167.138 444.398 164.702 444.213 162.295C443.96 159.043 443.395 155.82 443.229 152.559C442.508 138.872 443.161 124.797 443.181 111.072C443.2 94.1239 443.034 77.1661 443.278 60.2277L443.249 60.2083Z" fill="#75D3DF"/>
<path d="M478.176 326.757H486.369L486.613 387.823C486.652 397.947 486.067 408.508 486.837 418.583C487.032 421.078 487.616 423.621 488.464 425.97C491.854 435.464 500.915 441.948 509.644 446.151C514.876 455.993 521.715 460.798 532.305 464.293C550.192 470.194 568.81 468.806 585.636 460.4C594.228 456.11 594.842 453.246 600.961 447.345C603.006 445.374 605.578 443.84 607.8 442.074C614.201 436.987 618.068 430.338 620.601 422.718C621.673 443.763 622.326 464.992 624.06 485.997L150.623 485.958C150.438 485.958 150.262 485.958 150.077 485.958C149.113 485.949 148.557 486.084 147.876 485.395C147.31 477.853 148.372 469.651 148.772 462.08C149.386 447.869 150.233 433.677 151.305 419.496C151.695 421.758 152.104 424.107 152.805 426.3C156.069 436.483 164.428 442.355 173.557 446.976C174.044 448.48 174.599 449.965 175.408 451.334C179.938 458.964 189.749 463.099 198.001 465.079C215.323 469.224 237.974 468.622 253.436 459.09C257.829 456.382 261.989 452.431 263.237 447.267C268.332 444.724 273.203 441.919 277.275 437.881C279.935 435.25 283.102 431.231 284.027 427.562C285.596 421.389 284.943 414.458 284.884 408.139L284.826 389.463L285.031 326.893C296.02 326.874 307.01 326.942 317.999 327.097V395.996C318.019 402.722 317.083 421.942 318.74 427.232C321.74 436.822 333.003 442.656 341.371 446.801C342.618 449.927 344.596 452.994 346.954 455.411C355.975 464.691 372.265 466.496 384.677 466.603C396.563 466.71 415.181 464.565 424.183 456.556C427.388 453.712 428.849 449.645 431.84 446.84C435.387 443.501 439.897 441.336 443.444 437.813C447.273 433.998 451.131 428.737 452.426 423.408C454.17 416.234 453.225 397.617 453.215 389.22L453.235 326.854L478.166 326.776L478.176 326.757Z" fill="#3995BA"/>
<path d="M116.271 152.17C119.388 151.112 127.718 151.831 131.352 151.86L131.713 449.121V520.107C131.713 525.242 130.904 541.005 131.82 544.859C132.19 545.053 132.258 545.111 132.619 545.238C135.522 546.237 150.311 545.529 154.169 545.529L214.134 545.461H530.347L613.158 545.519C616.753 545.519 635.77 546.082 638.138 545.49C638.81 545.325 639.034 545.092 639.346 544.49C639.697 543.801 639.726 542.995 639.736 542.238C639.921 529.056 639.541 515.797 639.473 502.605L639.375 429.853L639.346 153.617H654.827L654.69 452.557L654.72 516.777C654.72 522.116 655.47 539.239 654.32 543.083C654.768 544.879 654.7 547.004 654.515 548.839C654.096 552.955 652.177 556.711 648.942 559.322C645.893 561.788 642.707 562.72 638.839 562.826C625.609 563.166 612.272 562.807 599.022 562.758L524.764 562.623L289.405 562.739L182.802 562.758L146.736 562.865C140.997 562.865 134.558 563.409 128.868 562.613C125.273 562.108 121.892 559.827 119.759 556.963C116.758 552.935 116.222 549.761 116.037 544.83C115.706 535.929 115.979 526.911 115.979 517.991L116.105 461.817L115.979 291.385L115.891 194.385L115.93 168.264C115.93 163.023 115.53 157.344 116.271 152.17Z" fill="#2DC893"/>
<path d="M116.271 152.171C119.301 158.616 124.055 178.165 124.659 185.281C126.062 201.51 125.604 218.157 125.585 234.436L125.477 307.907L126.052 545.51C127.397 548.402 129.511 550.12 132.482 551.169C134.002 551.712 135.512 551.935 137.12 552.033C146.482 552.557 156.157 551.994 165.568 551.965L222.893 551.916L507.14 552.023L595.261 551.974C610.274 551.955 625.629 552.566 640.613 551.751C642.805 551.635 645.182 551.586 647.208 550.664C647.384 550.586 647.559 550.499 647.734 550.421C650.823 548.917 652.937 546.15 654.311 543.093C654.759 544.888 654.69 547.014 654.505 548.849C654.086 552.964 652.167 556.721 648.933 559.332C645.883 561.798 642.697 562.729 638.83 562.836C625.599 563.176 612.262 562.817 599.012 562.768L524.755 562.632L289.395 562.749L182.793 562.768L146.726 562.875C140.988 562.875 134.548 563.419 128.858 562.623C125.263 562.118 121.883 559.837 119.749 556.973C116.748 552.945 116.212 549.771 116.027 544.84C115.696 535.939 115.969 526.921 115.969 518.001L116.095 461.827L115.969 291.395L115.881 194.395L115.92 168.274C115.92 163.033 115.521 157.354 116.261 152.18L116.271 152.171Z" fill="#146D5E"/>
<path d="M501.597 169.973C499.814 163.256 500.242 155.85 503.857 149.773C509.478 140.299 521.179 135.514 531.448 132.99C551.732 128.01 578.699 129.195 596.888 140.26C603.386 144.211 609.436 150.249 611.19 157.869C612.505 163.605 611.95 170.856 608.754 175.913C605.033 181.806 598.632 185.533 592.64 188.736C585.752 192.706 574.091 194.764 566.18 195.502C548.127 197.2 524.063 194.318 509.771 182.369C505.903 179.136 502.084 175.205 501.606 169.963L501.597 169.973Z" fill="#9FC1C9"/>
<path d="M504.14 168.798C502.006 164.469 501.227 160.518 502.795 155.84C505.075 149.026 511.564 144.24 517.789 141.212C537.294 131.728 564.085 130.728 584.447 137.882C593.284 140.979 603.474 146.385 607.742 155.16C609.573 158.917 610.431 163.236 609.018 167.274C608.531 168.682 607.858 169.924 607.04 171.167C604.721 175.933 598.545 180.223 594.005 182.669C576.234 192.25 548.108 192.735 529.061 186.921C519.182 183.902 509.108 178.156 504.14 168.798Z" fill="#D9E9ED"/>
<path d="M504.14 168.798C502.006 164.469 501.227 160.518 502.795 155.84C505.075 149.026 511.564 144.24 517.789 141.212C537.294 131.728 564.085 130.728 584.447 137.882C593.284 140.979 603.474 146.385 607.742 155.16C609.573 158.917 610.431 163.236 609.018 167.274C608.531 168.682 607.858 169.924 607.04 171.167C606.378 171.011 606.154 170.594 605.705 170.109C599.46 160.878 592.787 155.723 582.206 151.821C564.816 145.405 542.058 144.861 525.164 152.734C517.019 156.529 510.911 161.712 507.813 170.245C506.965 169.847 507.004 169.74 506.585 168.886C506.079 168.75 505.815 168.012 505.543 167.566L505.397 167.546L504.14 168.818V168.798Z" fill="#010000"/>
<path d="M604.73 162.965C604.877 163.003 605.023 163.042 605.159 163.081C605.831 163.275 606.416 163.605 607.02 163.945C607.634 163.79 607.673 163.78 608.082 163.304C607.965 164.838 607.78 166.11 607.254 167.575L606.932 167.643L606.854 167.439C606.679 165.653 605.695 164.43 604.74 162.965H604.73Z" fill="#515466"/>
<path d="M604.565 152.2C600.99 146.764 591.238 140.59 585.002 139.261C564.212 131.767 539.476 132.427 519.377 141.843C518.822 142.095 518.266 142.367 517.721 142.648C512.499 144.454 507.248 149.132 504.87 154.083C503.204 157.539 502.746 161.47 504.091 165.12C504.412 166.003 504.87 166.77 505.396 167.546L505.543 167.566C505.815 168.012 506.078 168.75 506.585 168.886C507.403 163.576 511.485 159.354 515.665 156.315C530.172 145.774 551.683 143.93 569.015 146.745C584.087 149.191 597.668 154.724 606.835 167.449L606.913 167.653L607.235 167.585C607.771 166.119 607.956 164.848 608.063 163.314C607.732 159.383 606.738 155.539 604.556 152.21L604.565 152.2Z" fill="#9FC1C9"/>
<path d="M505.396 167.537L505.543 167.556C505.815 168.002 506.078 168.74 506.585 168.876C507.004 169.73 506.965 169.837 507.813 170.235C510.579 175.943 522.836 181.398 528.749 183.446C546.831 189.707 574.666 188.862 591.89 180.466C597.259 177.855 601.886 174.729 605.705 170.109C606.163 170.594 606.378 171.012 607.04 171.167C604.721 175.933 598.545 180.223 594.005 182.669C576.234 192.25 548.108 192.735 529.061 186.921C519.182 183.902 509.108 178.156 504.14 168.798L505.396 167.527V167.537Z" fill="#141824"/>
<path d="M555.862 157.432C560.081 157.179 565.41 157.956 568.8 160.654C570.836 162.275 571.869 164.518 572.083 167.08C572.395 170.895 572.054 176.884 569.385 179.845C566.647 182.883 562.165 183.048 558.376 183.193C554.108 183.193 548.019 183.368 544.444 180.602C542.739 179.282 541.843 177.292 541.56 175.185C541.053 171.468 540.82 165.352 543.333 162.256C546.12 158.81 551.731 157.907 555.872 157.422L555.862 157.432Z" fill="#010000"/>
<path d="M543.304 167.983L543.031 165.343L543.343 165.741L543.577 166.032C546.334 169.488 548.575 170.478 552.949 171.012C557.791 171.613 564.699 171.138 568.751 168.1C569.609 167.459 570.271 166.634 570.914 165.78L570.788 169.138C570.632 172.147 570.846 176.234 568.527 178.486C565.293 181.611 558.639 181.679 554.459 181.446C551.4 181.281 546.704 180.689 544.512 178.311C544.395 178.175 544.278 178.039 544.161 177.903C544.113 177.845 544.064 177.787 544.025 177.719C542.758 175.477 542.875 170.458 543.304 167.973V167.983Z" fill="#9FC1C9"/>
<path d="M543.304 167.983L543.031 165.343L543.343 165.741L543.577 166.032C546.334 169.488 548.575 170.478 552.949 171.012C557.791 171.613 564.699 171.138 568.751 168.1C569.609 167.459 570.271 166.634 570.914 165.78L570.788 169.138C568.722 171.633 567.066 173.234 563.773 173.982C562.682 174.234 561.6 174.487 560.49 174.642C558.181 174.885 555.911 174.836 553.592 174.797C551.712 174.225 551.312 173.827 550.241 172.147C548.546 171.74 546.996 170.973 545.438 170.225C544.541 169.536 543.937 168.905 543.294 167.973L543.304 167.983Z" fill="#9FC1C9"/>
<path d="M550.251 172.157C553.339 172.934 557.967 172.836 560.5 174.652C558.191 174.894 555.921 174.846 553.602 174.807C551.722 174.234 551.323 173.836 550.251 172.157Z" fill="#9FC1C9"/>
<path d="M543.304 167.983C543.937 168.915 544.551 169.546 545.447 170.235C547.006 170.982 548.555 171.749 550.25 172.157C551.332 173.826 551.722 174.224 553.602 174.807L551.234 174.749L551.293 175.088C550.816 176.612 550.416 178.243 549.695 179.67C547.727 179.388 546.285 178.816 544.668 177.651L544.161 177.913C544.113 177.855 544.064 177.796 544.025 177.729C542.758 175.486 542.875 170.468 543.304 167.983Z" fill="#9FC1C9"/>
<path d="M545.447 170.235C547.006 170.982 548.555 171.749 550.25 172.157C551.332 173.827 551.722 174.225 553.602 174.807L551.234 174.749C548.867 174.06 546.578 173.283 544.278 172.4C544.98 171.681 545.194 171.186 545.457 170.225L545.447 170.235Z" fill="#9FC1C9"/>
<path d="M543.304 167.983C543.937 168.915 544.551 169.546 545.447 170.235C545.184 171.196 544.97 171.691 544.269 172.409C543.811 174.312 543.967 175.826 544.668 177.661L544.161 177.923C544.113 177.864 544.064 177.806 544.025 177.738C542.758 175.496 542.875 170.478 543.304 167.993V167.983Z" fill="#9FC1C9"/>
<path d="M563.783 173.991C567.076 173.244 568.732 171.642 570.797 169.148C570.641 172.157 570.856 176.243 568.537 178.495C565.302 181.621 558.648 181.689 554.469 181.456C551.41 181.291 546.714 180.699 544.522 178.321C544.405 178.185 544.288 178.049 544.171 177.913L544.678 177.651C546.295 178.816 547.737 179.398 549.705 179.67L553.017 180.078C555.94 180.505 563.032 180.835 565.488 178.864C566.238 178.262 566.238 177.806 566.277 176.903C565.76 175.642 564.786 174.894 563.792 173.991H563.783Z" fill="#9FC1C9"/>
<path d="M551.293 175.098C551.702 176.292 552.092 177.34 552.131 178.612L551.956 178.389L551.985 179.214L553.018 180.087L549.705 179.68C550.426 178.253 550.825 176.622 551.303 175.098H551.293Z" fill="#9FC1C9"/>
<path d="M552.228 159.237C557.061 158.383 563.374 158.5 567.543 161.47C568.693 162.285 569.258 163.052 569.482 164.44C569.258 165.663 568.791 166.343 567.748 167.061C564.036 169.624 558.122 169.759 553.787 169.682C551.965 169.381 550.231 169.002 548.507 168.342C547.074 167.789 545.37 166.789 544.804 165.285C544.541 164.595 544.551 163.838 544.921 163.188C546.198 160.878 549.861 159.926 552.238 159.247L552.228 159.237Z" fill="#D9E9ED"/>
<path d="M553.787 169.682C551.965 169.381 550.231 169.002 548.507 168.342C547.074 167.789 545.37 166.789 544.804 165.284C544.541 164.595 544.551 163.838 544.921 163.188C546.198 160.878 549.861 159.926 552.238 159.247C552.559 162.664 552.608 166.449 553.807 169.691L553.787 169.682Z" fill="#D9E9ED"/>
<path d="M210.481 130.534C227.364 128.855 249.275 132.281 262.749 142.978C268.108 147.23 272.229 153.103 272.95 160.033C273.593 166.265 272.112 172.448 268.117 177.35C258.092 189.629 239.572 193.221 224.568 194.696C207.344 195.172 185.54 192.968 171.686 181.679C166.474 177.428 162.421 171.555 161.836 164.731C161.271 158.169 162.84 152.277 167.195 147.269C177.561 135.32 195.39 131.612 210.481 130.544V130.534Z" fill="#9FC1C9"/>
<path d="M206.486 133.524C221.723 130.602 246.372 134.844 259.193 143.512C264.61 147.172 269.335 152.239 270.514 158.859C271.41 163.858 270.231 169.002 267.26 173.128C265.945 174.933 264.094 176.874 262.174 178.049C252.627 187.416 229.176 190.619 216.131 190.503C205.171 190.406 192.71 189.018 182.636 184.436C176.197 181.99 170.38 178.01 166.561 172.215C165.071 169.546 164.077 166.75 163.804 163.693C163.327 158.315 165.227 153.568 168.714 149.521C177.629 139.193 193.178 134.456 206.467 133.514L206.486 133.524Z" fill="#D9E9ED"/>
<path d="M206.486 133.524C221.723 130.602 246.372 134.844 259.193 143.512C264.61 147.172 269.335 152.239 270.514 158.859C271.41 163.858 270.231 169.002 267.26 173.128C265.945 174.933 264.094 176.874 262.174 178.049C262.622 176.826 263.626 175.739 264.464 174.758C264.532 174.681 264.59 174.613 264.659 174.535C263.714 175.185 262.691 176.03 261.59 176.379C261.414 176.438 261.249 176.476 261.073 176.525C262.496 175.166 263.831 173.759 265.156 172.312L265.35 171.225C263.655 164.634 260.421 159.985 254.77 156.083C240.049 145.929 217.271 145.386 200.154 148.628C186.426 151.229 175.086 156.228 167 168.08L166.669 168.265C167.039 169.012 167.38 169.818 167.799 170.536L166.581 172.215C165.09 169.546 164.096 166.75 163.824 163.693C163.346 158.315 165.246 153.568 168.734 149.521C177.648 139.193 193.197 134.456 206.486 133.514V133.524Z" fill="#9FC1C9"/>
<path d="M167.663 164.256C169.416 162.402 170.965 160.499 172.924 158.829C180.464 152.394 190.713 148.928 200.349 147.045C219.541 143.299 241.043 144.871 257.586 155.946C260.587 159.315 266.685 164.372 266.335 169.332C266.286 170.099 265.828 170.662 265.351 171.235C263.656 164.644 260.421 159.994 254.77 156.092C240.049 145.939 217.271 145.395 200.154 148.637C186.427 151.239 175.086 156.238 167 168.09C166.747 166.673 167.302 165.605 167.663 164.256Z" fill="#010000"/>
<path d="M206.486 133.524C221.724 130.602 246.372 134.844 259.193 143.512C264.61 147.172 269.335 152.239 270.514 158.859C271.41 163.858 270.232 169.002 267.26 173.128C265.945 174.933 264.094 176.874 262.174 178.049C262.623 176.826 263.626 175.739 264.464 174.758C264.532 174.681 264.591 174.613 264.659 174.535C263.714 175.185 262.691 176.03 261.59 176.379C261.415 176.438 261.249 176.476 261.074 176.525C262.496 175.166 263.831 173.759 265.156 172.312C266.861 170.953 267.845 168.294 268.41 166.236C269.647 161.771 269.014 156.985 266.646 152.996C261.463 144.065 250.094 139.474 240.595 136.902C237.049 136.028 233.161 134.844 229.498 134.844C221.987 133.893 214.397 133.708 206.847 134.3L206.477 133.534L206.486 133.524Z" fill="#141824"/>
<path d="M166.571 172.225C165.08 169.556 164.087 166.76 163.814 163.702C163.337 158.325 165.236 153.578 168.724 149.53C177.639 139.202 193.188 134.465 206.476 133.524L206.847 134.291C198.02 135.359 190.469 137.445 182.412 141.124C176.606 142.91 170.088 148.375 167.234 153.724C164.973 157.966 164.72 162.46 166.094 167.032C166.23 167.488 166.386 167.867 166.649 168.265C167.019 169.012 167.36 169.818 167.779 170.536L166.561 172.215L166.571 172.225Z" fill="#010000"/>
<path d="M261.083 176.525C261.259 176.477 261.434 176.428 261.6 176.379C262.701 176.03 263.724 175.195 264.669 174.535C264.6 174.613 264.532 174.681 264.474 174.758C263.636 175.739 262.632 176.826 262.184 178.049C252.637 187.416 229.186 190.619 216.141 190.503C205.181 190.406 192.72 189.018 182.646 184.436C183.406 184.077 183.455 184.164 184.283 184.368L184.897 183.621C184.049 183.184 183.767 183.164 183.338 182.281C187.557 183.708 191.629 185.125 196.003 186.067C213.326 189.804 234.223 189.319 250.708 182.359C254.371 180.815 257.761 178.661 261.093 176.525H261.083Z" fill="#0A0811"/>
<path d="M167.799 170.536C171.15 174.487 174.589 177.408 179.09 180C180.445 180.777 182.081 181.388 183.338 182.281C183.757 183.164 184.04 183.184 184.897 183.621L184.283 184.368C183.455 184.164 183.406 184.077 182.646 184.436C176.207 181.99 170.39 178.01 166.571 172.215L167.789 170.536H167.799Z" fill="#141824"/>
<path d="M203.183 178.719C201.556 174.865 200.446 169.371 201.985 165.314C203.076 162.421 205.492 160.606 208.269 159.451C213.725 157.179 220.467 157.179 225.913 159.48C228.251 160.47 230.911 162.188 231.875 164.615C233.346 168.332 232.06 174.991 230.336 178.495C228.757 181.708 226.273 183.572 223.029 184.95C219.356 185.737 215.449 186.067 211.757 185.232C207.714 184.319 205.356 182.116 203.203 178.709L203.183 178.719Z" fill="#010000"/>
<path d="M202.501 172.623C204.216 173.623 205.95 174.593 207.616 175.661C208.552 176.059 209.584 176.35 210.568 176.612C216.862 178.262 223.799 177.525 229.401 174.234L229.966 173.477L230.375 173.652C230.17 176.166 228.28 179.398 226.371 181.019C225.114 182.087 223.711 182.65 222.162 183.145L223.009 184.95C219.337 185.737 215.43 186.067 211.737 185.232C207.694 184.319 205.337 182.116 203.183 178.709L203.807 177.835L204.557 177.729L202.501 172.613V172.623Z" fill="#9FC1C9"/>
<path d="M203.184 178.719L203.807 177.845L204.557 177.738C207.071 180.961 209.565 183.067 213.735 183.621C216.57 183.999 219.366 183.65 222.162 183.155L223.01 184.96C219.337 185.746 215.43 186.076 211.738 185.242C207.694 184.329 205.337 182.126 203.184 178.719Z" fill="url(#paint0_linear_588_1711)"/>
<path d="M229.4 174.234C229.04 175.282 228.602 176.03 227.949 176.933C221.733 179.68 216.199 180.039 209.769 177.583C208.746 177.195 207.84 176.923 207.197 176.03L207.626 175.671C208.561 176.069 209.594 176.36 210.578 176.622C216.872 178.272 223.808 177.534 229.41 174.244L229.4 174.234Z" fill="#9FC1C9"/>
<path d="M214.329 159.567C217.836 159.286 221.012 159.509 224.344 160.722C226.4 161.47 229.099 162.654 230.063 164.712C230.014 165.333 230.063 165.624 229.712 166.158C228.095 168.614 222.766 170.118 219.97 170.516C213.588 171.429 209.341 169.352 204.392 165.653L203.973 165.75C204.012 166.731 204.187 167.294 204.918 167.993C208.172 171.157 214.017 171.875 218.314 171.827C222.513 171.322 226.604 170.313 229.839 167.468C229.946 167.371 230.053 167.284 230.151 167.187L230.745 167.236L231.232 167.915C231.252 169.264 230.463 170.39 229.654 171.409C227.179 174.525 222.366 175.447 218.567 175.71C213.101 176.088 207.597 174.574 203.456 170.934L202.94 166.333C203.145 165.993 203.349 165.663 203.563 165.343C206.135 161.46 210.013 160.441 214.339 159.557L214.329 159.567Z" fill="#D9E9ED"/>
<path d="M330.693 166.342C329.446 160.984 330.138 155.849 333.119 151.161C339.325 141.406 353.364 135.572 364.373 133.213C383.517 129.107 410.183 129.961 427.037 140.891C433.321 144.958 438.27 150.55 439.81 158.014C440.959 163.605 440.365 169.701 437.111 174.506C433.915 179.204 429.025 182.708 424.124 185.455C419.574 189.619 404.678 193.852 398.326 194.298C387.872 196.065 377.993 195.434 367.657 193.308C355.965 190.367 342.014 185.921 334.347 176.098C332.32 173.506 330.284 169.711 330.703 166.342H330.693Z" fill="#9FC1C9"/>
<path d="M347.441 181.145C341.683 178.214 335.204 172.128 333.188 165.847C331.902 161.829 332.7 157.645 334.639 153.966C339.082 145.521 349.711 140.348 358.469 137.727C378.227 131.815 405.321 131.893 423.793 141.93C429.551 145.055 435.445 150.113 437.374 156.587C438.728 161.13 437.773 166.139 435.474 170.206C430.155 179.612 419.175 184.057 409.335 187.076C406.178 187.833 402.983 188.425 399.768 188.862C386.05 190.755 358.742 189.687 347.441 181.145Z" fill="#D9E9ED"/>
<path d="M347.441 181.145C341.683 178.214 335.204 172.128 333.188 165.847C331.902 161.829 332.7 157.645 334.639 153.966C339.082 145.521 349.711 140.348 358.469 137.727C378.227 131.815 405.321 131.893 423.793 141.93C429.551 145.055 435.445 150.113 437.374 156.587C438.728 161.13 437.773 166.139 435.474 170.206C430.155 179.612 419.175 184.057 409.335 187.076L408.838 184.96C411.965 184.116 415.025 183.145 418.025 181.902C423.715 179.534 429.707 176.117 432.142 170.186C431.889 168.866 431.567 167.527 431.11 166.255C429.073 160.615 423.637 156.626 418.376 154.219C400.615 146.094 376.561 146.113 358.382 152.782C347.792 156.674 342.511 160.926 337.844 171.05C340.358 173.749 343.349 175.845 346.165 178.204L345.668 178.457C344.616 177.787 343.632 177.098 342.667 176.311L342.121 176.438C343.359 177.719 347.012 179.592 347.558 180.922L347.451 181.126L347.441 181.145Z" fill="#010000"/>
<path d="M350.851 142.25C370.102 132.776 393.942 133.038 414.08 139.27C421.065 140.396 429.814 146.104 433.906 151.753C435.961 154.588 437.169 157.898 436.604 161.441C436.283 163.45 435.445 165.935 434.11 167.488L434.061 167.517C433.331 167.43 433.389 166.76 433.165 166.1C431.421 160.945 428.654 157.762 423.949 154.956C405.74 144.085 380.614 145.376 360.856 150.297C356.199 152.093 351.737 153.889 347.431 156.442C343.934 158.985 340.339 162.11 338.497 166.129C337.932 167.371 337.679 168.721 337.075 169.953C336.588 169.313 336.101 168.672 335.672 167.993C335.175 167.303 334.795 166.478 334.522 165.682C333.265 161.994 333.947 157.956 335.701 154.549C338.507 149.084 345.005 144.133 350.841 142.25H350.851Z" fill="#9FC1C9"/>
<path d="M347.441 181.145L347.548 180.942C347.012 179.612 343.359 177.729 342.112 176.457L342.657 176.331C343.622 177.117 344.606 177.806 345.658 178.476L346.155 178.224C364.958 188.338 388.194 189.746 408.829 184.98L409.325 187.096C406.169 187.853 402.973 188.445 399.758 188.882C386.041 190.775 358.733 189.707 347.431 181.165L347.441 181.145Z" fill="#0A0811"/>
<path d="M371.145 164.226C373.21 160.907 376.854 159.091 380.575 158.208C385.827 156.966 392.169 157.47 396.816 160.382C398.735 161.586 400.733 163.644 401.19 165.915C401.395 166.925 401.376 168.031 401.385 169.06C401.376 172.953 402.009 177.777 398.92 180.738C395.267 184.242 388.593 184.494 383.859 184.3C378.841 184.106 374.613 182.902 371.145 179.146C370.238 174.273 370.092 169.07 371.145 164.207V164.226Z" fill="#D9E9ED"/>
<path d="M371.144 164.227L372.557 165.605C373.074 166.003 373.794 166.44 374.213 166.925L373.872 167.837L372.586 167.381C372.421 167.837 372.284 168.216 372.206 168.701C374.35 171.012 376.639 172.138 379.533 173.273C381.715 173.632 383.897 174.05 386.099 174.283C391.37 173.477 395.228 174.438 399.349 170.235L399.661 169.711L400.197 169.837L401.366 169.07C401.356 172.963 401.989 177.787 398.901 180.747C395.247 184.252 388.574 184.504 383.839 184.31C378.822 184.116 374.593 182.912 371.125 179.156C370.219 174.283 370.073 169.08 371.125 164.217L371.144 164.227Z" fill="#0A0811"/>
<path d="M372.216 168.692C374.36 171.002 376.649 172.128 379.543 173.264C381.725 173.623 383.907 174.04 386.109 174.273L387.746 174.758C388.204 175.816 388.282 177.224 387.863 178.311C387.473 179.321 386.85 180.544 385.749 180.883C385.32 181.019 384.823 181.048 384.375 181.097L384.424 181.825C381.384 181.796 377.029 181.563 374.642 179.486C371.749 176.972 372.382 172.138 372.207 168.692H372.216Z" fill="#9FC1C9"/>
<path d="M379.552 173.273C381.735 173.632 383.917 174.05 386.119 174.283L387.755 174.768C388.213 175.826 388.291 177.234 387.872 178.321C387.483 179.33 386.859 180.553 385.758 180.893C385.33 181.029 384.833 181.058 384.385 181.107C384.219 181.116 384.053 181.145 383.888 181.145C383.138 181.145 382.748 180.951 382.212 180.466C381.822 179.058 382.699 177.234 383.079 175.855C382.602 174.632 380.692 173.982 379.552 173.273Z" fill="#9FC1C9"/>
<path d="M386.118 174.273C391.389 173.467 395.247 174.428 399.368 170.225C399.495 173.37 399.972 176.554 397.527 179.02C394.555 182.009 388.603 181.912 384.706 181.835C384.618 181.835 384.53 181.835 384.443 181.835L384.394 181.107C384.842 181.058 385.339 181.029 385.768 180.893C386.859 180.553 387.492 179.33 387.882 178.321C388.301 177.234 388.223 175.826 387.765 174.768L386.128 174.283L386.118 174.273Z" fill="#9FC1C9"/>
<path d="M371.145 164.226C373.21 160.907 376.854 159.091 380.575 158.208C385.827 156.966 392.169 157.47 396.816 160.382C398.735 161.586 400.733 163.644 401.19 165.915C401.395 166.925 401.376 168.031 401.385 169.06L400.216 169.827L399.68 169.701L399.369 170.225C395.247 174.428 391.389 173.467 386.119 174.273C383.917 174.04 381.735 173.623 379.552 173.263C376.649 172.128 374.369 171.002 372.226 168.691C372.304 168.216 372.44 167.828 372.606 167.371L373.892 167.828L374.233 166.915C378.013 168.954 381.92 170.322 386.275 170.303C391.497 170.283 395.764 168.497 399.437 164.848C398.287 163.44 397.011 162.295 395.413 161.421C390.785 158.897 385.086 158.422 380.039 159.897C376.766 160.858 374.233 162.586 372.567 165.595L371.154 164.217L371.145 164.226Z" fill="#010000"/>
<path d="M373.882 167.828C377.418 170.73 383.166 171.662 387.619 171.264C392.061 170.866 395.705 169.138 399.534 166.964C399.777 167.925 399.758 168.721 399.69 169.711L399.378 170.235C395.257 174.438 391.399 173.477 386.128 174.283C383.926 174.05 381.744 173.632 379.562 173.273C376.658 172.138 374.379 171.012 372.235 168.701C372.313 168.226 372.45 167.837 372.615 167.381L373.901 167.837L373.882 167.828Z" fill="#9FC1C9"/>
<path d="M327.897 176.001C328.268 175.117 328.365 174.302 329.232 173.865C332.291 177.068 334.454 180.563 337.961 183.446C349.37 192.842 369.108 197.754 383.693 198.113C401.95 198.569 420.227 193.279 434.607 181.941C437.033 179.33 439.264 176.777 441.086 173.7C444.34 181.097 449.133 189.784 449.484 197.919C449.387 204.801 446.678 210.994 441.729 215.808C427.261 229.873 400.693 233.416 381.413 233.018C369.547 232.756 357.817 230.466 346.72 226.263C338.059 222.749 328.365 217.012 323.786 208.548C319.879 201.335 322.023 195.764 324.205 188.445L327.888 176.01L327.897 176.001Z" fill="#D9E9ED"/>
<path d="M161.339 174.215C169.435 186.698 182.218 192.784 196.403 195.832C213.511 199.511 233.249 198.88 249.646 192.464C252.442 191.357 255.17 190.095 257.819 188.668C259.271 187.882 261.229 186.368 262.769 185.912C266.9 182.728 270.241 179.447 273.515 175.389C276.437 183.844 281.572 195.065 280.149 203.956C278.581 209.946 275.619 213.382 271.167 217.575C267.231 220.798 262.778 223.137 258.18 225.263C252.831 227.457 247.512 229.349 241.861 230.631C223.974 234.669 200.524 234.513 183.163 228.272C179.957 227.253 176.82 226.02 173.781 224.583C165.558 220.759 156.907 215.08 153.731 206.16C150.408 196.832 155.289 186.843 159.323 178.505L161.33 174.215H161.339Z" fill="#D9E9ED"/>
<path d="M499.482 174.7C502.96 180.515 507.559 184.786 513.336 188.309C531.964 199.676 558.502 201.481 579.439 196.385C592.494 193.201 604.701 186.746 611.833 175.05L613.372 178.952C617.308 187.96 622.199 197.21 618.234 207.121C614.385 216.75 603.435 222.04 594.374 225.826C574.344 234.193 544.95 236.484 524.413 228.728C518.373 227.272 512.333 224.807 506.945 221.739C499.804 217.672 493.111 212.596 490.87 204.403C489.233 193.997 495.429 183.999 499.472 174.71L499.482 174.7Z" fill="#D9E9ED"/>
<path d="M443.492 41.1345L559.194 41.2413L595.056 41.2121C601.778 41.2024 608.608 40.95 615.33 41.3189C617.298 41.4257 619.159 41.814 620.903 42.7652C623.582 44.2309 624.254 45.8423 625.307 48.5311C626.758 52.2488 627.567 56.3062 628.619 60.1598L634.835 82.7087C640.933 105.044 647.402 127.273 654.251 149.385L639.258 149.453C637.748 142.551 635.565 135.698 633.734 128.874L622.549 87.2418C620.844 80.9324 619.178 74.6035 617.551 68.265C616.529 64.2367 615.788 59.5386 614.025 55.7917C608.783 54.1901 575.055 55.054 567.65 55.0443L443.346 54.6269L443.521 41.1248L443.492 41.1345Z" fill="#75D3DF"/>
<path d="M223.994 41.3771L289.853 41.2606C301.875 41.2412 441.836 40.8141 453.839 41.348L453.878 54.6366L221.081 54.6657C207.12 54.6172 193.159 54.6851 179.198 54.8696C173.489 54.9472 167.663 54.7725 161.963 55.0928C160.706 55.1608 159.401 55.2093 158.261 55.782C155.592 59.2182 152.523 73.9628 150.925 79.1172C144.3 101.821 137.938 124.603 131.839 147.453H116.641C119.554 138.659 121.98 129.651 124.562 120.74C128.342 107.878 132.044 94.9878 135.678 82.0777C138.494 71.9535 140.764 61.2081 144.456 51.3848C145.323 49.0649 146.317 47.1138 148.08 45.3375C149.629 43.7844 151.568 42.4934 153.741 42.0566C160.102 40.7947 169.767 41.5615 176.46 41.5421L223.984 41.3674L223.994 41.3771Z" fill="#75D3DF"/>
<path d="M453.196 294.948L486.379 294.861V320.389L453.167 320.457L453.186 294.948H453.196Z" fill="#3BBEEB"/>
<path d="M285.245 295.074C296.146 294.851 307.097 295.055 318.009 295.006C318.009 299.403 318.7 317.041 317.736 320.263L316.956 320.506L284.933 320.584C284.884 317.497 284.485 296.152 285.235 295.074H285.245Z" fill="#3BBEEB"/>
<path d="M177.239 448.034C201.946 458.207 233.892 457.915 258.745 448.558C257.138 450.703 255.403 452.518 253.211 454.081C249.178 457.149 244.277 459.245 239.348 460.371C232.148 462.992 222.318 463.4 214.709 462.992C200.105 462.206 187.342 459.245 177.249 448.024L177.239 448.034Z" fill="#9FC1C9"/>
<path d="M346.691 448.684C371.817 456.819 398.092 457.76 423.209 449.199C423.403 450.053 423.306 450.15 422.799 450.897C420.851 453.79 416.856 456.333 413.612 457.537C411.956 458.265 410.368 458.838 408.624 459.304C408.507 459.352 408.39 459.41 408.264 459.449C393.971 464.885 371.388 462.973 357.69 457.139C353.413 456.197 349.37 451.858 346.691 448.694V448.684Z" fill="#9FC1C9"/>
<path d="M516.405 449.548C542.749 457.731 562.468 458.575 589.075 451.412L594.686 449.354C580.677 460.915 565.381 464.438 547.581 462.759C540.801 462.118 533.844 460.769 527.677 457.828C523.303 456.663 519.182 452.984 516.415 449.558L516.405 449.548Z" fill="#9FC1C9"/>
<path d="M321.263 423.155C322.071 424.165 322.909 425.165 323.815 426.077C338.634 441.132 368.904 445.772 389.08 445.928L389.567 445.976C392.003 446.228 394.565 445.772 396.923 446.199C397.391 446.83 397.527 446.908 397.381 447.733C397.254 448.471 396.689 449.199 396.066 449.606C395.354 450.072 394.585 450.043 393.757 450.101C391.457 450.247 389.178 450.441 386.869 450.432L390.824 450.742C379.338 452.567 356.18 448.015 345.288 443.549C335.009 439.337 325.696 433.804 321.253 423.136L321.263 423.155Z" fill="#9FC1C9"/>
<path d="M156.234 425.106C157.988 426.834 159.751 428.543 161.641 430.125C182.471 447.529 213.325 447.442 238.841 445.199C234.866 448.267 221.772 449.752 216.472 450.111C213.92 450.286 209.847 449.917 207.568 450.985C200.797 451.703 190.07 448.607 183.65 446.393C171.959 442.346 161.827 436.56 156.234 425.097V425.106Z" fill="#9FC1C9"/>
<path d="M567.193 446.316C570.447 445.743 573.759 445.51 576.994 444.84C591.754 441.792 605.491 435.522 615.788 424.242C612.603 433.076 606.328 439.133 597.872 443.122C588.694 447.451 577.997 450.208 567.855 450.771C563.208 451.412 558.434 451.412 553.748 451.363C553.154 451.198 552.56 451.024 551.955 450.917C551.878 450.907 551.79 450.897 551.712 450.878C551.78 450.713 554.235 450.635 555.054 450.082C555.395 449.208 555.356 448.645 555.015 447.743C554.946 447.568 554.859 447.403 554.771 447.238L555.969 446.714C559.701 446.752 563.461 446.461 567.193 446.316Z" fill="#9FC1C9"/>
<path d="M555.969 446.714C559.701 446.752 563.461 446.461 567.193 446.316C565.166 447.898 559.243 447.102 556.262 447.888C555.999 448.772 555.677 449.597 555.687 450.528C559.681 450.858 563.968 449.985 567.855 450.771C563.208 451.412 558.434 451.412 553.748 451.363C553.154 451.198 552.56 451.023 551.955 450.917C551.878 450.907 551.79 450.897 551.712 450.878C551.78 450.713 554.235 450.635 555.054 450.082C555.395 449.208 555.356 448.645 555.015 447.743C554.946 447.568 554.859 447.403 554.771 447.238L555.969 446.714Z" fill="#9FC1C9"/>
<path d="M238.841 445.2C253.786 441.88 271.147 436.26 281.056 424.019C277.441 433.542 270.738 439.162 261.522 443.287C244.434 450.936 226.04 452.218 207.568 450.985C209.848 449.917 213.92 450.276 216.473 450.111C221.772 449.752 234.866 448.267 238.841 445.2Z" fill="#9FC1C9"/>
<path d="M491.309 424.213C492.166 425.145 493.043 426.077 493.939 426.98C508.787 441.938 535.764 446.529 555.979 446.723L554.781 447.248C554.859 447.413 554.956 447.578 555.025 447.752C555.366 448.655 555.405 449.218 555.064 450.092C554.245 450.645 551.79 450.723 551.722 450.888C551.8 450.897 551.888 450.907 551.965 450.926C552.569 451.033 553.164 451.208 553.758 451.373C542.895 451.557 532.1 449.49 521.754 446.335C508.913 442.423 497.846 436.415 491.318 424.223L491.309 424.213Z" fill="#9FC1C9"/>
<path d="M389.08 445.927C393.503 445.316 398.063 445.296 402.515 444.753C416.038 443.103 427.68 438.599 439.459 431.901C440.189 432.581 440.91 433.26 441.68 433.881C429.726 445.772 408.156 450.82 391.574 450.781C391.331 450.781 391.077 450.761 390.834 450.742L386.878 450.431C389.187 450.431 391.467 450.247 393.766 450.101C394.585 450.053 395.354 450.072 396.075 449.606C396.699 449.199 397.264 448.471 397.391 447.733C397.537 446.908 397.4 446.83 396.933 446.199C394.575 445.772 392.013 446.238 389.577 445.976L389.09 445.927H389.08Z" fill="#9FC1C9"/>
<path d="M439.459 431.901C442.693 429.659 445.373 427.116 448.032 424.242C446.24 427.805 444.262 430.843 441.68 433.891C440.901 433.27 440.19 432.581 439.459 431.911V431.901Z" fill="#9FC1C9"/>
<path d="M326.631 165.343C326.631 165.343 327.283 153.355 330.099 147.463C332.915 141.571 339.851 133.543 359.502 130.175C379.153 126.807 390.269 126.515 401.434 127.962C412.599 129.408 432.99 138.319 436.75 142.27C440.511 146.22 444.203 162.285 444.203 162.285L455.924 156.082L443.258 60.2083L324.721 59.6841L326.64 165.333L326.631 165.343Z" fill="#75D3DF"/>
<path d="M220.993 381.717C193.178 384.241 168.568 363.837 166.016 336.114C163.463 308.402 183.942 283.872 211.757 281.32C239.591 278.767 264.23 299.18 266.782 326.912C269.335 354.645 248.827 379.184 220.993 381.717ZM262.35 347.86C266.1 337.473 266.266 326.146 262.846 315.653C258.833 303.529 250.103 293.511 238.627 287.833C227.004 281.912 213.481 280.893 201.098 285.008C188.794 289.056 178.623 297.831 172.816 309.372C170.799 313.536 169.396 317.604 168.403 322.117C166.337 336.28 168.558 349.578 177.307 361.245C185.062 371.447 196.529 378.213 209.243 380.057C222.201 381.892 235.363 378.485 245.778 370.583C251.409 366.322 256.046 360.896 259.368 354.674C260.518 352.47 261.502 350.189 262.33 347.84L262.35 347.86Z" fill="black"/>
<path d="M172.816 309.382C178.613 297.831 188.794 289.066 201.098 285.018C213.481 280.902 227.004 281.921 238.627 287.843C250.103 293.511 258.833 303.529 262.846 315.662C266.266 326.155 266.1 337.483 262.35 347.869C261.677 345.511 261.317 343.123 260.489 340.793C258.501 335.192 254.799 331.436 249.431 328.941C238.938 324.078 227.803 327.407 218.099 332.649C212.994 335.406 208.279 338.628 202.764 340.609C197.221 342.599 190.167 342.851 184.78 340.25C175.661 335.843 173.157 325.447 173.001 316.206C172.972 314.497 173.537 311.187 172.952 309.702C172.913 309.595 172.865 309.498 172.826 309.401L172.816 309.382Z" fill="#8A69ED"/>
<path d="M172.816 309.382C172.865 309.479 172.904 309.586 172.943 309.683C173.527 311.178 172.962 314.478 172.992 316.186C173.147 325.427 175.651 335.823 184.77 340.23C190.158 342.832 197.221 342.579 202.755 340.589C208.269 338.609 212.985 335.387 218.09 332.63C227.793 327.388 238.919 324.049 249.421 328.922C254.79 331.416 258.502 335.173 260.479 340.774C261.307 343.103 261.668 345.501 262.34 347.85C261.512 350.189 260.528 352.48 259.378 354.684C257.868 352.723 257.868 348.481 257.215 346.015C255.813 340.686 252.87 336.26 248.009 333.513C244.336 331.436 240.273 330.669 236.084 330.96C221.948 331.96 213.628 342.356 200.904 345.792C194.406 347.549 186.709 346.986 180.844 343.56C174.901 340.085 171.365 333.843 169.572 327.378C169.095 325.651 168.831 323.855 168.393 322.117C169.387 317.604 170.79 313.537 172.806 309.372L172.816 309.382Z" fill="#FEFEFE"/>
<path d="M259.388 354.684C256.056 360.906 251.418 366.332 245.797 370.593C235.382 378.494 222.22 381.901 209.263 380.067C196.549 378.213 185.082 371.457 177.327 361.255C168.568 349.588 166.357 336.289 168.422 322.127C168.87 323.874 169.123 325.66 169.601 327.388C171.393 333.853 174.92 340.094 180.873 343.569C186.738 347.006 194.434 347.559 200.933 345.802C213.656 342.375 221.977 331.97 236.113 330.97C240.302 330.669 244.365 331.436 248.038 333.523C252.889 336.27 255.841 340.696 257.244 346.025C257.887 348.491 257.897 352.723 259.407 354.693L259.388 354.684Z" fill="#B394FF"/>
<path d="M389.909 377.65C362.094 380.174 337.484 359.77 334.932 332.047C332.379 304.334 352.858 279.805 380.673 277.252C408.507 274.7 433.146 295.113 435.698 322.845C438.251 350.578 417.743 375.116 389.909 377.65ZM431.266 343.793C435.016 333.406 435.182 322.078 431.762 311.585C427.749 299.462 419.019 289.444 407.543 283.766C395.92 277.845 382.397 276.825 370.014 280.941C357.71 284.989 347.539 293.764 341.732 305.305C339.715 309.469 338.312 313.536 337.319 318.05C335.253 332.212 337.475 345.511 346.223 357.178C353.978 367.38 365.445 374.146 378.159 375.99C391.117 377.825 404.279 374.418 414.694 366.516C420.325 362.255 424.962 356.829 428.284 350.607C429.434 348.403 430.418 346.122 431.246 343.773L431.266 343.793Z" fill="black"/>
<path d="M341.732 305.325C347.529 293.773 357.71 285.008 370.014 280.96C382.397 276.845 395.92 277.864 407.543 283.785C419.019 289.454 427.749 299.471 431.762 311.605C435.182 322.098 435.016 333.426 431.266 343.812C430.593 341.453 430.233 339.065 429.405 336.736C427.417 331.135 423.715 327.378 418.347 324.884C407.854 320.021 396.719 323.35 387.015 328.592C381.91 331.348 377.195 334.571 371.68 336.551C366.137 338.541 359.083 338.794 353.696 336.192C344.577 331.785 342.073 321.389 341.917 312.148C341.888 310.44 342.453 307.13 341.868 305.645C341.829 305.538 341.781 305.441 341.742 305.344L341.732 305.325Z" fill="#EFDC54"/>
<path d="M341.732 305.325C341.781 305.422 341.82 305.528 341.859 305.626C342.443 307.12 341.878 310.421 341.908 312.129C342.063 321.37 344.567 331.766 353.686 336.173C359.074 338.774 366.137 338.522 371.671 336.532C377.185 334.552 381.901 331.329 387.006 328.572C396.709 323.331 407.835 319.992 418.338 324.864C423.706 327.359 427.418 331.116 429.395 336.716C430.223 339.046 430.584 341.444 431.256 343.793C430.428 346.132 429.444 348.423 428.294 350.626C426.784 348.666 426.784 344.424 426.132 341.958C424.729 336.629 421.786 332.203 416.925 329.456C413.252 327.378 409.189 326.612 405 326.903C390.864 327.903 382.544 338.299 369.82 341.735C363.322 343.492 355.625 342.929 349.76 339.502C343.817 336.027 340.281 329.786 338.488 323.321C338.011 321.593 337.747 319.797 337.309 318.06C338.303 313.546 339.706 309.479 341.722 305.315L341.732 305.325Z" fill="#FEFEFE"/>
<path d="M428.304 350.626C424.972 356.848 420.334 362.274 414.713 366.536C404.298 374.437 391.136 377.844 378.179 376.009C365.465 374.155 353.998 367.4 346.243 357.198C337.484 345.53 335.273 332.232 337.338 318.07C337.786 319.817 338.039 321.603 338.517 323.331C340.309 329.795 343.836 336.037 349.789 339.512C355.654 342.948 363.35 343.501 369.849 341.744C382.572 338.318 390.893 327.912 405.029 326.912C409.218 326.612 413.281 327.378 416.954 329.465C421.806 332.212 424.757 336.639 426.16 341.968C426.803 344.433 426.813 348.665 428.323 350.636L428.304 350.626Z" fill="#FCF290"/>
<path d="M559.009 373.593C531.194 376.116 506.585 355.713 504.032 327.99C501.48 300.277 521.958 275.748 549.773 273.195C577.608 270.642 602.247 291.056 604.799 318.788C607.352 346.52 586.844 371.059 559.009 373.593ZM600.366 339.735C604.117 329.349 604.283 318.021 600.863 307.528C596.849 295.404 588.12 285.387 576.643 279.708C565.02 273.787 551.498 272.768 539.115 276.884C526.81 280.931 516.639 289.706 510.833 301.248C508.816 305.412 507.413 309.479 506.419 313.993C504.354 328.155 506.575 341.453 515.324 353.121C523.079 363.323 534.546 370.088 547.26 371.933C560.217 373.767 573.379 370.36 583.794 362.459C589.425 358.198 594.063 352.771 597.385 346.549C598.535 344.346 599.519 342.065 600.347 339.716L600.366 339.735Z" fill="black"/>
<path d="M510.833 301.257C516.63 289.706 526.811 280.941 539.116 276.893C551.498 272.778 565.021 273.797 576.644 279.718C588.12 285.387 596.85 295.404 600.864 307.538C604.283 318.031 604.118 329.359 600.367 339.745C599.694 337.386 599.334 334.998 598.506 332.669C596.518 327.068 592.816 323.311 587.448 320.817C576.955 315.954 565.82 319.283 556.116 324.525C551.011 327.281 546.296 330.504 540.781 332.484C535.238 334.474 528.184 334.726 522.797 332.125C513.678 327.718 511.174 317.322 511.018 308.081C510.989 306.373 511.554 303.063 510.969 301.578C510.93 301.471 510.882 301.374 510.843 301.277L510.833 301.257Z" fill="#FCB247"/>
<path d="M510.832 301.257C510.881 301.355 510.92 301.461 510.959 301.558C511.543 303.053 510.978 306.354 511.008 308.062C511.164 317.303 513.667 327.699 522.786 332.106C528.174 334.707 535.237 334.455 540.771 332.465C546.285 330.485 551.001 327.262 556.106 324.505C565.809 319.264 576.935 315.924 587.438 320.797C592.806 323.292 596.518 327.048 598.495 332.649C599.323 334.979 599.684 337.377 600.356 339.726C599.528 342.065 598.544 344.356 597.394 346.559C595.884 344.598 595.884 340.357 595.232 337.891C593.829 332.562 590.886 328.136 586.025 325.389C582.352 323.311 578.289 322.545 574.1 322.836C559.964 323.836 551.644 334.232 538.92 337.668C532.422 339.425 524.725 338.862 518.86 335.435C512.917 331.96 509.381 325.719 507.588 319.254C507.111 317.526 506.848 315.73 506.409 313.993C507.403 309.479 508.806 305.412 510.823 301.248L510.832 301.257Z" fill="#FEFEFE"/>
<path d="M597.404 346.569C594.072 352.791 589.435 358.217 583.814 362.478C573.399 370.38 560.237 373.787 547.279 371.952C534.565 370.098 523.098 363.342 515.343 353.14C506.585 341.473 504.373 328.174 506.439 314.012C506.887 315.759 507.14 317.545 507.617 319.273C509.41 325.738 512.937 331.979 518.889 335.455C524.754 338.891 532.451 339.444 538.949 337.687C551.673 334.261 559.993 323.855 574.129 322.855C578.319 322.554 582.381 323.321 586.054 325.408C590.906 328.155 593.858 332.581 595.261 337.91C595.904 340.376 595.914 344.608 597.424 346.579L597.404 346.569Z" fill="#FFC871"/>
</g>
<rect x="1.5" y="1.5" width="767" height="600" rx="13.5" stroke="black" stroke-width="3"/>
<defs>
<linearGradient id="paint0_linear_588_1711" x1="212.94" y1="179.586" x2="211.97" y2="184.637" gradientUnits="userSpaceOnUse">
<stop/>
<stop offset="1" stop-color="#15121E"/>
</linearGradient>
<clipPath id="clip0_588_1711">
<rect width="549" height="535" fill="white" transform="translate(111 34)"/>
</clipPath>
</defs>
</svg>
