<svg width="770" height="603" viewBox="0 0 770 603" fill="none" xmlns="http://www.w3.org/2000/svg">
<mask id="mask0_588_1821" style="mask-type:alpha" maskUnits="userSpaceOnUse" x="0" y="0" width="770" height="603">
<rect width="770" height="603" rx="15" fill="#D9D9D9"/>
</mask>
<g mask="url(#mask0_588_1821)">
<g clip-path="url(#clip0_588_1821)">
<path d="M-5 -58.0183H776V918.796C775.657 919.013 775.58 919.089 775.224 919.229C772.375 920.375 654.5 919.636 641.526 919.636H520.738C500.233 919.636 479.614 920.069 459.123 919.611C457.94 919.586 457.1 919.433 455.994 919.025C452.635 920.451 441.9 920.235 438.351 919.114C438.211 919.178 438.071 919.242 437.931 919.293C434.064 920.515 416.46 919.649 410.927 919.649H340.523L0.342345 919.624C-1.59108 919.611 -3.28282 919.789 -5 918.796L-5 -58.0183Z" fill="black"/>
<path d="M-5 -58.0183H776V412.739C749.784 395.465 723.67 377.491 696.73 361.388C697.696 342.191 697.773 322.88 698.193 303.658C698.536 288.217 700.52 260.11 697.035 245.764C693.143 229.75 683.348 215.671 679.278 199.746C677.777 193.877 677.752 187.869 677.37 181.86C676.671 170.849 671.697 160.538 664.409 152.391C643.764 129.325 610.235 118.67 580.05 117.181C553.898 115.895 529.387 118.836 505.041 128.701C498.58 112.611 494.408 95.1074 487.857 79.2717C490.833 67.5476 489.472 57.6821 483.278 47.1928C470.558 25.6668 444.686 13.7645 421.357 7.92161C385.513 -1.06557 341.069 1.56948 308.914 21.0587C295.825 28.9893 283.538 40.4842 279.811 55.8363C278.157 62.6467 277.279 70.2081 278.971 77.1203C273.578 95.4129 267.218 113.604 262.461 132.049C223.156 117.97 177.352 117.703 139.205 135.715C122.695 143.519 106.261 156.325 100.028 174.057C96.6572 183.643 97.7002 195.29 94.7365 205.971C90.4117 221.577 81.1008 236.14 77.641 251.747C74.5246 265.813 76.4199 292.851 76.5725 308.152C76.8396 334.935 76.4453 362.011 77.8827 388.756L25.197 422.261C15.2628 428.702 5.41757 436.111 -4.98728 441.738V-58.0183H-5Z" fill="#4FCAE0"/>
<path d="M65.6716 513.673C70.5051 516.932 75.3769 520.153 80.2613 523.335C80.2358 546.783 80.2231 557.502 98.0182 575.336C100.244 577.538 102.483 579.728 104.734 581.904C107.164 598.606 115.864 610.814 129.284 620.794C135.262 625.236 141.698 628.775 148.414 631.958C151.556 635.611 160.333 638.042 164.798 640.003C188.775 650.479 213.438 660.078 238.649 667.168C251.445 670.77 264.381 673.227 277.241 676.473C280.269 680.089 283.487 683.398 287.226 686.263C287.799 717.998 324.305 737.665 350.915 745.736C354.387 746.792 373.925 750.229 374.459 750.573C374.726 750.751 375.426 751.604 375.655 751.897C376.176 752.546 376.583 753.208 377.258 753.717C381.048 756.594 385.513 758.898 389.519 761.533C400.713 768.917 411.983 776.185 423.316 783.365C445.411 797.444 467.098 812.172 489.243 826.162C490.604 827.028 491.965 828.11 493.581 828.403C493.339 828.797 493.225 829.001 492.945 829.332C491.113 831.483 453.17 857.095 447.776 860.367C447.09 860.787 446.581 860.889 445.805 860.991C444.164 860.927 327.167 784.37 316.711 777.598L126.269 655.393C98.7051 637.266 70.9885 619.381 43.132 601.712C27.1813 591.452 11.2687 580.924 -5 571.16V556.738C4.61622 551.773 13.7109 545.65 22.882 539.909C37.0392 530.985 51.2981 522.253 65.6716 513.686V513.673Z" fill="#F1BD7B"/>
<path d="M-5 578.887L436.85 863.422C438.376 864.377 440.959 866.439 442.701 866.439C442.421 881.116 442.294 895.794 442.32 910.471C438.847 910.471 360.696 857.694 349.414 850.349L138.404 714.65C90.3736 684.328 42.5723 653.649 -5 622.627V578.887Z" fill="#B37D4E"/>
<path d="M694.949 489.601C721.495 507.792 748.894 524.85 776 542.175V639.379C773.023 641.339 770.034 643.249 766.994 645.107C754.554 637.241 741.911 629.692 729.521 621.736C708.775 608.395 688.156 594.609 666.838 582.197C669.585 576.469 670.807 570.537 671.722 564.299C673.529 562.695 675.347 561.104 677.077 559.411C691.883 544.848 694.008 534.741 694.554 514.997C694.783 506.532 694.898 498.067 694.936 489.601H694.949Z" fill="#B37D4E"/>
<path d="M-5 450.585C11.0906 439.956 27.3848 429.632 43.6026 419.193C55.0251 411.848 66.3712 404.261 77.9463 397.158L79.0783 475.726L28.3388 507.894C17.4124 514.857 6.37156 522.622 -5 528.783L-5 450.585Z" fill="#F1BD7B"/>
<path d="M695.801 431.77C721.927 449.757 749.479 465.911 776 483.338V538.407C757.314 525.766 737.84 514.119 718.887 501.847C710.925 496.692 702.466 491.74 695.038 485.833C694.91 467.821 695.623 449.783 695.814 431.77H695.801Z" fill="#B37D4E"/>
<path d="M697.023 370.413C723.111 387.535 750.535 403.141 776 421.179V475.28C749.772 457.395 722.424 441.038 695.941 423.534C696.069 405.827 696.425 388.12 697.023 370.413Z" fill="#F1BD7B"/>
<path d="M46.083 501.389C52.6973 505.348 59.2353 509.447 65.6843 513.673C51.3108 522.227 37.0519 530.973 22.8946 539.896C13.7236 545.637 4.62892 551.76 -4.9873 556.725V533.977L46.0957 501.389H46.083Z" fill="#B37D4E"/>
<path d="M285.572 674.755C284.275 673.278 283.118 671.623 282.011 669.994C277.724 663.667 273.832 656.641 272.903 648.952C272.064 642.014 272.433 634.758 272.42 627.782L272.242 592.05L271.008 464.053L269.965 393.607C269.838 383.843 268.617 373.379 269.698 363.717C270.321 358.218 273.196 352.973 275.358 347.932C279.047 339.34 285.598 324.79 287.226 315.904L287.341 315.242C289.35 322.18 292.149 328.405 295.265 334.884C295.685 335.585 296.308 336.412 296.575 337.163C305.848 348.289 316.291 356.741 329.583 362.635C336.477 365.143 343.359 367.714 350.469 369.509C386.009 378.445 427.145 377.071 460.674 361.375C474.373 354.959 490.833 344.635 496.163 329.792C497.447 326.228 497.651 323.122 497.676 319.341C502.917 332.313 513.691 351.866 515.23 365.13C516.654 377.325 514.975 391.506 514.772 403.943C514.568 431.172 514.149 458.401 513.513 485.617L511.579 590.764C511.248 610.101 511.579 629.857 510.18 649.117C509.9 653.013 508.641 656.895 507.114 660.472C498.605 680.407 475.238 695.033 455.777 702.709C434.268 711.187 411.55 714.675 388.502 714.637C385.207 714.637 379.649 715.07 376.558 714.103C354.781 711.48 323.745 703.601 305.733 690.68C298.076 686.479 291.195 681.502 285.572 674.742V674.755Z" fill="#FF8080"/>
<path d="M285.572 674.755C284.275 673.278 283.118 671.624 282.011 669.994C277.724 663.667 273.832 656.641 272.903 648.952C272.064 642.014 272.433 634.758 272.42 627.782L272.242 592.05L271.008 464.053L269.965 393.607C269.838 383.843 268.617 373.379 269.698 363.717C270.321 358.218 273.196 352.973 275.358 347.932C279.047 339.34 285.598 324.79 287.226 315.904L287.341 315.242C289.35 322.18 292.149 328.405 295.265 334.884C295.685 335.585 296.308 336.412 296.575 337.163C297.669 343.388 300.417 350.427 300.149 356.703C299.781 365.067 293.548 371.953 294.629 380.813C295.456 387.649 303.342 400.506 303.342 400.761L303.635 402.466C311.852 414.929 335.969 421.536 350.151 424.451C359.793 426.436 369.702 427.506 379.521 428.053C380.297 444.856 379.305 462.003 379.242 478.845L378.44 591.172L377.728 671.305L377.435 697.643C377.384 702.34 377.626 707.229 377.308 711.9C377.245 712.83 377.219 713.402 376.57 714.103C354.794 711.48 323.757 703.601 305.746 690.68C298.089 686.479 291.207 681.502 285.585 674.742L285.572 674.755Z" fill="#FFB0B0"/>
<path d="M285.572 674.755C284.275 673.278 283.118 671.624 282.011 669.994C277.724 663.667 273.832 656.641 272.903 648.952C272.064 642.014 272.433 634.758 272.42 627.782L272.242 592.05L271.008 464.053L269.965 393.607C269.838 383.843 268.617 373.379 269.698 363.717C270.321 358.218 273.196 352.973 275.358 347.932C279.047 339.34 285.598 324.79 287.226 315.904L287.341 315.242C289.35 322.18 292.149 328.405 295.265 334.884C295.685 335.585 296.308 336.412 296.575 337.163C297.669 343.388 300.417 350.427 300.149 356.703C299.781 365.067 293.548 371.953 294.629 380.813C295.456 387.649 303.342 400.506 303.342 400.761L303.635 402.466C300.2 401.983 295.914 400.213 292.607 401.703C290.648 404.758 291.996 453.105 292.021 461.545L292.161 617.955C292.225 628.241 292.212 638.526 292.136 648.799C292.136 655.024 291.538 662.191 292.861 668.276C294.286 674.806 298.102 680.254 302.083 685.448C303.24 686.963 305.199 688.898 305.721 690.68C298.063 686.479 291.182 681.502 285.56 674.742L285.572 674.755Z" fill="#FFB0B0"/>
<path d="M295.278 334.897C295.697 335.597 296.321 336.425 296.588 337.176C297.682 343.4 300.429 350.44 300.162 356.716C299.793 365.079 293.56 371.966 294.642 380.826C295.468 387.662 303.355 400.519 303.355 400.773L303.647 402.479C300.213 401.995 295.926 400.226 292.619 401.715C290.66 404.77 292.009 453.118 292.034 461.558L292.174 617.968C292.238 628.253 292.225 638.539 292.149 648.812C292.149 655.037 291.551 662.203 292.874 668.288C294.298 674.819 298.114 680.267 302.095 685.461C303.253 686.975 305.212 688.91 305.733 690.693C298.076 686.492 291.195 681.514 285.572 674.755C284.389 666.735 284.809 658.092 284.657 649.97L283.919 609.082L282.367 489.13L280.879 410.601C280.726 400.124 279.441 388.871 280.573 378.496C281.553 369.56 285.496 361.184 288.562 352.82C290.749 346.85 292.772 340.727 295.278 334.884V334.897Z" fill="#FDFBFC"/>
<path d="M296.601 337.176C305.873 348.301 316.316 356.754 329.609 362.648C330.448 365.448 334.493 367.701 336.974 369.013C353.268 377.592 370.605 380.609 376.927 400.379C378.059 403.892 381.302 419.422 379.979 422.859C379.789 423.356 379.42 423.47 378.936 423.61C377.919 423.903 376.52 423.725 375.451 423.674C355.137 423.432 333.755 416.838 315.426 408.449C311.279 406.553 307.552 401.957 303.355 400.76C303.355 400.506 295.469 387.649 294.642 380.813C293.573 371.953 299.793 365.079 300.162 356.703C300.442 350.427 297.682 343.388 296.588 337.163L296.601 337.176Z" fill="#FFB0B0"/>
<path d="M375.452 423.674C375.592 423.699 375.732 423.738 375.884 423.763C380.947 424.692 386.645 424.476 391.797 424.54C422.91 424.883 461.298 417.793 487.247 399.564C492.182 396.101 496.825 392.079 500.564 387.331C501.951 385.574 502.854 383.346 504.418 381.793L505.156 382.201C505.398 386.363 501.162 392.002 498.529 394.956C478.533 417.424 435.121 426.691 406.285 428.193C397.533 428.651 388.248 428.919 379.535 428.053C369.715 427.518 359.806 426.436 350.165 424.45C335.982 421.535 311.865 414.929 303.648 402.466L303.355 400.76C307.566 401.944 311.28 406.553 315.427 408.449C333.756 416.825 355.138 423.419 375.452 423.674Z" fill="black"/>
<path d="M100.664 209.688C101.936 217.745 105.637 224.238 109.721 231.175C129.856 256.176 159.532 263.7 190.034 267.659C192.044 283.431 198.721 301.571 196.152 317.139C195.694 317.495 195.478 317.699 194.906 317.865C164.556 316.286 141.279 309.208 115.317 293.665L113.74 295.677C141.991 315.217 163.03 318.539 196.419 322.002C226.832 323.16 254.829 319.876 282.533 306.522C280.294 319.481 275.371 330.874 270.258 342.904C267.968 348.301 264.649 354.297 263.784 360.115C262.601 368.16 263.427 377.287 263.44 385.472L263.567 435.436C263.44 489.818 263.567 544.199 263.987 598.58C243.61 604.512 223.5 608.93 202.181 608.217C198.76 608.102 195.109 608.191 191.738 607.517C171.361 606.651 138.849 596.913 122.619 584.259C116.309 581.293 110.064 575.399 104.989 570.639C99.4175 567.151 94.6348 559.958 91.6711 554.204C89.6995 550.386 88.4657 546.783 88.1222 542.493C87.677 536.867 87.8297 531.087 87.6897 525.435L86.952 481.594C85.8708 440.159 85.133 398.711 84.7515 357.263L83.683 293.462C83.5049 282.374 82.5128 270.892 83.7211 259.881C85.0567 247.584 90.7807 236.369 95.3471 225.04C97.3696 220.011 99.0231 214.856 100.677 209.7L100.664 209.688Z" fill="#C0F46E"/>
<path d="M196.419 322.002C226.832 323.16 254.829 319.876 282.533 306.522C280.294 319.481 275.371 330.874 270.258 342.904C267.968 348.301 264.649 354.297 263.784 360.115C262.601 368.16 263.427 377.287 263.44 385.472L263.567 435.436C263.44 489.818 263.567 544.199 263.987 598.58C243.61 604.512 223.5 608.93 202.181 608.217C198.76 608.102 195.109 608.191 191.738 607.517C193.099 607.517 194.282 607.631 195.516 606.995C196.597 597.982 195.656 587.976 195.656 578.824L195.732 522.177L196.406 322.002H196.419Z" fill="#A3D14A"/>
<path d="M100.664 209.688C101.936 217.745 105.637 224.238 109.721 231.175C129.856 256.176 159.532 263.7 190.034 267.659C192.044 283.431 198.721 301.571 196.152 317.139C195.694 317.495 195.478 317.699 194.906 317.865C164.556 316.286 141.279 309.208 115.317 293.665L113.74 295.677C111.438 295.817 109.059 295.868 106.782 296.224C106.223 304.282 106.502 312.493 106.541 320.576L106.77 359.198L107.355 470.252L107.52 524.633C107.545 535.67 106.706 547.432 108.703 558.291C109.784 564.121 111.896 570.104 115.343 574.967C117.136 577.487 121.906 581.497 122.631 584.259C116.322 581.293 110.077 575.399 105.001 570.639C99.4302 567.151 94.6475 559.958 91.6838 554.204C89.7122 550.386 88.4783 546.783 88.1349 542.493C87.6897 536.867 87.8424 531.087 87.7024 525.435L86.9647 481.594C85.8835 440.159 85.1457 398.711 84.7641 357.263L83.6957 293.462C83.5176 282.374 82.5255 270.892 83.7338 259.881C85.0694 247.584 90.7934 236.369 95.3598 225.04C97.3823 220.011 99.0358 214.856 100.689 209.7L100.664 209.688Z" fill="#C0F46E"/>
<path d="M108.843 230.895C110.382 233.581 112.188 236.191 113.574 238.94L113.473 239.577C111.272 252.612 103.449 266.208 108.499 279.599C110.331 284.462 113.549 288.841 115.317 293.666L113.74 295.677C111.437 295.817 109.059 295.868 106.782 296.224C106.222 304.282 106.502 312.493 106.54 320.576L106.769 359.198L107.354 470.252L107.52 524.633C107.545 535.67 106.706 547.432 108.703 558.291C109.784 564.121 111.895 570.104 115.342 574.967C117.136 577.487 121.906 581.497 122.631 584.259C116.322 581.293 110.076 575.4 105.001 570.639C102.852 566.234 99.9769 562.861 99.5571 557.769C98.7558 548.196 99.2773 538.076 99.1755 528.427L98.5014 475.853L96.6951 335.101C96.4662 321.378 96.6443 307.477 95.8556 293.78C95.3723 285.289 92.1287 277.079 93.3244 268.461C93.6805 265.864 104.442 236.815 105.866 234.18C106.629 232.767 107.596 231.863 108.855 230.883L108.843 230.895Z" fill="#FDFBFC"/>
<path d="M691.489 260.785C692.01 279.536 690.916 298.617 690.586 317.406L688.601 429.301L687.457 495.444C687.304 505.106 688.169 518.778 686.541 527.918C685.04 536.319 678.184 545.879 672.409 551.939C648.877 576.647 609.484 585.138 576.692 585.711C570.726 585.813 563.845 586.131 557.968 585.176C544.358 584.043 531.855 581.433 518.715 577.742L521.361 425.711L522.149 388.222C522.315 380.622 522.811 372.717 522.137 365.156C520.101 342.242 499.94 322.727 499.953 299.483C518.588 307.757 540.122 310.749 560.347 311.551C598.608 312.977 650.607 304.893 679.723 277.613C684.773 272.891 689.098 267.315 691.476 260.772L691.489 260.785Z" fill="#59A7CE"/>
<path d="M499.953 299.483C518.588 307.757 540.122 310.749 560.347 311.551C560.767 320.118 560.105 328.889 560.042 337.481L559.622 395.707L557.956 585.176C544.345 584.043 531.842 581.433 518.702 577.742L521.348 425.711L522.137 388.222C522.302 380.622 522.798 372.717 522.124 365.155C520.089 342.242 499.928 322.727 499.94 299.483H499.953Z" fill="#94D6FF"/>
<path d="M665.795 584.374C677.23 592.305 689.2 599.586 700.953 607.033C711.269 613.563 721.444 620.335 731.798 626.815C742.585 633.562 753.409 639.939 763.852 647.246C755.012 653.662 745.281 659.148 736.199 665.271C720.185 676.066 593.368 763.494 589.59 763.697C589.476 763.697 589.361 763.697 589.247 763.697C587.199 763.519 585.405 762.17 584.083 760.693C583.179 760.604 582.582 760.337 581.818 759.891C575.382 756.2 569.2 751.821 562.929 747.836C539.398 732.93 516.375 717.081 492.271 703.117C493.848 698.394 494.662 693.608 495.336 688.694C497.333 686.988 499.266 685.219 501.136 683.373C516.629 668.11 518.028 655.393 518.041 635.14L518.168 612.596C544.943 622.525 572.52 624.689 600.72 620.043C625.486 615.956 650.836 605.353 665.82 584.387L665.795 584.374Z" fill="#B37D4E"/>
<path d="M193.913 127.479C225.509 124.908 264.775 131.514 289.935 152.137C300.213 160.551 309.257 172.364 310.465 186.023C311.381 195.94 308.252 205.805 301.79 213.379C282.978 235.656 246.484 243.294 218.959 245.522C185.849 246.476 148.185 241.97 121.295 220.661C112.175 213.43 103.933 203.348 102.661 191.395C101.491 180.46 105.688 169.818 112.595 161.48C131.878 138.248 165.192 130.025 193.913 127.479Z" fill="#B5E0F3"/>
<path d="M203.275 130.763C232.785 130.101 267.867 138.198 290.215 158.565C298.623 166.228 306.001 176.667 306.42 188.429C306.777 198.549 302.948 206.645 296.245 213.952C298.038 210.566 299.666 207.485 299.844 203.577C300.2 195.761 295.1 188.124 290.139 182.535C272.547 162.677 241.753 153.931 216.148 152.353C194.397 150.074 169.249 154.339 149.292 163.25C135.987 169.194 120.074 179.569 114.834 193.725C112.633 199.682 113.104 203.857 115.775 209.573C110.395 203.488 107.571 196.474 107.265 188.314C106.884 177.876 111.654 168.367 118.675 160.882C139.091 139.114 174.681 131.616 203.3 130.763H203.275Z" fill="black"/>
<path d="M195.262 134.162C202.474 133.475 210.017 133.768 217.242 134.264C243.865 136.097 275.308 145.072 293.37 166.037C302.325 176.425 303.228 187.067 302.261 200.166C300.201 192.834 297.682 187.169 292.543 181.415C274.787 161.557 243.979 151.538 218.043 150.011C202.436 147.821 179.807 150.469 164.658 154.874C147.143 159.965 125.595 169.678 115.521 185.565C112.888 189.715 112.621 193.788 110.687 197.327C110.026 196.054 109.81 194.603 109.695 193.177C108.843 182.841 112.354 173.153 119.032 165.337C136.7 144.639 169.173 136.135 195.262 134.162Z" fill="url(#paint0_linear_588_1821)"/>
<path d="M219.137 185.157C222.037 184.979 224.797 184.966 227.672 185.463C233.141 186.418 237.886 189.205 241.015 193.826C244.894 199.555 245.925 206.861 244.615 213.583C243.521 219.158 240.493 224.136 235.698 227.267C226.336 233.365 213.057 231.188 202.804 228.935C195.63 226.643 187.172 223.474 181.066 219.057C177.746 216.663 175.177 213.481 174.592 209.306C174.032 205.308 175.088 200.688 177.581 197.505C179.107 195.545 181.168 194.043 183.419 192.999C191.013 189.498 210.322 186.087 219.149 185.145L219.137 185.157Z" fill="black"/>
<path d="M178.28 205.512C178.649 202.304 179.158 199.822 181.804 197.645C185.849 194.323 211.008 189.104 217.076 188.327C219.951 187.958 222.902 187.805 225.789 188.149C230.444 188.696 234.693 190.657 237.593 194.476C241.434 199.529 242.77 206.683 241.816 212.883C241.256 216.473 239.794 219.095 236.817 221.246C234.006 223.27 230.279 224.581 226.819 224.658C218.45 226.453 208.299 223.792 200.502 220.826C192.666 217.847 181.944 213.634 178.28 205.538V205.512Z" fill="#FDFBFC"/>
<path d="M178.28 205.512C183.152 204.939 187.579 202.788 192.298 201.553C199.255 199.72 213.489 199.516 220.358 201.808L220.04 202.228C211.759 203.132 202.563 202.266 194.18 202.304C197.665 210.846 201.163 214.55 209.698 218.14C212.967 219.515 217.547 220.724 220.091 223.168C220.459 223.525 220.841 223.856 221.223 224.199C223.092 224.721 224.911 224.645 226.832 224.658C218.462 226.453 208.312 223.792 200.515 220.826C192.679 217.847 181.956 213.634 178.293 205.538L178.28 205.512Z" fill="#B5E0F3"/>
<path d="M380.908 236.28L381.379 236.242C412.873 233.963 455.79 243.587 480.123 264.769C488.137 271.745 495.133 281.496 495.743 292.431C496.328 302.869 491.647 312.556 484.842 320.22C464.974 342.599 430.732 350.555 402.074 352.12C369.689 354.45 327.943 345.259 302.884 323.542C294.349 316.146 289.02 308.572 288.282 297.128C287.532 285.48 291.576 276.239 299.285 267.608C318.797 245.776 352.797 237.948 380.908 236.28Z" fill="#B5E0F3"/>
<path d="M305.797 321.786C301.867 318.947 298.636 315.663 296.232 311.411C291.971 303.849 291.805 294.226 294.197 286.028C298.102 272.662 309.55 263.114 321.277 256.635C354.794 238.113 398.55 236.064 434.917 246.578C453.869 252.065 476.345 262.72 486.114 280.707C490.668 289.096 490.884 297.192 488.149 306.204C487.399 308.458 486.394 310.507 485.313 312.62C485.16 311.029 484.893 309.374 484.918 307.783C483.786 302.742 481.751 298.223 478.889 293.92C466.932 275.971 444.317 266.895 423.901 262.821C391.923 256.444 348.778 259.855 321.137 278.543C312.348 284.475 303.037 293.666 301.04 304.55C299.793 311.36 302.007 316.248 305.797 321.798V321.786Z" fill="black"/>
<path d="M380.908 244.656C390.372 244.338 399.657 244.185 409.095 245.204C430.286 247.482 458.257 256.202 474.017 270.994C481.039 277.601 488.009 288.154 488.264 298.121C488.327 300.82 488.035 303.518 488.175 306.217C487.424 308.47 486.419 310.52 485.338 312.633C485.185 311.042 484.918 309.387 484.944 307.796C485.249 305.542 485.236 303.264 484.74 301.036C482.349 290.114 471.626 280.885 462.671 275.131C433.734 256.533 391.847 253.007 358.801 260.148C359.03 259.219 359.271 258.29 359.678 257.424C362.706 250.868 368.646 250.015 374.624 247.749L374.128 247.482C372.093 247.52 367.043 249.239 365.352 250.321C365.199 250.423 365.059 250.525 364.919 250.626C366.267 243.078 376.252 248.106 380.933 244.656H380.908Z" fill="#4889B2"/>
<path d="M298.051 310.838C296.08 306.192 294.833 301.622 294.91 296.53C295.049 286.613 300.163 278.263 307.108 271.516C325.145 254.038 356.092 244.376 380.896 244.643C376.215 248.093 366.23 243.052 364.882 250.614C365.034 250.512 365.174 250.41 365.314 250.308C367.006 249.226 372.068 247.508 374.091 247.469L374.587 247.737C368.621 250.015 362.681 250.855 359.641 257.411C359.234 258.277 358.992 259.206 358.763 260.135C341.808 264.043 325.208 269.632 312.094 281.623C303.076 289.872 298.586 298.617 298.039 310.825L298.051 310.838Z" fill="#255472"/>
<path d="M402.023 286.83C404.694 286.346 408.421 286.359 411.118 286.651C415.811 287.161 420.251 288.956 423.214 292.787C427.946 298.885 432.563 312.735 431.457 320.372C430.872 324.408 428.569 327.896 425.313 330.276C417.579 335.966 403.269 336.59 394.149 335.19C386.441 333.573 378.987 330.925 372.704 326.037C367.972 322.358 364.448 317.343 363.774 311.283C363.253 306.573 364.423 301.825 367.438 298.121C374.739 289.159 391.275 288.039 402.023 286.842V286.83Z" fill="black"/>
<path d="M403.473 289.694C405.928 289.49 408.345 289.337 410.812 289.579C414.755 289.974 417.846 291.476 420.365 294.595C424.639 299.89 429.6 311.474 428.633 318.399C428.226 321.353 426.61 323.809 424.219 325.553C416.651 331.078 403.778 329.296 395.091 328.023C388.107 326.508 380.997 324.688 375.095 320.487C371.317 317.801 367.641 313.944 366.98 309.17C366.522 305.899 367.628 302.64 369.638 300.068C376.341 291.527 393.475 290.89 403.473 289.694Z" fill="#FDFBFC"/>
<path d="M507.471 229.202C492.677 222.939 477.134 214.118 469.298 199.44C464.655 190.644 463.727 180.333 466.754 170.849C471.639 155.23 486.559 144.193 500.564 137.001C534.793 119.434 579.452 118.326 615.717 130.114C636.475 136.861 657.578 147.617 667.792 168.036C671.62 175.699 673.325 185.285 670.438 193.559C665.324 208.224 649.31 219.4 635.814 225.867C603.124 241.537 556.442 243.447 522.366 231.29C506.478 225.612 485.058 213.252 477.681 197.658C477.884 196.309 478.151 194.972 478.482 193.648C481.942 179.48 492.194 169.233 504.38 161.913C534.03 144.104 573.143 143.531 605.871 151.895C624.163 156.566 646.143 165.108 656.089 182.217C660.529 189.867 660.389 196.461 658.188 204.761C659.142 203.386 660.084 202.012 660.974 200.599C665.439 193.432 667.067 185.323 665.159 177.049C661.813 162.549 649.959 151.971 637.824 144.384C609.153 126.448 561.606 123.571 529.272 131.094C509.76 135.639 486.763 146.383 476.014 163.988C471.155 171.944 469.616 181.275 471.906 190.338C476.701 209.28 492.944 218.98 508.463 228.26L507.458 229.189L507.471 229.202Z" fill="#B5E0F3"/>
<path d="M559.254 178.462C567.051 177.876 597.222 183.413 603.137 188.06C605.872 190.211 607.182 193.228 607.462 196.652C608.009 203.603 605.554 211.788 601 217.083C596.726 222.048 591.079 224.607 584.617 225.09C576.794 225.09 569.124 223.117 561.416 221.946C557.167 221.297 552.703 221.106 548.531 220.075C545.987 219.451 543.252 218.509 541.14 216.905C537.782 214.359 535.925 210.184 535.429 206.072C534.666 199.631 536.549 191.242 540.632 186.112C545.109 180.486 552.525 179.149 559.241 178.462H559.254Z" fill="black"/>
<path d="M555.018 180.778C564.253 179.798 588.535 184.406 597.286 188.2C599.627 189.218 601.916 190.466 602.807 193.012C604.053 196.563 602.921 201.108 601.331 204.405C598.227 210.859 594.373 214.245 587.645 216.613C578.931 218.433 558.516 215.2 549.587 212.641C544.702 211.241 541.535 208.835 539.067 204.392C538.826 199.007 539.423 191.42 542.654 186.889C545.643 182.688 550.248 181.619 555.018 180.791V180.778Z" fill="#FDFBFC"/>
<path d="M293.484 80.863C293.535 80.7102 293.573 80.5702 293.624 80.4174C298.865 64.2889 310.898 53.405 325.704 45.8181C355.392 30.6188 396.503 30.2878 427.793 40.4207C448.769 47.2056 465.343 58.9297 475.569 78.9153C468.624 95.2603 454.162 105.266 438.198 111.733C426.483 116.468 414.425 118.199 402.188 120.834C401.285 121.025 399.772 121.331 399.186 122.056C399.072 122.196 398.945 122.324 398.868 122.476C398.779 122.655 398.767 122.871 398.703 123.062C395.968 124.068 390.702 123.584 387.713 123.533C366.649 123.151 345.47 119.421 326.149 110.778C312.284 104.566 299.119 95.5912 293.497 80.863H293.484Z" fill="#B5E0F3"/>
<path d="M353.026 81.4995C353.268 77.0313 354.794 74.0144 358.114 71.0102C366.649 63.296 386.289 58.1277 397.406 58.8788C404.173 59.337 411.067 63.3723 415.456 68.4388C418.979 72.4868 420.607 77.4259 420.2 82.7724C419.653 89.9902 415.557 95.8713 410.139 100.429C402.443 106.895 392.369 108.843 382.549 107.85C381.748 107.774 380.959 107.646 380.183 107.468C380.056 107.468 379.942 107.468 379.814 107.455C372.17 106.959 364.665 102.503 359.704 96.8133C356.016 92.5743 352.619 87.3297 353.014 81.4995H353.026Z" fill="#FDFBFC"/>
<path d="M353.026 81.4994C354.476 80.7484 354.502 79.4627 355.634 78.6861C355.99 78.4443 356.194 78.2661 356.473 77.9224C357.198 84.4018 363.228 90.6393 368.112 94.4964C374.459 99.512 380.641 100.263 388.451 100.632L388.807 101.243C397.673 100.696 409.719 96.5587 415.723 89.7101C416.956 88.2971 418.025 86.6931 419.157 85.2038C416.422 92.9943 410.749 99.8811 403.194 103.433C398.856 105.469 393.883 106.641 389.113 106.984C386.67 107.163 382.091 106.246 380.196 107.468C380.069 107.468 379.954 107.468 379.827 107.455C372.183 106.959 364.678 102.503 359.717 96.8133C356.028 92.5743 352.632 87.3296 353.026 81.4994Z" fill="#255472"/>
<path d="M353.026 81.4995C353.268 77.0313 354.794 74.0144 358.114 71.0102C366.649 63.296 386.289 58.1277 397.406 58.8788C404.173 59.337 411.067 63.3723 415.456 68.4388C418.979 72.4868 420.607 77.4259 420.2 82.7724C419.653 89.9902 415.557 95.8713 410.139 100.429C402.443 106.895 392.369 108.843 382.549 107.85C381.748 107.774 380.959 107.646 380.183 107.468C382.091 106.246 386.67 107.15 389.1 106.984C393.87 106.641 398.843 105.47 403.181 103.433C410.736 99.8812 416.41 92.9944 419.144 85.2038C418.025 86.7059 416.944 88.2971 415.71 89.7101C409.719 96.5714 397.66 100.696 388.795 101.243L388.439 100.632C391.428 100.238 394.29 99.6011 397.177 98.7482C404.16 96.6733 412.772 93.3381 416.32 86.4131C417.987 83.1543 418.343 79.3227 417.084 75.8729C415.074 70.3737 408.231 64.8999 403.015 62.634C393.437 58.4587 374.968 65.4346 365.555 69.3553C361.332 71.112 358.229 73.607 356.461 77.9224C356.181 78.2661 355.977 78.4316 355.621 78.6862C354.489 79.4627 354.451 80.7611 353.014 81.4995H353.026Z" fill="black"/>
<path d="M673.974 206.289C676.53 214.003 679.723 221.552 682.929 229.024C685.536 235.096 689.034 241.525 690.103 248.068C690.866 252.727 690.484 257.157 688.335 261.396C679.405 279.077 651.421 292.456 633.461 298.197C612.537 304.88 591.524 307.554 569.62 307.706C566.542 307.732 561.632 308.292 558.719 307.388L559.953 306.828C562.204 298.694 552.283 267.595 548.467 259.601C575.993 262.758 601.203 261.536 627.19 251.352C636.132 247.851 644.883 243.561 652.439 237.566C662.526 229.559 670.896 218.993 673.961 206.289H673.974Z" fill="#59A7CE"/>
<path d="M363.393 143.9C372.551 144.791 381.696 145.733 390.906 145.619C417.643 145.288 447.369 137.905 468.306 120.516C476.549 113.667 483.824 104.68 485.936 93.9617C489.993 106.742 493.822 119.803 498.796 132.253C483.646 141.329 466.907 154.199 462.29 172.135C461.857 173.828 461.641 175.521 461.488 177.252C437.715 191.459 407.683 196.029 380.361 195.379C375.973 195.277 370.656 195.545 366.394 194.717C367.323 194.616 368.099 194.437 368.989 194.183C369.027 194.043 369.078 193.903 369.117 193.75C370.007 189.956 369.307 185.017 369.142 181.109C368.671 170.225 368.913 153.422 363.405 143.888L363.393 143.9Z" fill="#DD9731"/>
<path d="M314.015 186.379V185.31C317.742 185.425 324.687 189.053 328.541 190.313C333.183 191.777 337.877 193.075 342.609 194.183C372.653 201.604 404.059 201.413 434.014 193.623C443.274 191.191 452.458 188.149 460.776 183.299C461.323 189.689 462.532 195.583 464.923 201.579C454.48 212.093 446.746 227.636 446.39 242.657C406.31 228.107 367.82 230.017 327.956 243.778C325.513 228.566 320.934 214.945 314.93 200.789C315.248 196.881 316.075 189.791 314.015 186.379Z" fill="#DD9731"/>
<path d="M190.034 267.646C198.111 268.168 206.15 268.69 214.253 268.473C242.351 267.722 277.051 261.256 298.878 242.123C306.51 235.44 313.862 225.702 316.241 215.683C319.828 225.74 321.901 236.28 322.372 246.948C306.535 254.993 291.144 265.928 285.357 283.647C283.373 289.719 282.864 296.008 282.889 302.347C255.707 313.384 237.479 317.941 207.728 318.158C204.115 318.183 198.175 318.934 194.893 317.852C195.453 317.687 195.682 317.496 196.14 317.126C198.709 301.558 192.031 283.418 190.021 267.646H190.034Z" fill="#A3D14A"/>
<path d="M282.024 89.2263C283.181 95.2857 285.509 99.8302 288.193 105.317L289.338 107.188C309.091 128.994 334.798 139.267 363.38 143.913C368.875 153.435 368.646 170.251 369.117 181.135C369.282 185.043 369.982 189.982 369.091 193.775C369.053 193.915 369.002 194.056 368.964 194.208C368.074 194.476 367.298 194.654 366.369 194.743C347.747 192.413 331.046 189.015 313.696 181.746C309.486 166.368 301.167 155.79 288.74 146.192C285.089 143.748 281.324 141.036 277.33 139.178C273.934 137.714 270.563 135.703 267.269 133.984C270.894 127.25 272.484 118.683 274.684 111.376C276.936 103.929 279.505 96.5841 282.011 89.2263H282.024Z" fill="#FFC871"/>
<path d="M282.024 89.2263C283.181 95.2857 285.509 99.8302 288.193 105.317C283.245 115.513 280.942 128.281 277.343 139.178C273.946 137.714 270.576 135.703 267.281 133.984C270.906 127.25 272.496 118.683 274.697 111.376C276.948 103.929 279.518 96.5841 282.024 89.2263Z" fill="#FFC871"/>
<path d="M288.193 105.317L289.338 107.188C291.042 117.754 290.8 126.97 289.923 137.612C289.694 140.425 289.732 143.557 288.74 146.192C285.089 143.748 281.324 141.036 277.33 139.178C280.93 128.294 283.232 115.526 288.18 105.317H288.193Z" fill="#FDFBFC"/>
<path d="M451.707 244.592C452.318 230.628 457.304 217.224 465.953 206.25C467.289 210.018 468.993 213.545 470.736 217.134C485.148 239.31 508.171 251.326 533.445 256.673C538.393 257.717 543.583 258.302 548.454 259.601C552.27 267.595 562.192 298.694 559.94 306.828L558.707 307.388C538.329 305.988 518.079 302.793 499.254 294.556C499.165 290.636 498.834 287.033 497.588 283.291C491.609 265.393 472.479 254.853 456.604 246.947L451.694 244.592H451.707Z" fill="#94D6FF"/>
<path d="M451.707 244.592C452.318 230.628 457.304 217.224 465.953 206.25C467.289 210.018 468.993 213.545 470.736 217.134C463.346 225.816 460.382 236.471 456.604 246.947L451.694 244.592H451.707Z" fill="#59A7CE"/>
<path d="M305.289 106.908C294.604 95.7311 283.08 82.5431 283.499 66.0709C283.805 54.245 289.529 43.9976 297.987 36.0033C320.883 14.3628 356.219 7.88337 386.696 8.90175C415.939 9.88194 451.109 18.64 471.614 40.9424C478.737 48.6821 483.901 58.3694 483.341 69.1388C482.731 80.9265 476.307 90.3846 467.721 98.0225C449.863 113.922 422.197 122.056 398.691 123.036C398.741 122.845 398.767 122.629 398.856 122.451C398.932 122.285 399.072 122.171 399.174 122.031C399.759 121.305 401.26 121 402.176 120.809C414.412 118.174 426.483 116.442 438.186 111.707C454.162 105.253 468.612 95.2347 475.557 78.8897C478.101 68.5787 478.05 59.426 472.44 50.0951C461.069 31.2169 435.883 21.275 415.341 16.3232C383.872 8.72354 342.978 11.1931 314.867 28.4928C303.381 35.5705 291.856 47.18 288.689 60.7244C286.323 70.8445 288.956 81.1301 294.439 89.7736C306.497 108.779 330.69 118.683 351.894 123.291C358.19 124.653 364.563 125.506 370.961 126.257C373.976 128.306 381.035 126.817 381.43 128.688C382.066 131.693 381.76 135.282 381.989 138.388L381.506 139.038L381.71 139.547C377.308 141.38 372.411 137.739 368.15 139.572C360.366 139.763 346.018 135.397 338.386 132.711C334.099 131.998 329.469 129.974 325.462 128.256C313.137 122.96 292.988 110.65 287.939 98.0479C287.939 97.9843 287.951 97.9206 287.939 97.8443C287.862 96.7113 287.799 95.9603 288.015 94.84C289.287 94.6236 290.177 95.2219 291.373 95.6929C295.253 99.8174 299.933 104.769 305.25 106.908H305.289Z" fill="#C9E7F4"/>
<path d="M564.342 130.254C567.102 129.847 570.104 129.91 572.902 129.923C598.99 129.999 631.388 139.852 649.946 158.769C658.43 167.412 662.679 177.85 662.564 189.931C659.563 181.669 655.543 175.394 648.954 169.512C625.053 148.139 582.62 143.149 551.787 144.944C535.913 146.217 521.043 149.781 506.81 157.101C491.66 164.892 481.128 175.177 475.888 191.573C475.773 190.657 475.671 189.727 475.595 188.811C474.628 178.232 477.274 169.869 484.105 161.747C495.133 148.623 512.941 136.084 530.367 134.633C526.385 138.134 522.531 141.813 519.161 145.924C524.096 143.62 528.726 140.705 533.636 138.35C543.163 133.78 553.911 131.463 564.342 130.254Z" fill="url(#paint1_linear_588_1821)"/>
<path d="M355.761 17.5835C363.278 16.4633 370.783 15.4067 378.402 15.2285C404.872 14.6429 434.789 21.4533 456.362 37.3909C465.024 43.7813 472.326 52.9594 473.941 63.8687C474.234 65.8546 474.323 67.9041 474.399 69.9026C471.346 65.3327 467.721 61.9466 463.638 58.3186C449.468 45.7162 432.665 38.0656 414.132 34.374C390.117 29.384 365.275 30.1987 341.629 36.7163C342.252 32.7955 353.115 22.8663 355.761 17.5708V17.5835Z" fill="#4C7693"/>
<path d="M269.24 238.495C279.709 234.269 288.803 229.355 297.453 222.061C300.137 223.779 302.248 226.363 304.411 228.693L302.146 230.832L302.223 231.366L302.846 231.493C296.74 238.482 284.033 248.411 274.951 251.072C265.857 255.616 255.681 258.506 245.785 260.683C220.383 265.444 195.974 265.1 170.661 260.11C171.92 259.792 172.811 259.295 174.172 259.181C175.838 259.372 177.097 259.944 178.675 260.454C180.087 260.925 180.379 261.065 181.689 260.352C183.05 257.971 182.783 254.649 182.478 252.001C182.198 249.621 181.88 248.844 179.985 247.367C202.308 249.799 222.571 249.366 244.742 246.069C253.149 243.969 261.176 241.665 269.253 238.495H269.24Z" fill="url(#paint2_linear_588_1821)"/>
<path d="M655.95 574.229C644.68 589.084 617.332 600.732 598.99 603.138C598.52 603.201 598.049 603.252 597.578 603.29C582.912 608.051 546.61 605.404 531.766 600.159C527.199 599.281 522.709 596.709 518.562 594.672C518.562 591.821 518.69 588.957 518.766 586.105C523.498 587.697 528.433 588.6 533.203 590.09C554.56 593.412 575.344 594.456 596.891 592.063C602.056 590.892 607.398 590.472 612.588 589.415C626.847 586.513 643.268 581.497 655.95 574.216V574.229Z" fill="url(#paint3_linear_588_1821)"/>
<path d="M655.95 574.229C644.68 589.084 617.332 600.732 598.99 603.138C598.52 603.201 598.049 603.252 597.578 603.29C595.925 601.992 586.69 604.576 583.892 604.398C582.734 604.322 582.671 604.207 581.997 603.367C581.755 601.254 580.33 597.46 581.055 595.525C582.187 592.521 593.305 594.023 596.612 592.228C596.713 592.177 596.802 592.114 596.892 592.063C602.056 590.892 607.398 590.472 612.588 589.415C626.847 586.513 643.268 581.497 655.95 574.216V574.229Z" fill="#4889B2"/>
<path d="M518.766 586.105C523.498 587.696 528.433 588.6 533.203 590.09C533.407 590.23 533.597 590.382 533.801 590.522C534.386 590.93 534.869 591.133 535.531 591.363C536.396 591.668 537.057 592.025 537.413 592.916C538.266 595.041 538.902 597.867 538.952 600.159L538.38 600.935C536.04 600.948 534.221 599.891 531.753 600.172C527.187 599.293 522.696 596.722 518.55 594.685C518.55 591.834 518.677 588.969 518.753 586.118L518.766 586.105Z" fill="#B5E0F3"/>
<path d="M636.335 229.495C637.633 233.429 633.194 240.023 632.545 244.083C625.066 247.902 616.442 250.792 608.25 252.65C593.457 256.52 578.816 258.124 563.514 257.348C561.059 257.22 558.07 257.348 555.691 256.775C556.874 251.798 558.045 246.922 559.953 242.174C582.39 242.874 598.239 241.792 620.016 235.809C625.32 233.518 630.955 231.646 636.335 229.508V229.495Z" fill="#80B3D1"/>
<path d="M636.335 229.495C637.633 233.429 633.194 240.023 632.545 244.083C625.066 247.902 616.442 250.792 608.25 252.65C610.947 248.793 619.291 239.692 620.016 235.796C625.32 233.505 630.955 231.634 636.335 229.495Z" fill="#4C7693"/>
<path d="M292.404 79.3735C291.831 77.3877 291.272 75.3382 290.941 73.3015C289.376 63.7033 292.913 54.767 298.535 47.1292C311.229 29.8549 335.193 20.7659 355.774 17.5835C353.128 22.8791 342.266 32.821 341.642 36.729C333.909 40.1406 326.302 42.05 318.887 46.4799C305.543 54.4615 296.283 64.1615 292.404 79.3735Z" fill="#255472"/>
<path d="M444.075 348.441C442.688 354.119 440.653 359.784 437.346 364.634C414.667 370.222 392.089 371.877 368.888 368.567C371.648 366.785 377.906 363.781 378.58 360.178C378.898 358.46 378.3 357.301 379.305 355.646C379.356 355.557 379.42 355.468 379.483 355.379C401.349 356.156 423.074 355.29 444.075 348.441Z" fill="url(#paint4_linear_588_1821)"/>
<path d="M124.527 227.293C129.259 230.399 134.448 232.423 139.244 235.325C152.549 241.117 165.637 245 179.96 247.367C181.855 248.844 182.173 249.608 182.453 252.001C182.758 254.649 183.026 257.971 181.665 260.352C180.367 261.077 180.075 260.925 178.65 260.454C177.085 259.932 175.813 259.372 174.147 259.181C172.786 259.295 171.896 259.792 170.636 260.11C152.485 255.489 129.602 248.908 117.188 233.772C117.315 233.772 117.442 233.759 117.569 233.772C119.401 233.963 122.123 237.502 123.408 238.864C123.471 235.032 124.26 231.163 124.514 227.318L124.527 227.293Z" fill="#FDFBFC"/>
<path d="M124.527 227.293C129.259 230.399 134.448 232.423 139.244 235.325C139.307 238.469 144.764 243.409 147.003 245.56C154.558 252.841 158.781 255.756 168.881 257.946C170.306 258.251 172.99 258.43 174.16 259.168C172.799 259.282 171.908 259.779 170.649 260.097C152.498 255.476 129.615 248.895 117.2 233.759C117.327 233.759 117.455 233.747 117.582 233.759C119.413 233.95 122.136 237.489 123.42 238.851C123.484 235.02 124.272 231.15 124.527 227.305V227.293Z" fill="url(#paint5_linear_588_1821)"/>
<path d="M417.567 124.055C422.159 122.744 426.865 122.222 431.444 120.707C431.241 125.519 431.126 130.267 431.343 135.091C426.827 136.53 422.286 137.688 417.669 138.77C403.715 140.972 381.85 143.302 368.15 139.572C372.412 137.739 377.296 141.393 381.71 139.547L381.506 139.038L381.99 138.388C381.761 135.282 382.066 131.693 381.43 128.688C381.036 126.817 373.976 128.306 370.962 126.257C387.027 127.263 401.667 126.613 417.567 124.055Z" fill="#80B3D1"/>
<path d="M417.566 124.055C422.158 122.744 426.865 122.222 431.444 120.707C431.24 125.519 431.126 130.267 431.342 135.091C426.826 136.53 422.286 137.688 417.668 138.77C418.101 134.2 418.966 129.096 418.546 124.551L417.566 124.055Z" fill="#4889B2"/>
<path d="M517.558 232.728L523.599 234.943C535.365 238.991 547.589 241.054 559.953 242.174C558.058 246.935 556.875 251.81 555.692 256.775C542.12 255.82 529.082 252.765 516.26 248.271C515.014 247.889 513.754 247.291 512.546 246.807C512.508 244.096 512.838 241.244 513.564 238.635C514.25 236.153 515.268 234.065 517.558 232.728Z" fill="#FDFBFC"/>
<path d="M517.558 232.728L523.599 234.943C518.69 238.864 517.481 242.365 516.273 248.271C515.026 247.889 513.767 247.291 512.559 246.807C512.52 244.096 512.851 241.244 513.576 238.635C514.263 236.153 515.281 234.065 517.57 232.728H517.558Z" fill="#80B3D1"/>
<path d="M323.555 340.702C344.746 349.091 356.677 352.909 379.484 355.392C379.42 355.481 379.357 355.57 379.306 355.659C378.288 357.314 378.899 358.472 378.581 360.191C377.919 363.781 371.661 366.798 368.888 368.58C358.28 367.027 347.226 364.824 337.343 360.573C334.608 356.283 323.86 345.284 323.555 340.702Z" fill="#FDFBFC"/>
<path d="M431.457 120.707C452.317 114.699 470.074 104.718 482.947 86.7568C479.703 102.351 471.575 113.68 458.257 122.425C450.498 127.517 440.386 132.838 431.355 135.092C431.139 130.267 431.253 125.532 431.457 120.707Z" fill="#255472"/>
<path d="M79.3707 480.487C79.3707 488.596 79.5106 496.704 79.8159 504.801C80.0321 509.6 80.2865 514.386 80.1847 519.185C76.0889 516.754 72.0186 514.246 67.9991 511.687C61.7282 507.436 55.3047 503.426 48.7412 499.658L79.3834 480.487H79.3707Z" fill="#B37D4E"/>
<path d="M67.999 511.687C71.7132 509.256 75.6564 506.328 79.8158 504.801C80.032 509.6 80.2864 514.386 80.1847 519.185C76.0889 516.754 72.0185 514.246 67.999 511.687Z" fill="#F1BD7B"/>
<path d="M512.546 246.795C496.939 240.735 480.53 228.248 472.848 213.265C471.944 211.508 471.41 210.044 472.008 208.109C474.247 209.395 476.345 212.208 478.203 214.054C483.812 219.63 498.86 230.017 507.039 229.992L507.458 229.202L508.463 228.273C511.427 230.004 514.391 231.417 517.545 232.728C515.268 234.065 514.238 236.153 513.551 238.635C512.826 241.245 512.483 244.096 512.534 246.807L512.546 246.795Z" fill="url(#paint6_linear_588_1821)"/>
<path d="M288.396 310.52C292.009 316.783 295.838 321.531 301.167 326.381C308.189 332.122 315.871 336.004 323.541 340.702C323.847 345.284 334.595 356.283 337.33 360.573C321.71 355.354 306.675 344.979 297.377 331.333C293.128 325.388 290.088 317.572 288.396 310.52Z" fill="url(#paint7_linear_588_1821)"/>
<path d="M466.398 338.843C477.897 331.727 486.534 323.657 494.548 312.658C494.23 325.21 491.457 333.229 482.057 342.102C476.307 347.525 469.349 351.598 462.354 355.201C462.811 349.651 464.732 344.151 466.398 338.856V338.843Z" fill="#255472"/>
<path d="M636.335 229.495C649.017 223.83 658.977 216.014 668.224 205.627C661.991 223.945 652.693 234.192 635.331 242.772C634.415 243.23 633.486 243.663 632.545 244.07C633.194 240.01 637.633 233.416 636.335 229.482V229.495Z" fill="#255472"/>
<path d="M466.399 338.843C464.733 344.139 462.799 349.638 462.354 355.188C454.62 359.427 445.894 362.457 437.359 364.634C440.667 359.784 442.702 354.119 444.088 348.441C451.898 345.946 459.187 342.7 466.399 338.843Z" fill="#4C7693"/>
<path d="M114.121 587.594C123.394 594.278 132.959 598.364 143.097 603.405L143.415 603.723C144.216 604.5 144.763 605.06 145.87 605.378L144.84 607.147L144.318 605.734L143.695 605.543C143.339 607.707 144.089 609.961 143.237 612.01L141.952 612.621C131.318 607.173 119.311 598.644 114.108 587.607L114.121 587.594Z" fill="#B5E0F3"/>
<path d="M314.014 186.379C316.075 189.791 315.248 196.881 314.93 200.789C312.475 212.679 311.14 222.099 302.834 231.493L302.21 231.366L302.134 230.832L304.398 228.693C302.236 226.363 300.137 223.779 297.44 222.061C297.758 221.781 298.089 221.501 298.394 221.208C310.974 209.153 313.328 203.399 314.014 186.379Z" fill="#253643"/>
<path d="M103.094 205.69C109.021 215.072 115.318 221.246 124.527 227.306C124.26 231.15 123.484 235.032 123.42 238.851C122.135 237.489 119.413 233.963 117.582 233.759C117.454 233.747 117.327 233.759 117.2 233.759C110.827 229.253 104.989 213.265 103.094 205.678V205.69Z" fill="#80B3D1"/>
<path d="M398.576 619.903C358.738 623.543 323.478 594.176 319.828 554.306C316.177 514.437 345.496 479.15 385.348 475.471C425.212 471.792 460.509 501.172 464.16 541.067C467.811 580.962 438.453 616.275 398.576 619.915V619.903ZM457.813 571.186C463.181 556.254 463.435 539.947 458.525 524.85C452.776 507.41 440.285 492.987 423.838 484.828C407.188 476.299 387.815 474.835 370.084 480.767C352.454 486.597 337.89 499.212 329.584 515.824C326.696 521.807 324.687 527.663 323.262 534.155C320.311 554.535 323.478 573.655 336.02 590.446C347.124 605.123 363.559 614.849 381.761 617.522C400.319 620.17 419.17 615.256 434.09 603.901C442.155 597.766 448.794 589.962 453.564 581.013C455.205 577.844 456.617 574.559 457.813 571.186Z" fill="black"/>
<path d="M329.571 515.825C337.877 499.212 352.454 486.597 370.071 480.767C387.803 474.848 407.175 476.311 423.826 484.828C440.272 492.987 452.763 507.397 458.513 524.85C463.423 539.947 463.168 556.241 457.8 571.186C456.834 567.8 456.312 564.35 455.129 561.002C452.293 552.944 446.976 547.534 439.28 543.944C424.245 536.943 408.295 541.742 394.405 549.291C387.091 553.263 380.349 557.896 372.45 560.748C364.513 563.612 354.401 563.968 346.692 560.226C333.629 553.886 330.042 538.929 329.826 525.626C329.788 523.17 330.589 518.409 329.749 516.27C329.686 516.117 329.622 515.977 329.559 515.837L329.571 515.825Z" fill="#59A7CE"/>
<path d="M329.571 515.825C329.634 515.965 329.698 516.117 329.762 516.257C330.601 518.409 329.8 523.157 329.838 525.614C330.054 538.903 333.641 553.874 346.704 560.213C354.425 563.956 364.538 563.599 372.462 560.735C380.361 557.883 387.115 553.25 394.417 549.278C408.307 541.729 424.257 536.93 439.292 543.932C446.988 547.521 452.292 552.932 455.141 560.99C456.324 564.337 456.846 567.787 457.812 571.173C456.63 574.547 455.218 577.831 453.564 581.001C451.402 578.175 451.402 572.077 450.473 568.538C448.463 560.875 444.253 554.51 437.295 550.551C432.042 547.56 426.216 546.452 420.213 546.885C399.963 548.323 388.044 563.281 369.829 568.22C360.518 570.74 349.49 569.939 341.095 564.999C332.573 559.997 327.523 551.022 324.953 541.717C324.267 539.222 323.898 536.65 323.262 534.143C324.686 527.65 326.696 521.795 329.583 515.812L329.571 515.825Z" fill="#FEFEFE"/>
<path d="M453.564 581.013C448.794 589.962 442.155 597.766 434.09 603.901C419.17 615.256 400.319 620.17 381.761 617.522C363.559 614.862 347.125 605.136 336.02 590.446C323.478 573.656 320.311 554.536 323.262 534.155C323.898 536.663 324.267 539.234 324.954 541.729C327.523 551.035 332.573 560.009 341.095 565.012C349.503 569.951 360.519 570.753 369.83 568.233C388.057 563.294 399.976 548.336 420.213 546.898C426.217 546.465 432.03 547.572 437.296 550.564C444.253 554.523 448.476 560.888 450.473 568.551C451.402 572.09 451.402 578.187 453.564 581.013Z" fill="#94D6FF"/>
<path d="M189.36 505.946C153.554 509.587 121.868 480.219 118.587 440.35C115.305 400.481 141.66 365.194 177.467 361.515C213.299 357.836 245.009 387.216 248.304 427.111C251.586 467.006 225.192 502.318 189.36 505.959V505.946ZM242.593 457.242C247.413 442.31 247.642 426.004 243.229 410.906C238.064 393.466 226.833 379.044 212.052 370.884C197.094 362.355 179.68 360.891 163.742 366.823C147.906 372.653 134.804 385.269 127.338 401.881C124.743 407.864 122.937 413.719 121.665 420.212C119.006 440.592 121.856 459.712 133.125 476.502C143.111 491.18 157.878 500.905 174.236 503.579C190.925 506.226 207.855 501.313 221.274 489.958C228.524 483.822 234.49 476.019 238.777 467.07C240.252 463.9 241.524 460.616 242.593 457.242Z" fill="black"/>
<path d="M127.338 401.881C134.804 385.269 147.906 372.653 163.742 366.823C179.68 360.904 197.094 362.368 212.052 370.884C226.833 379.044 238.064 393.454 243.229 410.906C247.642 426.004 247.413 442.298 242.593 457.242C241.728 453.856 241.257 450.407 240.201 447.059C237.645 439.001 232.875 433.591 225.968 430.001C212.459 423 198.124 427.799 185.633 435.347C179.07 439.319 173.002 443.953 165.892 446.804C158.756 449.668 149.674 450.025 142.742 446.282C131.001 439.943 127.783 424.985 127.58 411.683C127.541 409.226 128.266 404.465 127.516 402.326C127.465 402.174 127.401 402.034 127.351 401.894L127.338 401.881Z" fill="#FCB247"/>
<path d="M127.338 401.881C127.389 402.021 127.453 402.174 127.504 402.314C128.254 404.465 127.529 409.213 127.567 411.67C127.758 424.96 130.989 439.93 142.729 446.269C149.662 450.012 158.756 449.656 165.879 446.791C172.977 443.94 179.044 439.306 185.621 435.335C198.112 427.786 212.434 422.987 225.955 429.988C232.875 433.578 237.645 438.988 240.189 447.046C241.257 450.394 241.715 453.844 242.58 457.23C241.512 460.603 240.24 463.887 238.764 467.057C236.818 464.231 236.818 458.134 235.979 454.595C234.172 446.931 230.382 440.567 224.136 436.608C219.417 433.616 214.177 432.509 208.784 432.941C190.594 434.38 179.871 449.337 163.501 454.276C155.131 456.797 145.222 455.995 137.667 451.056C130.009 446.053 125.468 437.079 123.153 427.773C122.53 425.278 122.199 422.707 121.627 420.199C122.899 413.707 124.705 407.851 127.3 401.868L127.338 401.881Z" fill="#FEFEFE"/>
<path d="M238.777 467.07C234.49 476.019 228.525 483.822 221.274 489.958C207.868 501.313 190.925 506.226 174.236 503.579C157.866 500.918 143.111 491.193 133.126 476.502C121.856 459.712 119.007 440.592 121.665 420.212C122.238 422.719 122.568 425.291 123.192 427.786C125.507 437.091 130.048 446.066 137.705 451.069C145.261 456.008 155.169 456.81 163.539 454.289C179.909 449.35 190.632 434.393 208.822 432.954C214.215 432.521 219.443 433.629 224.175 436.62C230.42 440.579 234.223 446.944 236.017 454.607C236.856 458.146 236.856 464.244 238.802 467.07H238.777Z" fill="#FFC871"/>
<path d="M618.834 505.946C583.027 509.587 551.342 480.219 548.06 440.35C544.779 400.481 571.134 365.194 606.941 361.515C642.772 357.836 674.483 387.216 677.778 427.111C681.059 467.006 654.665 502.318 618.834 505.959V505.946ZM672.066 457.242C676.887 442.31 677.116 426.004 672.702 410.906C667.538 393.466 656.306 379.044 641.526 370.884C626.567 362.355 609.154 360.891 593.216 366.823C577.38 372.653 564.278 385.269 556.812 401.881C554.217 407.864 552.41 413.719 551.138 420.212C548.48 440.592 551.329 459.712 562.599 476.502C572.584 491.18 587.352 500.905 603.71 503.579C620.398 506.226 637.328 501.313 650.748 489.958C657.998 483.822 663.964 476.019 668.25 467.07C669.726 463.9 670.998 460.616 672.066 457.242Z" fill="black"/>
<path d="M556.824 401.881C564.291 385.269 577.392 372.653 593.228 366.823C609.166 360.904 626.58 362.368 641.539 370.884C656.319 379.044 667.551 393.454 672.715 410.906C677.129 426.004 676.9 442.298 672.079 457.242C671.214 453.856 670.743 450.407 669.688 447.059C667.131 439.001 662.361 433.591 655.454 430.001C641.946 423 627.61 427.799 615.119 435.347C608.556 439.319 602.489 443.953 595.378 446.804C588.242 449.668 579.16 450.025 572.228 446.282C560.488 439.943 557.269 424.985 557.066 411.683C557.028 409.226 557.753 404.465 557.002 402.326C556.951 402.174 556.888 402.034 556.837 401.894L556.824 401.881Z" fill="#FF8080"/>
<path d="M556.824 401.881C556.875 402.021 556.939 402.174 556.99 402.314C557.74 404.465 557.015 409.213 557.053 411.67C557.244 424.96 560.475 439.93 572.216 446.269C579.148 450.012 588.243 449.656 595.366 446.791C602.463 443.94 608.531 439.306 615.107 435.335C627.598 427.786 641.92 422.987 655.442 429.988C662.361 433.578 667.131 438.988 669.675 447.046C670.744 450.394 671.202 453.844 672.066 457.23C670.998 460.603 669.726 463.887 668.251 467.057C666.304 464.231 666.304 458.134 665.465 454.595C663.659 446.931 659.868 440.567 653.623 436.608C648.904 433.616 643.663 432.509 638.27 432.941C620.08 434.38 609.358 449.337 592.987 454.276C584.617 456.797 574.709 455.995 567.153 451.056C559.496 446.053 554.955 437.079 552.64 427.773C552.016 425.278 551.686 422.707 551.113 420.199C552.385 413.707 554.191 407.851 556.786 401.868L556.824 401.881Z" fill="#FEFEFE"/>
<path d="M668.263 467.07C663.977 476.019 658.011 483.822 650.761 489.958C637.354 501.313 620.411 506.226 603.723 503.579C587.352 500.918 572.597 491.193 562.612 476.502C551.342 459.712 548.493 440.592 551.151 420.212C551.724 422.719 552.055 425.291 552.678 427.786C554.993 437.091 559.534 446.066 567.191 451.069C574.747 456.008 584.656 456.81 593.025 454.289C609.396 449.35 620.119 434.393 638.308 432.954C643.701 432.521 648.929 433.629 653.661 436.62C659.906 440.579 663.71 446.944 665.503 454.607C666.343 458.146 666.343 464.244 668.289 467.07H668.263Z" fill="#FFB0B0"/>
</g>
<rect x="1.5" y="1.5" width="767" height="600" rx="13.5" stroke="black" stroke-width="3"/>
</g>
<defs>
<linearGradient id="paint0_linear_588_1821" x1="171.064" y1="237.026" x2="246.307" y2="131.817" gradientUnits="userSpaceOnUse">
<stop stop-color="#03365E"/>
<stop offset="1" stop-color="#4E88A0"/>
</linearGradient>
<linearGradient id="paint1_linear_588_1821" x1="549.019" y1="222.957" x2="595.533" y2="128.284" gradientUnits="userSpaceOnUse">
<stop stop-color="#136493"/>
<stop offset="1" stop-color="#4286AD"/>
</linearGradient>
<linearGradient id="paint2_linear_588_1821" x1="297.249" y1="216.511" x2="176.219" y2="272.867" gradientUnits="userSpaceOnUse">
<stop stop-color="#2F3335"/>
<stop offset="1" stop-color="#C6F9FF"/>
</linearGradient>
<linearGradient id="paint3_linear_588_1821" x1="579.15" y1="590.367" x2="538.049" y2="599" gradientUnits="userSpaceOnUse">
<stop stop-color="#63ADD5"/>
<stop offset="1" stop-color="#9ED7F0"/>
</linearGradient>
<linearGradient id="paint4_linear_588_1821" x1="437.944" y1="366.502" x2="378.959" y2="351.829" gradientUnits="userSpaceOnUse">
<stop stop-color="#85B1CB"/>
<stop offset="1" stop-color="#ACD0E1"/>
</linearGradient>
<linearGradient id="paint5_linear_588_1821" x1="123.204" y1="244.656" x2="156.35" y2="243.321" gradientUnits="userSpaceOnUse">
<stop stop-color="#74A2C1"/>
<stop offset="1" stop-color="#C5DBE8"/>
</linearGradient>
<linearGradient id="paint6_linear_588_1821" x1="468.251" y1="217.42" x2="514.671" y2="237.283" gradientUnits="userSpaceOnUse">
<stop stop-color="#5A829E"/>
<stop offset="1" stop-color="#91B1CB"/>
</linearGradient>
<linearGradient id="paint7_linear_588_1821" x1="283.833" y1="321.577" x2="340.449" y2="350.443" gradientUnits="userSpaceOnUse">
<stop stop-color="#3C7CA2"/>
<stop offset="1" stop-color="#AFC2D6"/>
</linearGradient>
<clipPath id="clip0_588_1821">
<rect width="781" height="978.037" fill="white" transform="translate(-5 -58.0183)"/>
</clipPath>
</defs>
</svg>
