<svg width="899" height="980" viewBox="0 0 899 980" fill="none" xmlns="http://www.w3.org/2000/svg">
<mask id="mask0_376_55" style="mask-type:alpha" maskUnits="userSpaceOnUse" x="0" y="0" width="899" height="980">
<rect x="1" y="1" width="897" height="978" rx="14" fill="#E0E0E0" stroke="#383838" stroke-width="2"/>
</mask>
<g mask="url(#mask0_376_55)">
<path d="M953 -13H-53V993H953V-13Z" fill="#FFB0B0"/>
<g style="mix-blend-mode:soft-light" opacity="0.5">
<path d="M588.024 645.2C739.463 541.274 800.433 366.977 724.203 255.896C647.974 144.815 463.411 139.015 311.972 242.941C160.532 346.867 99.5623 521.165 175.792 632.245C252.021 743.326 436.584 749.126 588.024 645.2Z" fill="black"/>
</g>
<g style="mix-blend-mode:soft-light" opacity="0.8">
<path d="M609.189 866.586C609.189 887.189 539.614 903.868 453.803 903.868C367.991 903.868 298.416 887.169 298.416 866.586C298.416 845.983 367.991 829.304 453.803 829.304C539.614 829.304 609.189 846.003 609.189 866.586Z" fill="black"/>
</g>
<path d="M500.944 851.637C495.109 851.637 488.65 851.335 481.246 850.731C470.804 849.866 460.462 848.297 450.483 846.104C434.548 842.623 419.78 837.653 406.601 831.295C404.328 830.189 402.577 828.136 401.752 825.662C394.046 801.96 388.654 777.414 385.737 752.686C384.167 739.568 383.302 726.39 383.121 713.533C383.061 710.394 384.53 707.457 387.045 705.666C388.835 704.398 390.525 703.312 392.215 702.326C392.517 702.145 392.879 702.064 393.221 702.064C393.563 702.064 393.926 702.165 394.247 702.346C394.871 702.708 395.253 703.392 395.233 704.117C394.871 720.394 395.716 764.094 411.571 817.895C412.054 819.505 413.201 820.833 414.609 821.416C426.439 826.366 439.316 830.229 452.897 832.945C461.971 834.776 471.327 836.064 480.723 836.748C487.484 837.251 493.379 837.492 498.731 837.492C519.635 837.492 535.108 833.649 546.013 825.742C546.355 825.481 546.777 825.36 547.2 825.36C547.441 825.36 547.683 825.4 547.924 825.501C548.568 825.742 549.031 826.285 549.171 826.949C549.674 829.243 549.835 831.537 549.715 833.951C549.534 837.593 547.461 840.872 544.162 842.703C533.277 848.719 519.132 851.637 500.924 851.637H500.944Z" fill="white"/>
<path d="M393.241 704.076C392.879 720.032 393.644 764.155 409.659 818.459C410.323 820.632 411.852 822.442 413.864 823.267C426.258 828.438 439.437 832.301 452.535 834.897C462.052 836.828 471.528 838.056 480.602 838.74C486.498 839.182 492.614 839.484 498.751 839.484C516.316 839.484 534.021 836.909 547.22 827.352C547.662 829.464 547.844 831.597 547.723 833.83C547.582 836.768 545.892 839.424 543.196 840.913C531.043 847.633 515.994 849.604 500.944 849.604C494.344 849.604 487.745 849.222 481.407 848.699C471.548 847.874 461.247 846.385 450.925 844.132C436.077 840.893 421.168 836.064 407.486 829.484C405.696 828.619 404.328 826.99 403.684 825.038C395.998 801.457 390.666 777.092 387.749 752.445C386.199 739.508 385.334 726.51 385.153 713.493C385.113 710.978 386.3 708.684 388.232 707.296C389.841 706.149 391.511 705.062 393.241 704.076ZM393.241 700.052H393.221C392.477 700.052 391.773 700.254 391.169 700.616C389.459 701.602 387.668 702.749 385.878 704.016C382.819 706.189 381.029 709.77 381.109 713.573C381.29 726.49 382.155 739.729 383.725 752.928C386.662 777.796 392.074 802.483 399.821 826.285C400.807 829.283 402.939 831.758 405.696 833.106C419.015 839.524 433.924 844.554 450.04 848.075C460.08 850.289 470.522 851.858 481.045 852.723C488.53 853.347 495.029 853.649 500.924 853.649C519.474 853.649 533.941 850.651 545.127 844.454C549.051 842.281 551.505 838.398 551.727 834.032C551.847 831.476 551.666 828.961 551.143 826.527C550.861 825.199 549.916 824.092 548.648 823.609C548.186 823.428 547.703 823.348 547.2 823.348C546.355 823.348 545.53 823.609 544.846 824.112C534.283 831.758 519.213 835.48 498.731 835.48C493.419 835.48 487.584 835.239 480.884 834.736C471.589 834.052 462.313 832.784 453.3 830.973C439.839 828.297 427.083 824.454 415.394 819.565C414.528 819.203 413.804 818.338 413.502 817.312C397.809 764.014 396.903 720.716 397.265 704.378C397.265 704.278 397.265 704.177 397.265 704.076C397.265 701.863 395.475 700.052 393.241 700.052Z" fill="#303030"/>
<path d="M452.535 836.929C452.414 836.929 452.274 836.929 452.133 836.889C438.27 834.132 425.132 830.169 413.08 825.118C410.565 824.092 408.573 821.819 407.728 819.042C391.712 764.718 390.867 720.515 391.229 704.036C391.229 703.352 391.612 702.708 392.215 702.346C403.503 695.646 416.299 691.944 429.276 691.642C432.254 688.162 436.499 685.747 441.308 684.842C442.696 684.58 444.125 684.439 445.553 684.439C451.73 684.439 457.585 686.914 462.012 691.421C466.619 696.129 469.879 702.809 471.206 710.274C472.052 714.881 474.184 730.715 466.297 740.232C463.319 743.834 459.376 745.906 454.547 746.449C456.137 754.336 458.571 762.082 461.79 769.527C476.9 773.028 491.89 778.48 505.169 785.361C505.913 785.744 506.356 786.569 506.235 787.414C506.135 788.259 505.511 788.943 504.686 789.124C492.433 791.9 481.327 797.534 472.575 805.401C471.267 806.588 470.06 807.775 468.953 808.942C461.951 816.386 456.941 825.561 454.467 835.42C454.245 836.325 453.42 836.949 452.515 836.949L452.535 836.929Z" fill="#60C8FC"/>
<path d="M445.533 686.451C450.785 686.451 456.257 688.463 460.563 692.829C465.251 697.618 468.048 704.137 469.194 710.616C471.87 725.323 469.114 744.437 452.133 744.558C453.803 753.753 456.579 762.746 460.342 771.237C475.552 774.658 490.582 780.05 504.243 787.112C491.789 789.929 480.281 795.723 471.247 803.872H471.227C469.939 805.059 468.691 806.266 467.504 807.534C460.181 815.32 455.05 824.797 452.535 834.917C439.437 832.321 426.258 828.458 413.864 823.267C411.873 822.443 410.323 820.652 409.659 818.459C393.664 764.135 392.879 720.032 393.241 704.077C404.428 697.417 417.305 693.775 430.242 693.634C432.999 690.033 437.143 687.679 441.67 686.814C442.938 686.572 444.226 686.451 445.533 686.451ZM445.533 682.427C443.984 682.427 442.415 682.568 440.906 682.87C435.976 683.796 431.57 686.19 428.331 689.671C415.293 690.133 402.497 693.896 391.169 700.636C389.982 701.34 389.238 702.608 389.197 703.996C388.815 720.575 389.7 765.02 405.776 819.606C406.802 822.986 409.237 825.742 412.315 827.01C424.468 832.1 437.747 836.104 451.73 838.881C451.992 838.941 452.253 838.961 452.515 838.961C454.326 838.961 455.956 837.734 456.418 835.903C458.792 826.366 463.641 817.513 470.422 810.31C471.488 809.183 472.655 808.037 473.923 806.89C482.413 799.244 493.218 793.772 505.129 791.075C506.779 790.693 508.026 789.345 508.227 787.655C508.449 785.985 507.583 784.355 506.074 783.571C492.936 776.77 478.168 771.338 463.219 767.797C460.523 761.398 458.41 754.799 456.941 748.079C461.307 747.133 465.009 744.9 467.826 741.5C476.257 731.319 474.043 714.74 473.158 709.891C471.77 702.065 468.309 695.002 463.44 690.013C458.611 685.124 452.253 682.427 445.533 682.427Z" fill="#303030"/>
<path d="M491.89 789.506C492.353 789.828 492.775 790.19 493.157 790.573C496.739 789.164 500.421 787.997 504.223 787.132C490.582 780.07 475.532 774.678 460.322 771.257C456.559 762.767 453.783 753.773 452.113 744.578C469.094 744.437 471.87 725.343 469.174 710.636C468.028 704.157 465.231 697.638 460.543 692.85C455.151 687.377 447.988 685.627 441.65 686.834C444.99 687.779 448.209 689.59 450.966 692.407C455.674 697.196 458.45 703.714 459.617 710.193C462.293 724.901 459.537 744.015 442.535 744.136C444.226 753.33 446.982 762.324 450.765 770.815C465.975 774.235 478.53 782.384 492.172 789.446C492.071 789.466 491.97 789.486 491.89 789.506Z" fill="#94D6FF"/>
<path d="M429.397 691.683C424.79 696.914 421.248 708.483 424.951 722.808" stroke="#303030" stroke-width="2" stroke-linecap="round" stroke-linejoin="round"/>
<path d="M439.316 741.802C442.918 745.222 448.068 746.469 453.42 746.59" stroke="#303030" stroke-width="2" stroke-linecap="round" stroke-linejoin="round"/>
<path d="M498.731 841.516C493.278 841.516 487.282 841.275 480.421 840.752C470.864 840.047 461.328 838.74 452.092 836.889C451.549 836.788 451.086 836.446 450.785 835.983C450.483 835.52 450.402 834.957 450.543 834.414C453.199 823.871 458.551 814.093 466.015 806.145C475.633 795.944 489.033 788.5 503.761 785.16C503.901 785.12 504.062 785.12 504.203 785.12C504.525 785.12 504.827 785.2 505.129 785.341C515.953 790.894 525.671 797.333 534.021 804.516C542.612 811.9 547.562 819.243 549.151 826.97C549.312 827.754 549.011 828.539 548.367 829.002C536.737 837.432 520.5 841.516 498.731 841.516Z" fill="white"/>
<path d="M504.223 787.132C514.686 792.504 524.364 798.842 532.713 806.045C540.399 812.664 545.59 819.646 547.2 827.372C534.001 836.929 516.295 839.504 498.731 839.504C492.594 839.504 486.478 839.182 480.582 838.76C471.488 838.096 462.032 836.848 452.515 834.917C455.05 824.817 460.161 815.34 467.504 807.534C477.001 797.474 489.999 790.351 504.223 787.132ZM504.223 783.108C503.922 783.108 503.62 783.148 503.338 783.209C488.228 786.629 474.466 794.275 464.567 804.757C456.861 812.946 451.348 823.046 448.612 833.931C448.35 834.997 448.531 836.124 449.115 837.05C449.698 837.975 450.644 838.639 451.73 838.84C461.066 840.732 470.663 842.039 480.301 842.744C487.202 843.267 493.238 843.508 498.751 843.508C520.983 843.508 537.602 839.283 549.574 830.611C550.862 829.686 551.465 828.096 551.163 826.547C549.473 818.378 544.302 810.672 535.369 802.986C526.899 795.703 517.06 789.164 506.095 783.551C505.531 783.249 504.887 783.108 504.264 783.108H504.223Z" fill="#303030"/>
<path d="M434.467 773.229C434.467 773.229 447.083 767.636 461.649 769.447" stroke="#303030" stroke-width="2" stroke-linecap="round" stroke-linejoin="round"/>
<path d="M451.066 729.73C443.984 729.408 437.908 724.619 435.936 717.799C435.755 717.155 435.614 716.531 435.514 715.927C434.025 707.719 439.035 699.65 447.163 697.256C456.68 694.48 462.495 689.912 464.909 683.273C468.812 672.488 464.667 655.527 454.306 640.055C451.831 636.393 450.946 631.967 451.811 627.621C452.676 623.275 455.171 619.512 458.853 617.058C461.589 615.227 464.768 614.241 468.068 614.241C473.621 614.241 478.772 616.997 481.85 621.605C498.368 646.272 503.68 673.575 496.055 694.6C494.606 698.584 492.695 702.346 490.361 705.807C482.936 716.853 471.528 724.7 456.459 729.106C454.97 729.549 453.4 729.77 451.831 729.77C451.569 729.77 451.308 729.77 451.046 729.77L451.066 729.73Z" fill="#D8C7C9"/>
<path d="M468.088 616.253C472.776 616.253 477.403 618.526 480.2 622.711C496.377 646.876 501.588 673.474 494.183 693.896C492.956 697.256 491.206 700.958 488.711 704.66C482.856 713.372 472.917 722.185 455.915 727.134C454.567 727.537 453.199 727.718 451.851 727.718C451.63 727.718 451.388 727.718 451.167 727.718C445.111 727.436 439.638 723.372 437.868 717.235C437.727 716.712 437.586 716.169 437.505 715.646C436.198 708.443 440.564 701.28 447.747 699.167C457.927 696.21 464.164 691.22 466.8 683.937C470.925 672.569 466.679 654.883 455.996 638.908C451.509 632.228 453.3 623.174 459.98 618.708C462.474 617.038 465.291 616.233 468.068 616.233M468.088 612.229C464.406 612.229 460.825 613.315 457.746 615.388C453.622 618.144 450.825 622.349 449.859 627.238C448.893 632.107 449.899 637.057 452.656 641.182C462.495 655.889 466.679 672.529 463.018 682.589C460.804 688.665 455.593 692.709 446.62 695.324C437.505 698.021 431.912 707.014 433.542 716.29C433.663 717.074 433.844 717.799 434.005 718.342C436.218 726.007 443.038 731.38 450.986 731.742C451.268 731.742 451.569 731.762 451.851 731.762C453.622 731.762 455.392 731.5 457.082 730.997C472.595 726.47 484.365 718.362 492.071 706.893C494.485 703.312 496.477 699.389 497.986 695.264C505.833 673.635 500.441 645.668 483.56 620.458C480.099 615.287 474.325 612.209 468.108 612.209L468.088 612.229Z" fill="#303030"/>
<path d="M408.472 861.576C408.17 861.576 407.849 861.496 407.567 861.355C370.124 842.623 342.398 815.703 329.481 785.523C329.3 785.1 329.28 784.637 329.381 784.195C331.372 776.911 333.787 770.795 336.785 765.503C342.801 754.86 352.116 747.013 361.894 744.297C366.12 734.961 375.033 729.166 385.375 729.086C388.875 729.086 392.296 729.649 395.736 730.776C411.47 735.947 426.258 753.854 422.315 771.258C421.892 773.048 421.188 774.758 420.202 776.328C440.966 784.879 460.643 797.816 477.222 813.872C477.806 814.435 477.987 815.3 477.685 816.045C477.383 816.789 476.659 817.312 475.854 817.312C471.951 817.393 468.088 817.775 464.346 818.439C452.917 820.471 442.073 825.199 432.999 832.1C423.542 839.283 415.675 849.062 410.243 860.369C410.001 860.852 409.599 861.234 409.076 861.395C408.855 861.476 408.653 861.496 408.432 861.496L408.472 861.576Z" fill="#60C8FC"/>
<path d="M385.616 731.098C388.614 731.098 391.793 731.601 395.153 732.707C409.358 737.375 424.226 753.934 420.383 770.835C419.82 773.229 418.633 775.462 417.064 777.253C438.27 785.583 458.853 798.902 475.854 815.36C471.911 815.441 467.947 815.823 464.044 816.527C452.455 818.58 441.328 823.348 431.832 830.571C421.973 838.076 414.005 848.116 408.492 859.584C376.341 843.508 345.658 818.177 331.372 784.758C333.123 778.36 335.376 772.203 338.596 766.529C344.129 756.731 353.062 748.522 363.424 746.027C366.804 737.737 374.812 731.219 385.475 731.118C385.535 731.118 385.596 731.118 385.656 731.118M385.616 727.074H385.415C374.57 727.154 365.194 733.07 360.506 742.627C350.426 745.705 341.251 753.592 335.075 764.517C331.996 769.97 329.521 776.227 327.489 783.671C327.248 784.557 327.308 785.482 327.67 786.307C340.768 816.93 368.836 844.213 406.702 863.145C407.265 863.427 407.889 863.568 408.492 863.568C408.935 863.568 409.378 863.487 409.8 863.347C410.826 863.005 411.651 862.26 412.134 861.274C417.426 850.249 425.091 840.732 434.286 833.73C443.119 827.01 453.662 822.402 464.768 820.431C468.39 819.767 472.152 819.405 475.955 819.324C477.584 819.284 479.033 818.278 479.617 816.769C480.22 815.26 479.838 813.529 478.671 812.403C462.454 796.689 443.32 783.933 423.079 775.301C423.623 774.135 424.045 772.927 424.327 771.68C428.512 753.19 412.979 734.257 396.42 728.804C392.779 727.617 389.137 726.993 385.616 726.993V727.074Z" fill="#303030"/>
<path d="M475.854 815.34C471.911 815.421 467.947 815.803 464.044 816.507C448.169 802.021 429.719 789.023 410.706 781.579C412.295 779.788 413.462 777.555 414.025 775.161C417.848 758.26 401.853 736.329 387.648 731.641C386.904 731.4 386.159 731.219 385.435 731.098C388.473 731.098 391.712 731.581 395.153 732.708C409.358 737.375 424.226 753.934 420.383 770.835C419.82 773.229 418.633 775.463 417.064 777.253C438.27 785.583 458.853 798.902 475.854 815.36V815.34Z" fill="#94D6FF"/>
<path d="M480.743 894.835C464.044 894.835 447.042 889.744 434.085 885.298C423.542 881.696 413.16 877.23 403.261 872.039C368.091 853.669 341.614 827.714 328.717 799.003C327.509 796.307 327.228 793.168 327.912 790.17C328.314 788.38 328.817 786.267 329.421 784.195C329.662 783.37 330.387 782.786 331.232 782.746C331.272 782.746 331.312 782.746 331.352 782.746C332.157 782.746 332.881 783.229 333.203 783.973C345.537 812.805 371.914 838.639 407.567 856.888C413.221 845.782 421.168 836.165 430.604 828.982C440.403 821.537 452.052 816.528 464.305 814.455C468.188 813.791 472.051 813.429 475.814 813.369H475.854C476.377 813.369 476.88 813.57 477.242 813.932C487.001 823.348 495.31 833.509 501.97 844.152C510.782 858.236 513.438 870.892 510.038 882.843C509.213 885.62 507.563 888.074 505.37 889.724C504.445 890.469 503.298 891.092 502.03 891.535C495.612 893.748 488.429 894.855 480.723 894.855L480.743 894.835Z" fill="white"/>
<path d="M331.352 784.738C345.658 818.157 376.341 843.488 408.472 859.564C413.985 848.096 421.953 838.056 431.812 830.551C441.469 823.207 452.817 818.399 464.627 816.407C468.349 815.783 472.092 815.401 475.834 815.34C485.25 824.415 493.56 834.475 500.24 845.178C508.086 857.713 511.547 870.006 508.086 882.26C507.402 884.634 506.014 886.666 504.143 888.074C503.298 888.738 502.352 889.241 501.346 889.603C494.747 891.857 487.805 892.802 480.703 892.802C465.291 892.802 449.235 888.356 434.709 883.366C424.649 879.946 414.307 875.539 404.167 870.228C373.604 854.273 344.792 829.948 330.527 798.158C329.461 795.784 329.28 793.108 329.843 790.593C330.306 788.621 330.769 786.649 331.332 784.718M331.352 780.714C331.352 780.714 331.191 780.714 331.091 780.714C329.401 780.814 327.952 781.981 327.469 783.611C326.866 785.724 326.363 787.877 325.94 789.687C325.155 793.108 325.477 796.709 326.866 799.808C339.944 828.942 366.743 855.218 402.316 873.809C412.315 879.06 422.798 883.567 433.421 887.189C446.519 891.676 463.742 896.826 480.723 896.826C488.671 896.826 496.055 895.68 502.674 893.406C504.183 892.863 505.511 892.138 506.658 891.233C509.113 889.382 511.024 886.585 511.949 883.406C515.511 870.831 512.795 857.633 503.66 843.046C496.92 832.261 488.51 821.98 478.631 812.443C477.886 811.719 476.88 811.316 475.834 811.316C475.814 811.316 475.794 811.316 475.754 811.316C471.891 811.377 467.927 811.759 463.943 812.443C451.368 814.556 439.417 819.706 429.357 827.352C420.182 834.334 412.416 843.529 406.702 854.152C372.357 836.165 346.965 811.075 335.034 783.148C334.39 781.66 332.942 780.714 331.332 780.714H331.352Z" fill="#303030"/>
<path d="M409.76 858.357C419.156 863.045 428.693 866.948 437.968 870.047C461.046 877.712 488.55 884.171 510.662 873.548" stroke="#303030" stroke-width="2" stroke-linecap="round" stroke-linejoin="round"/>
<path d="M419.478 777.032C412.134 783.832 402.356 788.279 388.332 780.372" stroke="#303030" stroke-width="2" stroke-linecap="round" stroke-linejoin="round"/>
<path d="M362.176 744.156C362.176 744.156 356.885 755.403 364.369 763.229" stroke="#303030" stroke-width="2" stroke-linecap="round" stroke-linejoin="round"/>
<path d="M394.288 766.509C391.712 766.388 389.258 765.684 386.984 764.417C384.851 763.23 382.98 761.56 381.592 759.608C377.87 754.417 377.488 747.456 380.606 741.862C403.342 701.099 392.94 638.526 392.477 635.89C390.807 626.876 396.783 618.225 405.756 616.555C406.762 616.374 407.768 616.273 408.794 616.273C416.782 616.273 423.623 621.967 425.071 629.814C425.172 630.317 434.789 681.341 421.329 728.985C418.351 739.569 414.388 749.327 409.559 757.998C406.641 763.25 401.088 766.509 395.072 766.509C394.811 766.509 394.549 766.509 394.308 766.509H394.288Z" fill="#D8C7C9"/>
<path d="M408.794 618.305C415.675 618.305 421.792 623.194 423.079 630.216C423.562 632.731 432.435 682.226 419.377 728.482C416.601 738.321 412.838 747.999 407.788 757.073C405.132 761.861 400.163 764.557 395.052 764.557C394.831 764.557 394.61 764.557 394.368 764.557C392.195 764.457 390.002 763.873 387.97 762.727C386.039 761.64 384.429 760.191 383.222 758.501C380.043 754.055 379.52 747.999 382.357 742.908C405.998 700.516 394.549 636.192 394.449 635.548C392.98 627.641 398.231 620.056 406.118 618.587C407.004 618.426 407.909 618.345 408.774 618.345M408.794 614.281C407.668 614.281 406.521 614.382 405.394 614.603C400.525 615.509 396.28 618.245 393.463 622.329C390.646 626.414 389.6 631.363 390.485 636.232C390.787 637.983 393.423 653.938 393.282 674.319C393.081 701.3 388.091 724.318 378.836 740.896C375.355 747.154 375.777 754.96 379.942 760.795C381.511 762.988 383.604 764.859 385.998 766.187C388.533 767.616 391.29 768.4 394.187 768.521C394.469 768.521 394.771 768.541 395.052 768.541C401.813 768.541 408.03 764.879 411.309 758.984C416.219 750.172 420.243 740.273 423.261 729.529C436.842 681.442 427.144 629.935 427.043 629.411C425.413 620.639 417.748 614.241 408.794 614.241V614.281Z" fill="#303030"/>
<rect x="1.5" y="1.5" width="896" height="977" rx="13.5" stroke="black" stroke-width="3"/>
</g>
</svg>
