<svg width="534" height="112" viewBox="0 0 534 112" fill="none" xmlns="http://www.w3.org/2000/svg">
<rect x="1.5" y="1.5" width="531" height="109" rx="13.5" fill="#6F6CFF" stroke="black" stroke-width="3"/>
<path d="M154.965 56C154.965 57.6533 155.285 59.12 155.925 60.4C156.592 61.6533 157.512 62.64 158.685 63.36C159.885 64.08 161.285 64.44 162.885 64.44C164.459 64.44 165.832 64.08 167.005 63.36C168.205 62.64 169.125 61.6533 169.765 60.4C170.432 59.12 170.765 57.6533 170.765 56C170.765 54.3467 170.445 52.8933 169.805 51.64C169.165 50.36 168.259 49.36 167.085 48.64C165.912 47.92 164.512 47.56 162.885 47.56C161.285 47.56 159.885 47.92 158.685 48.64C157.512 49.36 156.592 50.36 155.925 51.64C155.285 52.8933 154.965 54.3467 154.965 56ZM147.805 56C147.805 53.84 148.179 51.8667 148.925 50.08C149.699 48.2933 150.765 46.7467 152.125 45.44C153.485 44.1333 155.085 43.1333 156.925 42.44C158.765 41.72 160.752 41.36 162.885 41.36C165.045 41.36 167.032 41.72 168.845 42.44C170.685 43.1333 172.285 44.1333 173.645 45.44C175.005 46.7467 176.059 48.2933 176.805 50.08C177.552 51.8667 177.925 53.84 177.925 56C177.925 58.16 177.552 60.1467 176.805 61.96C176.085 63.7733 175.045 65.3467 173.685 66.68C172.352 68.0133 170.765 69.0533 168.925 69.8C167.085 70.52 165.072 70.88 162.885 70.88C160.672 70.88 158.645 70.52 156.805 69.8C154.965 69.0533 153.365 68.0133 152.005 66.68C150.672 65.3467 149.632 63.7733 148.885 61.96C148.165 60.1467 147.805 58.16 147.805 56ZM178.246 48.04V42H200.406V48.04H192.686V70H185.926V48.04H178.246ZM221.268 48.04H210.588V70H203.708V42H228.148V70H221.268V48.04ZM234.327 42H241.087V70H234.327V42ZM238.567 47.56V42H244.047C246.421 42 248.407 42.3733 250.007 43.12C251.634 43.84 252.861 44.88 253.687 46.24C254.514 47.6 254.927 49.24 254.927 51.16C254.927 53.0267 254.514 54.6533 253.687 56.04C252.861 57.4 251.634 58.4533 250.007 59.2C248.407 59.92 246.421 60.28 244.047 60.28H238.567V54.72H244.047C245.407 54.72 246.474 54.4133 247.247 53.8C248.021 53.1867 248.407 52.3067 248.407 51.16C248.407 49.9867 248.021 49.0933 247.247 48.48C246.474 47.8667 245.407 47.56 244.047 47.56H238.567ZM260.837 64.6L261.317 59.44H275.197L275.637 64.6H260.837ZM268.157 52.28L264.237 61.32L264.557 62.8L261.077 70H253.437L268.157 40.24L282.917 70H275.237L271.877 63.08L272.117 61.36L268.157 52.28ZM290.891 56.08V53.12H295.411C296.184 53.12 296.837 53 297.371 52.76C297.931 52.52 298.357 52.1867 298.651 51.76C298.944 51.3067 299.091 50.76 299.091 50.12C299.091 49.16 298.771 48.44 298.131 47.96C297.491 47.48 296.584 47.24 295.411 47.24H292.611V64.76H296.051C296.931 64.76 297.717 64.6533 298.411 64.44C299.104 64.2 299.651 63.8267 300.051 63.32C300.477 62.7867 300.691 62.0667 300.691 61.16C300.691 60.5733 300.571 60.0667 300.331 59.64C300.091 59.2133 299.757 58.8667 299.331 58.6C298.904 58.3333 298.411 58.1467 297.851 58.04C297.317 57.9067 296.717 57.84 296.051 57.84H290.891V54.16H296.811C298.171 54.16 299.491 54.3067 300.771 54.6C302.051 54.8933 303.211 55.3733 304.251 56.04C305.291 56.68 306.117 57.5067 306.731 58.52C307.371 59.5067 307.691 60.7067 307.691 62.12C307.691 63.9867 307.237 65.4933 306.331 66.64C305.451 67.7867 304.197 68.64 302.571 69.2C300.944 69.7333 299.024 70 296.811 70H285.851V42H296.131C298.077 42 299.784 42.2667 301.251 42.8C302.744 43.3067 303.917 44.0933 304.771 45.16C305.651 46.2 306.091 47.52 306.091 49.12C306.091 50.5867 305.651 51.84 304.771 52.88C303.917 53.92 302.744 54.72 301.251 55.28C299.784 55.8133 298.077 56.08 296.131 56.08H290.891ZM338.053 49.04L312.413 71.4L312.613 62.96L338.253 40.6L338.053 49.04ZM318.893 42V64.76L312.413 71.4V42H318.893ZM338.253 40.6V70H331.733V47.48L338.253 40.6ZM341.371 48.04V42H363.531V48.04H355.811V70H349.051V48.04H341.371ZM366.593 42H373.353V70H366.593V42ZM370.833 57.28V51.72H376.313C378.686 51.72 380.673 52.0933 382.273 52.84C383.899 53.56 385.126 54.6 385.953 55.96C386.779 57.32 387.193 58.9467 387.193 60.84C387.193 62.7333 386.779 64.3733 385.953 65.76C385.126 67.12 383.899 68.1733 382.273 68.92C380.673 69.64 378.686 70 376.313 70H370.833V64.44H376.313C377.219 64.44 377.993 64.3067 378.633 64.04C379.299 63.7733 379.806 63.3733 380.153 62.84C380.499 62.28 380.673 61.6133 380.673 60.84C380.673 60.0667 380.499 59.4133 380.153 58.88C379.806 58.3467 379.299 57.9467 378.633 57.68C377.993 57.4133 377.219 57.28 376.313 57.28H370.833Z" fill="white"/>
</svg>
