<svg width="911" height="911" viewBox="0 0 911 911" fill="none" xmlns="http://www.w3.org/2000/svg">
<g clip-path="url(#clip0_752_2)">
<path d="M399.121 18.8102L389.795 20.4402C389.411 19.2599 388.877 18.2482 388.193 17.3957C387.5 16.5432 386.686 15.8594 385.749 15.3348C384.813 14.8102 383.773 14.4636 382.64 14.295C381.507 14.1264 380.318 14.1545 379.063 14.37C376.806 14.7634 374.933 15.6627 373.454 17.0678C371.974 18.473 370.953 20.3184 370.401 22.6041C369.848 24.8898 369.839 27.5408 370.363 30.5666C370.906 33.6766 371.824 36.2059 373.126 38.1637C374.427 40.1215 376.01 41.4892 377.864 42.2761C379.728 43.063 381.76 43.269 383.96 42.885C385.197 42.6695 386.311 42.3042 387.313 41.7983C388.315 41.2831 389.167 40.6461 389.888 39.8686C390.6 39.0911 391.152 38.2012 391.536 37.1988C391.92 36.1965 392.126 35.0911 392.136 33.8921L401.472 32.3089C401.584 34.3511 401.313 36.3838 400.676 38.4073C400.039 40.4307 399.047 42.3042 397.689 44.0466C396.331 45.7796 394.617 47.269 392.538 48.4962C390.459 49.7327 388.025 50.5851 385.234 51.0723C381.348 51.7467 377.714 51.4751 374.353 50.2479C370.991 49.0208 368.125 46.8943 365.784 43.8592C363.434 40.8335 361.851 36.9459 361.018 32.1965C360.194 27.4378 360.381 23.2317 361.589 19.5877C362.797 15.9437 364.782 12.9742 367.545 10.6791C370.307 8.38406 373.603 6.91335 377.433 6.24825C379.962 5.80797 382.369 5.75176 384.653 6.089C386.938 6.42623 389.045 7.11943 390.956 8.18734C392.866 9.25525 394.524 10.6698 395.919 12.4496C397.314 14.2294 398.391 16.3559 399.121 18.8289V18.8102Z" fill="#6763FF"/>
<path d="M409.721 46.6694L406.594 2.50115L424.274 1.24589C427.523 1.0117 430.267 1.3021 432.505 2.11708C434.743 2.93206 436.466 4.14985 437.684 5.77045C438.892 7.40041 439.585 9.32077 439.734 11.5315C439.856 13.2552 439.622 14.7915 439.023 16.1404C438.423 17.4893 437.553 18.6228 436.41 19.5315C435.268 20.4401 433.938 21.124 432.43 21.583L432.458 22.0139C434.144 21.967 435.755 22.3324 437.29 23.1005C438.826 23.8687 440.109 25.0115 441.139 26.5197C442.169 28.0279 442.759 29.8733 442.918 32.0372C443.087 34.3791 442.656 36.5149 441.626 38.4259C440.596 40.3369 438.995 41.9107 436.813 43.1378C434.631 44.365 431.887 45.0863 428.581 45.3205L409.712 46.6507L409.721 46.6694ZM417.241 20.3183L424.161 19.8312C425.444 19.7376 426.568 19.4378 427.533 18.9132C428.497 18.3886 429.246 17.686 429.771 16.8149C430.295 15.9437 430.511 14.9226 430.436 13.7517C430.323 12.1592 429.668 10.9039 428.469 10.014C427.27 9.11468 425.641 8.73998 423.571 8.88986L416.473 9.39571L417.25 20.3277L417.241 20.3183ZM418.524 38.3791L426.137 37.8358C428.741 37.6484 430.604 37.0208 431.728 35.9342C432.852 34.8475 433.348 33.4798 433.236 31.803C433.151 30.5852 432.777 29.5267 432.121 28.6274C431.466 27.7281 430.576 27.063 429.452 26.604C428.329 26.145 427.018 25.9764 425.529 26.0794L417.7 26.6321L418.533 38.3697L418.524 38.3791Z" fill="#6763FF"/>
<path d="M448.912 44.2713L449.792 0L479.618 0.599527L479.459 8.31844L458.998 7.90626L458.792 18.4542L477.726 18.8289L477.577 26.5478L458.642 26.1731L458.426 36.7398L478.981 37.1519L478.831 44.8708L448.921 44.2713H448.912Z" fill="#6763FF"/>
<path d="M482.961 44.2151L499.995 23.063L489.788 0.458984L501.194 2.08895L508.46 21.5361L526.974 24.1778L539.138 7.50343L550.497 9.12402L534.709 27.9435L544.888 53.0487L533.829 51.4656L527.021 32.9084L505.904 29.892L493.945 45.7701L482.97 44.2057L482.961 44.2151ZM524.679 5.43319L518.424 49.2736L509.434 47.9902L515.69 4.14982L524.679 5.43319Z" fill="#6763FF"/>
<path d="M548.962 54.9223L560.555 12.1873L589.342 19.9998L587.319 27.4471L567.56 22.0795L564.797 32.262L583.067 37.2269L581.045 44.6741L562.775 39.7093L560.003 49.9106L579.837 55.297L577.814 62.7442L548.943 54.9036L548.962 54.9223Z" fill="#6763FF"/>
<path d="M630.666 51.578L621.817 48.2057C622.088 46.9973 622.154 45.8544 621.995 44.7678C621.836 43.6811 621.489 42.6694 620.946 41.742C620.403 40.8147 619.691 39.9809 618.802 39.2596C617.912 38.5383 616.872 37.9482 615.693 37.4985C613.548 36.6835 611.488 36.4962 609.493 36.9552C607.499 37.4142 605.682 38.4727 604.043 40.1496C602.404 41.8264 601.028 44.1027 599.942 46.9692C598.818 49.92 598.312 52.5616 598.434 54.9129C598.556 57.2642 599.211 59.2407 600.41 60.8707C601.608 62.5007 603.247 63.7185 605.335 64.5053C606.506 64.955 607.649 65.2079 608.772 65.2828C609.896 65.3578 610.954 65.2454 611.966 64.9362C612.977 64.6365 613.904 64.1494 614.747 63.4843C615.59 62.8192 616.329 61.9761 616.947 60.9456L625.778 64.3648C624.823 66.1728 623.559 67.784 621.976 69.1985C620.394 70.613 618.577 71.709 616.526 72.5146C614.475 73.3109 612.237 73.7137 609.821 73.7043C607.405 73.695 604.877 73.1985 602.226 72.1868C598.537 70.7816 595.559 68.6833 593.293 65.9105C591.027 63.1377 589.659 59.8403 589.191 56.037C588.723 52.2338 589.341 48.0839 591.064 43.5781C592.787 39.0629 595.1 35.5501 598.003 33.0302C600.906 30.5103 604.127 28.974 607.667 28.4213C611.207 27.8686 614.803 28.2808 618.436 29.6672C620.834 30.5852 622.931 31.7655 624.729 33.2269C626.527 34.6789 627.969 36.3557 629.074 38.2479C630.17 40.1402 630.872 42.2104 631.163 44.4493C631.453 46.6881 631.284 49.0675 630.657 51.5687L630.666 51.578Z" fill="#6763FF"/>
<path d="M640.508 47.5313L643.982 40.6367L676.439 57.03L672.965 63.9246L660.866 57.8169L644.394 90.4537L636.135 86.2851L652.607 53.6483L640.508 47.5406V47.5313Z" fill="#6763FF"/>
<path d="M680.944 78.819L689.85 84.4677C692.818 86.3506 695.075 88.4489 696.62 90.7721C698.165 93.0859 698.971 95.4934 699.036 97.9758C699.102 100.458 698.381 102.875 696.873 105.226C695.394 107.587 693.502 109.292 691.198 110.341C688.895 111.4 686.348 111.746 683.557 111.4C680.766 111.044 677.891 109.929 674.923 108.046L660.951 99.1936L684.653 61.7887L692.537 66.791L672.863 97.8353L678.94 101.685C680.364 102.585 681.731 103.09 683.033 103.194C684.334 103.297 685.514 103.072 686.563 102.538C687.612 101.994 688.454 101.217 689.091 100.187C690.046 98.7064 690.281 97.0952 689.812 95.3528C689.344 93.6105 688.033 92.0648 685.907 90.7159L677.002 85.0672L680.963 78.819H680.944Z" fill="#6763FF"/>
<path d="M754.923 133.02L747.703 126.894C748.368 125.844 748.798 124.786 749.014 123.709C749.229 122.631 749.239 121.563 749.033 120.505C748.836 119.446 748.433 118.425 747.843 117.451C747.244 116.477 746.467 115.568 745.502 114.753C743.751 113.273 741.869 112.411 739.837 112.168C737.805 111.934 735.735 112.327 733.628 113.367C731.521 114.407 729.47 116.093 727.485 118.435C725.443 120.842 724.086 123.165 723.421 125.414C722.747 127.662 722.709 129.751 723.299 131.69C723.889 133.629 725.031 135.315 726.736 136.767C727.691 137.582 728.684 138.21 729.723 138.65C730.753 139.09 731.802 139.343 732.851 139.39C733.9 139.446 734.939 139.296 735.96 138.95C736.98 138.603 737.954 138.05 738.881 137.292L746.073 143.456C744.575 144.851 742.843 145.947 740.885 146.753C738.928 147.559 736.849 147.989 734.639 148.064C732.439 148.13 730.201 147.765 727.925 146.959C725.65 146.153 723.43 144.833 721.267 142.997C718.261 140.439 716.145 137.479 714.937 134.107C713.729 130.734 713.532 127.175 714.356 123.428C715.18 119.681 717.147 115.98 720.265 112.308C723.393 108.627 726.736 106.079 730.313 104.674C733.89 103.269 737.439 102.894 740.96 103.55C744.481 104.205 747.731 105.798 750.699 108.318C752.657 109.976 754.239 111.793 755.447 113.77C756.655 115.746 757.46 117.807 757.873 119.952C758.275 122.097 758.247 124.28 757.779 126.491C757.311 128.702 756.365 130.884 754.932 133.039L754.923 133.02Z" fill="#6763FF"/>
<path d="M740.314 158.987L772.228 128.299L784.515 141.086C786.771 143.437 788.307 145.732 789.122 147.971C789.937 150.21 790.105 152.317 789.628 154.294C789.159 156.271 788.12 158.022 786.519 159.559C785.273 160.758 783.934 161.563 782.52 161.966C781.097 162.369 779.673 162.425 778.24 162.135C776.808 161.844 775.431 161.254 774.12 160.383L773.811 160.683C774.925 161.947 775.684 163.418 776.068 165.095C776.461 166.772 776.405 168.486 775.909 170.247C775.412 172.008 774.373 173.638 772.809 175.146C771.114 176.776 769.204 177.807 767.078 178.247C764.952 178.687 762.714 178.453 760.382 177.563C758.051 176.673 755.728 175.024 753.434 172.636L740.324 158.996L740.314 158.987ZM752.32 160.439L757.611 165.947C759.418 167.83 761.094 168.851 762.649 169.02C764.203 169.188 765.58 168.692 766.788 167.54C767.668 166.687 768.249 165.732 768.511 164.655C768.773 163.577 768.726 162.462 768.352 161.31C767.977 160.158 767.275 159.043 766.245 157.957L760.804 152.299L752.329 160.448L752.32 160.439ZM765.364 147.896L770.168 152.898C771.058 153.826 772.013 154.491 773.034 154.893C774.055 155.296 775.066 155.427 776.077 155.268C777.089 155.109 778.006 154.622 778.849 153.816C780.001 152.711 780.544 151.409 780.46 149.91C780.385 148.411 779.626 146.922 778.184 145.423L773.259 140.289L765.355 147.886L765.364 147.896Z" fill="#6763FF"/>
<path d="M767.266 187.586L801.858 159.952L820.474 183.268L814.444 188.083L801.671 172.083L793.43 178.668L805.248 193.469L799.217 198.284L787.399 183.483L779.14 190.078L791.969 206.144L785.938 210.959L767.266 187.577V187.586Z" fill="#6763FF"/>
<path d="M789.075 213.713L816.232 213.291L827.085 190.996L833.125 200.813L822.815 218.837L832.61 234.762L853.202 233.46L859.214 243.239L834.651 243.127L821.85 267.005L815.998 257.488L825.914 240.392L814.733 222.218L794.881 223.165L789.065 213.722L789.075 213.713ZM845.552 221.019L807.85 244.232L803.093 236.495L840.795 213.282L845.552 221.019Z" fill="#6763FF"/>
<path d="M823.021 271.323L863.279 252.916L875.677 280.054L868.654 283.267L860.142 264.644L850.553 269.028L858.428 286.255L851.414 289.468L843.539 272.241L833.921 276.635L842.462 295.333L835.448 298.546L823.012 271.333L823.021 271.323Z" fill="#6763FF"/>
<path d="M877.85 332.035L874.788 323.07C875.893 322.508 876.811 321.824 877.541 321.009C878.272 320.194 878.824 319.286 879.199 318.274C879.573 317.262 879.751 316.185 879.742 315.042C879.733 313.899 879.517 312.719 879.105 311.52C878.365 309.347 877.185 307.642 875.565 306.405C873.945 305.169 871.96 304.447 869.619 304.26C867.278 304.073 864.656 304.475 861.753 305.468C858.766 306.489 856.406 307.792 854.683 309.384C852.96 310.977 851.845 312.747 851.368 314.714C850.881 316.681 851.002 318.714 851.724 320.831C852.126 322.021 852.66 323.061 853.325 323.979C853.99 324.887 854.758 325.637 855.629 326.218C856.509 326.798 857.473 327.201 858.522 327.435C859.571 327.66 860.695 327.688 861.884 327.51L864.909 336.485C862.905 336.906 860.854 336.972 858.766 336.653C856.677 336.335 854.664 335.651 852.735 334.583C850.806 333.515 849.073 332.044 847.538 330.19C846.002 328.335 844.766 326.058 843.848 323.37C842.574 319.632 842.275 316.007 842.958 312.485C843.642 308.963 845.3 305.815 847.922 303.014C850.544 300.223 854.13 298.04 858.691 296.485C863.26 294.92 867.437 294.452 871.23 295.08C875.022 295.707 878.262 297.197 880.95 299.567C883.638 301.937 885.613 304.963 886.878 308.644C887.711 311.07 888.132 313.44 888.17 315.754C888.207 318.068 887.842 320.251 887.084 322.311C886.334 324.363 885.192 326.227 883.656 327.885C882.12 329.543 880.191 330.93 877.86 332.054L877.85 332.035Z" fill="#6763FF"/>
<path d="M887.252 337.009L894.771 335.276L902.918 370.723L895.399 372.456L892.365 359.248L856.742 367.444L854.673 358.423L890.295 350.227L887.261 337.018L887.252 337.009Z" fill="#6763FF"/>
<path d="M889.059 388.109L890.408 398.573C890.857 402.058 890.689 405.14 889.893 407.809C889.097 410.479 887.767 412.634 885.904 414.264C884.04 415.903 881.718 416.887 878.946 417.233C876.193 417.608 873.664 417.233 871.379 416.137C869.094 415.041 867.193 413.299 865.686 410.929C864.169 408.559 863.195 405.627 862.745 402.142L860.629 385.739L904.529 380.063L905.728 389.327L869.282 394.039L870.209 401.177C870.424 402.854 870.911 404.222 871.67 405.28C872.428 406.348 873.346 407.107 874.432 407.575C875.518 408.034 876.661 408.184 877.859 408.016C879.601 407.8 880.997 406.957 882.036 405.477C883.075 403.997 883.431 402.011 883.104 399.51L881.755 389.046L889.087 388.1L889.059 388.109Z" fill="#6763FF"/>
<path d="M894.584 479.771L894.734 470.301C895.961 470.151 897.056 469.814 898.021 469.298C898.985 468.783 899.819 468.109 900.512 467.284C901.205 466.46 901.739 465.505 902.113 464.427C902.488 463.341 902.694 462.17 902.712 460.905C902.75 458.61 902.216 456.605 901.111 454.891C900.006 453.167 898.386 451.828 896.251 450.854C894.116 449.879 891.513 449.374 888.441 449.317C885.285 449.271 882.626 449.692 880.462 450.601C878.299 451.509 876.661 452.802 875.537 454.488C874.413 456.174 873.832 458.132 873.795 460.362C873.776 461.617 873.917 462.779 874.235 463.865C874.544 464.943 875.022 465.907 875.649 466.75C876.277 467.594 877.044 468.305 877.962 468.877C878.871 469.448 879.919 469.851 881.099 470.085L880.903 479.556C878.871 479.275 876.932 478.638 875.069 477.636C873.205 476.633 871.548 475.303 870.096 473.645C868.645 471.987 867.512 470.02 866.687 467.753C865.863 465.486 865.479 462.928 865.526 460.09C865.592 456.137 866.538 452.624 868.373 449.552C870.208 446.479 872.84 444.062 876.249 442.329C879.667 440.587 883.778 439.762 888.591 439.837C893.414 439.912 897.506 440.886 900.868 442.76C904.22 444.634 906.767 447.135 908.5 450.282C910.232 453.42 911.066 456.943 911 460.83C910.962 463.397 910.56 465.767 909.801 467.959C909.043 470.151 907.966 472.081 906.561 473.757C905.157 475.434 903.452 476.793 901.448 477.842C899.444 478.882 897.159 479.537 894.584 479.8V479.771Z" fill="#6763FF"/>
<path d="M865.424 485.073L909.418 489.954L907.461 507.575C907.105 510.816 906.318 513.457 905.119 515.518C903.921 517.579 902.413 519.05 900.596 519.958C898.78 520.858 896.766 521.186 894.556 520.942C892.833 520.755 891.372 520.239 890.146 519.406C888.919 518.572 887.973 517.514 887.28 516.23C886.587 514.937 886.156 513.514 885.979 511.94L885.548 511.893C885.286 513.56 884.639 515.078 883.609 516.455C882.57 517.823 881.221 518.881 879.555 519.631C877.888 520.38 875.968 520.624 873.805 520.38C871.473 520.118 869.45 519.312 867.755 517.954C866.06 516.595 864.806 514.741 863.991 512.371C863.176 510.001 862.961 507.172 863.326 503.874L865.414 485.073H865.424ZM871.997 495.219L871.155 502.806C870.864 505.401 871.155 507.35 872.016 508.642C872.878 509.944 874.142 510.685 875.799 510.872C877.017 511.003 878.122 510.834 879.124 510.347C880.126 509.86 880.941 509.111 881.596 508.09C882.242 507.069 882.654 505.813 882.823 504.324L883.684 496.521L871.997 495.228V495.219ZM889.977 497.214L889.209 504.108C889.069 505.382 889.172 506.544 889.509 507.593C889.846 508.642 890.408 509.495 891.167 510.169C891.934 510.844 892.899 511.237 894.06 511.368C895.652 511.546 896.991 511.125 898.096 510.113C899.192 509.092 899.857 507.556 900.091 505.495L900.877 498.422L889.987 497.214H889.977Z" fill="#6763FF"/>
<path d="M860.722 524.062L904.089 532.97L898.086 562.197L890.529 560.642L894.649 540.586L884.32 538.46L880.509 557.017L872.952 555.462L876.763 536.905L866.406 534.778L862.267 554.919L854.71 553.363L860.731 524.052L860.722 524.062Z" fill="#6763FF"/>
<path d="M854.607 557.532L872.278 578.159L896.354 572.267L892.664 583.18L872.222 586.759L866.229 604.473L880.388 619.489L876.707 630.365L861.106 611.386L834.567 616.791L838.145 606.206L857.623 602.918L864.459 582.703L851.049 568.033L854.598 557.523L854.607 557.532ZM885.07 605.663L843.136 591.471L846.048 582.871L887.982 597.063L885.07 605.663Z" fill="#6763FF"/>
<path d="M831.974 620.464L871.838 639.705L858.878 666.58L851.93 663.227L860.826 644.782L851.321 640.192L843.09 657.25L836.141 653.897L844.373 636.838L834.849 632.239L825.915 650.759L818.967 647.405L831.965 620.454L831.974 620.464Z" fill="#6763FF"/>
<path d="M820.296 701.428L825.231 693.344C826.365 693.831 827.479 694.103 828.575 694.149C829.67 694.196 830.728 694.037 831.74 693.672C832.751 693.316 833.697 692.763 834.568 692.023C835.439 691.283 836.207 690.374 836.871 689.288C838.07 687.33 838.623 685.334 838.548 683.292C838.473 681.25 837.752 679.274 836.403 677.344C835.055 675.423 833.069 673.662 830.447 672.061C827.75 670.412 825.25 669.438 822.918 669.119C820.596 668.81 818.517 669.091 816.7 669.972C814.884 670.852 813.385 672.248 812.224 674.149C811.569 675.217 811.11 676.295 810.829 677.391C810.557 678.477 810.473 679.545 810.585 680.594C810.698 681.644 810.998 682.646 811.503 683.601C812 684.557 812.702 685.437 813.591 686.234L808.619 694.29C807.018 693.025 805.66 691.48 804.564 689.672C803.468 687.864 802.71 685.868 802.307 683.704C801.895 681.541 801.914 679.264 802.363 676.894C802.804 674.524 803.768 672.126 805.248 669.7C807.308 666.328 809.911 663.789 813.048 662.065C816.195 660.351 819.678 659.602 823.499 659.836C827.32 660.07 831.29 661.438 835.401 663.948C839.522 666.468 842.556 669.381 844.494 672.698C846.442 676.014 847.36 679.461 847.257 683.049C847.154 686.636 846.086 690.084 844.054 693.409C842.715 695.601 841.17 697.447 839.409 698.946C837.649 700.444 835.738 701.559 833.678 702.299C831.618 703.039 829.455 703.339 827.198 703.217C824.941 703.095 822.637 702.496 820.296 701.419V701.428Z" fill="#6763FF"/>
<path d="M822.497 711.816L828.64 716.491L806.615 745.427L800.472 740.753L808.685 729.971L779.599 707.826L785.199 700.463L814.284 722.608L822.497 711.826V711.816Z" fill="#6763FF"/>
<path d="M784.374 745.905L777.201 753.643C774.813 756.219 772.332 758.064 769.775 759.16C767.219 760.256 764.709 760.612 762.256 760.228C759.802 759.844 757.555 758.692 755.513 756.781C753.462 754.898 752.133 752.725 751.515 750.271C750.897 747.807 751.009 745.24 751.861 742.561C752.713 739.882 754.333 737.25 756.721 734.674L767.959 722.542L800.425 752.65L794.076 759.498L767.125 734.514L762.227 739.798C761.085 741.034 760.345 742.28 760.008 743.545C759.671 744.809 759.68 745.999 760.008 747.132C760.345 748.266 760.963 749.231 761.862 750.046C763.145 751.254 764.681 751.779 766.479 751.629C768.277 751.479 770.037 750.477 771.751 748.631L778.924 740.894L784.346 745.924L784.374 745.905Z" fill="#6763FF"/>
<path d="M717.69 808.856L725.022 802.87C725.93 803.713 726.895 804.331 727.916 804.734C728.936 805.137 729.985 805.343 731.062 805.333C732.139 805.333 733.207 805.127 734.283 804.715C735.351 804.303 736.381 803.703 737.364 802.898C739.144 801.446 740.324 799.75 740.932 797.793C741.532 795.844 741.513 793.736 740.876 791.469C740.239 789.202 738.947 786.889 737.009 784.509C735.014 782.064 732.972 780.313 730.884 779.245C728.796 778.177 726.745 777.755 724.732 777.989C722.718 778.214 720.855 779.039 719.122 780.453C718.149 781.249 717.353 782.111 716.735 783.048C716.116 783.985 715.686 784.968 715.442 785.989C715.199 787.01 715.161 788.06 715.311 789.127C715.461 790.195 715.836 791.254 716.416 792.303L709.056 798.261C707.96 796.528 707.192 794.626 706.761 792.556C706.321 790.486 706.274 788.359 706.602 786.177C706.93 783.994 707.707 781.858 708.906 779.769C710.114 777.68 711.809 775.732 714.009 773.943C717.072 771.441 720.368 769.905 723.898 769.324C727.429 768.744 730.968 769.203 734.499 770.692C738.029 772.181 741.316 774.795 744.36 778.523C747.412 782.261 749.304 786.017 750.044 789.793C750.784 793.568 750.503 797.127 749.22 800.472C747.937 803.816 745.783 806.729 742.768 809.183C740.782 810.804 738.713 812.031 736.55 812.865C734.396 813.699 732.223 814.12 730.032 814.13C727.841 814.13 725.706 813.708 723.617 812.856C721.529 811.994 719.553 810.664 717.699 808.865L717.69 808.856Z" fill="#6763FF"/>
<path d="M694.794 789.783L719.16 826.748L704.364 836.509C701.648 838.298 699.111 839.394 696.76 839.788C694.41 840.181 692.312 839.966 690.458 839.141C688.604 838.317 687.068 836.977 685.841 835.122C684.886 833.68 684.343 832.219 684.202 830.748C684.062 829.277 684.268 827.863 684.811 826.514C685.354 825.155 686.178 823.909 687.274 822.776L687.04 822.411C685.598 823.282 684.015 823.75 682.292 823.835C680.578 823.909 678.902 823.544 677.254 822.739C675.615 821.933 674.201 820.612 673.003 818.795C671.71 816.837 671.045 814.767 670.998 812.593C670.952 810.42 671.588 808.266 672.89 806.13C674.192 803.994 676.224 802.008 678.996 800.191L694.784 789.774L694.794 789.783ZM691.188 801.324L684.82 805.53C682.648 806.963 681.327 808.434 680.887 809.924C680.438 811.422 680.681 812.865 681.599 814.261C682.273 815.282 683.116 816.022 684.127 816.481C685.139 816.94 686.244 817.09 687.442 816.94C688.641 816.781 689.868 816.294 691.123 815.469L697.678 811.151L691.207 801.334L691.188 801.324ZM701.152 816.434L695.355 820.256C694.288 820.959 693.454 821.783 692.874 822.71C692.284 823.638 691.984 824.612 691.956 825.633C691.928 826.654 692.237 827.647 692.883 828.621C693.763 829.961 694.943 830.72 696.432 830.916C697.912 831.113 699.523 830.635 701.255 829.493L707.192 825.577L701.161 816.425L701.152 816.434Z" fill="#6763FF"/>
<path d="M661.822 811.076L682.695 850.129L656.391 864.199L652.748 857.389L670.802 847.731L665.83 838.429L649.133 847.356L645.49 840.546L662.187 831.619L657.205 822.298L639.076 831.994L635.442 825.183L661.822 811.076Z" fill="#6763FF"/>
<path d="M632.174 827.778L627.613 854.56L647.541 869.314L636.79 873.455L620.965 860.021L603.519 866.747L601.028 887.244L590.315 891.375L594.922 867.244L573.796 850.288L584.228 846.27L599.22 859.15L619.129 851.478L621.826 831.787L632.174 827.797V827.778ZM614.672 881.979L598.762 840.659L607.236 837.389L623.146 878.71L614.672 881.979Z" fill="#6763FF"/>
<path d="M569.329 850.616L580.033 893.586L551.087 900.799L549.224 893.305L569.086 888.359L566.538 878.12L548.165 882.701L546.302 875.206L564.675 870.626L562.118 860.368L542.172 865.342L540.309 857.848L569.338 850.616H569.329Z" fill="#6763FF"/>
<path d="M499.621 893.398L508.985 892.031C509.332 893.22 509.837 894.251 510.502 895.122C511.167 895.993 511.963 896.705 512.89 897.258C513.817 897.81 514.838 898.185 515.971 898.382C517.104 898.579 518.294 898.588 519.548 898.41C521.815 898.082 523.706 897.23 525.233 895.862C526.75 894.494 527.817 892.677 528.435 890.41C529.053 888.143 529.138 885.492 528.697 882.447C528.239 879.328 527.386 876.771 526.15 874.775C524.905 872.789 523.36 871.375 521.524 870.532C519.679 869.689 517.657 869.436 515.447 869.754C514.201 869.932 513.078 870.27 512.066 870.747C511.055 871.234 510.175 871.853 509.444 872.602C508.714 873.352 508.133 874.232 507.721 875.225C507.309 876.218 507.075 877.314 507.037 878.513L497.664 879.843C497.617 877.801 497.935 875.768 498.619 873.773C499.312 871.768 500.361 869.923 501.765 868.218C503.17 866.523 504.93 865.08 507.037 863.909C509.144 862.738 511.607 861.942 514.417 861.53C518.322 860.958 521.946 861.333 525.27 862.654C528.604 863.975 531.394 866.176 533.661 869.267C535.927 872.359 537.406 876.293 538.099 881.052C538.802 885.829 538.493 890.026 537.182 893.642C535.871 897.258 533.81 900.171 530.992 902.382C528.173 904.592 524.83 905.979 520.981 906.541C518.443 906.916 516.037 906.897 513.752 906.503C511.476 906.11 509.397 905.351 507.515 904.237C505.633 903.122 504.022 901.66 502.664 899.843C501.316 898.026 500.304 895.871 499.63 893.379L499.621 893.398Z" fill="#6763FF"/>
<path d="M493.046 901.726L493.374 909.436L457.049 911L456.722 903.29L470.263 902.71L468.689 866.176L477.932 865.782L479.505 902.316L493.046 901.735V901.726Z" fill="#6763FF"/>
<path d="M442.516 894.223L431.981 893.67C428.47 893.483 425.473 892.761 422.992 891.497C420.51 890.232 418.637 888.536 417.363 886.401C416.09 884.265 415.537 881.81 415.697 879.019C415.828 876.237 416.642 873.829 418.131 871.778C419.62 869.726 421.671 868.171 424.274 867.113C426.878 866.054 429.931 865.614 433.442 865.801L449.952 866.672L447.62 910.897L438.293 910.41L440.222 873.698L433.03 873.323C431.345 873.239 429.912 873.464 428.732 874.017C427.552 874.569 426.634 875.337 425.979 876.321C425.333 877.305 424.977 878.401 424.93 879.609C424.827 881.361 425.408 882.888 426.672 884.171C427.936 885.454 429.828 886.166 432.347 886.298L442.882 886.85L442.488 894.232L442.516 894.223Z" fill="#6763FF"/>
<path d="M351.475 883.263L360.764 885.071C360.699 886.307 360.839 887.45 361.176 888.49C361.513 889.53 362.038 890.466 362.721 891.291C363.405 892.115 364.257 892.808 365.259 893.37C366.261 893.932 367.385 894.335 368.621 894.579C370.869 895.019 372.938 894.841 374.82 894.054C376.703 893.267 378.313 891.909 379.643 889.97C380.973 888.031 381.928 885.558 382.518 882.541C383.117 879.441 383.164 876.752 382.64 874.457C382.125 872.171 381.132 870.326 379.671 868.921C378.21 867.525 376.384 866.607 374.193 866.185C372.966 865.951 371.786 865.886 370.672 866.007C369.557 866.129 368.527 866.42 367.582 866.897C366.636 867.375 365.812 868.003 365.091 868.799C364.37 869.595 363.789 870.56 363.358 871.675L354.069 869.829C354.696 867.881 355.67 866.073 356.981 864.415C358.292 862.757 359.893 861.352 361.785 860.218C363.677 859.085 365.802 858.307 368.181 857.895C370.56 857.483 373.144 857.549 375.925 858.092C379.802 858.841 383.089 860.396 385.805 862.738C388.52 865.08 390.421 868.096 391.536 871.759C392.65 875.422 392.753 879.628 391.835 884.349C390.918 889.089 389.242 892.949 386.816 895.928C384.391 898.906 381.478 900.977 378.079 902.129C374.68 903.281 371.075 903.487 367.254 902.747C364.735 902.26 362.469 901.454 360.446 900.321C358.423 899.197 356.71 897.792 355.305 896.115C353.9 894.438 352.861 892.527 352.186 890.363C351.512 888.199 351.269 885.839 351.465 883.263H351.475Z" fill="#6763FF"/>
<path d="M351.475 853.446L338.627 895.825L321.669 890.672C318.55 889.726 316.097 888.48 314.289 886.916C312.482 885.352 311.311 883.609 310.759 881.651C310.206 879.703 310.253 877.661 310.899 875.534C311.405 873.876 312.173 872.527 313.212 871.478C314.252 870.429 315.469 869.689 316.865 869.239C318.26 868.799 319.739 868.63 321.313 868.752L321.434 868.34C319.842 867.778 318.466 866.869 317.305 865.595C316.143 864.321 315.357 862.804 314.926 861.024C314.495 859.244 314.608 857.314 315.235 855.235C315.919 852.987 317.08 851.151 318.728 849.727C320.367 848.303 322.427 847.413 324.909 847.047C327.381 846.682 330.209 846.982 333.374 847.947L351.475 853.436V853.446ZM335.05 875.375L328.411 873.361C327.184 872.986 326.023 872.874 324.937 873.015C323.85 873.155 322.905 873.548 322.099 874.176C321.294 874.804 320.732 875.684 320.386 876.799C319.917 878.326 320.086 879.731 320.882 880.996C321.678 882.26 323.073 883.197 325.058 883.797L331.866 885.867L335.05 875.375ZM340.304 858.054L332.999 855.834C330.499 855.076 328.542 855.001 327.1 855.619C325.667 856.228 324.703 857.333 324.216 858.935C323.86 860.106 323.832 861.23 324.122 862.298C324.412 863.366 325.002 864.312 325.892 865.136C326.782 865.961 327.943 866.588 329.375 867.029L336.886 869.305L340.304 858.045V858.054Z" fill="#6763FF"/>
<path d="M314.027 841.68L297.312 882.682L269.687 871.412L272.599 864.265L291.552 871.993L295.532 862.223L278.002 855.075L280.914 847.928L298.445 855.085L302.434 845.296L283.396 837.53L286.308 830.382L314.008 841.68H314.027Z" fill="#6763FF"/>
<path d="M282.244 829.52L258.73 843.113L260.106 867.871L250.058 862.242L250.283 841.474L233.97 832.34L216.618 843.516L206.607 837.904L228.118 826.036L227.668 798.945L237.416 804.406L237.079 824.172L255.696 834.598L272.57 824.097L282.244 829.52ZM229.372 850.654L250.995 812.012L258.917 816.453L237.295 855.094L229.372 850.654Z" fill="#6763FF"/>
<path d="M224.55 795.741L198.367 831.45L174.319 813.802L178.889 807.581L195.389 819.694L201.626 811.188L186.362 799.984L190.922 793.764L206.186 804.968L212.442 796.443L195.867 784.284L200.427 778.064L224.55 795.769V795.741Z" fill="#6763FF"/>
<path d="M147.078 769.512L154.129 775.835C153.436 776.865 152.977 777.914 152.734 778.982C152.49 780.05 152.453 781.118 152.622 782.177C152.79 783.235 153.165 784.266 153.727 785.259C154.298 786.252 155.056 787.17 155.993 788.022C157.697 789.549 159.561 790.467 161.583 790.757C163.606 791.048 165.685 790.711 167.82 789.727C169.955 788.753 172.053 787.113 174.094 784.828C176.201 782.476 177.615 780.191 178.346 777.961C179.076 775.732 179.179 773.643 178.636 771.694C178.093 769.746 177.007 768.022 175.34 766.533C174.403 765.699 173.429 765.043 172.409 764.575C171.388 764.107 170.348 763.826 169.3 763.751C168.251 763.666 167.211 763.788 166.181 764.107C165.151 764.425 164.168 764.95 163.213 765.68L156.189 759.329C157.725 757.98 159.486 756.931 161.471 756.182C163.447 755.432 165.544 755.048 167.745 755.048C169.946 755.048 172.174 755.47 174.431 756.341C176.679 757.212 178.87 758.589 180.977 760.491C183.917 763.123 185.95 766.149 187.064 769.549C188.188 772.95 188.281 776.519 187.354 780.238C186.427 783.956 184.358 787.61 181.146 791.198C177.924 794.795 174.506 797.249 170.892 798.551C167.277 799.863 163.718 800.134 160.216 799.385C156.714 798.636 153.511 796.959 150.618 794.355C148.707 792.64 147.171 790.786 146.02 788.781C144.868 786.776 144.109 784.697 143.763 782.533C143.416 780.369 143.51 778.195 144.034 775.994C144.559 773.793 145.57 771.638 147.059 769.53L147.078 769.512Z" fill="#6763FF"/>
<path d="M136.468 769.793L130.755 774.982L106.305 748.069L112.017 742.88L121.138 752.912L148.182 728.322L154.41 735.17L127.365 759.76L136.477 769.793H136.468Z" fill="#6763FF"/>
<path d="M109.863 726.121L103.552 717.662C101.445 714.842 100.087 712.079 99.4781 709.362C98.86 706.646 98.9724 704.116 99.7965 701.774C100.621 699.433 102.156 697.428 104.404 695.77C106.623 694.093 109.002 693.175 111.53 693.016C114.058 692.856 116.568 693.437 119.05 694.758C121.531 696.079 123.816 698.149 125.923 700.969L135.812 714.224L100.33 740.706L94.749 733.221L124.2 711.236L119.893 705.465C118.881 704.116 117.786 703.161 116.606 702.599C115.426 702.037 114.246 701.831 113.075 701.952C111.905 702.084 110.837 702.514 109.873 703.245C108.459 704.285 107.653 705.699 107.475 707.498C107.297 709.297 107.962 711.208 109.47 713.231L115.782 721.69L109.854 726.111L109.863 726.121Z" fill="#6763FF"/>
<path d="M60.1012 649.091L64.6523 657.391C63.6597 658.131 62.873 658.965 62.2924 659.892C61.7119 660.819 61.3185 661.812 61.1313 662.871C60.9346 663.929 60.944 665.025 61.1594 666.149C61.3654 667.274 61.7774 668.398 62.3861 669.512C63.4911 671.527 64.9426 672.997 66.7499 673.943C68.5573 674.889 70.6362 675.255 72.9773 675.039C75.3184 674.824 77.828 673.981 80.525 672.501C83.2969 670.983 85.3945 669.297 86.8179 667.433C88.2413 665.569 89.0279 663.63 89.1777 661.616C89.3182 659.592 88.85 657.606 87.7824 655.648C87.1831 654.552 86.4714 653.606 85.6661 652.829C84.8607 652.051 83.9711 651.442 83.0066 651.021C82.042 650.599 81.0213 650.365 79.9444 650.318C78.8675 650.271 77.7625 650.44 76.62 650.824L72.1064 642.496C74.0074 641.737 76.0113 641.325 78.1277 641.278C80.2441 641.222 82.3417 641.56 84.43 642.29C86.5182 643.021 88.466 644.154 90.3108 645.728C92.1556 647.302 93.7476 649.316 95.1148 651.808C97.0158 655.274 97.9241 658.796 97.8586 662.374C97.7836 665.962 96.6974 669.353 94.5904 672.557C92.4834 675.761 89.3182 678.524 85.1042 680.838C80.8715 683.161 76.8354 684.341 72.996 684.379C69.1566 684.416 65.7011 683.498 62.6483 681.625C59.5955 679.751 57.1233 677.11 55.2504 673.7C54.0143 671.452 53.1902 669.185 52.7595 666.918C52.3381 664.641 52.3193 662.431 52.7033 660.276C53.0872 658.121 53.9019 656.098 55.1287 654.196C56.3554 652.295 58.0223 650.599 60.1199 649.1L60.1012 649.091Z" fill="#6763FF"/>
<path d="M83.025 630.047L42.2429 647.264L35.3507 630.927C34.0865 627.93 33.4778 625.232 33.5153 622.852C33.5621 620.473 34.1521 618.44 35.3039 616.773C36.4557 615.105 38.0477 613.831 40.0891 612.97C41.6811 612.295 43.2169 612.023 44.6871 612.155C46.1573 612.286 47.5058 612.745 48.7419 613.532C49.978 614.318 51.0455 615.358 51.9632 616.642L52.3565 616.473C51.7666 614.89 51.5887 613.251 51.8228 611.546C52.0569 609.841 52.7217 608.258 53.8174 606.796C54.913 605.335 56.4582 604.183 58.4621 603.33C60.6253 602.412 62.7791 602.141 64.9236 602.487C67.0681 602.843 69.072 603.855 70.9356 605.522C72.7991 607.19 74.3723 609.56 75.6646 612.614L83.0157 630.047H83.025ZM55.6715 631.433L52.9746 625.035C52.4783 623.855 51.8228 622.89 51.0174 622.14C50.2121 621.391 49.3037 620.913 48.3111 620.698C47.3185 620.482 46.279 620.604 45.2021 621.063C43.7319 621.681 42.758 622.712 42.2991 624.136C41.8403 625.56 42.0088 627.227 42.8142 629.138L45.5767 635.695L55.6715 631.433ZM72.3402 624.398L69.3717 617.363C68.3603 614.955 67.1523 613.4 65.7664 612.688C64.3805 611.977 62.9196 611.948 61.3745 612.595C60.2508 613.073 59.3611 613.766 58.7337 614.674C58.0969 615.583 57.7504 616.642 57.6849 617.85C57.6193 619.058 57.8722 620.351 58.4528 621.738L61.5056 628.969L72.3402 624.398Z" fill="#6763FF"/>
<path d="M68.1076 593.71L25.9021 607.077L16.8936 578.628L24.254 576.295L30.4345 595.817L40.4919 592.632L34.7796 574.572L42.1401 572.239L47.8524 590.3L57.9285 587.106L51.7199 567.499L59.0803 565.167L68.1076 593.7V593.71Z" fill="#6763FF"/>
<path d="M57.1327 561.504L31.6521 552.108L13.5038 568.998L11.4062 557.663L27.513 544.567L24.1043 526.179L4.4203 519.977L2.33203 508.689L25.2 517.645L45.7362 499.987L47.7682 510.975L32.3638 523.35L36.25 544.333L55.11 550.6L57.1327 561.504ZM7.08916 534.338L50.615 526.272L52.2632 535.2L8.7373 543.265L7.0798 534.338H7.08916Z" fill="#6763FF"/>
<path d="M46.2227 495.528L2.03194 498.216L0.224609 468.437L7.92217 467.968L9.16764 488.408L19.6933 487.771L18.5414 468.868L26.239 468.399L27.3908 487.303L37.9445 486.666L36.6991 466.142L44.406 465.673L46.2227 495.547V495.528Z" fill="#6763FF"/>
<path d="M16.8088 419.191L16.4624 428.652C15.2356 428.784 14.1306 429.093 13.1473 429.589C12.1734 430.086 11.3306 430.741 10.6189 431.556C9.91661 432.371 9.35475 433.308 8.96144 434.385C8.55877 435.463 8.34339 436.634 8.29657 437.898C8.21229 440.193 8.7086 442.207 9.77615 443.95C10.8437 445.692 12.4356 447.069 14.5614 448.081C16.6777 449.093 19.2717 449.655 22.3432 449.767C25.499 449.879 28.1679 449.505 30.3404 448.643C32.5224 447.781 34.1892 446.516 35.341 444.858C36.4929 443.2 37.1203 441.252 37.1952 439.022C37.242 437.767 37.1203 436.596 36.83 435.509C36.5397 434.423 36.0902 433.449 35.4721 432.596C34.8635 431.734 34.1049 431.013 33.206 430.423C32.307 429.833 31.2675 429.411 30.097 429.149L30.4809 419.688C32.5036 420.006 34.4327 420.69 36.2775 421.73C38.1223 422.77 39.7517 424.137 41.1657 425.823C42.5798 427.51 43.6754 429.495 44.4526 431.781C45.2299 434.067 45.567 436.624 45.464 439.463C45.3235 443.406 44.3028 446.901 42.4018 449.945C40.5008 452.98 37.832 455.341 34.3765 457.008C30.9304 458.676 26.8007 459.425 21.9874 459.247C17.1647 459.069 13.0912 458.02 9.77615 456.081C6.46114 454.142 3.9702 451.584 2.30333 448.409C0.636462 445.233 -0.122057 441.701 0.0184096 437.814C0.112054 435.247 0.561547 432.887 1.35752 430.713C2.1535 428.54 3.27723 426.629 4.70999 424.98C6.15211 423.332 7.87517 422.001 9.90725 420.999C11.93 419.997 14.2336 419.397 16.8088 419.182V419.191Z" fill="#6763FF"/>
<path d="M9.79567 411.201L2.1543 410.133L7.16427 374.114L14.8056 375.182L12.9328 388.606L49.1357 393.646L47.8621 402.817L11.6592 397.777L9.78631 411.201H9.79567Z" fill="#6763FF"/>
<path d="M26.3139 362.798L28.7767 352.541C29.6008 349.121 30.8556 346.302 32.5506 344.1C34.2455 341.899 36.2589 340.353 38.5813 339.491C40.913 338.63 43.432 338.527 46.1477 339.201C48.854 339.838 51.0828 341.075 52.8246 342.92C54.5663 344.765 55.7275 347.061 56.2894 349.815C56.8606 352.569 56.7295 355.651 55.9055 359.079L52.0379 375.163L8.99902 364.812L11.1809 355.726L46.9062 364.316L48.5918 357.318C48.9851 355.679 49.0226 354.227 48.6948 352.962C48.3671 351.697 47.7865 350.658 46.9343 349.833C46.0822 349.018 45.0708 348.466 43.8909 348.203C42.1866 347.782 40.5853 348.072 39.0869 349.084C37.5886 350.096 36.5492 351.829 35.9592 354.283L33.4964 364.54L26.3045 362.817L26.3139 362.798Z" fill="#6763FF"/>
<path d="M53.7703 275.258L50.2868 284.063C49.0881 283.773 47.9363 283.698 46.85 283.848C45.7638 283.998 44.7524 284.326 43.816 284.86C42.8795 285.384 42.0461 286.096 41.3063 286.967C40.5759 287.848 39.9672 288.878 39.5083 290.059C38.6655 292.194 38.4595 294.255 38.8809 296.251C39.3117 298.246 40.3511 300.082 42.0086 301.74C43.6661 303.407 45.923 304.803 48.7791 305.927C51.7102 307.089 54.3509 307.623 56.7014 307.539C59.0519 307.454 61.0372 306.817 62.6853 305.637C64.3334 304.457 65.5602 302.827 66.3842 300.747C66.8431 299.576 67.1147 298.433 67.2083 297.319C67.2926 296.194 67.1896 295.136 66.9086 294.115C66.6183 293.103 66.1501 292.166 65.4946 291.314C64.8391 290.461 64.0057 289.712 62.985 289.075L66.506 280.279C68.3039 281.253 69.9053 282.536 71.2912 284.138C72.6865 285.731 73.7634 287.567 74.5407 289.628C75.3179 291.689 75.6831 293.927 75.655 296.344C75.6269 298.761 75.0838 301.281 74.0443 303.923C72.5929 307.595 70.4671 310.546 67.6672 312.784C64.8672 315.023 61.5616 316.344 57.7502 316.766C53.9389 317.187 49.7998 316.513 45.3236 314.752C40.8381 312.972 37.3451 310.62 34.8636 307.688C32.382 304.756 30.8837 301.515 30.378 297.965C29.8723 294.415 30.3218 290.827 31.7546 287.211C32.7004 284.822 33.9084 282.742 35.388 280.963C36.8676 279.183 38.5531 277.759 40.4635 276.682C42.3738 275.604 44.4434 274.93 46.6908 274.668C48.9383 274.396 51.3075 274.593 53.7984 275.258H53.7703Z" fill="#6763FF"/>
<path d="M83.0533 280.747L43.7695 260.335L51.9353 244.598C53.4336 241.703 55.1192 239.52 56.9734 238.031C58.8369 236.542 60.7753 235.708 62.7887 235.52C64.802 235.333 66.806 235.755 68.7726 236.776C70.3083 237.572 71.4976 238.584 72.331 239.792C73.1738 241.01 73.6795 242.34 73.8575 243.792C74.0354 245.244 73.923 246.733 73.5203 248.26L73.9043 248.457C74.7471 246.996 75.8989 245.806 77.3597 244.907C78.8206 243.998 80.4594 243.502 82.2854 243.408C84.1115 243.314 85.9938 243.773 87.9228 244.776C90.0111 245.862 91.5937 247.342 92.6893 249.216C93.785 251.089 94.2813 253.281 94.1876 255.783C94.094 258.284 93.2793 261 91.7529 263.951L83.0346 280.738L83.0533 280.747ZM64.5211 260.569L67.7144 254.406C68.3043 253.272 68.6321 252.148 68.6883 251.052C68.7445 249.956 68.5385 248.954 68.0702 248.045C67.602 247.146 66.8435 246.424 65.804 245.881C64.3806 245.141 62.976 245.047 61.59 245.6C60.2041 246.153 59.0242 247.352 58.069 249.188L54.7915 255.502L64.5211 260.551V260.569ZM80.5717 268.907L84.0834 262.134C85.2821 259.82 85.7222 257.9 85.3757 256.373C85.0386 254.846 84.1302 253.703 82.6413 252.935C81.555 252.373 80.4594 252.139 79.3544 252.223C78.2494 252.307 77.2099 252.719 76.236 253.441C75.2621 254.162 74.4287 255.183 73.7357 256.513L70.121 263.483L80.553 268.907H80.5717Z" fill="#6763FF"/>
<path d="M101.483 246.059L64.2402 222.125L80.3658 197.02L86.8553 201.188L75.7959 218.415L84.6734 224.12L94.9087 208.186L101.398 212.354L91.163 228.289L100.059 234.003L111.165 216.701L117.655 220.869L101.483 246.05V246.059Z" fill="#6763FF"/>
<path d="M119.256 217.029L110.172 191.427L85.5811 188.28L92.9415 179.418L113.309 183.418L125.258 169.029L117.429 149.929L124.762 141.095L132.516 164.411L159.223 168.898L152.078 177.497L132.712 173.572L119.078 189.985L126.326 208.495L119.237 217.029H119.256ZM108.103 161.17L142.152 189.469L136.346 196.458L102.297 168.158L108.103 161.17Z" fill="#6763FF"/>
<path d="M162.95 166.416L132.591 134.182L154.307 113.723L159.598 119.343L144.699 133.385L151.928 141.067L165.713 128.074L171.004 133.695L157.219 146.687L164.467 154.388L179.432 140.289L184.723 145.91L162.95 166.434V166.416Z" fill="#6763FF"/>
<path d="M202.796 94.9407L195.305 100.73C194.415 99.8681 193.469 99.2217 192.467 98.7814C191.465 98.3412 190.416 98.1163 189.339 98.0976C188.263 98.0789 187.186 98.2475 186.099 98.6316C185.022 99.0156 183.974 99.5871 182.972 100.365C181.155 101.77 179.928 103.437 179.273 105.367C178.617 107.306 178.58 109.414 179.151 111.69C179.722 113.966 180.949 116.327 182.831 118.753C184.76 121.254 186.755 123.062 188.815 124.186C190.875 125.311 192.917 125.788 194.93 125.61C196.943 125.442 198.835 124.674 200.605 123.306C201.597 122.538 202.412 121.695 203.068 120.777C203.714 119.859 204.173 118.894 204.444 117.873C204.716 116.852 204.791 115.812 204.66 114.744C204.538 113.676 204.201 112.608 203.648 111.54L211.168 105.788C212.217 107.55 212.928 109.47 213.312 111.549C213.687 113.629 213.687 115.756 213.294 117.929C212.9 120.102 212.076 122.21 210.812 124.271C209.548 126.332 207.797 128.224 205.549 129.957C202.422 132.374 199.088 133.816 195.539 134.303C191.99 134.791 188.469 134.238 184.976 132.655C181.483 131.072 178.271 128.374 175.33 124.561C172.38 120.739 170.592 116.936 169.955 113.142C169.328 109.348 169.693 105.798 171.069 102.491C172.446 99.1749 174.675 96.3365 177.756 93.9571C179.788 92.3927 181.895 91.2218 184.067 90.4443C186.249 89.6761 188.431 89.3108 190.613 89.3576C192.804 89.4045 194.93 89.8916 196.99 90.8096C199.05 91.7276 200.989 93.114 202.796 94.9595V94.9407Z" fill="#6763FF"/>
<path d="M204.425 84.4583L200.361 77.901L231.255 58.7349L235.319 65.2922L223.8 72.4397L243.063 103.512L235.197 108.393L215.934 77.3202L204.416 84.4677L204.425 84.4583Z" fill="#6763FF"/>
<path d="M252.212 66.2196L261.67 61.5546C264.826 59.9995 267.794 59.1658 270.576 59.0628C273.357 58.9504 275.82 59.5218 277.973 60.7583C280.127 61.9948 281.813 63.8684 283.03 66.3883C284.276 68.88 284.744 71.3812 284.444 73.9011C284.145 76.421 283.115 78.7816 281.363 80.9736C279.612 83.175 277.159 85.0485 274.003 86.6036L259.17 93.9103L239.607 54.1823L247.989 50.0511L264.227 83.0251L270.688 79.8401C272.196 79.0907 273.338 78.1914 274.106 77.1329C274.874 76.0744 275.295 74.9596 275.38 73.7793C275.464 72.6084 275.239 71.4749 274.687 70.3976C273.919 68.8145 272.673 67.7747 270.941 67.2688C269.208 66.763 267.204 67.0721 264.948 68.1868L255.489 72.8519L252.221 66.2196H252.212Z" fill="#6763FF"/>
</g>
<defs>
<clipPath id="clip0_752_2">
<rect width="911" height="911" fill="white"/>
</clipPath>
</defs>
</svg>
