<svg width="716" height="716" viewBox="0 0 716 716" fill="none" xmlns="http://www.w3.org/2000/svg">
<g clip-path="url(#clip0_752_60)">
<path d="M159.104 88.0248L165 84.0374C166.181 85.5776 167.504 86.4468 168.959 86.6453C170.414 86.8437 172.02 86.3524 173.796 85.1524C175.242 84.1791 176.158 83.0642 176.546 81.8169C176.943 80.5697 176.895 79.1807 176.404 77.65C175.913 76.1193 175.072 74.4752 173.872 72.6894L172.332 70.4123C171.094 68.5792 169.837 67.1713 168.552 66.1981C167.277 65.2249 165.982 64.6958 164.688 64.6391C163.384 64.5729 162.071 64.9981 160.729 65.9052C159.406 66.8028 158.49 67.7099 157.989 68.6359C157.488 69.5619 157.309 70.5162 157.45 71.4989C157.601 72.4815 157.989 73.5304 158.612 74.6359L152.717 78.6233C151.658 76.6579 151.063 74.6359 150.94 72.5571C150.817 70.4784 151.28 68.4564 152.32 66.491C153.359 64.5257 155.088 62.7304 157.488 61.1052C159.869 59.4989 162.307 58.6391 164.792 58.5446C167.277 58.4501 169.677 59.0643 171.973 60.406C174.269 61.7477 176.347 63.7792 178.18 66.5005L179.711 68.7682C181.553 71.4894 182.668 74.154 183.065 76.7618C183.462 79.3697 183.16 81.798 182.139 84.0468C181.119 86.2957 179.399 88.2421 176.98 89.8767C174.675 91.4358 172.417 92.3712 170.225 92.683C168.023 92.9948 165.973 92.7397 164.074 91.9366C162.175 91.124 160.512 89.8295 159.104 88.0342V88.0248ZM174.883 67.3131L178.095 72.0658L166.011 80.239L162.798 75.4863L174.883 67.3131Z" fill="#6763FF"/>
<path d="M192.221 79.2753L176.206 49.4644L182.508 46.0818L189.113 58.3841L201.906 51.5148L195.302 39.2125L201.585 35.8298L217.6 65.6407L211.317 69.0234L204.703 56.7116L191.91 63.5809L198.523 75.8926L192.221 79.2753Z" fill="#6763FF"/>
<path d="M222.314 63.5524L209.219 32.3525L230.242 23.5273L232.528 28.9698L218.1 35.0265L221.218 42.4627L234.56 36.8596L236.846 42.3021L223.505 47.9052L226.632 55.3508L241.117 49.2753L243.404 54.7178L222.324 63.5713L222.314 63.5524Z" fill="#6763FF"/>
<path d="M247.986 52.9792L237.716 20.74L250.434 16.6865C252.881 15.9117 255.111 15.7038 257.123 16.0912C259.136 16.4786 260.865 17.3384 262.291 18.6896C263.718 20.0408 264.776 21.7888 265.466 23.9337C266.156 26.0786 266.288 28.11 265.891 30.0376C265.495 31.9651 264.559 33.6659 263.104 35.1399C261.649 36.6139 259.684 37.7383 257.208 38.532L249.101 41.1116L247.363 35.6502L254.364 33.4203C255.677 33.0045 256.688 32.4281 257.397 31.7006C258.106 30.973 258.54 30.1321 258.71 29.1872C258.881 28.2423 258.786 27.2313 258.455 26.173C258.115 25.1053 257.605 24.236 256.925 23.5652C256.244 22.8943 255.403 22.4786 254.402 22.3085C253.4 22.1384 252.238 22.2613 250.915 22.6864L246.314 24.151L254.808 50.8155L247.996 52.9887L247.986 52.9792Z" fill="#6763FF"/>
<path d="M290.58 6.37793L291.875 12.1322L276.955 15.496L283.097 42.7463L276.114 44.3242L268.669 11.3196L290.571 6.37793H290.58Z" fill="#6763FF"/>
<path d="M297.468 5.04567L304.545 4.12913L307.285 25.2283L307.559 25.1905L319.313 2.20158L325.521 1.39844L329.877 34.951L322.781 35.877L320.041 14.759L319.795 14.7874L307.956 37.8046L301.815 38.5983L297.459 5.04567H297.468Z" fill="#6763FF"/>
<path d="M342.216 18.9826L349.926 18.7464L342.169 34.3841L334.279 34.6203L342.216 18.9731V18.9826ZM360.934 33.8172L353.8 34.0345L352.95 6.05667L348.131 6.20785C346.751 6.24564 345.618 6.48186 344.72 6.91651C343.822 7.3417 343.161 7.95587 342.736 8.74012C342.311 9.52437 342.112 10.4787 342.15 11.6031C342.188 12.7181 342.433 13.6346 342.915 14.3716C343.397 15.1086 344.087 15.6472 344.994 15.9968C345.91 16.3464 347.044 16.4976 348.414 16.4503L356.172 16.2141L356.351 21.959L347.432 22.233C344.843 22.3086 342.622 21.9495 340.752 21.1464C338.89 20.3432 337.445 19.1527 336.424 17.5653C335.404 15.9779 334.865 14.0692 334.789 11.8204C334.723 9.58106 335.139 7.62516 336.037 5.94328C336.934 4.2614 338.285 2.92912 340.062 1.96535C341.848 1.00157 344.011 0.481888 346.572 0.406297L359.894 0L360.924 33.8172H360.934Z" fill="#6763FF"/>
<path d="M377.119 23.2251L384.206 23.9148C384.14 25.8518 384.603 27.3636 385.585 28.4502C386.577 29.5368 388.136 30.1794 390.262 30.3872C391.991 30.5573 393.409 30.2833 394.505 29.5746C395.601 28.866 396.451 27.7605 397.046 26.277C397.642 24.7936 398.048 22.9794 398.256 20.844L398.52 18.1133C398.738 15.9117 398.662 14.022 398.303 12.4535C397.944 10.885 397.283 9.66606 396.319 8.78733C395.355 7.90859 394.07 7.38891 392.464 7.22828C390.876 7.0771 389.591 7.19048 388.609 7.58733C387.626 7.98418 386.88 8.59835 386.369 9.44874C385.859 10.2991 385.491 11.3479 385.264 12.6046L378.178 11.9149C378.612 9.72276 379.444 7.78576 380.681 6.11332C381.91 4.43144 383.554 3.17475 385.614 2.32436C387.673 1.47397 390.139 1.19051 393.021 1.47397C395.884 1.75744 398.303 2.64562 400.278 4.15743C402.252 5.66923 403.698 7.67237 404.624 10.1763C405.541 12.6802 405.843 15.5621 405.522 18.8314L405.257 21.5621C404.936 24.8314 404.104 27.5904 402.744 29.8581C401.383 32.1258 399.597 33.7982 397.377 34.8754C395.157 35.962 392.596 36.3589 389.695 36.0754C386.917 35.8014 384.593 35.0833 382.703 33.9211C380.814 32.7589 379.396 31.2565 378.442 29.4235C377.497 27.5904 377.044 25.5306 377.1 23.244L377.119 23.2251ZM402.479 17.3385L401.922 23.0455L387.399 21.6282L387.957 15.9212L402.479 17.3385Z" fill="#6763FF"/>
<path d="M408.214 37.6061L414.894 4.44092L421.905 5.85823L419.146 19.5401L433.385 22.4125L436.144 8.73066L443.136 10.1385L436.456 43.3132L429.464 41.9053L432.223 28.2046L417.984 25.3322L415.225 39.0329L408.214 37.6156V37.6061Z" fill="#6763FF"/>
<path d="M441.416 44.6927L451.242 12.3118L473.059 18.9354L471.349 24.5763L456.382 20.0314L454.039 27.7511L467.891 31.9558L466.181 37.5967L452.329 33.392L449.986 41.1211L465.018 45.6848L463.308 51.3258L441.425 44.6833L441.416 44.6927Z" fill="#6763FF"/>
<path d="M467.929 52.9414L480.59 21.562L492.967 26.5604C495.348 27.5242 497.191 28.7903 498.504 30.3683C499.817 31.9462 500.592 33.7131 500.828 35.669C501.065 37.6249 500.762 39.647 499.921 41.7257C499.08 43.8139 497.89 45.4674 496.35 46.6958C494.81 47.9241 493.005 48.6422 490.945 48.8501C488.886 49.0485 486.656 48.6706 484.237 47.6973L476.347 44.5131L478.492 39.1934L485.314 41.943C486.59 42.4627 487.733 42.6611 488.744 42.5572C489.755 42.4438 490.624 42.0848 491.361 41.4611C492.098 40.8375 492.665 40.006 493.081 38.9761C493.506 37.9367 493.667 36.9352 493.563 35.9903C493.468 35.0454 493.081 34.1856 492.419 33.4108C491.758 32.636 490.785 31.9935 489.5 31.4738L485.031 29.6691L474.562 55.6249L467.929 52.9508V52.9414Z" fill="#6763FF"/>
<path d="M530.478 44.2392L527.804 49.5022L514.17 42.5762L501.518 67.4832L495.141 64.2423L510.466 34.0818L530.478 44.2487V44.2392Z" fill="#6763FF"/>
<path d="M536.601 47.603L542.638 51.4108L531.291 69.4107L531.527 69.5619L555.243 59.3572L560.543 62.6927L542.497 91.313L536.45 87.4957L547.807 69.4769L547.599 69.3446L523.807 79.5209L518.563 76.2139L536.61 47.5935L536.601 47.603Z" fill="#6763FF"/>
<path d="M562.188 86.891L568.272 91.6343L552.323 98.7303L546.097 93.8737L562.197 86.891H562.188ZM567.129 110.248L561.498 105.864L578.694 83.7824L574.886 80.8154C573.8 79.9651 572.779 79.4265 571.816 79.1808C570.852 78.9446 569.954 78.9824 569.123 79.3131C568.291 79.6438 567.535 80.2485 566.846 81.1367C566.165 82.0154 565.769 82.8847 565.665 83.754C565.561 84.6233 565.75 85.4831 566.232 86.3335C566.713 87.1839 567.498 88.0249 568.575 88.8658L574.697 93.6374L571.164 98.1729L564.124 92.6926C562.084 91.1052 560.6 89.4044 559.674 87.5902C558.748 85.7761 558.399 83.943 558.625 82.0721C558.852 80.2013 559.655 78.3871 561.035 76.6107C562.405 74.8438 563.983 73.606 565.75 72.8785C567.517 72.1604 569.397 71.9903 571.39 72.3871C573.375 72.784 575.378 73.7667 577.4 75.3352L587.916 83.5273L567.129 110.22V110.248Z" fill="#6763FF"/>
<path d="M586.329 112.422L591.337 117.486C590.042 118.932 589.437 120.396 589.504 121.861C589.57 123.326 590.363 124.818 591.866 126.34C593.094 127.578 594.351 128.267 595.655 128.428C596.958 128.579 598.31 128.277 599.717 127.521C601.125 126.765 602.599 125.622 604.12 124.11L606.067 122.182C607.645 120.623 608.788 119.13 609.516 117.694C610.243 116.258 610.508 114.897 610.338 113.603C610.168 112.308 609.506 111.089 608.363 109.937C607.238 108.803 606.18 108.075 605.169 107.745C604.168 107.423 603.194 107.423 602.259 107.745C601.314 108.075 600.36 108.642 599.396 109.464L594.389 104.4C596.127 102.992 597.998 102.037 600.02 101.527C602.042 101.026 604.111 101.102 606.237 101.763C608.363 102.425 610.451 103.785 612.482 105.845C614.504 107.886 615.789 110.126 616.347 112.544C616.904 114.963 616.734 117.439 615.846 119.952C614.948 122.466 613.342 124.875 611.008 127.181L609.062 129.108C606.728 131.414 604.319 133.011 601.834 133.88C599.349 134.759 596.902 134.9 594.502 134.314C592.102 133.729 589.872 132.396 587.822 130.327C585.856 128.343 584.524 126.302 583.816 124.204C583.107 122.097 582.975 120.037 583.419 118.025C583.863 116.003 584.836 114.132 586.338 112.412L586.329 112.422ZM609.601 124.1L605.528 128.135L595.267 117.77L599.34 113.735L609.601 124.1Z" fill="#6763FF"/>
<path d="M601.068 143.357L627.382 122.088L631.88 127.653L621.024 136.431L630.151 147.732L641.007 138.954L645.495 144.51L619.181 165.779L614.693 160.223L625.568 151.436L616.441 140.135L605.566 148.922L601.068 143.357Z" fill="#6763FF"/>
<path d="M622.11 170.021L650.323 151.351L662.908 170.362L657.986 173.621L649.35 160.573L642.622 165.023L650.606 177.089L645.684 180.349L637.7 168.283L630.963 172.743L639.637 185.848L634.714 189.108L622.091 170.04L622.11 170.021Z" fill="#6763FF"/>
<path d="M637.274 193.294L667.028 177.184L673.387 188.919C674.606 191.177 675.22 193.332 675.229 195.382C675.229 197.432 674.7 199.294 673.642 200.947C672.584 202.61 671.062 203.971 669.088 205.039C667.113 206.106 665.138 206.626 663.163 206.598C661.189 206.56 659.346 205.965 657.627 204.812C655.907 203.659 654.433 201.939 653.195 199.653L649.142 192.169L654.178 189.439L657.683 195.902C658.335 197.111 659.091 197.999 659.941 198.557C660.792 199.114 661.699 199.388 662.663 199.379C663.626 199.369 664.6 199.095 665.573 198.566C666.565 198.028 667.321 197.366 667.85 196.572C668.379 195.779 668.634 194.872 668.615 193.851C668.596 192.831 668.256 191.716 667.595 190.497L665.299 186.254L640.685 199.587L637.274 193.294Z" fill="#6763FF"/>
<path d="M691.018 226.402L685.613 228.755L679.519 214.723L653.894 225.864L651.041 219.306L682.07 205.823L691.018 226.412V226.402Z" fill="#6763FF"/>
<path d="M693.607 232.912L695.837 239.697L675.617 246.33L675.702 246.594L700.476 253.851L702.432 259.804L670.288 270.358L668.058 263.564L688.287 256.922L688.212 256.685L663.39 249.353L661.463 243.467L693.607 232.912Z" fill="#6763FF"/>
<path d="M688.278 279.523L689.941 287.054L673.132 282.329L671.432 274.619L688.278 279.514V279.523ZM677.167 300.66L675.636 293.687L702.971 287.659L701.932 282.944C701.639 281.602 701.195 280.525 700.609 279.722C700.023 278.918 699.305 278.38 698.454 278.106C697.604 277.832 696.631 277.813 695.535 278.059C694.448 278.295 693.588 278.72 692.955 279.325C692.322 279.929 691.916 280.704 691.746 281.668C691.576 282.632 691.633 283.775 691.926 285.117L693.598 292.704L687.985 293.942L686.067 285.23C685.51 282.698 685.453 280.449 685.897 278.465C686.341 276.481 687.248 274.846 688.609 273.552C689.97 272.257 691.755 271.369 693.947 270.887C696.13 270.405 698.133 270.452 699.957 271.029C701.78 271.605 703.33 272.673 704.605 274.251C705.881 275.829 706.797 277.86 707.346 280.355L710.218 293.375L677.176 300.66H677.167Z" fill="#6763FF"/>
<path d="M690.556 314.616L691.179 321.712C689.261 322.005 687.853 322.732 686.975 323.904C686.096 325.076 685.746 326.729 685.935 328.855C686.086 330.584 686.616 331.926 687.513 332.88C688.411 333.825 689.649 334.458 691.217 334.78C692.785 335.091 694.637 335.158 696.782 334.978L699.513 334.742C701.714 334.553 703.557 334.128 705.031 333.485C706.505 332.843 707.591 331.964 708.272 330.868C708.961 329.762 709.235 328.402 709.094 326.786C708.952 325.199 708.602 323.951 708.035 323.063C707.468 322.175 706.722 321.551 705.787 321.202C704.851 320.852 703.755 320.682 702.48 320.691L701.856 313.595C704.095 313.624 706.146 314.087 708.026 314.984C709.906 315.891 711.446 317.271 712.656 319.142C713.865 321.013 714.602 323.384 714.857 326.276C715.103 329.139 714.668 331.68 713.553 333.901C712.429 336.121 710.728 337.917 708.432 339.277C706.136 340.638 703.358 341.46 700.089 341.743L697.359 341.98C694.089 342.263 691.217 341.951 688.741 341.035C686.266 340.118 684.291 338.672 682.817 336.688C681.343 334.704 680.483 332.257 680.228 329.356C679.983 326.578 680.266 324.159 681.06 322.09C681.854 320.021 683.072 318.348 684.697 317.082C686.332 315.816 688.269 314.994 690.527 314.635L690.556 314.616ZM700.996 338.465L695.289 338.965L694.023 324.433L699.73 323.932L700.996 338.465Z" fill="#6763FF"/>
<path d="M682.174 347.8L716.009 348.348L715.896 355.501L701.94 355.274L701.704 369.797L715.659 370.024L715.546 377.157L681.711 376.609L681.824 369.476L695.799 369.702L696.035 355.18L682.061 354.953L682.174 347.8Z" fill="#6763FF"/>
<path d="M681.305 381.749L714.951 385.359L712.513 408.026L706.646 407.393L708.318 391.841L700.306 390.981L698.766 405.371L692.898 404.738L694.438 390.348L686.407 389.488L684.735 405.107L678.867 404.474L681.305 381.74V381.749Z" fill="#6763FF"/>
<path d="M678.149 409.378L711.342 415.945L708.753 429.041C708.252 431.563 707.354 433.604 706.041 435.192C704.737 436.77 703.14 437.866 701.27 438.461C699.399 439.056 697.358 439.141 695.147 438.707C692.945 438.272 691.094 437.412 689.591 436.127C688.089 434.842 687.05 433.207 686.473 431.223C685.887 429.239 685.85 426.971 686.35 424.42L688.004 416.077L693.626 417.192L692.199 424.401C691.934 425.752 691.944 426.915 692.237 427.888C692.53 428.861 693.059 429.655 693.805 430.25C694.552 430.845 695.478 431.261 696.564 431.478C697.67 431.696 698.671 431.667 699.588 431.393C700.504 431.119 701.279 430.581 701.912 429.787C702.545 428.993 702.999 427.916 703.263 426.555L704.199 421.822L676.741 416.389L678.13 409.368L678.149 409.378Z" fill="#6763FF"/>
<path d="M698.398 469.179L692.729 467.535L696.99 452.842L670.156 445.066L672.15 438.197L704.643 447.617L698.398 469.179Z" fill="#6763FF"/>
<path d="M696.243 475.822L693.625 482.464L673.821 474.669L673.717 474.933L688.164 496.335L685.868 502.165L654.386 489.777L657.003 483.125L676.817 490.921L676.911 490.694L662.483 469.217L664.751 463.453L696.233 475.84L696.243 475.822Z" fill="#6763FF"/>
<path d="M640.346 517.509L643.605 511.16L668.493 523.954L670.694 519.664C671.327 518.435 671.668 517.33 671.724 516.338C671.781 515.346 671.573 514.476 671.091 513.72C670.609 512.965 669.872 512.331 668.871 511.821C667.879 511.311 666.953 511.084 666.074 511.15C665.195 511.217 664.392 511.557 663.646 512.19C662.899 512.823 662.219 513.749 661.586 514.958L658.033 521.865L652.922 519.239L657.003 511.302C658.185 508.996 659.583 507.229 661.189 505.982C662.795 504.735 664.534 504.054 666.414 503.932C668.294 503.809 670.231 504.262 672.225 505.283C674.209 506.303 675.73 507.617 676.76 509.223C677.8 510.829 678.31 512.643 678.291 514.675C678.272 516.697 677.677 518.851 676.505 521.128L670.411 532.987L640.317 517.509H640.346ZM662.389 508.316L658.865 515.176L648.934 500.813L652.544 493.793L662.389 508.316Z" fill="#6763FF"/>
<path d="M641.753 536.804L637.709 542.662C636.046 541.66 634.497 541.33 633.07 541.67C631.643 542.01 630.32 543.059 629.111 544.816C628.119 546.253 627.675 547.613 627.76 548.927C627.845 550.231 628.393 551.506 629.404 552.753C630.415 554.001 631.804 555.229 633.571 556.448L635.829 558.007C637.652 559.264 639.334 560.114 640.884 560.568C642.433 561.012 643.822 561.03 645.06 560.615C646.298 560.199 647.375 559.33 648.291 557.997C649.198 556.684 649.718 555.503 649.85 554.454C649.983 553.405 649.803 552.451 649.312 551.591C648.821 550.731 648.074 549.9 647.091 549.097L651.135 543.238C652.836 544.684 654.131 546.357 655 548.246C655.869 550.136 656.171 552.186 655.916 554.397C655.661 556.608 654.707 558.904 653.063 561.295C651.428 563.657 649.472 565.339 647.195 566.331C644.918 567.323 642.462 567.616 639.826 567.201C637.189 566.785 634.525 565.651 631.823 563.78L629.564 562.221C626.862 560.36 624.85 558.281 623.536 555.994C622.213 553.708 621.618 551.336 621.75 548.87C621.883 546.404 622.78 543.966 624.434 541.566C626.021 539.27 627.779 537.588 629.716 536.501C631.653 535.415 633.656 534.905 635.715 534.961C637.775 535.018 639.797 535.632 641.772 536.794L641.753 536.804ZM634.591 561.824L629.876 558.564L638.172 546.564L642.887 549.824L634.591 561.824Z" fill="#6763FF"/>
<path d="M614.097 556.977L639.854 578.917L635.215 584.36L624.585 575.308L615.165 586.363L625.795 595.415L621.165 600.848L595.408 578.908L600.038 573.475L610.677 582.536L620.088 571.481L609.449 562.42L614.088 556.977H614.097Z" fill="#6763FF"/>
<path d="M591.799 582.564L615.373 606.838L599.018 622.722L594.908 618.489L606.133 607.585L600.52 601.802L590.136 611.884L586.026 607.651L596.41 597.569L590.779 591.777L579.507 602.719L575.396 598.486L591.799 582.555V582.564Z" fill="#6763FF"/>
<path d="M571.721 601.793L593.074 628.041L582.719 636.47C580.725 638.085 578.722 639.087 576.709 639.474C574.697 639.862 572.769 639.682 570.946 638.945C569.122 638.208 567.497 636.971 566.08 635.223C564.662 633.484 563.784 631.632 563.453 629.695C563.122 627.748 563.368 625.83 564.181 623.931C564.993 622.032 566.42 620.256 568.432 618.621L575.037 613.254L578.656 617.704L572.949 622.344C571.881 623.213 571.154 624.12 570.757 625.056C570.36 625.991 570.265 626.936 570.454 627.881C570.643 628.826 571.097 629.723 571.796 630.593C572.505 631.462 573.298 632.085 574.177 632.454C575.056 632.822 575.991 632.908 576.983 632.7C577.975 632.492 579.015 631.953 580.092 631.074L583.834 628.032L566.174 606.319L571.721 601.802V601.793Z" fill="#6763FF"/>
<path d="M549.158 660.763L545.842 655.887L558.493 647.289L542.78 624.186L548.695 620.161L567.724 648.139L549.158 660.763Z" fill="#6763FF"/>
<path d="M543.253 664.514L537.007 667.962L526.718 649.339L526.472 649.471L523.968 675.172L518.488 678.205L502.123 648.592L508.387 645.134L518.686 663.777L518.904 663.654L521.474 637.906L526.897 634.911L543.262 664.523L543.253 664.514Z" fill="#6763FF"/>
<path d="M473.654 661.008L480.212 658.192L491.238 683.912L495.669 682.013C496.935 681.474 497.909 680.832 498.58 680.104C499.26 679.376 499.647 678.573 499.761 677.685C499.874 676.797 499.704 675.843 499.26 674.803C498.825 673.783 498.249 673.017 497.54 672.507C496.832 671.997 495.991 671.751 495.008 671.761C494.035 671.77 492.91 672.044 491.663 672.583L484.53 675.644L482.262 670.362L490.463 666.847C492.844 665.827 495.046 665.354 497.077 665.411C499.109 665.468 500.885 666.054 502.416 667.159C503.946 668.265 505.146 669.843 506.034 671.912C506.913 673.962 507.244 675.947 507.027 677.846C506.809 679.745 506.044 681.465 504.731 683.014C503.427 684.564 501.594 685.839 499.25 686.85L486.996 692.104L473.664 661.008H473.654ZM496.501 667.962L489.414 671.005L490.907 653.61L498.164 650.501L496.501 667.962Z" fill="#6763FF"/>
<path d="M462.43 676.778L455.58 678.706C454.937 676.873 453.954 675.635 452.641 674.983C451.328 674.331 449.636 674.303 447.586 674.879C445.914 675.352 444.695 676.117 443.93 677.185C443.164 678.252 442.777 679.575 442.758 681.181C442.739 682.788 443.023 684.621 443.608 686.681L444.355 689.317C444.95 691.452 445.706 693.181 446.613 694.504C447.52 695.836 448.578 696.734 449.797 697.207C451.016 697.679 452.395 697.688 453.954 697.254C455.495 696.819 456.647 696.243 457.413 695.525C458.187 694.807 458.65 693.956 458.82 692.973C458.991 691.991 458.953 690.876 458.707 689.629L465.557 687.701C465.945 689.903 465.879 692.01 465.34 694.022C464.801 696.035 463.724 697.811 462.118 699.351C460.512 700.892 458.31 702.054 455.523 702.838C452.754 703.622 450.175 703.66 447.785 702.97C445.394 702.281 443.315 700.939 441.549 698.945C439.782 696.951 438.459 694.372 437.571 691.207L436.824 688.57C435.936 685.414 435.709 682.533 436.153 679.934C436.598 677.336 437.646 675.125 439.328 673.311C441.001 671.496 443.24 670.192 446.056 669.399C448.739 668.643 451.167 668.463 453.35 668.86C455.532 669.257 457.403 670.136 458.953 671.506C460.502 672.876 461.674 674.633 462.449 676.778H462.43ZM440.944 691.481L439.385 685.962L453.425 682.003L454.984 687.522L440.944 691.481Z" fill="#6763FF"/>
<path d="M428.264 674.671L434.075 708.006L427.026 709.235L424.627 695.477L410.321 697.972L412.721 711.72L405.692 712.948L399.881 679.613L406.911 678.384L409.311 692.151L423.616 689.657L421.216 675.89L428.264 674.662V674.671Z" fill="#6763FF"/>
<path d="M394.76 680.114L397.387 713.846L374.653 715.613L374.2 709.735L389.799 708.526L389.176 700.485L374.748 701.609L374.294 695.732L388.722 694.608L388.099 686.558L372.433 687.777L371.979 681.899L394.779 680.123L394.76 680.114Z" fill="#6763FF"/>
<path d="M367.094 682.164L366.546 716L353.195 715.783C350.625 715.745 348.452 715.216 346.657 714.214C344.862 713.213 343.51 711.842 342.584 710.104C341.658 708.365 341.214 706.372 341.252 704.123C341.29 701.874 341.8 699.899 342.802 698.198C343.794 696.498 345.221 695.184 347.072 694.249C348.924 693.313 351.145 692.879 353.743 692.917L362.247 693.058L362.152 698.794L354.801 698.671C353.422 698.652 352.288 698.869 351.381 699.332C350.474 699.795 349.794 700.447 349.331 701.298C348.868 702.139 348.632 703.121 348.613 704.236C348.594 705.361 348.802 706.343 349.236 707.194C349.671 708.044 350.332 708.705 351.23 709.197C352.127 709.679 353.271 709.934 354.65 709.953L359.478 710.028L359.932 682.041L367.084 682.154L367.094 682.164Z" fill="#6763FF"/>
<path d="M312.057 713.09L312.614 707.222L327.845 708.668L330.481 680.851L337.605 681.521L334.412 715.206L312.057 713.09Z" fill="#6763FF"/>
<path d="M305.121 712.211L298.111 710.888L302.06 689.978L301.786 689.931L283.465 708.129L277.314 706.967L283.598 673.717L290.627 675.049L286.668 695.978L286.914 696.025L305.32 677.827L311.405 678.98L305.121 712.23V712.211Z" fill="#6763FF"/>
<path d="M253.731 665.109L260.581 667.131L252.663 693.975L257.293 695.336C258.616 695.723 259.769 695.855 260.751 695.732C261.734 695.6 262.556 695.232 263.208 694.627C263.86 694.022 264.342 693.172 264.663 692.095C264.975 691.027 265.022 690.073 264.805 689.222C264.588 688.372 264.096 687.644 263.331 687.03C262.575 686.416 261.536 685.915 260.222 685.528L252.777 683.326L254.402 677.808L262.962 680.331C265.447 681.068 267.45 682.098 268.972 683.449C270.493 684.791 271.494 686.378 271.967 688.202C272.439 690.025 272.364 692.01 271.721 694.164C271.088 696.309 270.077 698.038 268.698 699.361C267.318 700.684 265.627 701.525 263.633 701.884C261.64 702.243 259.419 702.063 256.963 701.336L244.179 697.565L253.75 665.109H253.731ZM266.884 685.046L259.485 682.863L271.731 670.419L279.308 672.659L266.884 685.046Z" fill="#6763FF"/>
<path d="M235.051 670.098L228.541 667.216C229.212 665.392 229.25 663.814 228.655 662.473C228.059 661.131 226.774 660.035 224.828 659.166C223.241 658.457 221.804 658.268 220.538 658.599C219.272 658.929 218.119 659.704 217.08 660.923C216.041 662.142 215.086 663.739 214.217 665.704L213.102 668.208C212.205 670.23 211.685 672.044 211.534 673.651C211.383 675.257 211.628 676.627 212.261 677.761C212.894 678.895 213.953 679.792 215.436 680.454C216.901 681.096 218.157 681.389 219.206 681.332C220.255 681.266 221.162 680.917 221.918 680.265C222.674 679.622 223.354 678.734 223.959 677.619L230.469 680.501C229.363 682.447 227.965 684.016 226.264 685.225C224.563 686.435 222.608 687.115 220.387 687.276C218.167 687.436 215.729 686.926 213.083 685.754C210.457 684.592 208.444 682.977 207.036 680.926C205.638 678.876 204.892 676.513 204.806 673.849C204.721 671.184 205.345 668.35 206.677 665.354L207.792 662.851C209.124 659.846 210.787 657.493 212.79 655.764C214.794 654.044 217.014 653.014 219.461 652.684C221.908 652.353 224.469 652.778 227.133 653.959C229.684 655.093 231.669 656.501 233.095 658.202C234.522 659.903 235.401 661.773 235.722 663.814C236.043 665.855 235.826 667.953 235.051 670.107V670.098ZM209.124 667.707L211.449 662.463L224.781 668.378L222.456 673.622L209.124 667.707Z" fill="#6763FF"/>
<path d="M210.079 646.665L193.298 676.041L187.09 672.488L194.016 660.366L181.402 653.166L174.477 665.288L168.278 661.745L185.059 632.369L191.257 635.912L184.322 648.044L196.936 655.244L203.871 643.112L210.079 646.655V646.665Z" fill="#6763FF"/>
<path d="M180.789 629.487L161.287 657.144L142.654 644L146.056 639.181L158.84 648.196L163.488 641.61L151.659 633.267L155.06 628.448L166.89 636.791L171.548 630.186L158.707 621.134L162.109 616.315L180.798 629.487H180.789Z" fill="#6763FF"/>
<path d="M158.178 613.301L136.323 639.134L126.128 630.517C124.172 628.863 122.812 627.078 122.065 625.169C121.319 623.26 121.13 621.333 121.517 619.405C121.905 617.478 122.821 615.654 124.276 613.934C125.731 612.215 127.375 611.015 129.227 610.334C131.079 609.645 133.007 609.531 135.029 609.985C137.051 610.438 139.044 611.506 141.038 613.178L147.539 618.678L143.835 623.052L138.222 618.3C137.173 617.411 136.144 616.863 135.152 616.646C134.159 616.429 133.215 616.504 132.317 616.873C131.429 617.232 130.616 617.846 129.898 618.696C129.171 619.556 128.708 620.445 128.5 621.38C128.301 622.315 128.386 623.251 128.774 624.186C129.161 625.131 129.889 626.048 130.947 626.945L134.632 630.063L152.707 608.7L158.168 613.32L158.178 613.301Z" fill="#6763FF"/>
<path d="M96.0729 602.038L100.249 597.881L111.039 608.718L130.834 589.008L135.88 594.082L111.899 617.959L96.0635 602.048L96.0729 602.038Z" fill="#6763FF"/>
<path d="M91.311 596.945L86.7568 591.446L103.15 577.878L102.971 577.66L77.2516 579.966L73.2549 575.147L99.3139 553.575L103.878 559.084L87.4749 572.662L87.6355 572.851L113.421 570.602L117.37 575.374L91.311 596.945Z" fill="#6763FF"/>
<path d="M81.8151 527.903L85.8023 533.828L62.5873 549.456L65.2801 553.462C66.0455 554.605 66.858 555.437 67.699 555.966C68.5399 556.495 69.4091 556.731 70.2973 556.675C71.1855 556.618 72.102 556.278 73.0374 555.654C73.9633 555.031 74.6058 554.322 74.9743 553.528C75.3428 552.735 75.4279 551.856 75.2389 550.902C75.0499 549.947 74.568 548.898 73.8027 547.765L69.4658 541.321L74.2373 538.108L79.2167 545.506C80.6623 547.651 81.541 549.73 81.8528 551.733C82.1647 553.736 81.9284 555.598 81.1253 557.298C80.3316 558.999 78.9994 560.483 77.138 561.739C75.2861 562.987 73.4059 563.676 71.4973 563.818C69.5887 563.95 67.7556 563.525 65.9888 562.524C64.2219 561.531 62.6251 559.972 61.1984 557.846L53.7529 546.782L81.8245 527.894L81.8151 527.903ZM79.2356 551.648L74.9271 545.251L92.2935 543.475L96.7059 550.023L79.2356 551.639V551.648Z" fill="#6763FF"/>
<path d="M64.2406 519.834L61.0659 513.465C62.7477 512.492 63.7871 511.302 64.1744 509.884C64.5618 508.467 64.2878 506.804 63.3335 504.895C62.5587 503.336 61.5761 502.288 60.3856 501.73C59.1951 501.173 57.8156 501.04 56.2377 501.324C54.6598 501.607 52.9118 502.231 50.9938 503.185L48.5371 504.414C46.5529 505.406 44.9939 506.464 43.8601 507.607C42.7263 508.75 42.0365 509.96 41.8003 511.236C41.5641 512.511 41.8003 513.881 42.5279 515.327C43.2365 516.754 44.0207 517.784 44.8711 518.398C45.7215 519.012 46.6474 519.324 47.6395 519.305C48.6316 519.286 49.7182 519.04 50.8993 518.568L54.074 524.936C51.9858 525.73 49.8977 526.051 47.8285 525.9C45.7498 525.749 43.8129 525.031 41.9988 523.736C40.1846 522.442 38.6351 520.505 37.3406 517.906C36.0556 515.336 35.5265 512.813 35.7627 510.328C35.9989 507.843 36.9249 505.557 38.5595 503.45C40.1941 501.343 42.4806 499.557 45.4097 498.092L47.8663 496.864C50.8048 495.399 53.5921 494.643 56.2282 494.587C58.8644 494.53 61.236 495.154 63.3335 496.467C65.4311 497.771 67.1318 499.727 68.4357 502.344C69.6829 504.839 70.3065 507.191 70.3254 509.412C70.3443 511.632 69.8247 513.626 68.7759 515.412C67.7271 517.198 66.2153 518.662 64.25 519.834H64.2406ZM45.7782 501.484L50.9087 498.924L57.4187 511.982L52.2882 514.543L45.7782 501.484Z" fill="#6763FF"/>
<path d="M59.9038 485.856L28.2513 497.799L25.7285 491.11L38.7864 486.177L33.6558 472.59L20.598 477.522L18.0752 470.842L49.7278 458.899L52.2505 465.579L39.1738 470.511L44.3043 484.099L57.3811 479.166L59.9038 485.856Z" fill="#6763FF"/>
<path d="M48.3014 453.985L15.6473 462.848L9.67578 440.842L15.3638 439.302L19.4645 454.401L27.2406 452.284L23.4517 438.319L29.1397 436.779L32.9286 450.744L40.7236 448.628L36.6135 433.463L42.3015 431.922L48.2919 453.995L48.3014 453.985Z" fill="#6763FF"/>
<path d="M41.2047 427.085L7.88915 433.009L5.55536 419.866C5.10183 417.343 5.20576 415.104 5.84826 413.148C6.49076 411.192 7.57734 409.605 9.10801 408.367C10.6387 407.129 12.5095 406.307 14.7204 405.92C16.9314 405.523 18.9723 405.655 20.8336 406.307C22.695 406.959 24.254 408.102 25.5201 409.746C26.7862 411.381 27.646 413.479 28.0995 416.039L29.5924 424.42L23.9516 425.422L22.6666 418.184C22.421 416.833 21.9864 415.756 21.3627 414.953C20.7297 414.149 19.9644 413.611 19.0384 413.318C18.1219 413.025 17.1109 412.978 16.0149 413.176C14.9094 413.375 13.9834 413.762 13.2276 414.348C12.4811 414.934 11.952 415.718 11.6497 416.682C11.3473 417.655 11.319 418.817 11.5646 420.187L12.4055 424.94L39.9575 420.036L41.2141 427.075L41.2047 427.085Z" fill="#6763FF"/>
<path d="M0.624023 378.754L6.50101 378.225L7.88049 393.457L35.7064 390.943L36.3489 398.068L2.64601 401.11L0.624023 378.745V378.754Z" fill="#6763FF"/>
<path d="M0 371.299L0.113382 364.165L21.3915 364.515V364.231L0.359044 349.265L0.462978 343L34.2982 343.548L34.1848 350.701L12.8878 350.351V350.597L33.9391 365.649L33.8352 371.847L0 371.299Z" fill="#6763FF"/>
<path d="M36.9622 312.594L36.2536 319.699L8.40879 316.921L7.92692 321.721C7.79464 323.091 7.87968 324.244 8.19148 325.189C8.50328 326.134 9.0135 326.871 9.74104 327.391C10.4591 327.92 11.3851 328.232 12.5 328.345C13.6055 328.458 14.5503 328.326 15.344 327.948C16.1377 327.57 16.7613 326.956 17.2243 326.096C17.6872 325.236 17.9896 324.121 18.1219 322.77L18.8872 315.041L24.613 315.608L23.7249 324.49C23.4697 327.069 22.8178 329.224 21.7879 330.972C20.7486 332.72 19.3785 333.995 17.6778 334.798C15.9771 335.602 14.0118 335.895 11.7725 335.668C9.54262 335.441 7.65291 334.78 6.10335 333.665C4.55379 332.55 3.41052 331.047 2.68299 329.158C1.95545 327.268 1.71924 325.047 1.97435 322.506L3.29714 309.24L36.9622 312.594ZM19.8226 329.233L20.5879 321.561L35.0914 331.274L34.3072 339.135L19.8226 329.243V329.233Z" fill="#6763FF"/>
<path d="M28.5722 295.151L30.1879 288.216C32.106 288.537 33.665 288.282 34.865 287.441C36.0649 286.6 36.9153 285.145 37.3972 283.057C37.794 281.366 37.709 279.92 37.1515 278.739C36.594 277.558 35.6114 276.575 34.2225 275.781C32.8335 274.988 31.0856 274.355 28.9974 273.863L26.3235 273.24C24.1692 272.739 22.289 272.559 20.6827 272.711C19.0765 272.862 17.782 273.353 16.7805 274.194C15.7789 275.026 15.0986 276.235 14.7302 277.813C14.3711 279.372 14.3144 280.657 14.5695 281.677C14.8246 282.698 15.3443 283.52 16.1191 284.144C16.8939 284.767 17.886 285.268 19.1048 285.655L17.4891 292.591C15.3727 291.873 13.568 290.786 12.0657 289.35C10.5634 287.904 9.52401 286.109 8.9571 283.955C8.38074 281.8 8.42798 279.315 9.08938 276.5C9.74133 273.703 10.9507 271.416 12.7082 269.659C14.4656 267.901 16.6482 266.73 19.2465 266.144C21.8449 265.567 24.7456 265.643 27.9392 266.389L30.6131 267.013C33.8067 267.759 36.4429 268.95 38.5026 270.594C40.5719 272.238 41.9892 274.232 42.7734 276.575C43.5576 278.918 43.6143 281.507 42.9529 284.352C42.3199 287.063 41.2994 289.284 39.901 291.003C38.5026 292.723 36.8303 293.933 34.8839 294.632C32.9375 295.331 30.8399 295.501 28.5817 295.142L28.5722 295.151ZM26.0684 269.243L31.6525 270.547L28.336 284.758L22.752 283.454L26.0684 269.243Z" fill="#6763FF"/>
<path d="M46.9029 266.257L14.9102 255.249L17.2345 248.484L30.4341 253.019L35.1584 239.29L21.9588 234.755L24.2831 228.009L56.2758 239.016L53.9515 245.763L40.733 241.218L36.0087 254.947L49.2272 259.492L46.9029 266.257Z" fill="#6763FF"/>
<path d="M58.326 234.264L27.5332 220.251L36.9817 199.501L42.3485 201.949L35.8668 216.188L43.2083 219.523L49.1987 206.352L54.5654 208.799L48.5656 221.971L55.9166 225.316L62.4266 211.02L67.7934 213.467L58.326 234.282V234.264Z" fill="#6763FF"/>
<path d="M70.0041 209.073L40.5625 192.387L47.1481 180.774C48.4142 178.544 49.9165 176.881 51.6551 175.785C53.3936 174.689 55.2455 174.16 57.2203 174.179C59.1856 174.198 61.1508 174.765 63.1067 175.87C65.0625 176.976 66.546 178.374 67.5664 180.065C68.5868 181.757 69.0593 183.637 68.9837 185.706C68.9081 187.775 68.2372 189.939 66.9522 192.198L62.7571 199.596L57.7683 196.771L61.3965 190.374C62.0768 189.174 62.4264 188.068 62.4547 187.048C62.4831 186.027 62.228 185.12 61.7083 184.308C61.1886 183.495 60.4422 182.824 59.469 182.267C58.4958 181.709 57.5226 181.426 56.5778 181.398C55.6329 181.369 54.7258 181.634 53.866 182.191C53.0062 182.749 52.2409 183.627 51.5606 184.837L49.1796 189.032L73.5284 202.827L70.0041 209.054V209.073Z" fill="#6763FF"/>
<path d="M69.5794 145.936L74.4454 149.272L65.7811 161.886L88.8166 177.703L84.7631 183.599L56.8711 164.446L69.5794 145.936Z" fill="#6763FF"/>
<path d="M73.6982 140.324L78.2619 134.834L94.6267 148.44L94.8063 148.223L87.786 123.373L91.7922 118.554L117.813 140.182L113.24 145.681L96.866 132.065L96.7054 132.254L103.678 157.18L99.7195 161.942L73.6982 140.314V140.324Z" fill="#6763FF"/>
<path d="M139.819 118.214L134.736 123.221L115.083 103.294L111.644 106.677C110.661 107.64 109.99 108.585 109.622 109.511C109.253 110.437 109.187 111.335 109.405 112.195C109.622 113.055 110.132 113.895 110.916 114.689C111.701 115.483 112.513 115.984 113.354 116.201C114.204 116.418 115.083 116.343 115.981 115.974C116.888 115.606 117.823 114.944 118.796 113.98L124.324 108.529L128.358 112.62L122.009 118.884C120.166 120.699 118.286 121.946 116.378 122.626C114.469 123.306 112.598 123.41 110.775 122.938C108.951 122.465 107.25 121.436 105.672 119.839C104.104 118.251 103.074 116.522 102.592 114.68C102.11 112.837 102.186 110.947 102.838 109.029C103.49 107.111 104.728 105.25 106.542 103.455L116.037 94.0908L139.791 118.185L139.819 118.214ZM116.009 120.066L121.499 114.651L126.45 131.395L120.828 136.941L116.009 120.075V120.066Z" fill="#6763FF"/>
</g>
<defs>
<clipPath id="clip0_752_60">
<rect width="716" height="716" fill="white"/>
</clipPath>
</defs>
</svg>
