<svg width="534" height="112" viewBox="0 0 534 112" fill="none" xmlns="http://www.w3.org/2000/svg">
<rect x="1.5" y="1.5" width="531" height="109" rx="13.5" fill="#6F6CFF" stroke="black" stroke-width="3"/>
<path d="M157.023 56.08V53.12H161.543C162.317 53.12 162.97 53 163.503 52.76C164.063 52.52 164.49 52.1867 164.783 51.76C165.077 51.3067 165.223 50.76 165.223 50.12C165.223 49.16 164.903 48.44 164.263 47.96C163.623 47.48 162.717 47.24 161.543 47.24H158.743V64.76H162.183C163.063 64.76 163.85 64.6533 164.543 64.44C165.237 64.2 165.783 63.8267 166.183 63.32C166.61 62.7867 166.823 62.0667 166.823 61.16C166.823 60.5733 166.703 60.0667 166.463 59.64C166.223 59.2133 165.89 58.8667 165.463 58.6C165.037 58.3333 164.543 58.1467 163.983 58.04C163.45 57.9067 162.85 57.84 162.183 57.84H157.023V54.16H162.943C164.303 54.16 165.623 54.3067 166.903 54.6C168.183 54.8933 169.343 55.3733 170.383 56.04C171.423 56.68 172.25 57.5067 172.863 58.52C173.503 59.5067 173.823 60.7067 173.823 62.12C173.823 63.9867 173.37 65.4933 172.463 66.64C171.583 67.7867 170.33 68.64 168.703 69.2C167.077 69.7333 165.157 70 162.943 70H151.983V42H162.263C164.21 42 165.917 42.2667 167.383 42.8C168.877 43.3067 170.05 44.0933 170.903 45.16C171.783 46.2 172.223 47.52 172.223 49.12C172.223 50.5867 171.783 51.84 170.903 52.88C170.05 53.92 168.877 54.72 167.383 55.28C165.917 55.8133 164.21 56.08 162.263 56.08H157.023ZM190.538 42H197.538V70H190.538V42ZM207.058 42H214.978L203.618 55.12L215.578 70H207.378L195.578 55.32L207.058 42ZM222.075 56C222.075 57.6533 222.395 59.12 223.035 60.4C223.701 61.6533 224.621 62.64 225.795 63.36C226.995 64.08 228.395 64.44 229.995 64.44C231.568 64.44 232.941 64.08 234.115 63.36C235.315 62.64 236.235 61.6533 236.875 60.4C237.541 59.12 237.875 57.6533 237.875 56C237.875 54.3467 237.555 52.8933 236.915 51.64C236.275 50.36 235.368 49.36 234.195 48.64C233.021 47.92 231.621 47.56 229.995 47.56C228.395 47.56 226.995 47.92 225.795 48.64C224.621 49.36 223.701 50.36 223.035 51.64C222.395 52.8933 222.075 54.3467 222.075 56ZM214.915 56C214.915 53.84 215.288 51.8667 216.035 50.08C216.808 48.2933 217.875 46.7467 219.235 45.44C220.595 44.1333 222.195 43.1333 224.035 42.44C225.875 41.72 227.861 41.36 229.995 41.36C232.155 41.36 234.141 41.72 235.955 42.44C237.795 43.1333 239.395 44.1333 240.755 45.44C242.115 46.7467 243.168 48.2933 243.915 50.08C244.661 51.8667 245.035 53.84 245.035 56C245.035 58.16 244.661 60.1467 243.915 61.96C243.195 63.7733 242.155 65.3467 240.795 66.68C239.461 68.0133 237.875 69.0533 236.035 69.8C234.195 70.52 232.181 70.88 229.995 70.88C227.781 70.88 225.755 70.52 223.915 69.8C222.075 69.0533 220.475 68.0133 219.115 66.68C217.781 65.3467 216.741 63.7733 215.995 61.96C215.275 60.1467 214.915 58.16 214.915 56ZM249.366 42H256.126V70H249.366V42ZM253.606 47.56V42H259.086C261.46 42 263.446 42.3733 265.046 43.12C266.673 43.84 267.9 44.88 268.726 46.24C269.553 47.6 269.966 49.24 269.966 51.16C269.966 53.0267 269.553 54.6533 268.726 56.04C267.9 57.4 266.673 58.4533 265.046 59.2C263.446 59.92 261.46 60.28 259.086 60.28H253.606V54.72H259.086C260.446 54.72 261.513 54.4133 262.286 53.8C263.06 53.1867 263.446 52.3067 263.446 51.16C263.446 49.9867 263.06 49.0933 262.286 48.48C261.513 47.8667 260.446 47.56 259.086 47.56H253.606ZM283.528 56.44V53.4C284.835 53.4 285.915 53.2533 286.768 52.96C287.648 52.6667 288.301 52.2533 288.728 51.72C289.181 51.1867 289.408 50.5867 289.408 49.92C289.408 49.3067 289.248 48.7733 288.928 48.32C288.608 47.8667 288.141 47.52 287.528 47.28C286.915 47.0133 286.155 46.88 285.248 46.88C284.315 46.88 283.501 47.0267 282.808 47.32C282.115 47.5867 281.581 47.9733 281.208 48.48C280.835 48.96 280.648 49.5333 280.648 50.2H274.448C274.448 48.5467 274.861 47.0667 275.688 45.76C276.515 44.4267 277.728 43.3867 279.328 42.64C280.955 41.8667 282.941 41.48 285.288 41.48C287.635 41.48 289.608 41.8267 291.208 42.52C292.808 43.2133 294.021 44.1467 294.848 45.32C295.675 46.4933 296.088 47.8 296.088 49.24C296.088 50.44 295.755 51.4933 295.088 52.4C294.448 53.3067 293.555 54.0667 292.408 54.68C291.261 55.2667 289.928 55.7067 288.408 56C286.888 56.2933 285.261 56.44 283.528 56.44ZM285.448 70.64C283.341 70.64 281.515 70.3867 279.968 69.88C278.448 69.3733 277.181 68.6667 276.168 67.76C275.181 66.8533 274.448 65.8267 273.968 64.68C273.488 63.5333 273.248 62.3467 273.248 61.12H279.888C279.941 62.0267 280.195 62.7867 280.648 63.4C281.101 64.0133 281.728 64.4667 282.528 64.76C283.328 65.0533 284.221 65.2 285.208 65.2C286.728 65.2 287.941 64.92 288.848 64.36C289.755 63.8 290.208 62.92 290.208 61.72C290.208 60.92 289.968 60.2267 289.488 59.64C289.008 59.0533 288.275 58.6 287.288 58.28C286.328 57.9333 285.075 57.76 283.528 57.76V54.32C286.088 54.32 288.368 54.6 290.368 55.16C292.395 55.6933 293.981 56.56 295.128 57.76C296.301 58.9333 296.888 60.4667 296.888 62.36C296.888 63.9867 296.461 65.4267 295.608 66.68C294.755 67.9067 293.475 68.88 291.768 69.6C290.088 70.2933 287.981 70.64 285.448 70.64ZM326.647 49.04L301.007 71.4L301.207 62.96L326.847 40.6L326.647 49.04ZM307.487 42V64.76L301.007 71.4V42H307.487ZM326.847 40.6V70H320.327V47.48L326.847 40.6ZM334.645 58.28V52.2H355.845V58.28H334.645ZM351.565 42H358.325V70H351.565V42ZM332.765 42H339.525V70H332.765V42ZM386.33 42L373.17 70H366.25L370.05 61.48L360.89 42H368.45L374.77 58.68L371.85 58.64L379.29 42H386.33Z" fill="white"/>
</svg>
